<svg
	xmlns="http://www.w3.org/2000/svg"
	width="338.93"
	height="183.85">
<g><style type="text/css" >
<!-- create color definitions -->
<![CDATA[
circle.red {stroke: rgb(255, 0, 255); fill: none; }
circle.green {stroke: rgb(0, 255, 0); fill: none; }
circle.blue {stroke: rgb(0, 0, 255); fill: none; }
circle.black {stroke: rgb(0, 0, 0); fill: none; }
circle.gray {stroke: rgb(204, 204, 204); fill: none; }
circle.brown {stroke: rgb(211.65, 104.55, 30.6); fill: none; }
line.red {stroke: rgb(255, 0, 255); stroke-width: 0.382353; }
line.green {stroke: rgb(0, 255, 0); stroke-width: 0.382353; }
line.blue {stroke: rgb(0, 0, 255); stroke-width: 0.382353; }
line.black {stroke: rgb(0, 0, 0); stroke-width: 0.382353; }
line.gray {stroke: rgb(204, 204, 204); stroke-width: 0.382353; }
line.brown {stroke: rgb(211.65, 104.55, 30.6); stroke-width: 0.382353; }
line {stroke: rgb(0, 0, 0); }
text.red {fill: rgb(255, 0, 255); font-size: 7.058825px; font-weight: bold; font-family: Helvetica; }
text.green {fill: rgb(0, 255, 0); font-size: 7.058825px; font-weight: bold; font-family: Helvetica; }
text.blue {fill: rgb(0, 0, 255); font-size: 7.058825px; font-weight: bold; font-family: Helvetica; }
text.black {fill: rgb(0, 0, 0); font-size: 7.058825px; font-weight: bold; font-family: Helvetica; }
text.gray {fill: rgb(204, 204, 204); font-size: 7.058825px; font-weight: bold; font-family: Helvetica; }
text.brown {fill: rgb(211.65, 104.55, 30.6); font-size: 7.058825px; font-weight: bold; font-family: Helvetica; }
text {fill: rgb(0, 0, 0); font-size: 7.058825px; font-weight: bold; font-family: Helvetica; text-anchor: middle; alignment-baseline: middle; }

.pseudoknot_connection{stroke-linecap: round; stroke-opacity: 0.2; stroke-width: 1.5; }
.pseudoknot_segment1{stroke-linecap: round; stroke-opacity: 0.4; stroke-width: 3.05882; }
.pseudoknot_segment2{stroke-linecap: round; stroke-opacity: 0.4; stroke-width: 3.05882; }
line.numbering-line{stroke: rgb(204, 204, 204); stroke-width: 0.191177; }
line.predicted{stroke: rgb(0, 0, 0); stroke-dasharray: 2; }
polyline{fill: none; stroke-linejoin: round; }
template{visibility: hidden; }
text.numbering-label{fill: rgb(204, 204, 204); }
]]>
</style></g>
<g><title>0 (position.label in template: 0.5')</title><text x="143.06" y="133.85" class="green" >5'</text></g>
<g><title>1 (position.label in template: 1.G)</title><text x="150.06" y="133.85" class="black" >G</text></g>
<g><line x1="152.099" y1="133.544" x2="160.471" y2="133.544" class="black" /></g>
<g><title>2 (position.label in template: 2.G)</title><text x="150.06" y="126.3" class="black" >G</text></g>
<g><line x1="152.099" y1="125.994" x2="160.471" y2="125.994" class="black" /></g>
<g><title>3 (position.label in template: 3.U)</title><text x="150.27" y="118.73" class="black" >U</text></g>
<g><line x1="152.309" y1="118.424" x2="160.681" y2="118.424" class="black" /></g>
<g><title>4 (position.label in template: 4.A)</title><text x="150.48" y="111.17" class="black" >A</text></g>
<g><line x1="152.519" y1="110.864" x2="160.471" y2="110.864" class="black" /></g>
<g><title>5 (position.label in template: 5.A)</title><text x="150.48" y="103.61" class="black" >A</text></g>
<g><line x1="152.519" y1="103.304" x2="160.471" y2="103.304" class="black" /></g>
<g><title>6 (position.label in template: 6.A)</title><text x="147.38" y="96.72" class="black" >A</text></g>
<g><title>7 (position.label in template: 7.A)</title><text x="150.48" y="89.82" class="black" >A</text></g>
<g><line x1="152.519" y1="89.5141" x2="160.471" y2="89.5141" class="black" /></g>
<g><title>8 (position.label in template: 8.C)</title><text x="150.27" y="82.26" class="black" >C</text></g>
<g><line x1="152.309" y1="81.9541" x2="160.261" y2="81.9541" class="black" /></g>
<g><title>9 (position.label in template: 9.A)</title><text x="144.22" y="78.02" class="black" >A</text></g>
<g><title>10 (position.label in template: 10.G)</title><text x="140.03" y="71.47" class="black" >G</text></g>
<g><line x1="140.211" y1="69.133" x2="140.939" y2="60.9853" class="black" /></g>
<g><text x="136.423" y="77.3312" class="numbering-label sequential" >10</text></g>
<g><line x1="139.068" y1="73.033" x2="137.364" y2="75.8018" class="numbering-line sequential" /></g>
<g><title>11 (position.label in template: 11.C)</title><text x="132.7" y="70.93" class="black" >C</text></g>
<g><line x1="132.812" y1="68.588" x2="133.258" y2="60.4503" class="black" /></g>
<g><title>12 (position.label in template: 12.C)</title><text x="125.16" y="70.38" class="black" >C</text></g>
<g><line x1="125.272" y1="68.038" x2="125.718" y2="59.9003" class="black" /></g>
<g><title>13 (position.label in template: 13.U)</title><text x="117.62" y="69.83" class="black" >U</text></g>
<g><line x1="117.801" y1="67.493" x2="118.529" y2="59.3453" class="black" /></g>
<g><title>14 (position.label in template: 14.G)</title><text x="109.87" y="69.28" class="black" >G</text></g>
<g><line x1="110.051" y1="66.943" x2="110.779" y2="58.7953" class="black" /></g>
<g><title>15 (position.label in template: 15.U)</title><text x="102.53" y="68.74" class="black" >U</text></g>
<g><line x1="102.713" y1="66.4031" x2="103.447" y2="58.2551" class="black" /></g>
<g><title>16 (position.label in template: 16.G)</title><text x="95.22" y="71.33" class="black" >G</text></g>
<g><title>17 (position.label in template: 17.G)</title><text x="88.57" y="67.74" class="black" >G</text></g>
<g><line x1="88.753" y1="65.4031" x2="89.487" y2="57.2551" class="black" /></g>
<g><title>18 (position.label in template: 18.G)</title><text x="81.03" y="67.19" class="black" >G</text></g>
<g><line x1="81.213" y1="64.8531" x2="81.947" y2="56.7051" class="black" /></g>
<g><title>19 (position.label in template: 19.U)</title><text x="73.7" y="66.64" class="black" >U</text></g>
<g><line x1="73.8813" y1="64.303" x2="74.6087" y2="56.1553" class="black" /></g>
<g><title>20 (position.label in template: 20.G)</title><text x="65.95" y="66.09" class="black" >G</text></g>
<g><line x1="66.1331" y1="63.7531" x2="66.8669" y2="55.6151" class="black" /></g>
<g><text x="67.0699" y="72.8806" class="numbering-label sequential" >20</text></g>
<g><line x1="66.2486" y1="67.9008" x2="66.8177" y2="71.3512" class="numbering-line sequential" /></g>
<g><title>21 (position.label in template: 21.A)</title><text x="59.39" y="69" class="black" >A</text></g>
<g><title>22 (position.label in template: 22.A)</title><text x="52.49" y="65.91" class="black" >A</text></g>
<g><title>23 (position.label in template: 23.A)</title><text x="50" y="58.77" class="black" >A</text></g>
<g><title>24 (position.label in template: 24.C)</title><text x="53.28" y="52.06" class="black" >C</text></g>
<g><title>25 (position.label in template: 25.A)</title><text x="60.77" y="50" class="black" >A</text></g>
<g><title>26 (position.label in template: 26.C)</title><text x="67.05" y="53.89" class="black" >C</text></g>
<g><title>27 (position.label in template: 27.A)</title><text x="74.79" y="54.43" class="black" >A</text></g>
<g><title>28 (position.label in template: 28.C)</title><text x="82.13" y="54.98" class="black" >C</text></g>
<g><title>29 (position.label in template: 29.C)</title><text x="89.67" y="55.53" class="black" >C</text></g>
<g><title>30 (position.label in template: 30.C)</title><text x="96.77" y="52.94" class="black" >C</text></g>
<g><text x="97.2617" y="46.0752" class="numbering-label sequential" >30</text></g>
<g><line x1="96.9011" y1="51.1094" x2="97.1522" y2="47.6046" class="numbering-line sequential" /></g>
<g><title>31 (position.label in template: 31.A)</title><text x="103.63" y="56.53" class="black" >A</text></g>
<g><title>32 (position.label in template: 32.C)</title><text x="110.96" y="57.07" class="black" >C</text></g>
<g><title>33 (position.label in template: 33.A)</title><text x="118.71" y="57.62" class="black" >A</text></g>
<g><title>34 (position.label in template: 34.G)</title><text x="122.54" y="51.37" class="black" >G</text></g>
<g><title>35 (position.label in template: 35.G)</title><text x="125.83" y="58.17" class="black" >G</text></g>
<g><title>36 (position.label in template: 36.G)</title><text x="133.37" y="58.72" class="black" >G</text></g>
<g><title>37 (position.label in template: 37.C)</title><text x="141.12" y="59.26" class="black" >C</text></g>
<g><title>38 (position.label in template: 38.C)</title><text x="145.81" y="53.33" class="black" >C</text></g>
<g><title>39 (position.label in template: 39.C)</title><text x="152.61" y="50.04" class="black" >C</text></g>
<g><title>40 (position.label in template: 40.A)</title><text x="160.38" y="50.04" class="black" >A</text></g>
<g><title>41 (position.label in template: 41.U)</title><text x="166.98" y="53.33" class="black" >U</text></g>
<g><title>42 (position.label in template: 42.U)</title><text x="171.66" y="59.26" class="black" >U</text></g>
<g><title>43 (position.label in template: 43.G)</title><text x="173.08" y="66.65" class="black" >G</text></g>
<g><line x1="172.357" y1="68.2509" x2="169.493" y2="75.8073" class="black" /></g>
<g><title>44 (position.label in template: 44.G)</title><text x="180.11" y="69.44" class="black" >G</text></g>
<g><line x1="179.386" y1="71.0404" x2="176.514" y2="78.5979" class="black" /></g>
<g><title>45 (position.label in template: 45.G)</title><text x="187.13" y="72.24" class="black" >G</text></g>
<g><line x1="186.407" y1="73.8409" x2="183.543" y2="81.3973" class="black" /></g>
<g><title>46 (position.label in template: 46.C)</title><text x="194.37" y="75.03" class="black" >C</text></g>
<g><line x1="193.585" y1="76.6063" x2="190.415" y2="84.2119" class="black" /></g>
<g><title>47 (position.label in template: 47.G)</title><text x="201.18" y="77.83" class="black" >G</text></g>
<g><line x1="200.457" y1="79.4309" x2="197.593" y2="86.9873" class="black" /></g>
<g><title>48 (position.label in template: 48.C)</title><text x="208.41" y="80.62" class="black" >C</text></g>
<g><line x1="207.627" y1="82.1969" x2="204.463" y2="89.8013" class="black" /></g>
<g><title>49 (position.label in template: 49.U)</title><text x="215.44" y="83.41" class="black" >U</text></g>
<g><line x1="214.657" y1="84.9872" x2="211.493" y2="92.6011" class="black" /></g>
<g><title>50 (position.label in template: 50.A)</title><text x="222.67" y="86.21" class="black" >A</text></g>
<g><line x1="221.887" y1="87.7869" x2="218.723" y2="95.3913" class="black" /></g>
<g><text x="225.247" y="79.8285" class="numbering-label sequential" >50</text></g>
<g><line x1="223.357" y1="84.5083" x2="224.63" y2="81.3579" class="numbering-line sequential" /></g>
<g><title>51 (position.label in template: 51.G)</title><text x="229.28" y="89" class="black" >G</text></g>
<g><line x1="228.556" y1="90.6006" x2="225.684" y2="98.1676" class="black" /></g>
<g><title>52 (position.label in template: 52.C)</title><text x="236.51" y="91.8" class="black" >C</text></g>
<g><line x1="235.786" y1="93.4004" x2="232.914" y2="100.958" class="black" /></g>
<g><title>53 (position.label in template: 53.A)</title><text x="243.74" y="94.59" class="black" >A</text></g>
<g><line x1="242.957" y1="96.1672" x2="239.793" y2="103.781" class="black" /></g>
<g><title>54 (position.label in template: 54.C)</title><text x="250.56" y="97.39" class="black" >C</text></g>
<g><line x1="249.777" y1="98.9669" x2="246.613" y2="106.571" class="black" /></g>
<g><title>55 (position.label in template: 55.U)</title><text x="257.59" y="100.18" class="black" >U</text></g>
<g><line x1="256.805" y1="101.756" x2="253.635" y2="109.362" class="black" /></g>
<g><title>56 (position.label in template: 56.C)</title><text x="265.14" y="99.85" class="black" >C</text></g>
<g><title>57 (position.label in template: 57.U)</title><text x="270.4" y="105.28" class="black" >U</text></g>
<g><line x1="269.676" y1="106.88" x2="266.804" y2="114.438" class="black" /></g>
<g><title>58 (position.label in template: 58.G)</title><text x="277.22" y="108.07" class="black" >G</text></g>
<g><line x1="276.496" y1="109.671" x2="273.624" y2="117.238" class="black" /></g>
<g><title>59 (position.label in template: 59.G)</title><text x="284.75" y="108.73" class="black" >G</text></g>
<g><title>60 (position.label in template: 60.U)</title><text x="288.93" y="115.17" class="black" >U</text></g>
<g><title>61 (position.label in template: 61.A)</title><text x="286.34" y="122.19" class="black" >A</text></g>
<g><title>62 (position.label in template: 62.U)</title><text x="278.83" y="124.14" class="black" >U</text></g>
<g><title>63 (position.label in template: 63.C)</title><text x="272.9" y="119.45" class="black" >C</text></g>
<g><title>64 (position.label in template: 64.A)</title><text x="266.08" y="116.65" class="black" >A</text></g>
<g><title>65 (position.label in template: 65.C)</title><text x="258.32" y="116.98" class="black" >C</text></g>
<g><title>66 (position.label in template: 66.G)</title><text x="252.85" y="111.55" class="black" >G</text></g>
<g><title>67 (position.label in template: 67.G)</title><text x="245.83" y="108.76" class="black" >G</text></g>
<g><title>68 (position.label in template: 68.U)</title><text x="239.01" y="105.97" class="black" >U</text></g>
<g><title>69 (position.label in template: 69.A)</title><text x="232.19" y="103.17" class="black" >A</text></g>
<g><title>70 (position.label in template: 70.C)</title><text x="226.06" y="107.86" class="black" >C</text></g>
<g><title>71 (position.label in template: 71.C)</title><text x="224.96" y="100.38" class="black" >C</text></g>
<g><title>72 (position.label in template: 72.U)</title><text x="219.03" y="105.06" class="black" >U</text></g>
<g><title>73 (position.label in template: 73.U)</title><text x="217.94" y="97.58" class="black" >U</text></g>
<g><title>74 (position.label in template: 74.U)</title><text x="212.01" y="102.27" class="black" >U</text></g>
<g><title>75 (position.label in template: 75.G)</title><text x="210.71" y="94.79" class="black" >G</text></g>
<g><title>76 (position.label in template: 76.U)</title><text x="204.98" y="99.47" class="black" >U</text></g>
<g><title>77 (position.label in template: 77.G)</title><text x="203.68" y="91.99" class="black" >G</text></g>
<g><title>78 (position.label in template: 78.C)</title><text x="196.87" y="89.2" class="black" >C</text></g>
<g><title>79 (position.label in template: 79.G)</title><text x="189.63" y="86.4" class="black" >G</text></g>
<g><title>80 (position.label in template: 80.C)</title><text x="182.82" y="83.61" class="black" >C</text></g>
<g><title>81 (position.label in template: 81.C)</title><text x="175.79" y="80.81" class="black" >C</text></g>
<g><title>82 (position.label in template: 82.U)</title><text x="168.77" y="78.02" class="black" >U</text></g>
<g><title>83 (position.label in template: 83.G)</title><text x="162.3" y="82.26" class="black" >G</text></g>
<g><title>84 (position.label in template: 84.U)</title><text x="162.51" y="89.82" class="black" >U</text></g>
<g><title>85 (position.label in template: 85.U)</title><text x="165.61" y="96.72" class="black" >U</text></g>
<g><title>86 (position.label in template: 86.U)</title><text x="162.51" y="103.61" class="black" >U</text></g>
<g><title>87 (position.label in template: 87.U)</title><text x="162.51" y="111.17" class="black" >U</text></g>
<g><title>88 (position.label in template: 88.A)</title><text x="162.72" y="118.73" class="black" >A</text></g>
<g><title>89 (position.label in template: 89.C)</title><text x="162.51" y="126.3" class="black" >C</text></g>
<g><title>90 (position.label in template: 90.C)</title><text x="162.51" y="133.85" class="black" >C</text></g>
<g><title>91 (position.label in template: 91.3')</title><text x="169.51" y="133.85" class="green" >3'</text></g>
<g><line x1="145.099" y1="133.544" x2="148.021" y2="133.544" class="gray" /></g>
<g><line x1="150.06" y1="131.505" x2="150.06" y2="128.033" class="gray" /></g>
<g><line x1="150.117" y1="123.956" x2="150.213" y2="120.463" class="gray" /></g>
<g><line x1="150.327" y1="116.386" x2="150.423" y2="112.903" class="gray" /></g>
<g><line x1="150.48" y1="108.825" x2="150.48" y2="105.343" class="gray" /></g>
<g><line x1="149.643" y1="101.444" x2="148.217" y2="98.2738" class="gray" /></g>
<g><line x1="148.216" y1="94.554" x2="149.644" y2="91.3742" class="gray" /></g>
<g><line x1="150.423" y1="87.4757" x2="150.327" y2="83.9925" class="gray" /></g>
<g><line x1="148.6" y1="80.7838" x2="145.89" y2="78.8845" class="gray" /></g>
<g><line x1="143.121" y1="75.9963" x2="141.129" y2="72.8819" class="gray" /></g>
<g><line x1="137.996" y1="71.0143" x2="134.734" y2="70.7739" class="gray" /></g>
<g><line x1="130.666" y1="70.4758" x2="127.194" y2="70.2225" class="gray" /></g>
<g><line x1="123.126" y1="69.9258" x2="119.654" y2="69.6725" class="gray" /></g>
<g><line x1="115.586" y1="69.3798" x2="111.904" y2="69.1185" class="gray" /></g>
<g><line x1="107.836" y1="68.8245" x2="104.564" y2="68.5837" class="gray" /></g>
<g><line x1="100.608" y1="69.1151" x2="97.1421" y2="70.3431" class="gray" /></g>
<g><line x1="93.4256" y1="70.0554" x2="90.3644" y2="68.4028" class="gray" /></g>
<g><line x1="86.5362" y1="67.2858" x2="83.0638" y2="67.0325" class="gray" /></g>
<g><line x1="78.9965" y1="66.7315" x2="75.7335" y2="66.4867" class="gray" /></g>
<g><line x1="71.6659" y1="66.1898" x2="67.9841" y2="65.9285" class="gray" /></g>
<g><line x1="64.086" y1="66.611" x2="61.254" y2="67.8672" class="gray" /></g>
<g><line x1="57.5289" y1="67.8607" x2="54.3511" y2="66.4376" class="gray" /></g>
<g><line x1="51.8185" y1="63.6786" x2="50.6715" y2="60.3896" class="gray" /></g>
<g><line x1="50.8955" y1="56.6321" x2="52.3845" y2="53.5862" class="gray" /></g>
<g><line x1="55.2462" y1="51.2133" x2="58.8038" y2="50.2349" class="gray" /></g>
<g><line x1="62.5036" y1="50.7679" x2="65.3164" y2="52.5103" class="gray" /></g>
<g><line x1="69.0843" y1="53.726" x2="72.7557" y2="53.9822" class="gray" /></g>
<g><line x1="76.8235" y1="54.2765" x2="80.0965" y2="54.5217" class="gray" /></g>
<g><line x1="84.1638" y1="54.8225" x2="87.6362" y2="55.0758" class="gray" /></g>
<g><line x1="91.5857" y1="54.5253" x2="94.8543" y2="53.333" class="gray" /></g>
<g><line x1="98.5768" y1="53.5796" x2="101.823" y2="55.2786" class="gray" /></g>
<g><line x1="105.664" y1="56.3739" x2="108.926" y2="56.6143" class="gray" /></g>
<g><line x1="112.994" y1="56.9085" x2="116.676" y2="57.1698" class="gray" /></g>
<g><line x1="119.775" y1="55.5754" x2="121.475" y2="52.8028" class="gray" /></g>
<g><line x1="123.428" y1="52.8998" x2="124.942" y2="56.0285" class="gray" /></g>
<g><line x1="127.864" y1="58.0125" x2="131.336" y2="58.2658" class="gray" /></g>
<g><line x1="135.404" y1="58.5559" x2="139.086" y2="58.8124" class="gray" /></g>
<g><line x1="142.385" y1="57.3547" x2="144.545" y2="54.6236" class="gray" /></g>
<g><line x1="147.646" y1="52.136" x2="150.774" y2="50.6222" class="gray" /></g>
<g><line x1="154.649" y1="49.7341" x2="158.341" y2="49.7341" class="gray" /></g>
<g><line x1="162.205" y1="50.6439" x2="165.155" y2="52.1144" class="gray" /></g>
<g><line x1="168.243" y1="54.6249" x2="170.397" y2="57.3534" class="gray" /></g>
<g><line x1="172.045" y1="60.9567" x2="172.695" y2="64.3415" class="gray" /></g>
<g><line x1="174.975" y1="67.0963" x2="178.215" y2="68.3819" class="gray" /></g>
<g><line x1="182.004" y1="69.8896" x2="185.236" y2="71.1786" class="gray" /></g>
<g><line x1="189.033" y1="72.6674" x2="192.467" y2="73.9908" class="gray" /></g>
<g><line x1="196.256" y1="75.4996" x2="199.294" y2="76.7487" class="gray" /></g>
<g><line x1="203.082" y1="78.2583" x2="206.508" y2="79.58" class="gray" /></g>
<g><line x1="210.305" y1="81.0663" x2="213.545" y2="82.3519" class="gray" /></g>
<g><line x1="217.342" y1="83.8406" x2="220.768" y2="85.1677" class="gray" /></g>
<g><line x1="224.549" y1="86.6971" x2="227.401" y2="87.9011" class="gray" /></g>
<g><line x1="231.182" y1="89.4306" x2="234.608" y2="90.7577" class="gray" /></g>
<g><line x1="238.412" y1="92.2283" x2="241.838" y2="93.55" class="gray" /></g>
<g><line x1="245.626" y1="95.0586" x2="248.674" y2="96.3096" class="gray" /></g>
<g><line x1="252.455" y1="97.8363" x2="255.695" y2="99.1219" class="gray" /></g>
<g><line x1="259.627" y1="99.7851" x2="263.103" y2="99.6332" class="gray" /></g>
<g><line x1="266.559" y1="101.009" x2="268.981" y2="103.509" class="gray" /></g>
<g><line x1="272.287" y1="105.746" x2="275.333" y2="106.992" class="gray" /></g>
<g><line x1="279.251" y1="107.942" x2="282.719" y2="108.246" class="gray" /></g>
<g><line x1="285.86" y1="110.135" x2="287.82" y2="113.154" class="gray" /></g>
<g><line x1="288.224" y1="116.777" x2="287.046" y2="119.971" class="gray" /></g>
<g><line x1="284.366" y1="122.397" x2="280.804" y2="123.322" class="gray" /></g>
<g><line x1="277.231" y1="122.569" x2="274.499" y2="120.409" class="gray" /></g>
<g><line x1="271.014" y1="118.37" x2="267.966" y2="117.119" class="gray" /></g>
<g><line x1="264.043" y1="116.431" x2="260.357" y2="116.587" class="gray" /></g>
<g><line x1="256.873" y1="115.237" x2="254.297" y2="112.681" class="gray" /></g>
<g><line x1="250.955" y1="110.491" x2="247.725" y2="109.207" class="gray" /></g>
<g><line x1="243.943" y1="107.682" x2="240.897" y2="106.436" class="gray" /></g>
<g><line x1="237.124" y1="104.89" x2="234.076" y2="103.639" class="gray" /></g>
<g><line x1="230.57" y1="104.103" x2="227.68" y2="106.315" class="gray" /></g>
<g><line x1="225.763" y1="105.537" x2="225.257" y2="102.092" class="gray" /></g>
<g><line x1="223.359" y1="101.337" x2="220.631" y2="103.491" class="gray" /></g>
<g><line x1="218.736" y1="102.736" x2="218.234" y2="99.292" class="gray" /></g>
<g><line x1="216.341" y1="98.5391" x2="213.609" y2="100.699" class="gray" /></g>
<g><line x1="211.661" y1="99.955" x2="211.059" y2="96.4932" class="gray" /></g>
<g><line x1="209.131" y1="95.7741" x2="206.559" y2="97.8742" class="gray" /></g>
<g><line x1="204.631" y1="97.155" x2="204.029" y2="93.6932" class="gray" /></g>
<g><line x1="201.793" y1="90.911" x2="198.757" y2="89.6672" class="gray" /></g>
<g><line x1="194.968" y1="88.1586" x2="191.532" y2="86.8297" class="gray" /></g>
<g><line x1="187.743" y1="85.321" x2="184.707" y2="84.0772" class="gray" /></g>
<g><line x1="180.926" y1="82.5496" x2="177.684" y2="81.2587" class="gray" /></g>
<g><line x1="173.895" y1="79.751" x2="170.665" y2="78.4673" class="gray" /></g>
<g><line x1="167.064" y1="78.8319" x2="164.006" y2="80.8364" class="gray" /></g>
<g><line x1="162.357" y1="83.9925" x2="162.453" y2="87.4757" class="gray" /></g>
<g><line x1="163.346" y1="91.3742" x2="164.774" y2="94.554" class="gray" /></g>
<g><line x1="164.773" y1="98.2738" x2="163.347" y2="101.444" class="gray" /></g>
<g><line x1="162.51" y1="105.343" x2="162.51" y2="108.825" class="gray" /></g>
<g><line x1="162.567" y1="112.903" x2="162.663" y2="116.386" class="gray" /></g>
<g><line x1="162.663" y1="120.463" x2="162.567" y2="123.956" class="gray" /></g>
<g><line x1="162.51" y1="128.033" x2="162.51" y2="131.505" class="gray" /></g>
<g><line x1="164.549" y1="133.544" x2="167.471" y2="133.544" class="gray" /></g>
</svg>
