<svg
	xmlns="http://www.w3.org/2000/svg"
	width="319.41"
	height="225.09">
<g><style type="text/css" >
<!-- create color definitions -->
<![CDATA[
circle.red {stroke: rgb(255, 0, 255); fill: none; }
circle.green {stroke: rgb(0, 255, 0); fill: none; }
circle.blue {stroke: rgb(0, 0, 255); fill: none; }
circle.black {stroke: rgb(0, 0, 0); fill: none; }
circle.gray {stroke: rgb(204, 204, 204); fill: none; }
circle.brown {stroke: rgb(211.65, 104.55, 30.6); fill: none; }
line.red {stroke: rgb(255, 0, 255); stroke-width: 0.38184; }
line.green {stroke: rgb(0, 255, 0); stroke-width: 0.38184; }
line.blue {stroke: rgb(0, 0, 255); stroke-width: 0.38184; }
line.black {stroke: rgb(0, 0, 0); stroke-width: 0.38184; }
line.gray {stroke: rgb(204, 204, 204); stroke-width: 0.38184; }
line.brown {stroke: rgb(211.65, 104.55, 30.6); stroke-width: 0.38184; }
line {stroke: rgb(0, 0, 0); }
text.red {fill: rgb(255, 0, 255); font-size: 7.054717px; font-weight: bold; font-family: Helvetica; }
text.green {fill: rgb(0, 255, 0); font-size: 7.054717px; font-weight: bold; font-family: Helvetica; }
text.blue {fill: rgb(0, 0, 255); font-size: 7.054717px; font-weight: bold; font-family: Helvetica; }
text.black {fill: rgb(0, 0, 0); font-size: 7.054717px; font-weight: bold; font-family: Helvetica; }
text.gray {fill: rgb(204, 204, 204); font-size: 7.054717px; font-weight: bold; font-family: Helvetica; }
text.brown {fill: rgb(211.65, 104.55, 30.6); font-size: 7.054717px; font-weight: bold; font-family: Helvetica; }
text {fill: rgb(0, 0, 0); font-size: 7.054717px; font-weight: bold; font-family: Helvetica; text-anchor: middle; alignment-baseline: middle; }

.pseudoknot_connection{stroke-linecap: round; stroke-opacity: 0.2; stroke-width: 1.5; }
.pseudoknot_segment1{stroke-linecap: round; stroke-opacity: 0.4; stroke-width: 3.05472; }
.pseudoknot_segment2{stroke-linecap: round; stroke-opacity: 0.4; stroke-width: 3.05472; }
line.numbering-line{stroke: rgb(204, 204, 204); stroke-width: 0.19092; }
line.predicted{stroke: rgb(0, 0, 0); stroke-dasharray: 2; }
polyline{fill: none; stroke-linejoin: round; }
template{visibility: hidden; }
text.numbering-label{fill: rgb(204, 204, 204); }
]]>
</style></g>
<g><title>0 (position.label in template: 0.5')</title><text x="132.82" y="175.09" class="green" >5'</text></g>
<g><title>1 (position.label in template: 1.G)</title><text x="139.82" y="175.09" class="black" >G</text></g>
<g><line x1="141.856" y1="174.785" x2="150.234" y2="174.785" class="black" /></g>
<g><title>2 (position.label in template: 2.G)</title><text x="139.82" y="167.53" class="black" >G</text></g>
<g><line x1="141.856" y1="167.225" x2="150.234" y2="167.225" class="black" /></g>
<g><title>3 (position.label in template: 3.U)</title><text x="140.03" y="159.97" class="black" >U</text></g>
<g><line x1="142.066" y1="159.665" x2="150.444" y2="159.665" class="black" /></g>
<g><title>4 (position.label in template: 4.A)</title><text x="140.24" y="152.41" class="black" >A</text></g>
<g><line x1="142.276" y1="152.105" x2="150.234" y2="152.105" class="black" /></g>
<g><title>5 (position.label in template: 5.A)</title><text x="140.24" y="144.85" class="black" >A</text></g>
<g><line x1="142.276" y1="144.545" x2="150.234" y2="144.545" class="black" /></g>
<g><title>6 (position.label in template: 6.A)</title><text x="140.24" y="137.29" class="black" >A</text></g>
<g><line x1="142.276" y1="136.985" x2="150.234" y2="136.985" class="black" /></g>
<g><title>7 (position.label in template: 7.A)</title><text x="140.24" y="129.73" class="black" >A</text></g>
<g><line x1="142.276" y1="129.425" x2="150.234" y2="129.425" class="black" /></g>
<g><title>8 (position.label in template: 8.C)</title><text x="140.03" y="122.17" class="black" >C</text></g>
<g><line x1="142.066" y1="121.865" x2="150.024" y2="121.865" class="black" /></g>
<g><title>9 (position.label in template: 9.A)</title><text x="140.24" y="114.61" class="black" >A</text></g>
<g><line x1="142.276" y1="114.305" x2="150.234" y2="114.305" class="black" /></g>
<g><title>10 (position.label in template: 10.G)</title><text x="139.82" y="107.05" class="black" >G</text></g>
<g><line x1="141.856" y1="106.745" x2="150.234" y2="106.745" class="black" /></g>
<g><text x="133.506" y="109.766" class="numbering-label sequential" >10</text></g>
<g><line x1="138.136" y1="107.774" x2="135.339" y2="108.978" class="numbering-line sequential" /></g>
<g><title>11 (position.label in template: 11.C)</title><text x="134.69" y="101.71" class="black" >C</text></g>
<g><line x1="134.655" y1="99.3683" x2="134.515" y2="91.2007" class="black" /></g>
<g><title>12 (position.label in template: 12.C)</title><text x="127.13" y="101.71" class="black" >C</text></g>
<g><line x1="127.095" y1="99.3683" x2="126.955" y2="91.2007" class="black" /></g>
<g><title>13 (position.label in template: 13.U)</title><text x="119.57" y="101.71" class="black" >U</text></g>
<g><line x1="119.603" y1="99.3683" x2="119.737" y2="91.2007" class="black" /></g>
<g><title>14 (position.label in template: 14.G)</title><text x="111.8" y="101.71" class="black" >G</text></g>
<g><line x1="111.835" y1="99.3683" x2="111.975" y2="91.2007" class="black" /></g>
<g><title>15 (position.label in template: 15.U)</title><text x="104.45" y="101.71" class="black" >U</text></g>
<g><line x1="104.483" y1="99.3683" x2="104.617" y2="91.2007" class="black" /></g>
<g><title>16 (position.label in template: 16.G)</title><text x="96.68" y="101.71" class="black" >G</text></g>
<g><line x1="96.7149" y1="99.3683" x2="96.8551" y2="91.2007" class="black" /></g>
<g><title>17 (position.label in template: 17.G)</title><text x="89.12" y="101.71" class="black" >G</text></g>
<g><line x1="89.1549" y1="99.3683" x2="89.2951" y2="91.2007" class="black" /></g>
<g><title>18 (position.label in template: 18.G)</title><text x="81.56" y="101.71" class="black" >G</text></g>
<g><line x1="81.5949" y1="99.3683" x2="81.7351" y2="91.2007" class="black" /></g>
<g><title>19 (position.label in template: 19.U)</title><text x="74.21" y="101.71" class="black" >U</text></g>
<g><line x1="74.2433" y1="99.3683" x2="74.3767" y2="91.2007" class="black" /></g>
<g><title>20 (position.label in template: 20.G)</title><text x="66.44" y="101.71" class="black" >G</text></g>
<g><line x1="66.4749" y1="99.3683" x2="66.6151" y2="91.2007" class="black" /></g>
<g><text x="68.0501" y="108.392" class="numbering-label sequential" >20</text></g>
<g><line x1="66.8694" y1="103.492" x2="67.682" y2="106.865" class="numbering-line sequential" /></g>
<g><title>21 (position.label in template: 21.A)</title><text x="60.1" y="105.11" class="black" >A</text></g>
<g><title>22 (position.label in template: 22.A)</title><text x="53" y="102.53" class="black" >A</text></g>
<g><title>23 (position.label in template: 23.A)</title><text x="50" y="95.59" class="black" >A</text></g>
<g><title>24 (position.label in template: 24.C)</title><text x="52.79" y="88.65" class="black" >C</text></g>
<g><title>25 (position.label in template: 25.A)</title><text x="60.1" y="86.07" class="black" >A</text></g>
<g><title>26 (position.label in template: 26.C)</title><text x="66.65" y="89.47" class="black" >C</text></g>
<g><title>27 (position.label in template: 27.A)</title><text x="74.41" y="89.47" class="black" >A</text></g>
<g><title>28 (position.label in template: 28.C)</title><text x="81.77" y="89.47" class="black" >C</text></g>
<g><title>29 (position.label in template: 29.C)</title><text x="89.33" y="89.47" class="black" >C</text></g>
<g><title>30 (position.label in template: 30.C)</title><text x="96.89" y="89.47" class="black" >C</text></g>
<g><text x="96.89" y="82.5969" class="numbering-label sequential" >30</text></g>
<g><line x1="96.89" y1="87.6372" x2="96.89" y2="84.1242" class="numbering-line sequential" /></g>
<g><title>31 (position.label in template: 31.A)</title><text x="104.65" y="89.47" class="black" >A</text></g>
<g><title>32 (position.label in template: 32.C)</title><text x="112.01" y="89.47" class="black" >C</text></g>
<g><title>33 (position.label in template: 33.A)</title><text x="119.77" y="89.47" class="black" >A</text></g>
<g><title>34 (position.label in template: 34.G)</title><text x="126.92" y="89.47" class="black" >G</text></g>
<g><title>35 (position.label in template: 35.G)</title><text x="134.48" y="89.47" class="black" >G</text></g>
<g><title>36 (position.label in template: 36.G)</title><text x="139.82" y="84.12" class="black" >G</text></g>
<g><line x1="141.856" y1="83.8145" x2="150.234" y2="83.8145" class="black" /></g>
<g><title>37 (position.label in template: 37.C)</title><text x="140.03" y="76.56" class="black" >C</text></g>
<g><line x1="142.066" y1="76.2545" x2="150.024" y2="76.2545" class="black" /></g>
<g><title>38 (position.label in template: 38.C)</title><text x="140.03" y="69" class="black" >C</text></g>
<g><line x1="142.066" y1="68.6945" x2="150.024" y2="68.6945" class="black" /></g>
<g><title>39 (position.label in template: 39.C)</title><text x="140.03" y="61.44" class="black" >C</text></g>
<g><line x1="142.066" y1="61.1345" x2="150.024" y2="61.1345" class="black" /></g>
<g><title>40 (position.label in template: 40.A)</title><text x="139.87" y="53.89" class="black" >A</text></g>
<g><title>41 (position.label in template: 41.U)</title><text x="146.15" y="50" class="black" >U</text></g>
<g><title>42 (position.label in template: 42.U)</title><text x="152.64" y="53.89" class="black" >U</text></g>
<g><title>43 (position.label in template: 43.G)</title><text x="152.06" y="61.44" class="black" >G</text></g>
<g><title>44 (position.label in template: 44.G)</title><text x="152.06" y="69" class="black" >G</text></g>
<g><title>45 (position.label in template: 45.G)</title><text x="152.06" y="76.56" class="black" >G</text></g>
<g><title>46 (position.label in template: 46.C)</title><text x="152.27" y="84.12" class="black" >C</text></g>
<g><title>47 (position.label in template: 47.G)</title><text x="157.41" y="89.47" class="black" >G</text></g>
<g><line x1="157.445" y1="91.2007" x2="157.585" y2="99.3683" class="black" /></g>
<g><title>48 (position.label in template: 48.C)</title><text x="165.18" y="89.47" class="black" >C</text></g>
<g><line x1="165.145" y1="91.2007" x2="165.005" y2="99.3683" class="black" /></g>
<g><title>49 (position.label in template: 49.U)</title><text x="165.18" y="81.91" class="black" >U</text></g>
<g><title>50 (position.label in template: 50.A)</title><text x="172.94" y="81.91" class="black" >A</text></g>
<g><text x="177.868" y="77.1189" class="numbering-label sequential" >50</text></g>
<g><line x1="174.254" y1="80.6324" x2="176.297" y2="78.6463" class="numbering-line sequential" /></g>
<g><title>51 (position.label in template: 51.G)</title><text x="172.53" y="89.47" class="black" >G</text></g>
<g><line x1="172.565" y1="91.2007" x2="172.705" y2="99.3683" class="black" /></g>
<g><title>52 (position.label in template: 52.C)</title><text x="180.3" y="89.47" class="black" >C</text></g>
<g><line x1="180.265" y1="91.2007" x2="180.125" y2="99.3683" class="black" /></g>
<g><title>53 (position.label in template: 53.A)</title><text x="188.06" y="89.47" class="black" >A</text></g>
<g><line x1="188.027" y1="91.2007" x2="187.893" y2="99.3683" class="black" /></g>
<g><title>54 (position.label in template: 54.C)</title><text x="195.42" y="89.47" class="black" >C</text></g>
<g><line x1="195.385" y1="91.2007" x2="195.245" y2="99.3683" class="black" /></g>
<g><title>55 (position.label in template: 55.U)</title><text x="202.98" y="89.47" class="black" >U</text></g>
<g><line x1="202.98" y1="91.201" x2="202.98" y2="99.3681" class="black" /></g>
<g><title>56 (position.label in template: 56.C)</title><text x="210.54" y="89.47" class="black" >C</text></g>
<g><line x1="210.54" y1="91.201" x2="210.54" y2="99.3681" class="black" /></g>
<g><title>57 (position.label in template: 57.U)</title><text x="218.1" y="89.47" class="black" >U</text></g>
<g><line x1="218.1" y1="91.201" x2="218.1" y2="99.3681" class="black" /></g>
<g><title>58 (position.label in template: 58.G)</title><text x="225.45" y="89.47" class="black" >G</text></g>
<g><line x1="225.485" y1="91.2007" x2="225.625" y2="99.3683" class="black" /></g>
<g><title>59 (position.label in template: 59.G)</title><text x="233.01" y="89.47" class="black" >G</text></g>
<g><line x1="233.045" y1="91.2007" x2="233.185" y2="99.3683" class="black" /></g>
<g><title>60 (position.label in template: 60.U)</title><text x="240.78" y="89.47" class="black" >U</text></g>
<g><line x1="240.815" y1="91.2007" x2="240.955" y2="99.3683" class="black" /></g>
<g><title>61 (position.label in template: 61.A)</title><text x="248.54" y="89.47" class="black" >A</text></g>
<g><line x1="248.507" y1="91.2007" x2="248.373" y2="99.3683" class="black" /></g>
<g><title>62 (position.label in template: 62.U)</title><text x="255.9" y="89.47" class="black" >U</text></g>
<g><line x1="255.865" y1="91.2007" x2="255.725" y2="99.3683" class="black" /></g>
<g><title>63 (position.label in template: 63.C)</title><text x="263.14" y="87.29" class="black" >C</text></g>
<g><title>64 (position.label in template: 64.A)</title><text x="269.41" y="91.81" class="black" >A</text></g>
<g><title>65 (position.label in template: 65.C)</title><text x="269.21" y="99.37" class="black" >C</text></g>
<g><title>66 (position.label in template: 66.C)</title><text x="263.14" y="103.88" class="black" >C</text></g>
<g><title>67 (position.label in template: 67.G)</title><text x="255.69" y="101.71" class="black" >G</text></g>
<g><title>68 (position.label in template: 68.U)</title><text x="248.34" y="101.71" class="black" >U</text></g>
<g><title>69 (position.label in template: 69.A)</title><text x="240.99" y="101.71" class="black" >A</text></g>
<g><title>70 (position.label in template: 70.C)</title><text x="233.22" y="101.71" class="black" >C</text></g>
<g><title>71 (position.label in template: 71.C)</title><text x="225.66" y="101.71" class="black" >C</text></g>
<g><title>72 (position.label in template: 72.U)</title><text x="218.1" y="101.71" class="black" >U</text></g>
<g><title>73 (position.label in template: 73.U)</title><text x="210.54" y="101.71" class="black" >U</text></g>
<g><title>74 (position.label in template: 74.U)</title><text x="202.98" y="101.71" class="black" >U</text></g>
<g><title>75 (position.label in template: 75.G)</title><text x="195.21" y="101.71" class="black" >G</text></g>
<g><title>76 (position.label in template: 76.U)</title><text x="187.86" y="101.71" class="black" >U</text></g>
<g><title>77 (position.label in template: 77.G)</title><text x="180.09" y="101.71" class="black" >G</text></g>
<g><title>78 (position.label in template: 78.C)</title><text x="172.74" y="101.71" class="black" >C</text></g>
<g><title>79 (position.label in template: 79.G)</title><text x="164.97" y="101.71" class="black" >G</text></g>
<g><title>80 (position.label in template: 80.C)</title><text x="157.62" y="101.71" class="black" >C</text></g>
<g><title>81 (position.label in template: 81.C)</title><text x="152.27" y="107.05" class="black" >C</text></g>
<g><title>82 (position.label in template: 82.U)</title><text x="152.27" y="114.61" class="black" >U</text></g>
<g><title>83 (position.label in template: 83.G)</title><text x="152.06" y="122.17" class="black" >G</text></g>
<g><title>84 (position.label in template: 84.U)</title><text x="152.27" y="129.73" class="black" >U</text></g>
<g><title>85 (position.label in template: 85.U)</title><text x="152.27" y="137.29" class="black" >U</text></g>
<g><title>86 (position.label in template: 86.U)</title><text x="152.27" y="144.85" class="black" >U</text></g>
<g><title>87 (position.label in template: 87.U)</title><text x="152.27" y="152.41" class="black" >U</text></g>
<g><title>88 (position.label in template: 88.A)</title><text x="152.48" y="159.97" class="black" >A</text></g>
<g><title>89 (position.label in template: 89.C)</title><text x="152.27" y="167.53" class="black" >C</text></g>
<g><title>90 (position.label in template: 90.C)</title><text x="152.27" y="175.09" class="black" >C</text></g>
<g><title>91 (position.label in template: 91.3')</title><text x="159.27" y="175.09" class="green" >3'</text></g>
<g><line x1="134.856" y1="174.785" x2="137.784" y2="174.785" class="gray" /></g>
<g><line x1="139.82" y1="172.748" x2="139.82" y2="169.261" class="gray" /></g>
<g><line x1="139.877" y1="165.189" x2="139.973" y2="161.7" class="gray" /></g>
<g><line x1="140.087" y1="157.629" x2="140.183" y2="154.14" class="gray" /></g>
<g><line x1="140.24" y1="150.068" x2="140.24" y2="146.581" class="gray" /></g>
<g><line x1="140.24" y1="142.508" x2="140.24" y2="139.021" class="gray" /></g>
<g><line x1="140.24" y1="134.948" x2="140.24" y2="131.461" class="gray" /></g>
<g><line x1="140.183" y1="127.389" x2="140.087" y2="123.9" class="gray" /></g>
<g><line x1="140.087" y1="119.829" x2="140.183" y2="116.34" class="gray" /></g>
<g><line x1="140.127" y1="112.271" x2="139.933" y2="108.778" class="gray" /></g>
<g><line x1="138.409" y1="105.276" x2="136.101" y2="102.873" class="gray" /></g>
<g><line x1="132.654" y1="101.405" x2="129.166" y2="101.405" class="gray" /></g>
<g><line x1="125.094" y1="101.405" x2="121.606" y2="101.405" class="gray" /></g>
<g><line x1="117.534" y1="101.405" x2="113.836" y2="101.405" class="gray" /></g>
<g><line x1="109.764" y1="101.405" x2="106.486" y2="101.405" class="gray" /></g>
<g><line x1="102.414" y1="101.405" x2="98.7165" y2="101.405" class="gray" /></g>
<g><line x1="94.6435" y1="101.405" x2="91.1565" y2="101.405" class="gray" /></g>
<g><line x1="87.0835" y1="101.405" x2="83.5965" y2="101.405" class="gray" /></g>
<g><line x1="79.5235" y1="101.405" x2="76.2465" y2="101.405" class="gray" /></g>
<g><line x1="72.1735" y1="101.405" x2="68.4765" y2="101.405" class="gray" /></g>
<g><line x1="64.6453" y1="102.367" x2="61.8947" y2="103.842" class="gray" /></g>
<g><line x1="58.186" y1="104.109" x2="54.914" y2="102.92" class="gray" /></g>
<g><line x1="52.1919" y1="100.355" x2="50.8081" y2="97.1538" class="gray" /></g>
<g><line x1="50.7596" y1="93.395" x2="52.0304" y2="90.234" class="gray" /></g>
<g><line x1="54.7104" y1="87.6667" x2="58.1796" y2="86.4423" class="gray" /></g>
<g><line x1="61.9075" y1="86.7028" x2="64.8425" y2="88.2263" class="gray" /></g>
<g><line x1="68.6865" y1="89.1645" x2="72.3735" y2="89.1645" class="gray" /></g>
<g><line x1="76.4465" y1="89.1645" x2="79.7335" y2="89.1645" class="gray" /></g>
<g><line x1="83.8065" y1="89.1645" x2="87.2935" y2="89.1645" class="gray" /></g>
<g><line x1="91.3665" y1="89.1645" x2="94.8535" y2="89.1645" class="gray" /></g>
<g><line x1="98.9265" y1="89.1645" x2="102.614" y2="89.1645" class="gray" /></g>
<g><line x1="106.686" y1="89.1645" x2="109.974" y2="89.1645" class="gray" /></g>
<g><line x1="114.046" y1="89.1645" x2="117.734" y2="89.1645" class="gray" /></g>
<g><line x1="121.806" y1="89.1645" x2="124.884" y2="89.1645" class="gray" /></g>
<g><line x1="128.956" y1="89.1645" x2="132.444" y2="89.1645" class="gray" /></g>
<g><line x1="135.919" y1="87.7232" x2="138.381" y2="85.2559" class="gray" /></g>
<g><line x1="139.877" y1="81.7788" x2="139.973" y2="78.2902" class="gray" /></g>
<g><line x1="140.03" y1="74.2181" x2="140.03" y2="70.731" class="gray" /></g>
<g><line x1="140.03" y1="66.6581" x2="140.03" y2="63.171" class="gray" /></g>
<g><line x1="139.987" y1="59.0985" x2="139.913" y2="55.6205" class="gray" /></g>
<g><line x1="141.601" y1="52.5121" x2="144.419" y2="50.7669" class="gray" /></g>
<g><line x1="147.897" y1="50.7415" x2="150.893" y2="52.5376" class="gray" /></g>
<g><line x1="152.484" y1="55.615" x2="152.216" y2="59.104" class="gray" /></g>
<g><line x1="152.06" y1="63.171" x2="152.06" y2="66.6581" class="gray" /></g>
<g><line x1="152.06" y1="70.731" x2="152.06" y2="74.2181" class="gray" /></g>
<g><line x1="152.117" y1="78.2902" x2="152.213" y2="81.7788" class="gray" /></g>
<g><line x1="153.681" y1="85.2831" x2="155.999" y2="87.696" class="gray" /></g>
<g><line x1="159.446" y1="89.1645" x2="163.144" y2="89.1645" class="gray" /></g>
<g><line x1="165.18" y1="87.1281" x2="165.18" y2="83.641" class="gray" /></g>
<g><line x1="167.216" y1="81.6045" x2="170.904" y2="81.6045" class="gray" /></g>
<g><line x1="172.83" y1="83.638" x2="172.64" y2="87.131" class="gray" /></g>
<g><line x1="174.566" y1="89.1645" x2="178.264" y2="89.1645" class="gray" /></g>
<g><line x1="182.336" y1="89.1645" x2="186.024" y2="89.1645" class="gray" /></g>
<g><line x1="190.096" y1="89.1645" x2="193.384" y2="89.1645" class="gray" /></g>
<g><line x1="197.456" y1="89.1645" x2="200.944" y2="89.1645" class="gray" /></g>
<g><line x1="205.016" y1="89.1645" x2="208.504" y2="89.1645" class="gray" /></g>
<g><line x1="212.576" y1="89.1645" x2="216.064" y2="89.1645" class="gray" /></g>
<g><line x1="220.136" y1="89.1645" x2="223.414" y2="89.1645" class="gray" /></g>
<g><line x1="227.486" y1="89.1645" x2="230.974" y2="89.1645" class="gray" /></g>
<g><line x1="235.046" y1="89.1645" x2="238.744" y2="89.1645" class="gray" /></g>
<g><line x1="242.816" y1="89.1645" x2="246.504" y2="89.1645" class="gray" /></g>
<g><line x1="250.576" y1="89.1645" x2="253.864" y2="89.1645" class="gray" /></g>
<g><line x1="257.85" y1="88.5774" x2="261.19" y2="87.5717" class="gray" /></g>
<g><line x1="264.792" y1="88.1754" x2="267.758" y2="90.3136" class="gray" /></g>
<g><line x1="269.356" y1="93.5403" x2="269.264" y2="97.0288" class="gray" /></g>
<g><line x1="267.575" y1="100.279" x2="264.775" y2="102.36" class="gray" /></g>
<g><line x1="261.185" y1="103.005" x2="257.645" y2="101.974" class="gray" /></g>
<g><line x1="253.654" y1="101.405" x2="250.376" y2="101.405" class="gray" /></g>
<g><line x1="246.304" y1="101.405" x2="243.026" y2="101.405" class="gray" /></g>
<g><line x1="238.954" y1="101.405" x2="235.256" y2="101.405" class="gray" /></g>
<g><line x1="231.184" y1="101.405" x2="227.696" y2="101.405" class="gray" /></g>
<g><line x1="223.624" y1="101.405" x2="220.136" y2="101.405" class="gray" /></g>
<g><line x1="216.064" y1="101.405" x2="212.576" y2="101.405" class="gray" /></g>
<g><line x1="208.504" y1="101.405" x2="205.016" y2="101.405" class="gray" /></g>
<g><line x1="200.944" y1="101.405" x2="197.246" y2="101.405" class="gray" /></g>
<g><line x1="193.174" y1="101.405" x2="189.896" y2="101.405" class="gray" /></g>
<g><line x1="185.824" y1="101.405" x2="182.126" y2="101.405" class="gray" /></g>
<g><line x1="178.054" y1="101.405" x2="174.776" y2="101.405" class="gray" /></g>
<g><line x1="170.704" y1="101.405" x2="167.006" y2="101.405" class="gray" /></g>
<g><line x1="162.934" y1="101.405" x2="159.656" y2="101.405" class="gray" /></g>
<g><line x1="156.179" y1="102.843" x2="153.711" y2="105.306" class="gray" /></g>
<g><line x1="152.27" y1="108.781" x2="152.27" y2="112.268" class="gray" /></g>
<g><line x1="152.213" y1="116.34" x2="152.117" y2="119.829" class="gray" /></g>
<g><line x1="152.117" y1="123.9" x2="152.213" y2="127.389" class="gray" /></g>
<g><line x1="152.27" y1="131.461" x2="152.27" y2="134.948" class="gray" /></g>
<g><line x1="152.27" y1="139.021" x2="152.27" y2="142.508" class="gray" /></g>
<g><line x1="152.27" y1="146.581" x2="152.27" y2="150.068" class="gray" /></g>
<g><line x1="152.327" y1="154.14" x2="152.423" y2="157.629" class="gray" /></g>
<g><line x1="152.423" y1="161.7" x2="152.327" y2="165.189" class="gray" /></g>
<g><line x1="152.27" y1="169.261" x2="152.27" y2="172.748" class="gray" /></g>
<g><line x1="154.306" y1="174.785" x2="157.234" y2="174.785" class="gray" /></g>
</svg>
