<svg xmlns="http://www.w3.org/2000/svg" width="910.19" height="417.42">
<style type="text/css" >
<![CDATA[
.font { font-family: Helvetica; font-size: 12.199616px; font-weight: bold;  }
.numbering-line { stroke: rgb(204, 204, 204); stroke-width: 0.7625;  }
.bp-line { stroke-width: 1.525;  }
.bp-line-predicted {  }
.sequential {  }
.text-green {  }
.text-black {  }
.text-blue {  }
.text-red {  }
.text-black { fill: rgb(0, 0, 0);  }
.text-red { fill: rgb(255, 0, 255);  }
.text-green { fill: rgb(0, 255, 0);  }
.text-blue { fill: rgb(0, 0, 255);  }
.text-gray { fill: rgb(204, 204, 204);  }
.text-brown { fill: rgb(211.65, 104.55, 30.6);  }
text { element-wise: True; fill: rgb(0, 0, 0); text-anchor: middle; dominant-baseline: middle;  }
.circle-black { stroke: rgb(0, 0, 0); fill: none;  }
.circle-red { stroke: rgb(255, 0, 255); fill: none;  }
.circle-green { stroke: rgb(0, 255, 0); fill: none;  }
.circle-blue { stroke: rgb(0, 0, 255); fill: none;  }
.circle-gray { stroke: rgb(204, 204, 204); fill: none;  }
.circle-brown { stroke: rgb(211.65, 104.55, 30.6); fill: none;  }
.circle { stroke: rgb(0, 0, 0);  }
.numbering-label { fill: rgb(204, 204, 204);  }
.numbering-line { stroke: rgb(204, 204, 204);  }
.template { visibility: hidden;  }
.bp-line { stroke: rgb(0, 0, 0);  }
.bp-line-predicted { stroke-dasharray: 2;  }
.residue-circle { fill: rgb(255,255,255);  }
.res-line { stroke: rgb(204, 204, 204);  }
.pseudoknot_segment1 { stroke-linecap: round; stroke-opacity: 0.4; stroke-width: 14.6395392; stroke: rgb(204, 204, 204);  }
.pseudoknot_segment2 { stroke-linecap: round; stroke-opacity: 0.4; stroke-width: 14.6395392; stroke: rgb(204, 204, 204);  }
.pseudoknot_connection { stroke-linecap: round; stroke-opacity: 0.2; stroke-width: 1.5; stroke: rgb(204, 204, 204);  }
.color-posterior_probability-0 { fill: rgb(229, 158, 102);  }
.color-posterior_probability-1 { fill: rgb(229, 158, 102);  }
.color-posterior_probability-2 { fill: rgb(229, 158, 102);  }
.color-posterior_probability-3 { fill: rgb(229, 158, 102);  }
.color-posterior_probability-4 { fill: rgb(229, 158, 102);  }
.color-posterior_probability-5 { fill: rgb(229, 158, 102);  }
.color-posterior_probability-6 { fill: rgb(240, 197, 102);  }
.color-posterior_probability-7 { fill: rgb(246, 238, 141);  }
.color-posterior_probability-8 { fill: rgb(153, 210, 241);  }
.color-posterior_probability-9 { fill: rgb(102, 196, 171);  }
.color-posterior_probability-10 { fill: rgb(255, 255, 255);  }
.color-posterior_probability-_ { fill: rgb(255, 255, 255);  }
]]>
</style>

<g class="bps"><line x1="242.67" y1="374.52" x2="292.47" y2="374.52" class = "bp-line" />
<line x1="242.67" y1="344.28" x2="292.47" y2="344.28" class = "bp-line" />
<line x1="242.67" y1="314.04" x2="292.47" y2="314.04" class = "bp-line" />
<line x1="244.35" y1="283.8" x2="292.47" y2="283.8" class = "bp-line" />
<line x1="244.35" y1="253.56" x2="292.47" y2="253.56" class = "bp-line" />
<line x1="243.51" y1="223.32" x2="291.63" y2="223.32" class = "bp-line" />
<line x1="244.35" y1="193.08" x2="292.47" y2="193.08" class = "bp-line" />
<line x1="244.35" y1="162.84" x2="292.47" y2="162.84" class = "bp-line" />
<line x1="242.67" y1="107.68" x2="293.07" y2="108.52" class = "bp-line" />
<line x1="244.11" y1="78.28" x2="291.63" y2="77.44" class = "bp-line" />
<line x1="366.07" y1="375.36" x2="415.03" y2="375.36" class = "bp-line" />
<line x1="366.07" y1="345.12" x2="415.27" y2="344.28" class = "bp-line" />
<line x1="366.07" y1="289.96" x2="415.03" y2="289.96" class = "bp-line" />
<line x1="366.07" y1="259.72" x2="414.43" y2="258.88" class = "bp-line" />
<line x1="366.07" y1="229.48" x2="413.59" y2="228.64" class = "bp-line" />
<line x1="366.31" y1="198.4" x2="415.03" y2="199.24" class = "bp-line" />
<line x1="364.63" y1="168.16" x2="414.43" y2="168.16" class = "bp-line" />
<line x1="365.62" y1="134.92000000000002" x2="414.58" y2="134.92000000000002" class = "bp-line" />
<line x1="230.51" y1="51.24" x2="738.98" y2="397.37"  />
<line x1="239.39" y1="22.0" x2="708.75" y2="396.54"  />
<line x1="267.99" y1="10.0" x2="678.5" y2="396.54"  />
<line x1="296.59" y1="22.0" x2="648.25" y2="396.54"  />
<line x1="306.07" y1="50.44" x2="618.01" y2="396.54"  />
</g>
<g class="residues"><line x1="10.0" y1="396.35" x2="40.25" y2="396.35" class="bp-line res-line" />
<line x1="40.25" y1="396.35" x2="70.49000000000001" y2="396.35" class="bp-line res-line" />
<line x1="70.49000000000001" y1="396.35" x2="100.74" y2="396.35" class="bp-line res-line" />
<line x1="100.74" y1="396.35" x2="130.98000000000002" y2="396.35" class="bp-line res-line" />
<line x1="130.98000000000002" y1="396.35" x2="161.22" y2="397.17" class="bp-line res-line" />
<line x1="161.22" y1="397.17" x2="191.46" y2="397.17" class="bp-line res-line" />
<line x1="191.46" y1="397.17" x2="221.69" y2="396.31" class="bp-line res-line" />
<line x1="221.69" y1="396.31" x2="242.67" y2="374.52" class="bp-line res-line" />
<line x1="242.67" y1="374.52" x2="242.67" y2="344.28" class="bp-line res-line" />
<line x1="242.67" y1="344.28" x2="242.67" y2="314.04" class="bp-line res-line" />
<line x1="242.67" y1="314.04" x2="244.35" y2="283.8" class="bp-line res-line" />
<line x1="244.35" y1="283.8" x2="244.35" y2="253.56" class="bp-line res-line" />
<line x1="244.35" y1="253.56" x2="243.51" y2="223.32" class="bp-line res-line" />
<line x1="243.51" y1="223.32" x2="244.35" y2="193.08" class="bp-line res-line" />
<line x1="244.35" y1="193.08" x2="244.35" y2="162.84" class="bp-line res-line" />
<line x1="244.35" y1="162.84" x2="215.11" y2="150.36" class="bp-line res-line" />
<line x1="215.11" y1="150.36" x2="215.95" y2="120.12" class="bp-line res-line" />
<line x1="215.95" y1="120.12" x2="242.67" y2="107.68" class="bp-line res-line" />
<line x1="242.67" y1="107.68" x2="244.11" y2="78.28" class="bp-line res-line" />
<line x1="244.11" y1="78.28" x2="230.51" y2="51.24" class="bp-line res-line" />
<line x1="230.51" y1="51.24" x2="239.39" y2="22.0" class="bp-line res-line" />
<line x1="239.39" y1="22.0" x2="267.99" y2="10.0" class="bp-line res-line" />
<line x1="267.99" y1="10.0" x2="296.59" y2="22.0" class="bp-line res-line" />
<line x1="296.59" y1="22.0" x2="306.07" y2="50.44" class="bp-line res-line" />
<line x1="306.07" y1="50.44" x2="291.63" y2="77.44" class="bp-line res-line" />
<line x1="291.63" y1="77.44" x2="293.07" y2="108.52" class="bp-line res-line" />
<line x1="293.07" y1="108.52" x2="304.87" y2="135.24" class="bp-line res-line" />
<line x1="304.87" y1="135.24" x2="292.47" y2="162.84" class="bp-line res-line" />
<line x1="292.47" y1="162.84" x2="292.47" y2="193.08" class="bp-line res-line" />
<line x1="292.47" y1="193.08" x2="291.63" y2="223.32" class="bp-line res-line" />
<line x1="291.63" y1="223.32" x2="292.47" y2="253.56" class="bp-line res-line" />
<line x1="292.47" y1="253.56" x2="292.47" y2="283.8" class="bp-line res-line" />
<line x1="292.47" y1="283.8" x2="292.47" y2="314.04" class="bp-line res-line" />
<line x1="292.47" y1="314.04" x2="292.47" y2="344.28" class="bp-line res-line" />
<line x1="292.47" y1="344.28" x2="292.47" y2="374.52" class="bp-line res-line" />
<line x1="292.47" y1="374.52" x2="314.67" y2="395.88" class="bp-line res-line" />
<line x1="314.67" y1="395.88" x2="344.11" y2="395.88" class="bp-line res-line" />
<line x1="344.11" y1="395.88" x2="366.07" y2="375.36" class="bp-line res-line" />
<line x1="366.07" y1="375.36" x2="366.07" y2="345.12" class="bp-line res-line" />
<line x1="366.07" y1="345.12" x2="353.67" y2="317.52" class="bp-line res-line" />
<line x1="353.67" y1="317.52" x2="366.07" y2="289.96" class="bp-line res-line" />
<line x1="366.07" y1="289.96" x2="366.07" y2="259.72" class="bp-line res-line" />
<line x1="366.07" y1="259.72" x2="366.07" y2="229.48" class="bp-line res-line" />
<line x1="366.07" y1="229.48" x2="366.31" y2="198.4" class="bp-line res-line" />
<line x1="366.31" y1="198.4" x2="338.43" y2="183.28" class="bp-line res-line" />
<line x1="338.43" y1="183.28" x2="364.63" y2="168.16" class="bp-line res-line" />
<line x1="364.63" y1="168.16" x2="360.83" y2="151.41" class="bp-line res-line" />
<line x1="360.83" y1="151.41" x2="365.62" y2="134.92000000000002" class="bp-line res-line" />
<line x1="365.62" y1="134.92000000000002" x2="357.18" y2="105.12" class="bp-line res-line" />
<line x1="357.18" y1="105.12" x2="374.98" y2="81.68" class="bp-line res-line" />
<line x1="374.98" y1="81.68" x2="405.22" y2="81.68" class="bp-line res-line" />
<line x1="405.22" y1="81.68" x2="423.3" y2="105.96" class="bp-line res-line" />
<line x1="423.3" y1="105.96" x2="414.58" y2="134.92000000000002" class="bp-line res-line" />
<line x1="414.58" y1="134.92000000000002" x2="418.8" y2="151.56" class="bp-line res-line" />
<line x1="418.8" y1="151.56" x2="414.43" y2="168.16" class="bp-line res-line" />
<line x1="414.43" y1="168.16" x2="415.03" y2="199.24" class="bp-line res-line" />
<line x1="415.03" y1="199.24" x2="413.59" y2="228.64" class="bp-line res-line" />
<line x1="413.59" y1="228.64" x2="441.47" y2="243.76" class="bp-line res-line" />
<line x1="441.47" y1="243.76" x2="414.43" y2="258.88" class="bp-line res-line" />
<line x1="414.43" y1="258.88" x2="415.03" y2="289.96" class="bp-line res-line" />
<line x1="415.03" y1="289.96" x2="427.43" y2="317.52" class="bp-line res-line" />
<line x1="427.43" y1="317.52" x2="415.27" y2="344.28" class="bp-line res-line" />
<line x1="415.27" y1="344.28" x2="415.03" y2="375.36" class="bp-line res-line" />
<line x1="415.03" y1="375.36" x2="436.56" y2="396.6" class="bp-line res-line" />
<line x1="436.56" y1="396.6" x2="466.79" y2="397.42" class="bp-line res-line" />
<line x1="466.79" y1="397.42" x2="497.04" y2="397.42" class="bp-line res-line" />
<line x1="497.04" y1="397.42" x2="527.29" y2="397.42" class="bp-line res-line" />
<line x1="527.29" y1="397.42" x2="557.53" y2="397.42" class="bp-line res-line" />
<line x1="557.53" y1="397.42" x2="587.78" y2="397.42" class="bp-line res-line" />
<line x1="587.78" y1="397.42" x2="618.01" y2="396.54" class="bp-line res-line" />
<line x1="618.01" y1="396.54" x2="648.25" y2="396.54" class="bp-line res-line" />
<line x1="648.25" y1="396.54" x2="678.5" y2="396.54" class="bp-line res-line" />
<line x1="678.5" y1="396.54" x2="708.75" y2="396.54" class="bp-line res-line" />
<line x1="708.75" y1="396.54" x2="738.98" y2="397.37" class="bp-line res-line" />
<line x1="738.98" y1="397.37" x2="769.21" y2="396.51" class="bp-line res-line" />
<line x1="769.21" y1="396.51" x2="799.46" y2="396.51" class="bp-line res-line" />
<line x1="799.46" y1="396.51" x2="829.7" y2="396.51" class="bp-line res-line" />
<line x1="829.7" y1="396.51" x2="859.95" y2="396.51" class="bp-line res-line" />
<line x1="859.95" y1="396.51" x2="890.19" y2="396.51" class="bp-line res-line" />
<circle cx="10.0" cy="396.35" class="residue-circle" r="9.149712000000001"/>
<circle cx="40.25" cy="396.35" class="residue-circle color-posterior_probability-10" r="9.149712000000001"/>
<circle cx="70.49000000000001" cy="396.35" class="residue-circle color-posterior_probability-10" r="9.149712000000001"/>
<circle cx="100.74" cy="396.35" class="residue-circle color-posterior_probability-10" r="9.149712000000001"/>
<circle cx="130.98000000000002" cy="396.35" class="residue-circle color-posterior_probability-10" r="9.149712000000001"/>
<circle cx="161.22" cy="397.17" class="residue-circle color-posterior_probability-10" r="9.149712000000001"/>
<circle cx="191.46" cy="397.17" class="residue-circle color-posterior_probability-10" r="9.149712000000001"/>
<circle cx="221.69" cy="396.31" class="residue-circle color-posterior_probability-10" r="9.149712000000001"/>
<circle cx="242.67" cy="374.52" class="residue-circle color-posterior_probability-10" r="9.149712000000001"/>
<circle cx="242.67" cy="344.28" class="residue-circle color-posterior_probability-10" r="9.149712000000001"/>
<circle cx="242.67" cy="314.04" class="residue-circle color-posterior_probability-10" r="9.149712000000001"/>
<circle cx="244.35" cy="283.8" class="residue-circle color-posterior_probability-10" r="9.149712000000001"/>
<circle cx="244.35" cy="253.56" class="residue-circle color-posterior_probability-10" r="9.149712000000001"/>
<circle cx="243.51" cy="223.32" class="residue-circle color-posterior_probability-10" r="9.149712000000001"/>
<circle cx="244.35" cy="193.08" class="residue-circle color-posterior_probability-10" r="9.149712000000001"/>
<circle cx="244.35" cy="162.84" class="residue-circle color-posterior_probability-10" r="9.149712000000001"/>
<circle cx="215.11" cy="150.36" class="residue-circle color-posterior_probability-10" r="9.149712000000001"/>
<circle cx="215.95" cy="120.12" class="residue-circle color-posterior_probability-10" r="9.149712000000001"/>
<circle cx="242.67" cy="107.68" class="residue-circle color-posterior_probability-10" r="9.149712000000001"/>
<circle cx="244.11" cy="78.28" class="residue-circle color-posterior_probability-10" r="9.149712000000001"/>
<circle cx="230.51" cy="51.24" class="residue-circle color-posterior_probability-10" r="9.149712000000001"/>
<circle cx="239.39" cy="22.0" class="residue-circle color-posterior_probability-10" r="9.149712000000001"/>
<circle cx="267.99" cy="10.0" class="residue-circle color-posterior_probability-10" r="9.149712000000001"/>
<circle cx="296.59" cy="22.0" class="residue-circle color-posterior_probability-10" r="9.149712000000001"/>
<circle cx="306.07" cy="50.44" class="residue-circle color-posterior_probability-10" r="9.149712000000001"/>
<circle cx="291.63" cy="77.44" class="residue-circle color-posterior_probability-10" r="9.149712000000001"/>
<circle cx="293.07" cy="108.52" class="residue-circle color-posterior_probability-10" r="9.149712000000001"/>
<circle cx="304.87" cy="135.24" class="residue-circle color-posterior_probability-10" r="9.149712000000001"/>
<circle cx="292.47" cy="162.84" class="residue-circle color-posterior_probability-10" r="9.149712000000001"/>
<circle cx="292.47" cy="193.08" class="residue-circle color-posterior_probability-10" r="9.149712000000001"/>
<circle cx="291.63" cy="223.32" class="residue-circle color-posterior_probability-10" r="9.149712000000001"/>
<circle cx="292.47" cy="253.56" class="residue-circle color-posterior_probability-10" r="9.149712000000001"/>
<circle cx="292.47" cy="283.8" class="residue-circle color-posterior_probability-10" r="9.149712000000001"/>
<circle cx="292.47" cy="314.04" class="residue-circle color-posterior_probability-10" r="9.149712000000001"/>
<circle cx="292.47" cy="344.28" class="residue-circle color-posterior_probability-10" r="9.149712000000001"/>
<circle cx="292.47" cy="374.52" class="residue-circle color-posterior_probability-10" r="9.149712000000001"/>
<circle cx="314.67" cy="395.88" class="residue-circle color-posterior_probability-10" r="9.149712000000001"/>
<circle cx="344.11" cy="395.88" class="residue-circle color-posterior_probability-10" r="9.149712000000001"/>
<circle cx="366.07" cy="375.36" class="residue-circle color-posterior_probability-10" r="9.149712000000001"/>
<circle cx="366.07" cy="345.12" class="residue-circle color-posterior_probability-10" r="9.149712000000001"/>
<circle cx="353.67" cy="317.52" class="residue-circle color-posterior_probability-10" r="9.149712000000001"/>
<circle cx="366.07" cy="289.96" class="residue-circle color-posterior_probability-10" r="9.149712000000001"/>
<circle cx="366.07" cy="259.72" class="residue-circle color-posterior_probability-10" r="9.149712000000001"/>
<circle cx="366.07" cy="229.48" class="residue-circle color-posterior_probability-10" r="9.149712000000001"/>
<circle cx="366.31" cy="198.4" class="residue-circle color-posterior_probability-10" r="9.149712000000001"/>
<circle cx="338.43" cy="183.28" class="residue-circle color-posterior_probability-10" r="9.149712000000001"/>
<circle cx="364.63" cy="168.16" class="residue-circle color-posterior_probability-10" r="9.149712000000001"/>
<circle cx="360.83" cy="151.41" class="residue-circle color-posterior_probability-10" r="9.149712000000001"/>
<circle cx="365.62" cy="134.92000000000002" class="residue-circle color-posterior_probability-10" r="9.149712000000001"/>
<circle cx="357.18" cy="105.12" class="residue-circle color-posterior_probability-10" r="9.149712000000001"/>
<circle cx="374.98" cy="81.68" class="residue-circle color-posterior_probability-10" r="9.149712000000001"/>
<circle cx="405.22" cy="81.68" class="residue-circle color-posterior_probability-10" r="9.149712000000001"/>
<circle cx="423.3" cy="105.96" class="residue-circle color-posterior_probability-10" r="9.149712000000001"/>
<circle cx="414.58" cy="134.92000000000002" class="residue-circle color-posterior_probability-10" r="9.149712000000001"/>
<circle cx="418.8" cy="151.56" class="residue-circle color-posterior_probability-10" r="9.149712000000001"/>
<circle cx="414.43" cy="168.16" class="residue-circle color-posterior_probability-10" r="9.149712000000001"/>
<circle cx="415.03" cy="199.24" class="residue-circle color-posterior_probability-10" r="9.149712000000001"/>
<circle cx="413.59" cy="228.64" class="residue-circle color-posterior_probability-10" r="9.149712000000001"/>
<circle cx="441.47" cy="243.76" class="residue-circle color-posterior_probability-10" r="9.149712000000001"/>
<circle cx="414.43" cy="258.88" class="residue-circle color-posterior_probability-10" r="9.149712000000001"/>
<circle cx="415.03" cy="289.96" class="residue-circle color-posterior_probability-10" r="9.149712000000001"/>
<circle cx="427.43" cy="317.52" class="residue-circle color-posterior_probability-10" r="9.149712000000001"/>
<circle cx="415.27" cy="344.28" class="residue-circle color-posterior_probability-10" r="9.149712000000001"/>
<circle cx="415.03" cy="375.36" class="residue-circle color-posterior_probability-10" r="9.149712000000001"/>
<circle cx="436.56" cy="396.6" class="residue-circle color-posterior_probability-10" r="9.149712000000001"/>
<circle cx="466.79" cy="397.42" class="residue-circle color-posterior_probability-10" r="9.149712000000001"/>
<circle cx="497.04" cy="397.42" class="residue-circle color-posterior_probability-10" r="9.149712000000001"/>
<circle cx="527.29" cy="397.42" class="residue-circle color-posterior_probability-10" r="9.149712000000001"/>
<circle cx="557.53" cy="397.42" class="residue-circle color-posterior_probability-10" r="9.149712000000001"/>
<circle cx="587.78" cy="397.42" class="residue-circle color-posterior_probability-10" r="9.149712000000001"/>
<circle cx="618.01" cy="396.54" class="residue-circle color-posterior_probability-10" r="9.149712000000001"/>
<circle cx="648.25" cy="396.54" class="residue-circle color-posterior_probability-10" r="9.149712000000001"/>
<circle cx="678.5" cy="396.54" class="residue-circle color-posterior_probability-10" r="9.149712000000001"/>
<circle cx="708.75" cy="396.54" class="residue-circle color-posterior_probability-10" r="9.149712000000001"/>
<circle cx="738.98" cy="397.37" class="residue-circle color-posterior_probability-10" r="9.149712000000001"/>
<circle cx="769.21" cy="396.51" class="residue-circle color-posterior_probability-10" r="9.149712000000001"/>
<circle cx="799.46" cy="396.51" class="residue-circle color-posterior_probability-10" r="9.149712000000001"/>
<circle cx="829.7" cy="396.51" class="residue-circle color-posterior_probability-10" r="9.149712000000001"/>
<circle cx="859.95" cy="396.51" class="residue-circle color-posterior_probability-10" r="9.149712000000001"/>
<circle cx="890.19" cy="396.51" class="residue-circle" r="9.149712000000001"/>
<g><title>Position: 0 (position.label in template: 0.5')</title><text x="10.0" y="396.35" class="text-green font" >5'</text></g>
<g><title>Position: 1 (position.label in template: 1.G)
Alignment accuracy: 10</title><text x="40.25" y="396.35" class="text-black font" >G</text></g>
<g><title>Position: 2 (position.label in template: 2.R)
Alignment accuracy: 10</title><text x="70.49000000000001" y="396.35" class="text-green font" >G</text></g>
<g><title>Position: 3 (position.label in template: 3.G)
Alignment accuracy: 10</title><text x="100.74" y="396.35" class="text-black font" >G</text></g>
<g><title>Position: 4 (position.label in template: 4.U)
Alignment accuracy: 10</title><text x="130.98000000000002" y="396.35" class="text-green font" >T</text></g>
<g><title>Position: 5 (position.label in template: 5.N)
Alignment accuracy: 10</title><text x="161.22" y="397.17" class="text-green font" >T</text></g>
<g><title>Position: 6 (position.label in template: 6.N)
Alignment accuracy: 10</title><text x="191.46" y="397.17" class="text-green font" >T</text></g>
<g><title>Position: 7 (position.label in template: 7.R)
Alignment accuracy: 10</title><text x="221.69" y="396.31" class="text-green font" >G</text></g>
<g><title>Position: 8 (position.label in template: 8.G)
Alignment accuracy: 10</title><text x="242.67" y="374.52" class="text-green font" >C</text></g>
<g><title>Position: 9 (position.label in template: 9.G)
Alignment accuracy: 10</title><text x="242.67" y="344.28" class="text-black font" >G</text></g>
<g><title>Position: 10 (position.label in template: 10.G)
Alignment accuracy: 10</title><text x="242.67" y="314.04" class="text-black font" >G</text></g>
<g><title>Position: 11 (position.label in template: 11.Y)
Alignment accuracy: 10</title><text x="244.35" y="283.8" class="text-green font" >T</text></g>
<g><title>Position: 12 (position.label in template: 12.Y)
Alignment accuracy: 10</title><text x="244.35" y="253.56" class="text-green font" >G</text></g>
<g><title>Position: 13 (position.label in template: 13.C)
Alignment accuracy: 10</title><text x="243.51" y="223.32" class="text-green font" >T</text></g>
<g><title>Position: 14 (position.label in template: 14.Y)
Alignment accuracy: 10</title><text x="244.35" y="193.08" class="text-green font" >A</text></g>
<g><title>Position: 15 (position.label in template: 15.A)
Alignment accuracy: 10</title><text x="244.35" y="162.84" class="text-green font" >A</text></g>
<g><title>Position: 16 (position.label in template: 16.G)
Alignment accuracy: 10</title><text x="215.11" y="150.36" class="text-black font" >G</text></g>
<g><title>Position: 17 (position.label in template: 17.U)
Alignment accuracy: 10</title><text x="215.95" y="120.12" class="text-green font" >T</text></g>
<g><title>Position: 18 (position.label in template: 18.G)
Alignment accuracy: 10</title><text x="242.67" y="107.68" class="text-green font" >G</text></g>
<g><title>Position: 19 (position.label in template: 19.N)
Alignment accuracy: 10</title><text x="244.11" y="78.28" class="text-green font" >C</text></g>
<g><title>Position: 20 (position.label in template: 20.N)
Alignment accuracy: 10</title><text x="230.51" y="51.24" class="text-green font" >A</text></g>
<g><title>Position: 21 (position.label in template: 21.G)
Alignment accuracy: 10</title><text x="239.39" y="22.0" class="text-black font" >G</text></g>
<g><title>Position: 22 (position.label in template: 22.C)
Alignment accuracy: 10</title><text x="267.99" y="10.0" class="text-black font" >C</text></g>
<g><title>Position: 23 (position.label in template: 23.Y)
Alignment accuracy: 10</title><text x="296.59" y="22.0" class="text-green font" >C</text></g>
<g><title>Position: 24 (position.label in template: 24.C)
Alignment accuracy: 10</title><text x="306.07" y="50.44" class="text-black font" >C</text></g>
<g><title>Position: 25 (position.label in template: 25.G)
Alignment accuracy: 10</title><text x="291.63" y="77.44" class="text-green font" >G</text></g>
<g><title>Position: 26 (position.label in template: 26.N)
Alignment accuracy: 10</title><text x="293.07" y="108.52" class="text-green font" >T</text></g>
<g><title>Position: 27 (position.label in template: 27.C)
Alignment accuracy: 10</title><text x="304.87" y="135.24" class="text-black font" >C</text></g>
<g><title>Position: 28 (position.label in template: 28.U)
Alignment accuracy: 10</title><text x="292.47" y="162.84" class="text-green font" >T</text></g>
<g><title>Position: 29 (position.label in template: 29.R)
Alignment accuracy: 10</title><text x="292.47" y="193.08" class="text-green font" >T</text></g>
<g><title>Position: 30 (position.label in template: 30.G)
Alignment accuracy: 10</title><text x="291.63" y="223.32" class="text-green font" >A</text></g>
<g><title>Position: 31 (position.label in template: 31.R)
Alignment accuracy: 10</title><text x="292.47" y="253.56" class="text-green font" >C</text></g>
<g><title>Position: 32 (position.label in template: 32.R)
Alignment accuracy: 10</title><text x="292.47" y="283.8" class="text-green font" >A</text></g>
<g><title>Position: 33 (position.label in template: 33.C)
Alignment accuracy: 10</title><text x="292.47" y="314.04" class="text-black font" >C</text></g>
<g><title>Position: 34 (position.label in template: 34.C)
Alignment accuracy: 10</title><text x="292.47" y="344.28" class="text-black font" >C</text></g>
<g><title>Position: 35 (position.label in template: 35.C)
Alignment accuracy: 10</title><text x="292.47" y="374.52" class="text-green font" >G</text></g>
<g><title>Position: 36 (position.label in template: 36.Y)
Alignment accuracy: 10</title><text x="314.67" y="395.88" class="text-green font" >T</text></g>
<g><title>Position: 37 (position.label in template: 37.R)
Alignment accuracy: 10</title><text x="344.11" y="395.88" class="text-green font" >G</text></g>
<g><title>Position: 38 (position.label in template: 38.N)
Alignment accuracy: 10</title><text x="366.07" y="375.36" class="text-green font" >C</text></g>
<g><title>Position: 39 (position.label in template: 39.N)
Alignment accuracy: 10</title><text x="366.07" y="345.12" class="text-green font" >G</text></g>
<g><title>Position: 40 (position.label in template: 40.N)
Alignment accuracy: 10</title><text x="353.67" y="317.52" class="text-green font" >G</text></g>
<g><title>Position: 41 (position.label in template: 41.N)
Alignment accuracy: 10</title><text x="366.07" y="289.96" class="text-green font" >C</text></g>
<g><title>Position: 42 (position.label in template: 42.N)
Alignment accuracy: 10</title><text x="366.07" y="259.72" class="text-green font" >A</text></g>
<g><title>Position: 43 (position.label in template: 43.N)
Alignment accuracy: 10</title><text x="366.07" y="229.48" class="text-green font" >C</text></g>
<g><title>Position: 44 (position.label in template: 44.Y)
Alignment accuracy: 10</title><text x="366.31" y="198.4" class="text-green font" >A</text></g>
<g><title>Position: 45 (position.label in template: 45.G)
Alignment accuracy: 10</title><text x="338.43" y="183.28" class="text-black font" >G</text></g>
<g><title>Position: 46 (position.label in template: 46.G)
Alignment accuracy: 10</title><text x="364.63" y="168.16" class="text-black font" >G</text></g>
<g><title>Position: 47 (position.label in template: -1.)
Alignment accuracy: 10</title><text x="360.83" y="151.41" class="text-red font" >C</text></g>
<g><title>Position: 48 (position.label in template: 48.N)
Alignment accuracy: 10</title><text x="365.62" y="134.92000000000002" class="text-green font" >A</text></g>
<g><title>Position: 49 (position.label in template: 49.Y)
Alignment accuracy: 10</title><text x="357.18" y="105.12" class="text-green font" >C</text></g>
<g><title>Position: 50 (position.label in template: 50.N)
Alignment accuracy: 10</title><text x="374.98" y="81.68" class="text-green font" >T</text></g>
<g><title>Position: 51 (position.label in template: 51.N)
Alignment accuracy: 10</title><text x="405.22" y="81.68" class="text-green font" >A</text></g>
<g><title>Position: 52 (position.label in template: 52.N)
Alignment accuracy: 10</title><text x="423.3" y="105.96" class="text-green font" >G</text></g>
<g><title>Position: 53 (position.label in template: 53.N)
Alignment accuracy: 10</title><text x="414.58" y="134.92000000000002" class="text-green font" >T</text></g>
<g><title>Position: 54 (position.label in template: -1.)
Alignment accuracy: 10</title><text x="418.8" y="151.56" class="text-red font" >A</text></g>
<g><title>Position: 55 (position.label in template: 55.C)
Alignment accuracy: 10</title><text x="414.43" y="168.16" class="text-black font" >C</text></g>
<g><title>Position: 56 (position.label in template: 56.N)
Alignment accuracy: 10</title><text x="415.03" y="199.24" class="text-green font" >T</text></g>
<g><title>Position: 57 (position.label in template: 57.G)
Alignment accuracy: 10</title><text x="413.59" y="228.64" class="text-green font" >G</text></g>
<g><title>Position: 58 (position.label in template: 58.A)
Alignment accuracy: 10</title><text x="441.47" y="243.76" class="text-black font" >A</text></g>
<g><title>Position: 59 (position.label in template: 59.U)
Alignment accuracy: 10</title><text x="414.43" y="258.88" class="text-green font" >T</text></g>
<g><title>Position: 60 (position.label in template: 60.N)
Alignment accuracy: 10</title><text x="415.03" y="289.96" class="text-green font" >G</text></g>
<g><title>Position: 61 (position.label in template: 61.N)
Alignment accuracy: 10</title><text x="427.43" y="317.52" class="text-green font" >T</text></g>
<g><title>Position: 62 (position.label in template: 62.Y)
Alignment accuracy: 10</title><text x="415.27" y="344.28" class="text-green font" >C</text></g>
<g><title>Position: 63 (position.label in template: 63.N)
Alignment accuracy: 10</title><text x="415.03" y="375.36" class="text-green font" >G</text></g>
<g><title>Position: 64 (position.label in template: 64.U)
Alignment accuracy: 10</title><text x="436.56" y="396.6" class="text-green font" >T</text></g>
<g><title>Position: 65 (position.label in template: 65.N)
Alignment accuracy: 10</title><text x="466.79" y="397.42" class="text-green font" >A</text></g>
<g><title>Position: 66 (position.label in template: 66.N)
Alignment accuracy: 10</title><text x="497.04" y="397.42" class="text-green font" >T</text></g>
<g><title>Position: 67 (position.label in template: 67.N)
Alignment accuracy: 10</title><text x="527.29" y="397.42" class="text-green font" >A</text></g>
<g><title>Position: 68 (position.label in template: 68.N)
Alignment accuracy: 10</title><text x="557.53" y="397.42" class="text-green font" >C</text></g>
<g><title>Position: 69 (position.label in template: 69.N)
Alignment accuracy: 10</title><text x="587.78" y="397.42" class="text-green font" >A</text></g>
<g><title>Position: 70 (position.label in template: 70.G)
Alignment accuracy: 10</title><text x="618.01" y="396.54" class="text-black font" >G</text></g>
<g><title>Position: 71 (position.label in template: 71.R)
Alignment accuracy: 10</title><text x="648.25" y="396.54" class="text-green font" >G</text></g>
<g><title>Position: 72 (position.label in template: 72.G)
Alignment accuracy: 10</title><text x="678.5" y="396.54" class="text-black font" >G</text></g>
<g><title>Position: 73 (position.label in template: 73.C)
Alignment accuracy: 10</title><text x="708.75" y="396.54" class="text-black font" >C</text></g>
<g><title>Position: 74 (position.label in template: 74.N)
Alignment accuracy: 10</title><text x="738.98" y="397.37" class="text-green font" >T</text></g>
<g><title>Position: 75 (position.label in template: 75.U)
Alignment accuracy: 10</title><text x="769.21" y="396.51" class="text-green font" >T</text></g>
<g><title>Position: 76 (position.label in template: 76.U)
Alignment accuracy: 10</title><text x="799.46" y="396.51" class="text-green font" >T</text></g>
<g><title>Position: 77 (position.label in template: 77.U)
Alignment accuracy: 10</title><text x="829.7" y="396.51" class="text-green font" >T</text></g>
<g><title>Position: 78 (position.label in template: 78.R)
Alignment accuracy: 10</title><text x="859.95" y="396.51" class="text-green font" >G</text></g>
<g><title>Position: 79 (position.label in template: 79.3')</title><text x="890.19" y="396.51" class="text-green font" >3'</text></g>
</g>
<g class="labels">
<g class="label">
<text x="215.23073842993844" y="313.2778180275786" class="font numbering-label sequential" >10</text>
<line x1="235.35234236692506" y1="313.83675147027265" x2="222.55050771704785" y2="313.48114495222046" class="numbering-line sequential" />
</g><g class="label">
<text x="203.15618105665283" y="53.53400624654853" class="font numbering-label sequential" >20</text>
<line x1="223.2151270678024" y1="51.8517350103611" x2="210.47595034376224" y2="52.92012367662744" class="numbering-line sequential" />
</g><g class="label">
<text x="319.07842426376885" y="223.32" class="font numbering-label sequential" >30</text>
<line x1="298.9490588592083" y1="223.32" x2="311.7586549766595" y2="223.32" class="numbering-line sequential" />
</g><g class="label">
<text x="362.94101236357324" y="57.01021522181071" class="font numbering-label sequential" >50</text>
<line x1="371.76798245563896" y1="75.10098498387708" x2="365.9172715935524" y2="63.11002296106858" class="numbering-line sequential" />
</g></g>

<g class="bps-pn"><polyline points="230.51 51.24, 306.07 50.44" class="pseudoknot_segment1" title="Pseudoknot 20:24--70:74(AGCCC--GGGCT)"/><polyline points="618.01 396.54, 738.98 397.37" class="pseudoknot_segment2" title="Pseudoknot 20:24--70:74(AGCCC--GGGCT)"/><polyline points="230.51 51.24, 618.01 396.54" class="pseudoknot_connection" title="Pseudoknot 20:24--70:74(AGCCC--GGGCT)"/></g>
</svg>