<?xml version="1.0" encoding="utf-8"?>
<!-- Generator: Adobe Illustrator 23.0.3, SVG Export Plug-In . SVG Version: 6.00 Build 0)  -->
<svg version="1.1" baseProfile="tiny" id="Layer_1" xmlns="http://www.w3.org/2000/svg" xmlns:xlink="http://www.w3.org/1999/xlink"
	 x="0px" y="0px" viewBox="0 0 612 792" xml:space="preserve">
<g id="Letters">
	<text transform="matrix(1 0 0 1 190.03 710.18)" font-family="'Helvetica'" font-size="11px">A</text>
	<text transform="matrix(1 0 0 1 201.82 717.82)" font-family="'Helvetica'" font-size="11px">G</text>
	<text transform="matrix(1 0 0 1 213.89 717.82)" font-family="'Helvetica'" font-size="11px">G</text>
	<text transform="matrix(1 0 0 1 226.26 717.82)" font-family="'Helvetica'" font-size="11px">G</text>
	<text transform="matrix(1 0 0 1 238.19 717.82)" font-family="'Helvetica'" font-size="11px">G</text>
	<text transform="matrix(1 0 0 1 250.22 717.55)" font-family="'Helvetica'" font-size="11px">G</text>
	<text transform="matrix(1 0 0 1 262.33 717.55)" font-family="'Helvetica'" font-size="11px">C</text>
	<text transform="matrix(1 0 0 1 275.69 717.55)" font-family="'Helvetica'" font-size="11px">U</text>
	<text transform="matrix(1 0 0 1 287.73 714.27)" font-family="'Helvetica'" font-size="11px">G</text>
	<text transform="matrix(1 0 0 1 287.16 702)" font-family="'Helvetica'" font-size="11px">G</text>
	<text transform="matrix(1 0 0 1 287.93 691.09)" font-family="'Helvetica'" font-size="11px">U</text>
	<text transform="matrix(1 0 0 1 287.44 678.82)" font-family="'Helvetica'" font-size="11px">G</text>
	<text transform="matrix(1 0 0 1 287.44 666.82)" font-family="'Helvetica'" font-size="11px">A</text>
	<text transform="matrix(1 0 0 1 287.65 654.55)" font-family="'Helvetica'" font-size="11px">C</text>
	<text transform="matrix(1 0 0 1 278.44 649.64)" font-family="'Helvetica'" font-size="11px">U</text>
	<text transform="matrix(1 0 0 1 268.7 641.45)" font-family="'Helvetica'" font-size="11px">U</text>
	<text transform="matrix(1 0 0 1 275.96 631.36)" font-family="'Helvetica'" font-size="11px">U</text>
	<text transform="matrix(1 0 0 1 274.09 619.36)" font-family="'Helvetica'" font-size="11px">C</text>
	<text transform="matrix(1 0 0 1 262.08 619.09)" font-family="'Helvetica'" font-size="11px">C</text>
	<text transform="matrix(1 0 0 1 249.66 619.09)" font-family="'Helvetica'" font-size="11px">C</text>
	<text transform="matrix(1 0 0 1 238.01 619.36)" font-family="'Helvetica'" font-size="11px">C</text>
	<text transform="matrix(1 0 0 1 227.27 619.36)" font-family="'Helvetica'" font-size="11px">U</text>
	<text transform="matrix(1 0 0 1 213.66 619.64)" font-family="'Helvetica'" font-size="11px">C</text>
	<text transform="matrix(1 0 0 1 202.79 619.36)" font-family="'Helvetica'" font-size="11px">U</text>
	<text transform="matrix(1 0 0 1 190.29 619.09)" font-family="'Helvetica'" font-size="11px">U</text>
	<text transform="matrix(1 0 0 1 181.57 607.36)" font-family="'Helvetica'" font-size="11px">U</text>
	<text transform="matrix(1 0 0 1 190.57 594.82)" font-family="'Helvetica'" font-size="11px">A</text>
	<text transform="matrix(1 0 0 1 202.79 594.82)" font-family="'Helvetica'" font-size="11px">A</text>
	<text transform="matrix(1 0 0 1 213.71 594.82)" font-family="'Helvetica'" font-size="11px">G</text>
	<text transform="matrix(1 0 0 1 227.32 594.54)" font-family="'Helvetica'" font-size="11px">A</text>
	<text transform="matrix(1 0 0 1 237.44 594.54)" font-family="'Helvetica'" font-size="11px">G</text>
	<text transform="matrix(1 0 0 1 249.87 594.54)" font-family="'Helvetica'" font-size="11px">G</text>
	<text transform="matrix(1 0 0 1 261.88 594.82)" font-family="'Helvetica'" font-size="11px">G</text>
	<text transform="matrix(1 0 0 1 274.09 594.54)" font-family="'Helvetica'" font-size="11px">G</text>
	<text transform="matrix(1 0 0 1 274.09 581.73)" font-family="'Helvetica'" font-size="11px">A</text>
	<text transform="matrix(1 0 0 1 274.09 568.09)" font-family="'Helvetica'" font-size="11px">G</text>
	<text transform="matrix(1 0 0 1 273.72 553.09)" font-family="'Helvetica'" font-size="11px">G</text>
	<text transform="matrix(1 0 0 1 274.38 538.64)" font-family="'Helvetica'" font-size="11px">A</text>
	<text transform="matrix(1 0 0 1 283.39 528.27)" font-family="'Helvetica'" font-size="11px">A</text>
	<text transform="matrix(1 0 0 1 274.38 518.18)" font-family="'Helvetica'" font-size="11px">G</text>
	<text transform="matrix(1 0 0 1 274.38 503.18)" font-family="'Helvetica'" font-size="11px">U</text>
	<text transform="matrix(1 0 0 1 283.72 492.55)" font-family="'Helvetica'" font-size="11px">U</text>
	<text transform="matrix(1 0 0 1 274.09 483)" font-family="'Helvetica'" font-size="11px">C</text>
	<text transform="matrix(1 0 0 1 274.09 468)" font-family="'Helvetica'" font-size="11px">C</text>
	<text transform="matrix(1 0 0 1 274.09 454.09)" font-family="'Helvetica'" font-size="11px">G</text>
	<text transform="matrix(1 0 0 1 274.01 438.82)" font-family="'Helvetica'" font-size="11px">C</text>
	<text transform="matrix(1 0 0 1 274.09 424.36)" font-family="'Helvetica'" font-size="11px">C</text>
	<text transform="matrix(1 0 0 1 274.09 410.73)" font-family="'Helvetica'" font-size="11px">C</text>
	<text transform="matrix(1 0 0 1 261.8 410.73)" font-family="'Helvetica'" font-size="11px">A</text>
	<text transform="matrix(1 0 0 1 249.66 410.73)" font-family="'Helvetica'" font-size="11px">C</text>
	<text transform="matrix(1 0 0 1 238.22 410.73)" font-family="'Helvetica'" font-size="11px">C</text>
	<text transform="matrix(1 0 0 1 225.87 411.27)" font-family="'Helvetica'" font-size="11px">C</text>
	<text transform="matrix(1 0 0 1 213.02 411.55)" font-family="'Helvetica'" font-size="11px">C</text>
	<text transform="matrix(1 0 0 1 207.87 424.64)" font-family="'Helvetica'" font-size="11px">A</text>
	<text transform="matrix(1 0 0 1 201.91 436.36)" font-family="'Helvetica'" font-size="11px">U</text>
	<text transform="matrix(1 0 0 1 190.57 438.27)" font-family="'Helvetica'" font-size="11px">U</text>
	<text transform="matrix(1 0 0 1 178.18 433.91)" font-family="'Helvetica'" font-size="11px">U</text>
	<text transform="matrix(1 0 0 1 173.5 421.64)" font-family="'Helvetica'" font-size="11px">A</text>
	<text transform="matrix(1 0 0 1 179.77 408.82)" font-family="'Helvetica'" font-size="11px">U</text>
	<text transform="matrix(1 0 0 1 190.57 400.09)" font-family="'Helvetica'" font-size="11px">G</text>
	<text transform="matrix(1 0 0 1 179.77 393.82)" font-family="'Helvetica'" font-size="11px">G</text>
	<text transform="matrix(1 0 0 1 169.37 388.09)" font-family="'Helvetica'" font-size="11px">G</text>
	<text transform="matrix(1 0 0 1 158.82 380.73)" font-family="'Helvetica'" font-size="11px">C</text>
	<text transform="matrix(1 0 0 1 149.69 373.09)" font-family="'Helvetica'" font-size="11px">A</text>
	<text transform="matrix(1 0 0 1 140.2 367.09)" font-family="'Helvetica'" font-size="11px">G</text>
	<text transform="matrix(1 0 0 1 128.97 369)" font-family="'Helvetica'" font-size="11px">C</text>
	<text transform="matrix(1 0 0 1 117.7 361.91)" font-family="'Helvetica'" font-size="11px">G</text>
	<text transform="matrix(1 0 0 1 117.02 346.64)" font-family="'Helvetica'" font-size="11px">U</text>
	<text transform="matrix(1 0 0 1 104.8 340.36)" font-family="'Helvetica'" font-size="11px">C</text>
	<text transform="matrix(1 0 0 1 94.68 335.18)" font-family="'Helvetica'" font-size="11px">C</text>
	<text transform="matrix(1 0 0 1 84.22 327.82)" font-family="'Helvetica'" font-size="11px">C</text>
	<text transform="matrix(1 0 0 1 73.16 321.27)" font-family="'Helvetica'" font-size="11px">C</text>
	<text transform="matrix(1 0 0 1 64.15 315)" font-family="'Helvetica'" font-size="11px">U</text>
	<text transform="matrix(1 0 0 1 53.17 309.55)" font-family="'Helvetica'" font-size="11px">G</text>
	<text transform="matrix(1 0 0 1 46.28 298.36)" font-family="'Helvetica'" font-size="11px">A</text>
	<text transform="matrix(1 0 0 1 54.56 286.09)" font-family="'Helvetica'" font-size="11px">G</text>
	<text transform="matrix(1 0 0 1 69.09 283.91)" font-family="'Helvetica'" font-size="11px">A</text>
	<text transform="matrix(1 0 0 1 77.09 292.64)" font-family="'Helvetica'" font-size="11px">A</text>
	<text transform="matrix(1 0 0 1 87.93 301.09)" font-family="'Helvetica'" font-size="11px">G</text>
	<text transform="matrix(1 0 0 1 98.69 307.64)" font-family="'Helvetica'" font-size="11px">G</text>
	<text transform="matrix(1 0 0 1 107.96 313.64)" font-family="'Helvetica'" font-size="11px">G</text>
	<text transform="matrix(1 0 0 1 119.34 319.91)" font-family="'Helvetica'" font-size="11px">G</text>
	<text transform="matrix(1 0 0 1 128.95 327.27)" font-family="'Helvetica'" font-size="11px">C</text>
	<text transform="matrix(1 0 0 1 139.33 317.45)" font-family="'Helvetica'" font-size="11px">G</text>
	<text transform="matrix(1 0 0 1 147.71 307.64)" font-family="'Helvetica'" font-size="11px">G</text>
	<text transform="matrix(1 0 0 1 155.31 295.91)" font-family="'Helvetica'" font-size="11px">G</text>
	<text transform="matrix(1 0 0 1 164.04 282.27)" font-family="'Helvetica'" font-size="11px">A</text>
	<text transform="matrix(1 0 0 1 173.21 273)" font-family="'Helvetica'" font-size="11px">G</text>
	<text transform="matrix(1 0 0 1 180.31 259.91)" font-family="'Helvetica'" font-size="11px">A</text>
	<text transform="matrix(1 0 0 1 189.44 252)" font-family="'Helvetica'" font-size="11px">U</text>
	<text transform="matrix(1 0 0 1 197.21 239.45)" font-family="'Helvetica'" font-size="11px">G</text>
	<text transform="matrix(1 0 0 1 205.64 229.64)" font-family="'Helvetica'" font-size="11px">C</text>
	<text transform="matrix(1 0 0 1 202.62 216.82)" font-family="'Helvetica'" font-size="11px">A</text>
	<text transform="matrix(1 0 0 1 197.56 205.64)" font-family="'Helvetica'" font-size="11px">G</text>
	<text transform="matrix(1 0 0 1 195.91 192.55)" font-family="'Helvetica'" font-size="11px">C</text>
	<text transform="matrix(1 0 0 1 195.83 177.27)" font-family="'Helvetica'" font-size="11px">A</text>
	<text transform="matrix(1 0 0 1 201.69 162.82)" font-family="'Helvetica'" font-size="11px">G</text>
	<text transform="matrix(1 0 0 1 207.32 149.18)" font-family="'Helvetica'" font-size="11px">A</text>
	<text transform="matrix(1 0 0 1 217.78 137.18)" font-family="'Helvetica'" font-size="11px">A</text>
	<text transform="matrix(1 0 0 1 229.15 129.82)" font-family="'Helvetica'" font-size="11px">A</text>
	<text transform="matrix(1 0 0 1 243.07 125.46)" font-family="'Helvetica'" font-size="11px">C</text>
	<text transform="matrix(1 0 0 1 256.18 124.91)" font-family="'Helvetica'" font-size="11px">G</text>
	<text transform="matrix(1 0 0 1 268.12 126.55)" font-family="'Helvetica'" font-size="11px">A</text>
	<text transform="matrix(1 0 0 1 279.89 132)" font-family="'Helvetica'" font-size="11px">C</text>
	<text transform="matrix(1 0 0 1 290.77 138)" font-family="'Helvetica'" font-size="11px">A</text>
	<text transform="matrix(1 0 0 1 300.69 149.73)" font-family="'Helvetica'" font-size="11px">C</text>
	<text transform="matrix(1 0 0 1 311.45 142.64)" font-family="'Helvetica'" font-size="11px">G</text>
	<text transform="matrix(1 0 0 1 322.35 133.36)" font-family="'Helvetica'" font-size="11px">G</text>
	<text transform="matrix(1 0 0 1 338.26 120.82)" font-family="'Helvetica'" font-size="11px">C</text>
	<text transform="matrix(1 0 0 1 348.47 112.64)" font-family="'Helvetica'" font-size="11px">U</text>
	<text transform="matrix(1 0 0 1 360.22 105)" font-family="'Helvetica'" font-size="11px">C</text>
	<text transform="matrix(1 0 0 1 369.93 96.55)" font-family="'Helvetica'" font-size="11px">C</text>
	<text transform="matrix(1 0 0 1 381.14 88.09)" font-family="'Helvetica'" font-size="11px">G</text>
	<text transform="matrix(1 0 0 1 391.23 81)" font-family="'Helvetica'" font-size="11px">G</text>
	<text transform="matrix(1 0 0 1 403.65 73.64)" font-family="'Helvetica'" font-size="11px">A</text>
	<text transform="matrix(1 0 0 1 412.58 65.73)" font-family="'Helvetica'" font-size="11px">A</text>
	<text transform="matrix(1 0 0 1 412.46 53.18)" font-family="'Helvetica'" font-size="11px">G</text>
	<text transform="matrix(1 0 0 1 414.27 40.91)" font-family="'Helvetica'" font-size="11px">A</text>
	<text transform="matrix(1 0 0 1 424.65 36)" font-family="'Helvetica'" font-size="11px">G</text>
	<text transform="matrix(1 0 0 1 435.63 38.45)" font-family="'Helvetica'" font-size="11px">A</text>
	<text transform="matrix(1 0 0 1 440.58 50.46)" font-family="'Helvetica'" font-size="11px">U</text>
	<text transform="matrix(1 0 0 1 439.86 63.27)" font-family="'Helvetica'" font-size="11px">G</text>
	<text transform="matrix(1 0 0 1 452.28 62.18)" font-family="'Helvetica'" font-size="11px">A</text>
	<text transform="matrix(1 0 0 1 463.54 62.73)" font-family="'Helvetica'" font-size="11px">C</text>
	<text transform="matrix(1 0 0 1 468.21 50.73)" font-family="'Helvetica'" font-size="11px">G</text>
	<text transform="matrix(1 0 0 1 479.56 48)" font-family="'Helvetica'" font-size="11px">A</text>
	<text transform="matrix(1 0 0 1 490.54 53.45)" font-family="'Helvetica'" font-size="11px">U</text>
	<text transform="matrix(1 0 0 1 493.44 67.91)" font-family="'Helvetica'" font-size="11px">G</text>
	<text transform="matrix(1 0 0 1 508.64 74.45)" font-family="'Helvetica'" font-size="11px">A</text>
	<text transform="matrix(1 0 0 1 521.31 70.91)" font-family="'Helvetica'" font-size="11px">U</text>
	<text transform="matrix(1 0 0 1 523.72 82.64)" font-family="'Helvetica'" font-size="11px">A</text>
	<text transform="matrix(1 0 0 1 535.79 88.91)" font-family="'Helvetica'" font-size="11px">G</text>
	<text transform="matrix(1 0 0 1 547.86 93.55)" font-family="'Helvetica'" font-size="11px">U</text>
	<text transform="matrix(1 0 0 1 559.32 93.55)" font-family="'Helvetica'" font-size="11px">G</text>
	<text transform="matrix(1 0 0 1 565.72 107.18)" font-family="'Helvetica'" font-size="11px">A</text>
	<text transform="matrix(1 0 0 1 562.82 121.36)" font-family="'Helvetica'" font-size="11px">A</text>
	<text transform="matrix(1 0 0 1 549.79 125.46)" font-family="'Helvetica'" font-size="11px">A</text>
	<text transform="matrix(1 0 0 1 538.33 120)" font-family="'Helvetica'" font-size="11px">G</text>
	<text transform="matrix(1 0 0 1 526.26 113.73)" font-family="'Helvetica'" font-size="11px">U</text>
	<text transform="matrix(1 0 0 1 514.79 108.82)" font-family="'Helvetica'" font-size="11px">U</text>
	<text transform="matrix(1 0 0 1 497.78 96.55)" font-family="'Helvetica'" font-size="11px">G</text>
	<text transform="matrix(1 0 0 1 482.82 91.09)" font-family="'Helvetica'" font-size="11px">A</text>
	<text transform="matrix(1 0 0 1 469.42 100.09)" font-family="'Helvetica'" font-size="11px">G</text>
	<text transform="matrix(1 0 0 1 463.75 88.91)" font-family="'Helvetica'" font-size="11px">G</text>
	<text transform="matrix(1 0 0 1 450.96 89.18)" font-family="'Helvetica'" font-size="11px">A</text>
	<text transform="matrix(1 0 0 1 439.04 90)" font-family="'Helvetica'" font-size="11px">C</text>
	<text transform="matrix(1 0 0 1 428.03 89.73)" font-family="'Helvetica'" font-size="11px">U</text>
	<text transform="matrix(1 0 0 1 418.01 96)" font-family="'Helvetica'" font-size="11px">U</text>
	<text transform="matrix(1 0 0 1 407.66 103.91)" font-family="'Helvetica'" font-size="11px">C</text>
	<text transform="matrix(1 0 0 1 395.33 112.64)" font-family="'Helvetica'" font-size="11px">C</text>
	<text transform="matrix(1 0 0 1 384.03 119.73)" font-family="'Helvetica'" font-size="11px">G</text>
	<text transform="matrix(1 0 0 1 374.37 129)" font-family="'Helvetica'" font-size="11px">G</text>
	<text transform="matrix(1 0 0 1 364.71 136.09)" font-family="'Helvetica'" font-size="11px">A</text>
	<text transform="matrix(1 0 0 1 353.24 144.27)" font-family="'Helvetica'" font-size="11px">G</text>
	<text transform="matrix(1 0 0 1 355.56 156.82)" font-family="'Helvetica'" font-size="11px">A</text>
	<text transform="matrix(1 0 0 1 345.64 162)" font-family="'Helvetica'" font-size="11px">A</text>
	<text transform="matrix(1 0 0 1 337.76 156.55)" font-family="'Helvetica'" font-size="11px">C</text>
	<text transform="matrix(1 0 0 1 326.87 164.18)" font-family="'Helvetica'" font-size="11px">C</text>
	<text transform="matrix(1 0 0 1 316.59 173.18)" font-family="'Helvetica'" font-size="11px">G</text>
	<text transform="matrix(1 0 0 1 316.58 187.09)" font-family="'Helvetica'" font-size="11px">G</text>
	<text transform="matrix(1 0 0 1 312.49 202.64)" font-family="'Helvetica'" font-size="11px">U</text>
	<text transform="matrix(1 0 0 1 307.6 218.45)" font-family="'Helvetica'" font-size="11px">G</text>
	<text transform="matrix(1 0 0 1 298.79 229.36)" font-family="'Helvetica'" font-size="11px">A</text>
	<text transform="matrix(1 0 0 1 289.66 237.27)" font-family="'Helvetica'" font-size="11px">A</text>
	<text transform="matrix(1 0 0 1 276.26 243.55)" font-family="'Helvetica'" font-size="11px">A</text>
	<text transform="matrix(1 0 0 1 263.93 247.91)" font-family="'Helvetica'" font-size="11px">C</text>
	<text transform="matrix(1 0 0 1 250.45 247.64)" font-family="'Helvetica'" font-size="11px">G</text>
	<text transform="matrix(1 0 0 1 238.47 245.45)" font-family="'Helvetica'" font-size="11px">G</text>
	<text transform="matrix(1 0 0 1 227.56 246.27)" font-family="'Helvetica'" font-size="11px">G</text>
	<text transform="matrix(1 0 0 1 219.78 257.45)" font-family="'Helvetica'" font-size="11px">C</text>
	<text transform="matrix(1 0 0 1 210.48 266.73)" font-family="'Helvetica'" font-size="11px">A</text>
	<text transform="matrix(1 0 0 1 201.07 277.36)" font-family="'Helvetica'" font-size="11px">U</text>
	<text transform="matrix(1 0 0 1 192.67 288.82)" font-family="'Helvetica'" font-size="11px">C</text>
	<text transform="matrix(1 0 0 1 184.69 301.36)" font-family="'Helvetica'" font-size="11px">U</text>
	<text transform="matrix(1 0 0 1 175.47 311.73)" font-family="'Helvetica'" font-size="11px">C</text>
	<text transform="matrix(1 0 0 1 167.92 322.36)" font-family="'Helvetica'" font-size="11px">C</text>
	<text transform="matrix(1 0 0 1 160.24 333.82)" font-family="'Helvetica'" font-size="11px">C</text>
	<text transform="matrix(1 0 0 1 154.92 345.55)" font-family="'Helvetica'" font-size="11px">C</text>
	<text transform="matrix(1 0 0 1 164.16 352.09)" font-family="'Helvetica'" font-size="11px">U</text>
	<text transform="matrix(1 0 0 1 172.84 360.27)" font-family="'Helvetica'" font-size="11px">G</text>
	<text transform="matrix(1 0 0 1 182.9 366.55)" font-family="'Helvetica'" font-size="11px">C</text>
	<text transform="matrix(1 0 0 1 193.13 373.36)" font-family="'Helvetica'" font-size="11px">C</text>
	<text transform="matrix(1 0 0 1 202.79 379.36)" font-family="'Helvetica'" font-size="11px">C</text>
	<text transform="matrix(1 0 0 1 213.3 386.45)" font-family="'Helvetica'" font-size="11px">G</text>
	<text transform="matrix(1 0 0 1 225.8 386.45)" font-family="'Helvetica'" font-size="11px">G</text>
	<text transform="matrix(1 0 0 1 238.01 386.45)" font-family="'Helvetica'" font-size="11px">G</text>
	<text transform="matrix(1 0 0 1 249.66 386.45)" font-family="'Helvetica'" font-size="11px">G</text>
	<text transform="matrix(1 0 0 1 261.88 386.45)" font-family="'Helvetica'" font-size="11px">U</text>
	<text transform="matrix(1 0 0 1 273.81 386.45)" font-family="'Helvetica'" font-size="11px">G</text>
	<text transform="matrix(1 0 0 1 284.89 379.09)" font-family="'Helvetica'" font-size="11px">C</text>
	<text transform="matrix(1 0 0 1 298.24 375.55)" font-family="'Helvetica'" font-size="11px">A</text>
	<text transform="matrix(1 0 0 1 310.46 377.45)" font-family="'Helvetica'" font-size="11px">A</text>
	<text transform="matrix(1 0 0 1 322.39 384.82)" font-family="'Helvetica'" font-size="11px">G</text>
	<text transform="matrix(1 0 0 1 334.6 384.55)" font-family="'Helvetica'" font-size="11px">C</text>
	<text transform="matrix(1 0 0 1 345.4 384.82)" font-family="'Helvetica'" font-size="11px">C</text>
	<text transform="matrix(1 0 0 1 356.43 384.82)" font-family="'Helvetica'" font-size="11px">G</text>
	<text transform="matrix(1 0 0 1 369.99 380.18)" font-family="'Helvetica'" font-size="11px">G</text>
	<text transform="matrix(1 0 0 1 380.95 393.82)" font-family="'Helvetica'" font-size="11px">U</text>
	<text transform="matrix(1 0 0 1 380.58 410.45)" font-family="'Helvetica'" font-size="11px">U</text>
	<text transform="matrix(1 0 0 1 368.82 416.45)" font-family="'Helvetica'" font-size="11px">U</text>
	<text transform="matrix(1 0 0 1 356.84 409.36)" font-family="'Helvetica'" font-size="11px">C</text>
	<text transform="matrix(1 0 0 1 345.66 409.64)" font-family="'Helvetica'" font-size="11px">G</text>
	<text transform="matrix(1 0 0 1 334.58 409.64)" font-family="'Helvetica'" font-size="11px">G</text>
	<text transform="matrix(1 0 0 1 322.65 409.36)" font-family="'Helvetica'" font-size="11px">C</text>
	<text transform="matrix(1 0 0 1 320.52 423.27)" font-family="'Helvetica'" font-size="11px">G</text>
	<text transform="matrix(1 0 0 1 320.54 441.27)" font-family="'Helvetica'" font-size="11px">C</text>
	<text transform="matrix(1 0 0 1 320.6 460.09)" font-family="'Helvetica'" font-size="11px">U</text>
	<text transform="matrix(1 0 0 1 318.57 480.27)" font-family="'Helvetica'" font-size="11px">U</text>
	<text transform="matrix(1 0 0 1 317.41 496.09)" font-family="'Helvetica'" font-size="11px">A</text>
	<text transform="matrix(1 0 0 1 315.86 514.91)" font-family="'Helvetica'" font-size="11px">G</text>
	<text transform="matrix(1 0 0 1 316.35 532.91)" font-family="'Helvetica'" font-size="11px">C</text>
	<text transform="matrix(1 0 0 1 316.65 554.18)" font-family="'Helvetica'" font-size="11px">C</text>
	<text transform="matrix(1 0 0 1 316.36 574.36)" font-family="'Helvetica'" font-size="11px">G</text>
	<text transform="matrix(1 0 0 1 316.73 598.09)" font-family="'Helvetica'" font-size="11px">A</text>
	<text transform="matrix(1 0 0 1 316.61 617.18)" font-family="'Helvetica'" font-size="11px">A</text>
	<text transform="matrix(1 0 0 1 316.32 637.64)" font-family="'Helvetica'" font-size="11px">U</text>
	<text transform="matrix(1 0 0 1 311.59 654.82)" font-family="'Helvetica'" font-size="11px">G</text>
	<text transform="matrix(1 0 0 1 311.8 666.55)" font-family="'Helvetica'" font-size="11px">U</text>
	<text transform="matrix(1 0 0 1 311.8 678.54)" font-family="'Helvetica'" font-size="11px">C</text>
	<text transform="matrix(1 0 0 1 311.59 691.36)" font-family="'Helvetica'" font-size="11px">A</text>
	<text transform="matrix(1 0 0 1 311.59 702.82)" font-family="'Helvetica'" font-size="11px">C</text>
	<text transform="matrix(1 0 0 1 311.92 714.82)" font-family="'Helvetica'" font-size="11px">C</text>
	<text transform="matrix(1 0 0 1 323.91 715.91)" font-family="'Helvetica'" font-size="11px">G</text>
	<text transform="matrix(1 0 0 1 335.24 715.64)" font-family="'Helvetica'" font-size="11px">A</text>
	<text transform="matrix(1 0 0 1 347.81 715.91)" font-family="'Helvetica'" font-size="11px">A</text>
	<text transform="matrix(1 0 0 1 358.89 715.91)" font-family="'Helvetica'" font-size="11px">A</text>
	<text transform="matrix(1 0 0 1 368.62 716.18)" font-family="'Helvetica'" font-size="11px">U</text>
	<text transform="matrix(1 0 0 1 379.75 716.18)" font-family="'Helvetica'" font-size="11px">U</text>
	<text transform="matrix(1 0 0 1 389.45 717)" font-family="'Helvetica'" font-size="11px">A</text>
	<text transform="matrix(1 0 0 1 402.42 719.45)" font-family="'Helvetica'" font-size="11px">C</text>
	<text transform="matrix(1 0 0 1 414.27 724.64)" font-family="'Helvetica'" font-size="11px">A</text>
	<text transform="matrix(1 0 0 1 416 739.91)" font-family="'Helvetica'" font-size="11px">G</text>
	<text transform="matrix(1 0 0 1 411.57 753.54)" font-family="'Helvetica'" font-size="11px">A</text>
	<text transform="matrix(1 0 0 1 400.34 755.45)" font-family="'Helvetica'" font-size="11px">A</text>
	<text transform="matrix(1 0 0 1 388.74 755.45)" font-family="'Helvetica'" font-size="11px">G</text>
	<text transform="matrix(1 0 0 1 376.72 755.73)" font-family="'Helvetica'" font-size="11px">G</text>
	<text transform="matrix(1 0 0 1 364.19 756)" font-family="'Helvetica'" font-size="11px">C</text>
	<text transform="matrix(1 0 0 1 351.72 755.73)" font-family="'Helvetica'" font-size="11px">G</text>
	<text transform="matrix(1 0 0 1 339.6 756)" font-family="'Helvetica'" font-size="11px">G</text>
	<text transform="matrix(1 0 0 1 327.44 756)" font-family="'Helvetica'" font-size="11px">G</text>
	<text transform="matrix(1 0 0 1 315.26 756)" font-family="'Helvetica'" font-size="11px">C</text>
	<text transform="matrix(1 0 0 1 304.56 756)" font-family="'Helvetica'" font-size="11px">U</text>
	<text transform="matrix(1 0 0 1 294.26 754.36)" font-family="'Helvetica'" font-size="11px">A</text>
	<text transform="matrix(1 0 0 1 285.28 747.82)" font-family="'Helvetica'" font-size="11px">U</text>
	<text transform="matrix(1 0 0 1 275.23 742.36)" font-family="'Helvetica'" font-size="11px">A</text>
	<text transform="matrix(1 0 0 1 262.62 741.82)" font-family="'Helvetica'" font-size="11px">G</text>
	<text transform="matrix(1 0 0 1 250.12 741.82)" font-family="'Helvetica'" font-size="11px">C</text>
	<text transform="matrix(1 0 0 1 238.19 741.82)" font-family="'Helvetica'" font-size="11px">C</text>
	<text transform="matrix(1 0 0 1 225.97 741.82)" font-family="'Helvetica'" font-size="11px">C</text>
	<text transform="matrix(1 0 0 1 213.76 742.09)" font-family="'Helvetica'" font-size="11px">C</text>
	<text transform="matrix(1 0 0 1 201.96 742.36)" font-family="'Helvetica'" font-size="11px">C</text>
	<text transform="matrix(1 0 0 1 191.85 748.09)" font-family="'Helvetica'" font-size="11px">A</text>
</g>
<g id="Labels_Lines">
	
		<line fill="none" stroke="#000000" stroke-width="0.2" stroke-linejoin="round" stroke-miterlimit="10" x1="285.66" y1="696.3" x2="279.66" y2="696.1"/>
	
		<line fill="none" stroke="#000000" stroke-width="0.2" stroke-linejoin="round" stroke-miterlimit="10" x1="253.6" y1="620.34" x2="253.55" y2="626.34"/>
	
		<line fill="none" stroke="#000000" stroke-width="0.2" stroke-linejoin="round" stroke-miterlimit="10" x1="230.83" y1="582.79" x2="230.84" y2="576.79"/>
	
		<line fill="none" stroke="#000000" stroke-width="0.2" stroke-linejoin="round" stroke-miterlimit="10" x1="265.25" y1="514.94" x2="271.35" y2="514.3"/>
	
		<line fill="none" stroke="#000000" stroke-width="0.2" stroke-linejoin="round" stroke-miterlimit="10" x1="253.66" y1="411.98" x2="253.66" y2="417.98"/>
	
		<line fill="none" stroke="#000000" stroke-width="0.2" stroke-linejoin="round" stroke-miterlimit="10" x1="189.75" y1="396.56" x2="178.71" y2="396.73"/>
	
		<line fill="none" stroke="#000000" stroke-width="0.2" stroke-linejoin="round" stroke-miterlimit="10" x1="94.7" y1="336.13" x2="91.55" y2="341.24"/>
	
		<line fill="none" stroke="#000000" stroke-width="0.2" stroke-linejoin="round" stroke-miterlimit="10" x1="107.76" y1="295.76" x2="111.26" y2="290.89"/>
	
		<line fill="none" stroke="#000000" stroke-width="0.2" stroke-linejoin="round" stroke-miterlimit="10" x1="188.05" y1="242.73" x2="183.14" y2="239.29"/>
	
		<line fill="none" stroke="#000000" stroke-width="0.2" stroke-linejoin="round" stroke-miterlimit="10" x1="229.8" y1="118.26" x2="227.25" y2="112.83"/>
	
		<line fill="none" stroke="#000000" stroke-width="0.2" stroke-linejoin="round" stroke-miterlimit="10" x1="348.21" y1="101" x2="344.8" y2="96.06"/>
	
		<line fill="none" stroke="#000000" stroke-width="0.2" stroke-linejoin="round" stroke-miterlimit="10" x1="444" y1="27.17" x2="447.86" y2="22.58"/>
	
		<line fill="none" stroke="#000000" stroke-width="0.2" stroke-linejoin="round" stroke-miterlimit="10" x1="529.1" y1="59.2" x2="532.22" y2="54.08"/>
	
		<line fill="none" stroke="#000000" stroke-width="0.2" stroke-linejoin="round" stroke-miterlimit="10" x1="516.61" y1="109.71" x2="514.67" y2="115.39"/>
	
		<line fill="none" stroke="#000000" stroke-width="0.2" stroke-linejoin="round" stroke-miterlimit="10" x1="403.08" y1="113.62" x2="406.08" y2="118.82"/>
	
		<line fill="none" stroke="#000000" stroke-width="0.2" stroke-linejoin="round" stroke-miterlimit="10" x1="327.06" y1="182.37" x2="333.01" y2="183.14"/>
	
		<line fill="none" stroke="#000000" stroke-width="0.2" stroke-linejoin="round" stroke-miterlimit="10" x1="229.09" y1="256.19" x2="233.78" y2="259.93"/>
	
		<line fill="none" stroke="#000000" stroke-width="0.2" stroke-linejoin="round" stroke-miterlimit="10" x1="181.73" y1="348.37" x2="185.12" y2="343.42"/>
	
		<line fill="none" stroke="#000000" stroke-width="0.2" stroke-linejoin="round" stroke-miterlimit="10" x1="285.93" y1="367.02" x2="283.47" y2="361.54"/>
	
		<line fill="none" stroke="#000000" stroke-width="0.2" stroke-linejoin="round" stroke-miterlimit="10" x1="372.62" y1="417.45" x2="372.43" y2="423.45"/>
	
		<line fill="none" stroke="#000000" stroke-width="0.2" stroke-linejoin="round" stroke-miterlimit="10" x1="334.36" y1="510.75" x2="328.36" y2="510.58"/>
	
		<line fill="none" stroke="#000000" stroke-width="0.2" stroke-linejoin="round" stroke-miterlimit="10" x1="321.09" y1="685.93" x2="327.09" y2="686"/>
	
		<line fill="none" stroke="#000000" stroke-width="0.2" stroke-linejoin="round" stroke-miterlimit="10" x1="408.48" y1="707.29" x2="410.25" y2="701.56"/>
	
		<line fill="none" stroke="#000000" stroke-width="0.2" stroke-linejoin="round" stroke-miterlimit="10" x1="331.94" y1="757.25" x2="331.94" y2="763.25"/>
	
		<line fill="none" stroke="#000000" stroke-width="0.2" stroke-linejoin="round" stroke-miterlimit="10" x1="217.72" y1="743.34" x2="217.69" y2="749.34"/>
</g>
<g id="Labels_Text">
	<text transform="matrix(1 0 0 1 267.97 698.36)" font-family="'Helvetica'" font-size="8px">10</text>
	<text transform="matrix(1 0 0 1 249.3 634.84)" font-family="'Helvetica'" font-size="8px">20</text>
	<text transform="matrix(1 0 0 1 227.16 573.29)" font-family="'Helvetica'" font-size="8px">30</text>
	<text transform="matrix(1 0 0 1 254.52 517.18)" font-family="'Helvetica'" font-size="8px">40</text>
	<text transform="matrix(1 0 0 1 249.46 426.48)" font-family="'Helvetica'" font-size="8px">50</text>
	<text transform="matrix(1 0 0 1 167.13 398.45)" font-family="'Helvetica'" font-size="8px">60</text>
	<text transform="matrix(1 0 0 1 83.84 349.44)" font-family="'Helvetica'" font-size="8px">70</text>
	<text transform="matrix(1 0 0 1 110.59 287.76)" font-family="'Helvetica'" font-size="8px">80</text>
	<text transform="matrix(1 0 0 1 172.3 237.14)" font-family="'Helvetica'" font-size="8px">90</text>
	<text transform="matrix(1 0 0 1 219.23 109.52)" font-family="'Helvetica'" font-size="8px">100</text>
	<text transform="matrix(1 0 0 1 335.09 92.92)" font-family="'Helvetica'" font-size="8px">110</text>
	<text transform="matrix(1 0 0 1 447.21 19.55)" font-family="'Helvetica'" font-size="8px">120</text>
	<text transform="matrix(1 0 0 1 529.9 50.87)" font-family="'Helvetica'" font-size="8px">130</text>
	<text transform="matrix(1 0 0 1 506.86 123.78)" font-family="'Helvetica'" font-size="8px">140</text>
	<text transform="matrix(1 0 0 1 403.59 127.05)" font-family="'Helvetica'" font-size="8px">150</text>
	<text transform="matrix(1 0 0 1 336.2 186.87)" font-family="'Helvetica'" font-size="8px">160</text>
	<text transform="matrix(1 0 0 1 234.56 267.68)" font-family="'Helvetica'" font-size="8px">170</text>
	<text transform="matrix(1 0 0 1 182.69 340.27)" font-family="'Helvetica'" font-size="8px">180</text>
	<text transform="matrix(1 0 0 1 275.05 358.22)" font-family="'Helvetica'" font-size="8px">190</text>
	<text transform="matrix(1 0 0 1 366.44 431.95)" font-family="'Helvetica'" font-size="8px">200</text>
	<text transform="matrix(1 0 0 1 336.56 513.32)" font-family="'Helvetica'" font-size="8px">210</text>
	<text transform="matrix(1 0 0 1 331.29 688.61)" font-family="'Helvetica'" font-size="8px">220</text>
	<text transform="matrix(1 0 0 1 406.28 698.15)" font-family="'Helvetica'" font-size="8px">230</text>
	<text transform="matrix(1 0 0 1 325.64 771.75)" font-family="'Helvetica'" font-size="8px">240</text>
	<text transform="matrix(1 0 0 1 211.86 757.84)" font-family="'Helvetica'" font-size="8px">250</text>
</g>
<g id="Nucleotide_Lines">
	
		<line fill="none" stroke="#000000" stroke-width="0.2" stroke-linejoin="round" stroke-miterlimit="10" x1="205.58" y1="730.51" x2="205.53" y2="722.33"/>
	
		<line fill="none" stroke="#000000" stroke-width="0.2" stroke-linejoin="round" stroke-miterlimit="10" x1="217.47" y1="730.33" x2="217.51" y2="722.24"/>
	
		<line fill="none" stroke="#000000" stroke-width="0.2" stroke-linejoin="round" stroke-miterlimit="10" x1="229.73" y1="730.15" x2="229.83" y2="722.15"/>
	
		<line fill="none" stroke="#000000" stroke-width="0.2" stroke-linejoin="round" stroke-miterlimit="10" x1="241.86" y1="730.15" x2="241.86" y2="722.15"/>
	
		<line fill="none" stroke="#000000" stroke-width="0.2" stroke-linejoin="round" stroke-miterlimit="10" x1="253.82" y1="730.06" x2="253.85" y2="721.97"/>
	
		<line fill="none" stroke="#000000" stroke-width="0.2" stroke-linejoin="round" stroke-miterlimit="10" x1="266.19" y1="730.06" x2="266.09" y2="721.97"/>
	
		<line fill="none" stroke="#000000" stroke-width="0.2" stroke-linejoin="round" stroke-miterlimit="10" x1="279.05" y1="730.42" x2="279.2" y2="722.15"/>
	
		<line fill="none" stroke="#000000" stroke-width="0.2" stroke-linejoin="round" stroke-miterlimit="10" x1="307.52" y1="710.97" x2="299.46" y2="710.79"/>
	
		<line fill="none" stroke="#000000" stroke-width="0.2" stroke-linejoin="round" stroke-miterlimit="10" x1="307.11" y1="698.88" x2="298.97" y2="698.61"/>
	
		<line fill="none" stroke="#000000" stroke-width="0.2" stroke-linejoin="round" stroke-miterlimit="10" x1="307.37" y1="687.6" x2="299.48" y2="687.51"/>
	
		<line fill="none" stroke="#000000" stroke-width="0.2" stroke-linejoin="round" stroke-miterlimit="10" x1="307.35" y1="674.97" x2="299.23" y2="675.06"/>
	
		<line fill="none" stroke="#000000" stroke-width="0.2" stroke-linejoin="round" stroke-miterlimit="10" x1="307.35" y1="662.97" x2="299.23" y2="663.06"/>
	
		<line fill="none" stroke="#000000" stroke-width="0.2" stroke-linejoin="round" stroke-miterlimit="10" x1="307.28" y1="651.06" x2="299.3" y2="650.97"/>
	
		<line fill="none" stroke="#000000" stroke-width="0.2" stroke-linejoin="round" stroke-miterlimit="10" x1="277.76" y1="599.15" x2="277.76" y2="607.42"/>
	
		<line fill="none" stroke="#000000" stroke-width="0.2" stroke-linejoin="round" stroke-miterlimit="10" x1="265.61" y1="599.24" x2="265.68" y2="607.33"/>
	
		<line fill="none" stroke="#000000" stroke-width="0.2" stroke-linejoin="round" stroke-miterlimit="10" x1="253.47" y1="599.06" x2="253.4" y2="607.24"/>
	
		<line fill="none" stroke="#000000" stroke-width="0.2" stroke-linejoin="round" stroke-miterlimit="10" x1="241.3" y1="599.15" x2="241.49" y2="607.42"/>
	
		<line fill="none" stroke="#000000" stroke-width="0.2" stroke-linejoin="round" stroke-miterlimit="10" x1="230.97" y1="599.15" x2="230.95" y2="607.42"/>
	
		<line fill="none" stroke="#000000" stroke-width="0.2" stroke-linejoin="round" stroke-miterlimit="10" x1="217.36" y1="599.43" x2="217.34" y2="607.7"/>
	
		<line fill="none" stroke="#000000" stroke-width="0.2" stroke-linejoin="round" stroke-miterlimit="10" x1="277.57" y1="390.88" x2="277.66" y2="398.97"/>
	
		<line fill="none" stroke="#000000" stroke-width="0.2" stroke-linejoin="round" stroke-miterlimit="10" x1="265.52" y1="390.88" x2="265.49" y2="398.97"/>
	
		<line fill="none" stroke="#000000" stroke-width="0.2" stroke-linejoin="round" stroke-miterlimit="10" x1="253.33" y1="390.88" x2="253.33" y2="398.97"/>
	
		<line fill="none" stroke="#000000" stroke-width="0.2" stroke-linejoin="round" stroke-miterlimit="10" x1="241.75" y1="390.88" x2="241.82" y2="398.97"/>
	
		<line fill="none" stroke="#000000" stroke-width="0.2" stroke-linejoin="round" stroke-miterlimit="10" x1="229.49" y1="391.06" x2="229.51" y2="399.33"/>
	
		<line fill="none" stroke="#000000" stroke-width="0.2" stroke-linejoin="round" stroke-miterlimit="10" x1="216.87" y1="391.15" x2="216.78" y2="399.52"/>
	
		<line fill="none" stroke="#000000" stroke-width="0.2" stroke-linejoin="round" stroke-miterlimit="10" x1="202.38" y1="382.6" x2="198.31" y2="389.51"/>
	
		<line fill="none" stroke="#000000" stroke-width="0.2" stroke-linejoin="round" stroke-miterlimit="10" x1="192.34" y1="376.51" x2="187.89" y2="383.33"/>
	
		<line fill="none" stroke="#000000" stroke-width="0.2" stroke-linejoin="round" stroke-miterlimit="10" x1="182.06" y1="370.06" x2="177.55" y2="377.24"/>
	
		<line fill="none" stroke="#000000" stroke-width="0.2" stroke-linejoin="round" stroke-miterlimit="10" x1="171.83" y1="363.42" x2="167.16" y2="370.24"/>
	
		<line fill="none" stroke="#000000" stroke-width="0.2" stroke-linejoin="round" stroke-miterlimit="10" x1="163" y1="355.42" x2="158.18" y2="362.42"/>
	
		<line fill="none" stroke="#000000" stroke-width="0.2" stroke-linejoin="round" stroke-miterlimit="10" x1="153.68" y1="349.06" x2="148.77" y2="356.24"/>
	
		<line fill="none" stroke="#000000" stroke-width="0.2" stroke-linejoin="round" stroke-miterlimit="10" x1="118.16" y1="323.06" x2="113.31" y2="329.88"/>
	
		<line fill="none" stroke="#000000" stroke-width="0.2" stroke-linejoin="round" stroke-miterlimit="10" x1="107.2" y1="317.15" x2="102.77" y2="324.33"/>
	
		<line fill="none" stroke="#000000" stroke-width="0.2" stroke-linejoin="round" stroke-miterlimit="10" x1="97.53" y1="310.7" x2="92.71" y2="317.43"/>
	
		<line fill="none" stroke="#000000" stroke-width="0.2" stroke-linejoin="round" stroke-miterlimit="10" x1="86.67" y1="304.15" x2="81.75" y2="310.88"/>
	
		<line fill="none" stroke="#000000" stroke-width="0.2" stroke-linejoin="round" stroke-miterlimit="10" x1="76.44" y1="296.43" x2="72.13" y2="303.88"/>
	
		<line fill="none" stroke="#000000" stroke-width="0.2" stroke-linejoin="round" stroke-miterlimit="10" x1="156.94" y1="324.7" x2="149.97" y2="319.24"/>
	
		<line fill="none" stroke="#000000" stroke-width="0.2" stroke-linejoin="round" stroke-miterlimit="10" x1="164.85" y1="313.79" x2="158.11" y2="308.88"/>
	
		<line fill="none" stroke="#000000" stroke-width="0.2" stroke-linejoin="round" stroke-miterlimit="10" x1="172.42" y1="302.79" x2="165.7" y2="297.52"/>
	
		<line fill="none" stroke="#000000" stroke-width="0.2" stroke-linejoin="round" stroke-miterlimit="10" x1="181.47" y1="291.33" x2="174.59" y2="284.97"/>
	
		<line fill="none" stroke="#000000" stroke-width="0.2" stroke-linejoin="round" stroke-miterlimit="10" x1="189.85" y1="279.88" x2="183.36" y2="274.61"/>
	
		<line fill="none" stroke="#000000" stroke-width="0.2" stroke-linejoin="round" stroke-miterlimit="10" x1="197.82" y1="267.88" x2="190.9" y2="262.06"/>
	
		<line fill="none" stroke="#000000" stroke-width="0.2" stroke-linejoin="round" stroke-miterlimit="10" x1="207.13" y1="258.15" x2="200.12" y2="253.24"/>
	
		<line fill="none" stroke="#000000" stroke-width="0.2" stroke-linejoin="round" stroke-miterlimit="10" x1="215.92" y1="247.78" x2="208.4" y2="241.78"/>
	
		<line fill="none" stroke="#000000" stroke-width="0.2" stroke-linejoin="round" stroke-miterlimit="10" x1="223.92" y1="237.06" x2="216.61" y2="231.52"/>
	
		<line fill="none" stroke="#000000" stroke-width="0.2" stroke-linejoin="round" stroke-miterlimit="10" x1="314.96" y1="161.7" x2="309.66" y2="153.88"/>
	
		<line fill="none" stroke="#000000" stroke-width="0.2" stroke-linejoin="round" stroke-miterlimit="10" x1="325.4" y1="153.33" x2="320.26" y2="146.15"/>
	
		<line fill="none" stroke="#000000" stroke-width="0.2" stroke-linejoin="round" stroke-miterlimit="10" x1="336.29" y1="145.15" x2="331.15" y2="137.42"/>
	
		<line fill="none" stroke="#000000" stroke-width="0.2" stroke-linejoin="round" stroke-miterlimit="10" x1="351.91" y1="132.79" x2="346.92" y2="124.97"/>
	
		<line fill="none" stroke="#000000" stroke-width="0.2" stroke-linejoin="round" stroke-miterlimit="10" x1="362.96" y1="124.61" x2="357.55" y2="116.79"/>
	
		<line fill="none" stroke="#000000" stroke-width="0.2" stroke-linejoin="round" stroke-miterlimit="10" x1="373.32" y1="117.33" x2="368.6" y2="109.33"/>
	
		<line fill="none" stroke="#000000" stroke-width="0.2" stroke-linejoin="round" stroke-miterlimit="10" x1="383" y1="108.34" x2="378.3" y2="100.61"/>
	
		<line fill="none" stroke="#000000" stroke-width="0.2" stroke-linejoin="round" stroke-miterlimit="10" x1="394.27" y1="100.79" x2="389.54" y2="92.61"/>
	
		<line fill="none" stroke="#000000" stroke-width="0.2" stroke-linejoin="round" stroke-miterlimit="10" x1="405.85" y1="92.61" x2="400.37" y2="84.97"/>
	
		<line fill="none" stroke="#000000" stroke-width="0.2" stroke-linejoin="round" stroke-miterlimit="10" x1="416.89" y1="84.88" x2="412.1" y2="77.43"/>
	
		<line fill="none" stroke="#000000" stroke-width="0.2" stroke-linejoin="round" stroke-miterlimit="10" x1="426.55" y1="78.06" x2="421.4" y2="70.06"/>
	
		<line fill="none" stroke="#000000" stroke-width="0.2" stroke-linejoin="round" stroke-miterlimit="10" x1="442.98" y1="77.42" x2="443.25" y2="68.51"/>
	
		<line fill="none" stroke="#000000" stroke-width="0.2" stroke-linejoin="round" stroke-miterlimit="10" x1="467.35" y1="76.52" x2="467.28" y2="67.79"/>
	
		<line fill="none" stroke="#000000" stroke-width="0.2" stroke-linejoin="round" stroke-miterlimit="10" x1="521.43" y1="96.43" x2="524.41" y2="87.7"/>
	
		<line fill="none" stroke="#000000" stroke-width="0.2" stroke-linejoin="round" stroke-miterlimit="10" x1="326.23" y1="397.51" x2="326.14" y2="389.33"/>
	
		<line fill="none" stroke="#000000" stroke-width="0.2" stroke-linejoin="round" stroke-miterlimit="10" x1="338.25" y1="397.61" x2="338.26" y2="389.25"/>
	
		<line fill="none" stroke="#000000" stroke-width="0.2" stroke-linejoin="round" stroke-miterlimit="10" x1="349.24" y1="397.7" x2="349.15" y2="389.43"/>
	
		<line fill="none" stroke="#000000" stroke-width="0.2" stroke-linejoin="round" stroke-miterlimit="10" x1="360.37" y1="397.51" x2="360.23" y2="389.33"/>
</g>
<g id="Nucleotide_Circles">
	<circle cx="547.13" cy="103.11" r="1.83"/>
</g>
</svg>
