<?xml version="1.0" encoding="utf-8"?>
<!-- Generator: Adobe Illustrator 23.0.3, SVG Export Plug-In . SVG Version: 6.00 Build 0)  -->
<svg version="1.1" baseProfile="tiny" id="Layer_1" xmlns="http://www.w3.org/2000/svg" xmlns:xlink="http://www.w3.org/1999/xlink"
	 x="0px" y="0px" viewBox="0 0 612 792" xml:space="preserve">
<g id="Letters">
	<text transform="matrix(1 0 0 1 36 529.05)" font-family="'MyriadPro-Regular'" font-size="9px">C</text>
	<text transform="matrix(1 0 0 1 47.13 529.05)" font-family="'MyriadPro-Regular'" font-size="9px">C</text>
	<text transform="matrix(1 0 0 1 58.27 529.05)" font-family="'MyriadPro-Regular'" font-size="9px">A</text>
	<text transform="matrix(1 0 0 1 69.4 529.05)" font-family="'MyriadPro-Regular'" font-size="9px">U</text>
	<text transform="matrix(1 0 0 1 80.54 529.05)" font-family="'MyriadPro-Regular'" font-size="9px">G</text>
	<text transform="matrix(1 0 0 1 91.67 529.05)" font-family="'MyriadPro-Regular'" font-size="9px">C</text>
	<text transform="matrix(1 0 0 1 101.69 529.05)" font-family="'MyriadPro-Regular'" font-size="9px">U</text>
	<text transform="matrix(1 0 0 1 112.82 529.05)" font-family="'MyriadPro-Regular'" font-size="9px">G</text>
	<text transform="matrix(1 0 0 1 123.96 529.05)" font-family="'MyriadPro-Regular'" font-size="9px">G</text>
	<text transform="matrix(1 0 0 1 135.09 529.05)" font-family="'MyriadPro-Regular'" font-size="9px">A</text>
	<text transform="matrix(1 0 0 1 146.23 529.05)" font-family="'MyriadPro-Regular'" font-size="9px">C</text>
	<text transform="matrix(1 0 0 1 157.36 529.05)" font-family="'MyriadPro-Regular'" font-size="9px">G</text>
	<text transform="matrix(1 0 0 1 168.49 529.05)" font-family="'MyriadPro-Regular'" font-size="9px">U</text>
	<text transform="matrix(1 0 0 1 179.63 529.05)" font-family="'MyriadPro-Regular'" font-size="9px">A</text>
	<text transform="matrix(1 0 0 1 190.76 529.05)" font-family="'MyriadPro-Regular'" font-size="9px">C</text>
	<text transform="matrix(1 0 0 1 201.9 529.05)" font-family="'MyriadPro-Regular'" font-size="9px">G</text>
	<text transform="matrix(1 0 0 1 211.92 529.05)" font-family="'MyriadPro-Regular'" font-size="9px">G</text>
	<text transform="matrix(1 0 0 1 223.05 529.05)" font-family="'MyriadPro-Regular'" font-size="9px">G</text>
	<text transform="matrix(1 0 0 1 234.19 529.05)" font-family="'MyriadPro-Regular'" font-size="9px">C</text>
	<text transform="matrix(1 0 0 1 245.32 529.05)" font-family="'MyriadPro-Regular'" font-size="9px">G</text>
	<text transform="matrix(1 0 0 1 256.45 529.05)" font-family="'MyriadPro-Regular'" font-size="9px">A</text>
	<text transform="matrix(1 0 0 1 268.7 530.16)" font-family="'MyriadPro-Regular'" font-size="9px">A</text>
	<text transform="matrix(1 0 0 1 280.94 530.16)" font-family="'MyriadPro-Regular'" font-size="9px">C</text>
	<text transform="matrix(1 0 0 1 293.2 531.28)" font-family="'MyriadPro-Regular'" font-size="9px">G</text>
	<text transform="matrix(1 0 0 1 293.2 520.14)" font-family="'MyriadPro-Regular'" font-size="9px">C</text>
	<text transform="matrix(1 0 0 1 294.31 509.01)" font-family="'MyriadPro-Regular'" font-size="9px">C</text>
	<text transform="matrix(1 0 0 1 294.31 497.88)" font-family="'MyriadPro-Regular'" font-size="9px">G</text>
	<text transform="matrix(1 0 0 1 294.31 486.74)" font-family="'MyriadPro-Regular'" font-size="9px">C</text>
	<text transform="matrix(1 0 0 1 295.42 475.61)" font-family="'MyriadPro-Regular'" font-size="9px">A</text>
	<text transform="matrix(1 0 0 1 283.18 475.61)" font-family="'MyriadPro-Regular'" font-size="9px">C</text>
	<text transform="matrix(1 0 0 1 272.04 468.93)" font-family="'MyriadPro-Regular'" font-size="9px">U</text>
	<text transform="matrix(1 0 0 1 265.36 460.02)" font-family="'MyriadPro-Regular'" font-size="9px">U</text>
	<text transform="matrix(1 0 0 1 254.23 458.91)" font-family="'MyriadPro-Regular'" font-size="9px">C</text>
	<text transform="matrix(1 0 0 1 243.09 458.91)" font-family="'MyriadPro-Regular'" font-size="9px">C</text>
	<text transform="matrix(1 0 0 1 231.96 458.91)" font-family="'MyriadPro-Regular'" font-size="9px">U</text>
	<text transform="matrix(1 0 0 1 220.82 458.91)" font-family="'MyriadPro-Regular'" font-size="9px">C</text>
	<text transform="matrix(1 0 0 1 216.37 470.04)" font-family="'MyriadPro-Regular'" font-size="9px">A</text>
	<text transform="matrix(1 0 0 1 209.69 480.06)" font-family="'MyriadPro-Regular'" font-size="9px">A</text>
	<text transform="matrix(1 0 0 1 200.78 488.97)" font-family="'MyriadPro-Regular'" font-size="9px">A</text>
	<text transform="matrix(1 0 0 1 189.65 494.54)" font-family="'MyriadPro-Regular'" font-size="9px">U</text>
	<text transform="matrix(1 0 0 1 177.4 496.76)" font-family="'MyriadPro-Regular'" font-size="9px">U</text>
	<text transform="matrix(1 0 0 1 165.15 496.76)" font-family="'MyriadPro-Regular'" font-size="9px">C</text>
	<text transform="matrix(1 0 0 1 154.02 493.42)" font-family="'MyriadPro-Regular'" font-size="9px">A</text>
	<text transform="matrix(1 0 0 1 142.89 487.86)" font-family="'MyriadPro-Regular'" font-size="9px">A</text>
	<text transform="matrix(1 0 0 1 133.98 480.06)" font-family="'MyriadPro-Regular'" font-size="9px">A</text>
	<text transform="matrix(1 0 0 1 127.3 468.93)" font-family="'MyriadPro-Regular'" font-size="9px">C</text>
	<text transform="matrix(1 0 0 1 122.85 457.79)" font-family="'MyriadPro-Regular'" font-size="9px">G</text>
	<text transform="matrix(1 0 0 1 112.82 457.79)" font-family="'MyriadPro-Regular'" font-size="9px">C</text>
	<text transform="matrix(1 0 0 1 101.69 457.79)" font-family="'MyriadPro-Regular'" font-size="9px">G</text>
	<text transform="matrix(1 0 0 1 90.56 457.79)" font-family="'MyriadPro-Regular'" font-size="9px">U</text>
	<text transform="matrix(1 0 0 1 79.42 456.68)" font-family="'MyriadPro-Regular'" font-size="9px">U</text>
	<text transform="matrix(1 0 0 1 67.18 460.02)" font-family="'MyriadPro-Regular'" font-size="9px">G</text>
	<text transform="matrix(1 0 0 1 58.27 452.23)" font-family="'MyriadPro-Regular'" font-size="9px">A</text>
	<text transform="matrix(1 0 0 1 58.27 439.98)" font-family="'MyriadPro-Regular'" font-size="9px">A</text>
	<text transform="matrix(1 0 0 1 67.18 432.19)" font-family="'MyriadPro-Regular'" font-size="9px">A</text>
	<text transform="matrix(1 0 0 1 79.42 435.53)" font-family="'MyriadPro-Regular'" font-size="9px">A</text>
	<text transform="matrix(1 0 0 1 90.55 435.53)" font-family="'MyriadPro-Regular'" font-size="9px">G</text>
	<text transform="matrix(1 0 0 1 101.68 435.53)" font-family="'MyriadPro-Regular'" font-size="9px">C</text>
	<text transform="matrix(1 0 0 1 112.8 435.53)" font-family="'MyriadPro-Regular'" font-size="9px">G</text>
	<text transform="matrix(1 0 0 1 123.94 435.53)" font-family="'MyriadPro-Regular'" font-size="9px">C</text>
	<text transform="matrix(1 0 0 1 128.41 424.39)" font-family="'MyriadPro-Regular'" font-size="9px">A</text>
	<text transform="matrix(1 0 0 1 135.09 414.37)" font-family="'MyriadPro-Regular'" font-size="9px">C</text>
	<text transform="matrix(1 0 0 1 144 405.46)" font-family="'MyriadPro-Regular'" font-size="9px">A</text>
	<text transform="matrix(1 0 0 1 155.13 399.9)" font-family="'MyriadPro-Regular'" font-size="9px">G</text>
	<text transform="matrix(1 0 0 1 167.38 397.67)" font-family="'MyriadPro-Regular'" font-size="9px">C</text>
	<text transform="matrix(1 0 0 1 179.62 397.67)" font-family="'MyriadPro-Regular'" font-size="9px">U</text>
	<text transform="matrix(1 0 0 1 190.76 401.01)" font-family="'MyriadPro-Regular'" font-size="9px">C</text>
	<text transform="matrix(1 0 0 1 201.9 406.58)" font-family="'MyriadPro-Regular'" font-size="9px">G</text>
	<text transform="matrix(1 0 0 1 210.8 415.48)" font-family="'MyriadPro-Regular'" font-size="9px">U</text>
	<text transform="matrix(1 0 0 1 217.48 425.51)" font-family="'MyriadPro-Regular'" font-size="9px">U</text>
	<text transform="matrix(1 0 0 1 220.82 436.64)" font-family="'MyriadPro-Regular'" font-size="9px">G</text>
	<text transform="matrix(1 0 0 1 231.96 436.64)" font-family="'MyriadPro-Regular'" font-size="9px">A</text>
	<text transform="matrix(1 0 0 1 243.09 437.75)" font-family="'MyriadPro-Regular'" font-size="9px">G</text>
	<text transform="matrix(1 0 0 1 254.22 437.75)" font-family="'MyriadPro-Regular'" font-size="9px">G</text>
	<text transform="matrix(1 0 0 1 265.36 437.75)" font-family="'MyriadPro-Regular'" font-size="9px">G</text>
	<text transform="matrix(1 0 0 1 260.91 426.62)" font-family="'MyriadPro-Regular'" font-size="9px">G</text>
	<text transform="matrix(1 0 0 1 258.68 414.37)" font-family="'MyriadPro-Regular'" font-size="9px">G</text>
	<text transform="matrix(1 0 0 1 258.68 402.12)" font-family="'MyriadPro-Regular'" font-size="9px">U</text>
	<text transform="matrix(1 0 0 1 260.91 389.88)" font-family="'MyriadPro-Regular'" font-size="9px">A</text>
	<text transform="matrix(1 0 0 1 264.25 377.63)" font-family="'MyriadPro-Regular'" font-size="9px">A</text>
	<text transform="matrix(1 0 0 1 269.81 367.61)" font-family="'MyriadPro-Regular'" font-size="9px">G</text>
	<text transform="matrix(1 0 0 1 277.61 357.59)" font-family="'MyriadPro-Regular'" font-size="9px">G</text>
	<text transform="matrix(1 0 0 1 287.63 349.79)" font-family="'MyriadPro-Regular'" font-size="9px">U</text>
	<text transform="matrix(1 0 0 1 297.65 343.11)" font-family="'MyriadPro-Regular'" font-size="9px">C</text>
	<text transform="matrix(1 0 0 1 308.78 338.66)" font-family="'MyriadPro-Regular'" font-size="9px">G</text>
	<text transform="matrix(1 0 0 1 321.03 336.43)" font-family="'MyriadPro-Regular'" font-size="9px">G</text>
	<text transform="matrix(1 0 0 1 333.28 336.43)" font-family="'MyriadPro-Regular'" font-size="9px">A</text>
	<text transform="matrix(1 0 0 1 345.53 337.55)" font-family="'MyriadPro-Regular'" font-size="9px">G</text>
	<text transform="matrix(1 0 0 1 356.66 342)" font-family="'MyriadPro-Regular'" font-size="9px">A</text>
	<text transform="matrix(1 0 0 1 363.34 331.98)" font-family="'MyriadPro-Regular'" font-size="9px">A</text>
	<text transform="matrix(1 0 0 1 368.91 323.07)" font-family="'MyriadPro-Regular'" font-size="9px">A</text>
	<text transform="matrix(1 0 0 1 358.89 315.28)" font-family="'MyriadPro-Regular'" font-size="9px">C</text>
	<text transform="matrix(1 0 0 1 365.57 305.26)" font-family="'MyriadPro-Regular'" font-size="9px">A</text>
	<text transform="matrix(1 0 0 1 376.7 310.82)" font-family="'MyriadPro-Regular'" font-size="9px">U</text>
	<text transform="matrix(1 0 0 1 382.27 301.92)" font-family="'MyriadPro-Regular'" font-size="9px">C</text>
	<text transform="matrix(1 0 0 1 387.84 291.9)" font-family="'MyriadPro-Regular'" font-size="9px">U</text>
	<text transform="matrix(1 0 0 1 393.4 282.99)" font-family="'MyriadPro-Regular'" font-size="9px">U</text>
	<text transform="matrix(1 0 0 1 400.08 274.08)" font-family="'MyriadPro-Regular'" font-size="9px">C</text>
	<text transform="matrix(1 0 0 1 391.18 265.18)" font-family="'MyriadPro-Regular'" font-size="9px">G</text>
	<text transform="matrix(1 0 0 1 384.5 255.15)" font-family="'MyriadPro-Regular'" font-size="9px">U</text>
	<text transform="matrix(1 0 0 1 380.04 242.91)" font-family="'MyriadPro-Regular'" font-size="9px">U</text>
	<text transform="matrix(1 0 0 1 376.7 231.77)" font-family="'MyriadPro-Regular'" font-size="9px">G</text>
	<text transform="matrix(1 0 0 1 376.7 219.53)" font-family="'MyriadPro-Regular'" font-size="9px">C</text>
	<text transform="matrix(1 0 0 1 377.81 207.28)" font-family="'MyriadPro-Regular'" font-size="9px">G</text>
	<text transform="matrix(1 0 0 1 381.15 195.03)" font-family="'MyriadPro-Regular'" font-size="9px">U</text>
	<text transform="matrix(1 0 0 1 386.72 185.01)" font-family="'MyriadPro-Regular'" font-size="9px">G</text>
	<text transform="matrix(1 0 0 1 394.52 174.99)" font-family="'MyriadPro-Regular'" font-size="9px">C</text>
	<text transform="matrix(1 0 0 1 403.42 166.08)" font-family="'MyriadPro-Regular'" font-size="9px">U</text>
	<text transform="matrix(1 0 0 1 413.44 160.52)" font-family="'MyriadPro-Regular'" font-size="9px">C</text>
	<text transform="matrix(1 0 0 1 425.69 156.06)" font-family="'MyriadPro-Regular'" font-size="9px">G</text>
	<text transform="matrix(1 0 0 1 436.82 152.72)" font-family="'MyriadPro-Regular'" font-size="9px">U</text>
	<text transform="matrix(1 0 0 1 449.06 152.72)" font-family="'MyriadPro-Regular'" font-size="9px">G</text>
	<text transform="matrix(1 0 0 1 461.32 154.95)" font-family="'MyriadPro-Regular'" font-size="9px">A</text>
	<text transform="matrix(1 0 0 1 473.57 158.29)" font-family="'MyriadPro-Regular'" font-size="9px">G</text>
	<text transform="matrix(1 0 0 1 483.59 164.97)" font-family="'MyriadPro-Regular'" font-size="9px">G</text>
	<text transform="matrix(1 0 0 1 493.61 171.65)" font-family="'MyriadPro-Regular'" font-size="9px">A</text>
	<text transform="matrix(1 0 0 1 501.4 181.67)" font-family="'MyriadPro-Regular'" font-size="9px">G</text>
	<text transform="matrix(1 0 0 1 508.08 191.69)" font-family="'MyriadPro-Regular'" font-size="9px">C</text>
	<text transform="matrix(1 0 0 1 511.42 203.94)" font-family="'MyriadPro-Regular'" font-size="9px">G</text>
	<text transform="matrix(1 0 0 1 513.65 215.07)" font-family="'MyriadPro-Regular'" font-size="9px">A</text>
	<text transform="matrix(1 0 0 1 513.65 227.32)" font-family="'MyriadPro-Regular'" font-size="9px">A</text>
	<text transform="matrix(1 0 0 1 524.78 230.66)" font-family="'MyriadPro-Regular'" font-size="9px">G</text>
	<text transform="matrix(1 0 0 1 535.92 232.89)" font-family="'MyriadPro-Regular'" font-size="9px">A</text>
	<text transform="matrix(1 0 0 1 545.94 236.23)" font-family="'MyriadPro-Regular'" font-size="9px">A</text>
	<text transform="matrix(1 0 0 1 557.07 238.45)" font-family="'MyriadPro-Regular'" font-size="9px">C</text>
	<text transform="matrix(1 0 0 1 569.32 238.45)" font-family="'MyriadPro-Regular'" font-size="9px">G</text>
	<text transform="matrix(1 0 0 1 576 248.47)" font-family="'MyriadPro-Regular'" font-size="9px">A</text>
	<text transform="matrix(1 0 0 1 573.77 260.72)" font-family="'MyriadPro-Regular'" font-size="9px">A</text>
	<text transform="matrix(1 0 0 1 562.64 265.18)" font-family="'MyriadPro-Regular'" font-size="9px">C</text>
	<text transform="matrix(1 0 0 1 551.51 259.61)" font-family="'MyriadPro-Regular'" font-size="9px">G</text>
	<text transform="matrix(1 0 0 1 540.37 257.38)" font-family="'MyriadPro-Regular'" font-size="9px">U</text>
	<text transform="matrix(1 0 0 1 530.35 254.04)" font-family="'MyriadPro-Regular'" font-size="9px">U</text>
	<text transform="matrix(1 0 0 1 519.22 251.81)" font-family="'MyriadPro-Regular'" font-size="9px">C</text>
	<text transform="matrix(1 0 0 1 509.2 249.59)" font-family="'MyriadPro-Regular'" font-size="9px">U</text>
	<text transform="matrix(1 0 0 1 502.52 259.61)" font-family="'MyriadPro-Regular'" font-size="9px">G</text>
	<text transform="matrix(1 0 0 1 494.72 269.63)" font-family="'MyriadPro-Regular'" font-size="9px">C</text>
	<text transform="matrix(1 0 0 1 485.81 277.42)" font-family="'MyriadPro-Regular'" font-size="9px">C</text>
	<text transform="matrix(1 0 0 1 475.79 284.1)" font-family="'MyriadPro-Regular'" font-size="9px">G</text>
	<text transform="matrix(1 0 0 1 479.13 294.12)" font-family="'MyriadPro-Regular'" font-size="9px">A</text>
	<text transform="matrix(1 0 0 1 481.36 305.26)" font-family="'MyriadPro-Regular'" font-size="9px">A</text>
	<text transform="matrix(1 0 0 1 484.7 315.28)" font-family="'MyriadPro-Regular'" font-size="9px">U</text>
	<text transform="matrix(1 0 0 1 488.04 326.41)" font-family="'MyriadPro-Regular'" font-size="9px">G</text>
	<text transform="matrix(1 0 0 1 491.38 336.43)" font-family="'MyriadPro-Regular'" font-size="9px">U</text>
	<text transform="matrix(1 0 0 1 503.63 337.55)" font-family="'MyriadPro-Regular'" font-size="9px">A</text>
	<text transform="matrix(1 0 0 1 514.76 340.89)" font-family="'MyriadPro-Regular'" font-size="9px">C</text>
	<text transform="matrix(1 0 0 1 525.9 347.57)" font-family="'MyriadPro-Regular'" font-size="9px">C</text>
	<text transform="matrix(1 0 0 1 534.8 355.36)" font-family="'MyriadPro-Regular'" font-size="9px">A</text>
	<text transform="matrix(1 0 0 1 540.37 366.49)" font-family="'MyriadPro-Regular'" font-size="9px">G</text>
	<text transform="matrix(1 0 0 1 543.71 377.63)" font-family="'MyriadPro-Regular'" font-size="9px">A</text>
	<text transform="matrix(1 0 0 1 544.82 389.88)" font-family="'MyriadPro-Regular'" font-size="9px">A</text>
	<text transform="matrix(1 0 0 1 542.6 402.12)" font-family="'MyriadPro-Regular'" font-size="9px">A</text>
	<text transform="matrix(1 0 0 1 537.03 413.26)" font-family="'MyriadPro-Regular'" font-size="9px">U</text>
	<text transform="matrix(1 0 0 1 529.24 423.28)" font-family="'MyriadPro-Regular'" font-size="9px">U</text>
	<text transform="matrix(1 0 0 1 519.22 429.96)" font-family="'MyriadPro-Regular'" font-size="9px">C</text>
	<text transform="matrix(1 0 0 1 508.08 434.41)" font-family="'MyriadPro-Regular'" font-size="9px">A</text>
	<text transform="matrix(1 0 0 1 495.84 436.64)" font-family="'MyriadPro-Regular'" font-size="9px">A</text>
	<text transform="matrix(1 0 0 1 493.61 447.77)" font-family="'MyriadPro-Regular'" font-size="9px">U</text>
	<text transform="matrix(1 0 0 1 491.38 457.79)" font-family="'MyriadPro-Regular'" font-size="9px">C</text>
	<text transform="matrix(1 0 0 1 489.15 468.93)" font-family="'MyriadPro-Regular'" font-size="9px">A</text>
	<text transform="matrix(1 0 0 1 486.93 480.06)" font-family="'MyriadPro-Regular'" font-size="9px">G</text>
	<text transform="matrix(1 0 0 1 484.7 493.42)" font-family="'MyriadPro-Regular'" font-size="9px">U</text>
	<text transform="matrix(1 0 0 1 482.47 504.56)" font-family="'MyriadPro-Regular'" font-size="9px">A</text>
	<text transform="matrix(1 0 0 1 480.25 515.69)" font-family="'MyriadPro-Regular'" font-size="9px">U</text>
	<text transform="matrix(1 0 0 1 478.02 525.71)" font-family="'MyriadPro-Regular'" font-size="9px">G</text>
	<text transform="matrix(1 0 0 1 475.79 536.85)" font-family="'MyriadPro-Regular'" font-size="9px">G</text>
	<text transform="matrix(1 0 0 1 473.57 547.98)" font-family="'MyriadPro-Regular'" font-size="9px">C</text>
	<text transform="matrix(1 0 0 1 479.13 559.11)" font-family="'MyriadPro-Regular'" font-size="9px">C</text>
	<text transform="matrix(1 0 0 1 476.91 570.25)" font-family="'MyriadPro-Regular'" font-size="9px">U</text>
	<text transform="matrix(1 0 0 1 468 579.15)" font-family="'MyriadPro-Regular'" font-size="9px">C</text>
	<text transform="matrix(1 0 0 1 455.75 580.27)" font-family="'MyriadPro-Regular'" font-size="9px">G</text>
	<text transform="matrix(1 0 0 1 444.62 574.7)" font-family="'MyriadPro-Regular'" font-size="9px">U</text>
	<text transform="matrix(1 0 0 1 440.17 563.57)" font-family="'MyriadPro-Regular'" font-size="9px">U</text>
	<text transform="matrix(1 0 0 1 442.39 551.32)" font-family="'MyriadPro-Regular'" font-size="9px">U</text>
	<text transform="matrix(1 0 0 1 452.41 543.53)" font-family="'MyriadPro-Regular'" font-size="9px">G</text>
	<text transform="matrix(1 0 0 1 454.64 532.39)" font-family="'MyriadPro-Regular'" font-size="9px">U</text>
	<text transform="matrix(1 0 0 1 456.87 521.26)" font-family="'MyriadPro-Regular'" font-size="9px">C</text>
	<text transform="matrix(1 0 0 1 459.09 511.24)" font-family="'MyriadPro-Regular'" font-size="9px">G</text>
	<text transform="matrix(1 0 0 1 460.21 500.1)" font-family="'MyriadPro-Regular'" font-size="9px">U</text>
	<text transform="matrix(1 0 0 1 462.43 488.97)" font-family="'MyriadPro-Regular'" font-size="9px">A</text>
	<text transform="matrix(1 0 0 1 454.64 480.06)" font-family="'MyriadPro-Regular'" font-size="9px">C</text>
	<text transform="matrix(1 0 0 1 465.77 475.61)" font-family="'MyriadPro-Regular'" font-size="9px">C</text>
	<text transform="matrix(1 0 0 1 468 464.47)" font-family="'MyriadPro-Regular'" font-size="9px">U</text>
	<text transform="matrix(1 0 0 1 470.23 454.45)" font-family="'MyriadPro-Regular'" font-size="9px">G</text>
	<text transform="matrix(1 0 0 1 472.45 443.32)" font-family="'MyriadPro-Regular'" font-size="9px">A</text>
	<text transform="matrix(1 0 0 1 474.68 432.19)" font-family="'MyriadPro-Regular'" font-size="9px">U</text>
	<text transform="matrix(1 0 0 1 463.55 425.51)" font-family="'MyriadPro-Regular'" font-size="9px">U</text>
	<text transform="matrix(1 0 0 1 455.75 417.71)" font-family="'MyriadPro-Regular'" font-size="9px">U</text>
	<text transform="matrix(1 0 0 1 449.07 406.58)" font-family="'MyriadPro-Regular'" font-size="9px">U</text>
	<text transform="matrix(1 0 0 1 445.73 395.44)" font-family="'MyriadPro-Regular'" font-size="9px">G</text>
	<text transform="matrix(1 0 0 1 444.62 383.2)" font-family="'MyriadPro-Regular'" font-size="9px">A</text>
	<text transform="matrix(1 0 0 1 446.85 370.95)" font-family="'MyriadPro-Regular'" font-size="9px">A</text>
	<text transform="matrix(1 0 0 1 452.41 359.81)" font-family="'MyriadPro-Regular'" font-size="9px">A</text>
	<text transform="matrix(1 0 0 1 460.21 349.79)" font-family="'MyriadPro-Regular'" font-size="9px">C</text>
	<text transform="matrix(1 0 0 1 470.23 343.11)" font-family="'MyriadPro-Regular'" font-size="9px">G</text>
	<text transform="matrix(1 0 0 1 466.89 331.98)" font-family="'MyriadPro-Regular'" font-size="9px">C</text>
	<text transform="matrix(1 0 0 1 463.55 321.96)" font-family="'MyriadPro-Regular'" font-size="9px">A</text>
	<text transform="matrix(1 0 0 1 460.21 310.82)" font-family="'MyriadPro-Regular'" font-size="9px">U</text>
	<text transform="matrix(1 0 0 1 457.98 300.8)" font-family="'MyriadPro-Regular'" font-size="9px">U</text>
	<text transform="matrix(1 0 0 1 454.64 289.67)" font-family="'MyriadPro-Regular'" font-size="9px">C</text>
	<text transform="matrix(1 0 0 1 442.39 290.78)" font-family="'MyriadPro-Regular'" font-size="9px">G</text>
	<text transform="matrix(1 0 0 1 430.14 288.56)" font-family="'MyriadPro-Regular'" font-size="9px">A</text>
	<text transform="matrix(1 0 0 1 417.9 285.22)" font-family="'MyriadPro-Regular'" font-size="9px">G</text>
	<text transform="matrix(1 0 0 1 412.33 295.24)" font-family="'MyriadPro-Regular'" font-size="9px">A</text>
	<text transform="matrix(1 0 0 1 406.76 304.14)" font-family="'MyriadPro-Regular'" font-size="9px">A</text>
	<text transform="matrix(1 0 0 1 401.2 313.05)" font-family="'MyriadPro-Regular'" font-size="9px">G</text>
	<text transform="matrix(1 0 0 1 394.52 323.07)" font-family="'MyriadPro-Regular'" font-size="9px">A</text>
	<text transform="matrix(1 0 0 1 387.84 334.21)" font-family="'MyriadPro-Regular'" font-size="9px">U</text>
	<text transform="matrix(1 0 0 1 381.15 344.23)" font-family="'MyriadPro-Regular'" font-size="9px">U</text>
	<text transform="matrix(1 0 0 1 375.59 353.13)" font-family="'MyriadPro-Regular'" font-size="9px">U</text>
	<text transform="matrix(1 0 0 1 384.5 362.04)" font-family="'MyriadPro-Regular'" font-size="9px">A</text>
	<text transform="matrix(1 0 0 1 391.18 372.06)" font-family="'MyriadPro-Regular'" font-size="9px">U</text>
	<text transform="matrix(1 0 0 1 395.63 383.2)" font-family="'MyriadPro-Regular'" font-size="9px">U</text>
	<text transform="matrix(1 0 0 1 398.97 395.44)" font-family="'MyriadPro-Regular'" font-size="9px">U</text>
	<text transform="matrix(1 0 0 1 400.08 407.69)" font-family="'MyriadPro-Regular'" font-size="9px">U</text>
	<text transform="matrix(1 0 0 1 398.97 419.94)" font-family="'MyriadPro-Regular'" font-size="9px">A</text>
	<text transform="matrix(1 0 0 1 395.63 431.07)" font-family="'MyriadPro-Regular'" font-size="9px">G</text>
	<text transform="matrix(1 0 0 1 390.06 442.21)" font-family="'MyriadPro-Regular'" font-size="9px">U</text>
	<text transform="matrix(1 0 0 1 383.38 452.23)" font-family="'MyriadPro-Regular'" font-size="9px">G</text>
	<text transform="matrix(1 0 0 1 374.47 461.13)" font-family="'MyriadPro-Regular'" font-size="9px">C</text>
	<text transform="matrix(1 0 0 1 364.45 467.81)" font-family="'MyriadPro-Regular'" font-size="9px">A</text>
	<text transform="matrix(1 0 0 1 353.32 473.38)" font-family="'MyriadPro-Regular'" font-size="9px">A</text>
	<text transform="matrix(1 0 0 1 342.19 476.72)" font-family="'MyriadPro-Regular'" font-size="9px">U</text>
	<text transform="matrix(1 0 0 1 329.94 477.83)" font-family="'MyriadPro-Regular'" font-size="9px">G</text>
	<text transform="matrix(1 0 0 1 317.69 476.72)" font-family="'MyriadPro-Regular'" font-size="9px">U</text>
	<text transform="matrix(1 0 0 1 316.58 487.86)" font-family="'MyriadPro-Regular'" font-size="9px">G</text>
	<text transform="matrix(1 0 0 1 316.58 498.99)" font-family="'MyriadPro-Regular'" font-size="9px">U</text>
	<text transform="matrix(1 0 0 1 315.46 510.12)" font-family="'MyriadPro-Regular'" font-size="9px">G</text>
	<text transform="matrix(1 0 0 1 315.46 521.26)" font-family="'MyriadPro-Regular'" font-size="9px">G</text>
	<text transform="matrix(1 0 0 1 315.46 531.28)" font-family="'MyriadPro-Regular'" font-size="9px">C</text>
	<text transform="matrix(1 0 0 1 327.71 532.39)" font-family="'MyriadPro-Regular'" font-size="9px">A</text>
	<text transform="matrix(1 0 0 1 336.62 525.71)" font-family="'MyriadPro-Regular'" font-size="9px">C</text>
	<text transform="matrix(1 0 0 1 345.53 519.03)" font-family="'MyriadPro-Regular'" font-size="9px">C</text>
	<text transform="matrix(1 0 0 1 354.43 512.35)" font-family="'MyriadPro-Regular'" font-size="9px">U</text>
	<text transform="matrix(1 0 0 1 363.34 505.67)" font-family="'MyriadPro-Regular'" font-size="9px">G</text>
	<text transform="matrix(1 0 0 1 368.91 495.65)" font-family="'MyriadPro-Regular'" font-size="9px">U</text>
	<text transform="matrix(1 0 0 1 381.15 492.31)" font-family="'MyriadPro-Regular'" font-size="9px">U</text>
	<text transform="matrix(1 0 0 1 392.29 498.99)" font-family="'MyriadPro-Regular'" font-size="9px">U</text>
	<text transform="matrix(1 0 0 1 394.52 510.12)" font-family="'MyriadPro-Regular'" font-size="9px">G</text>
	<text transform="matrix(1 0 0 1 387.84 521.26)" font-family="'MyriadPro-Regular'" font-size="9px">U</text>
	<text transform="matrix(1 0 0 1 376.7 523.48)" font-family="'MyriadPro-Regular'" font-size="9px">C</text>
	<text transform="matrix(1 0 0 1 367.79 530.16)" font-family="'MyriadPro-Regular'" font-size="9px">A</text>
	<text transform="matrix(1 0 0 1 358.89 536.85)" font-family="'MyriadPro-Regular'" font-size="9px">G</text>
	<text transform="matrix(1 0 0 1 349.98 543.53)" font-family="'MyriadPro-Regular'" font-size="9px">G</text>
	<text transform="matrix(1 0 0 1 341.07 550.21)" font-family="'MyriadPro-Regular'" font-size="9px">U</text>
	<text transform="matrix(1 0 0 1 347.75 560.23)" font-family="'MyriadPro-Regular'" font-size="9px">A</text>
	<text transform="matrix(1 0 0 1 352.21 571.36)" font-family="'MyriadPro-Regular'" font-size="9px">A</text>
	<text transform="matrix(1 0 0 1 353.32 583.61)" font-family="'MyriadPro-Regular'" font-size="9px">C</text>
	<text transform="matrix(1 0 0 1 352.21 595.86)" font-family="'MyriadPro-Regular'" font-size="9px">U</text>
	<text transform="matrix(1 0 0 1 348.87 608.1)" font-family="'MyriadPro-Regular'" font-size="9px">C</text>
	<text transform="matrix(1 0 0 1 342.19 618.12)" font-family="'MyriadPro-Regular'" font-size="9px">G</text>
	<text transform="matrix(1 0 0 1 334.39 627.03)" font-family="'MyriadPro-Regular'" font-size="9px">A</text>
	<text transform="matrix(1 0 0 1 324.37 633.71)" font-family="'MyriadPro-Regular'" font-size="9px">U</text>
	<text transform="matrix(1 0 0 1 312.12 638.16)" font-family="'MyriadPro-Regular'" font-size="9px">U</text>
	<text transform="matrix(1 0 0 1 299.88 639.28)" font-family="'MyriadPro-Regular'" font-size="9px">C</text>
	<text transform="matrix(1 0 0 1 287.63 638.16)" font-family="'MyriadPro-Regular'" font-size="9px">C</text>
	<text transform="matrix(1 0 0 1 276.49 634.82)" font-family="'MyriadPro-Regular'" font-size="9px">G</text>
	<text transform="matrix(1 0 0 1 266.47 628.14)" font-family="'MyriadPro-Regular'" font-size="9px">A</text>
	<text transform="matrix(1 0 0 1 257.57 620.35)" font-family="'MyriadPro-Regular'" font-size="9px">C</text>
	<text transform="matrix(1 0 0 1 250.89 609.22)" font-family="'MyriadPro-Regular'" font-size="9px">U</text>
	<text transform="matrix(1 0 0 1 246.43 598.08)" font-family="'MyriadPro-Regular'" font-size="9px">A</text>
	<text transform="matrix(1 0 0 1 245.32 585.83)" font-family="'MyriadPro-Regular'" font-size="9px">A</text>
	<text transform="matrix(1 0 0 1 246.43 573.59)" font-family="'MyriadPro-Regular'" font-size="9px">U</text>
	<text transform="matrix(1 0 0 1 249.77 562.45)" font-family="'MyriadPro-Regular'" font-size="9px">C</text>
	<text transform="matrix(1 0 0 1 256.45 551.32)" font-family="'MyriadPro-Regular'" font-size="9px">U</text>
	<text transform="matrix(1 0 0 1 245.32 551.32)" font-family="'MyriadPro-Regular'" font-size="9px">U</text>
	<text transform="matrix(1 0 0 1 234.19 551.32)" font-family="'MyriadPro-Regular'" font-size="9px">G</text>
	<text transform="matrix(1 0 0 1 223.05 551.32)" font-family="'MyriadPro-Regular'" font-size="9px">U</text>
	<text transform="matrix(1 0 0 1 211.92 551.32)" font-family="'MyriadPro-Regular'" font-size="9px">C</text>
	<text transform="matrix(1 0 0 1 201.9 551.32)" font-family="'MyriadPro-Regular'" font-size="9px">U</text>
	<text transform="matrix(1 0 0 1 190.76 551.32)" font-family="'MyriadPro-Regular'" font-size="9px">G</text>
	<text transform="matrix(1 0 0 1 179.63 551.32)" font-family="'MyriadPro-Regular'" font-size="9px">U</text>
	<text transform="matrix(1 0 0 1 168.49 551.32)" font-family="'MyriadPro-Regular'" font-size="9px">A</text>
	<text transform="matrix(1 0 0 1 157.36 551.32)" font-family="'MyriadPro-Regular'" font-size="9px">U</text>
	<text transform="matrix(1 0 0 1 146.23 551.32)" font-family="'MyriadPro-Regular'" font-size="9px">G</text>
	<text transform="matrix(1 0 0 1 135.09 551.32)" font-family="'MyriadPro-Regular'" font-size="9px">U</text>
	<text transform="matrix(1 0 0 1 123.96 551.32)" font-family="'MyriadPro-Regular'" font-size="9px">C</text>
	<text transform="matrix(1 0 0 1 112.82 551.32)" font-family="'MyriadPro-Regular'" font-size="9px">U</text>
	<text transform="matrix(1 0 0 1 101.69 551.32)" font-family="'MyriadPro-Regular'" font-size="9px">G</text>
	<text transform="matrix(1 0 0 1 91.67 551.32)" font-family="'MyriadPro-Regular'" font-size="9px">G</text>
	<text transform="matrix(1 0 0 1 80.54 551.32)" font-family="'MyriadPro-Regular'" font-size="9px">U</text>
	<text transform="matrix(1 0 0 1 69.4 551.32)" font-family="'MyriadPro-Regular'" font-size="9px">G</text>
	<text transform="matrix(1 0 0 1 58.27 551.32)" font-family="'MyriadPro-Regular'" font-size="9px">U</text>
	<text transform="matrix(1 0 0 1 47.13 551.32)" font-family="'MyriadPro-Regular'" font-size="9px">G</text>
	<text transform="matrix(1 0 0 1 36 551.32)" font-family="'MyriadPro-Regular'" font-size="9px">G</text>
	<text transform="matrix(1 0 0 1 36 563.57)" font-family="'MyriadPro-Regular'" font-size="9px">U</text>
	<text transform="matrix(1 0 0 1 36 578.04)" font-family="'MyriadPro-Regular'" font-size="9px">U</text>
</g>
<g id="Labels_Lines">
	
		<line fill="none" stroke="#000000" stroke-width="0.2" stroke-linejoin="round" stroke-miterlimit="10" x1="138.1" y1="518.7" x2="138.1" y2="512"/>
	
		<line fill="none" stroke="#000000" stroke-width="0.2" stroke-linejoin="round" stroke-miterlimit="10" x1="248.8" y1="518.4" x2="248.8" y2="511.8"/>
	
		<line fill="none" stroke="#000000" stroke-width="0.2" stroke-linejoin="round" stroke-miterlimit="10" x1="285" y1="477.1" x2="283.2" y2="483.6"/>
	
		<line fill="none" stroke="#000000" stroke-width="0.2" stroke-linejoin="round" stroke-miterlimit="10" x1="195.1" y1="496" x2="197.3" y2="502.4"/>
	
		<line fill="none" stroke="#000000" stroke-width="0.2" stroke-linejoin="round" stroke-miterlimit="10" x1="94.1" y1="459.4" x2="94.1" y2="466.1"/>
	
		<line fill="none" stroke="#000000" stroke-width="0.2" stroke-linejoin="round" stroke-miterlimit="10" x1="125.5" y1="425.5" x2="121.9" y2="420.5"/>
	
		<line fill="none" stroke="#000000" stroke-width="0.2" stroke-linejoin="round" stroke-miterlimit="10" x1="226.1" y1="418.6" x2="232.1" y2="415.8"/>
	
		<line fill="none" stroke="#000000" stroke-width="0.2" stroke-linejoin="round" stroke-miterlimit="10" x1="261.8" y1="370.9" x2="255.7" y2="368.4"/>
	
		<line fill="none" stroke="#000000" stroke-width="0.2" stroke-linejoin="round" stroke-miterlimit="10" x1="361.2" y1="323.9" x2="355.7" y2="320.1"/>
	
		<line fill="none" stroke="#000000" stroke-width="0.2" stroke-linejoin="round" stroke-miterlimit="10" x1="383" y1="253.2" x2="377" y2="256.2"/>
	
		<line fill="none" stroke="#000000" stroke-width="0.2" stroke-linejoin="round" stroke-miterlimit="10" x1="427.2" y1="145.6" x2="425.1" y2="139.2"/>
	
		<line fill="none" stroke="#000000" stroke-width="0.2" stroke-linejoin="round" stroke-miterlimit="10" x1="522.2" y1="210" x2="528.8" y2="209.4"/>
	
		<line fill="none" stroke="#000000" stroke-width="0.2" stroke-linejoin="round" stroke-miterlimit="10" x1="553.4" y1="261.2" x2="551.7" y2="267.6"/>
	
		<line fill="none" stroke="#000000" stroke-width="0.2" stroke-linejoin="round" stroke-miterlimit="10" x1="489.9" y1="299.3" x2="496.3" y2="297.6"/>
	
		<line fill="none" stroke="#000000" stroke-width="0.2" stroke-linejoin="round" stroke-miterlimit="10" x1="553.4" y1="385.6" x2="560.1" y2="385.9"/>
	
		<line fill="none" stroke="#000000" stroke-width="0.2" stroke-linejoin="round" stroke-miterlimit="10" x1="496.2" y1="476.8" x2="502.8" y2="478.2"/>
	
		<line fill="none" stroke="#000000" stroke-width="0.2" stroke-linejoin="round" stroke-miterlimit="10" x1="458.1" y1="581.8" x2="456.9" y2="588.4"/>
	
		<line fill="none" stroke="#000000" stroke-width="0.2" stroke-linejoin="round" stroke-miterlimit="10" x1="452.6" y1="474.2" x2="446.1" y2="472.7"/>
	
		<line fill="none" stroke="#000000" stroke-width="0.2" stroke-linejoin="round" stroke-miterlimit="10" x1="442" y1="378.5" x2="435.4" y2="378.1"/>
	
		<line fill="none" stroke="#000000" stroke-width="0.2" stroke-linejoin="round" stroke-miterlimit="10" x1="445.6" y1="292.4" x2="445.3" y2="299.1"/>
	
		<line fill="none" stroke="#000000" stroke-width="0.2" stroke-linejoin="round" stroke-miterlimit="10" x1="392.6" y1="353.4" x2="397.7" y2="349.2"/>
	
		<line fill="none" stroke="#000000" stroke-width="0.2" stroke-linejoin="round" stroke-miterlimit="10" x1="370.7" y1="468.9" x2="374" y2="474.6"/>
	
		<line fill="none" stroke="#000000" stroke-width="0.2" stroke-linejoin="round" stroke-miterlimit="10" x1="330.6" y1="523" x2="329.3" y2="514.9"/>
	
		<line fill="none" stroke="#000000" stroke-width="0.2" stroke-linejoin="round" stroke-miterlimit="10" x1="384.5" y1="524.7" x2="388.5" y2="530"/>
	
		<line fill="none" stroke="#000000" stroke-width="0.2" stroke-linejoin="round" stroke-miterlimit="10" x1="351.1" y1="617.8" x2="356.4" y2="621.8"/>
	
		<line fill="none" stroke="#000000" stroke-width="0.2" stroke-linejoin="round" stroke-miterlimit="10" x1="243.9" y1="594.9" x2="237.4" y2="596.5"/>
	
		<line fill="none" stroke="#000000" stroke-width="0.2" stroke-linejoin="round" stroke-miterlimit="10" x1="194.3" y1="552.9" x2="194.3" y2="559.6"/>
	
		<line fill="none" stroke="#000000" stroke-width="0.2" stroke-linejoin="round" stroke-miterlimit="10" x1="84" y1="552.9" x2="84" y2="559.6"/>
</g>
<g id="Labels_Text">
	<text transform="matrix(1 0 0 1 133.89 507.85)" font-family="'MyriadPro-Regular'" font-size="8px">10</text>
	<text transform="matrix(1 0 0 1 244.12 507.57)" font-family="'MyriadPro-Regular'" font-size="8px">20</text>
	<text transform="matrix(1 0 0 1 276.69 492.69)" font-family="'MyriadPro-Regular'" font-size="8px">30</text>
	<text transform="matrix(1 0 0 1 194.75 511.45)" font-family="'MyriadPro-Regular'" font-size="8px">40</text>
	<text transform="matrix(1 0 0 1 89.36 475.28)" font-family="'MyriadPro-Regular'" font-size="8px">50</text>
	<text transform="matrix(1 0 0 1 113.11 416.28)" font-family="'MyriadPro-Regular'" font-size="8px">60</text>
	<text transform="matrix(1 0 0 1 234.99 414.71)" font-family="'MyriadPro-Regular'" font-size="8px">70</text>
	<text transform="matrix(1 0 0 1 243.83 367.8)" font-family="'MyriadPro-Regular'" font-size="8px">80</text>
	<text transform="matrix(1 0 0 1 344.06 317.55)" font-family="'MyriadPro-Regular'" font-size="8px">90</text>
	<text transform="matrix(1 0 0 1 360.35 263.96)" font-family="'MyriadPro-Regular'" font-size="8px">100</text>
	<text transform="matrix(1 0 0 1 416.62 135.14)" font-family="'MyriadPro-Regular'" font-size="8px">110</text>
	<text transform="matrix(1 0 0 1 533.62 210.82)" font-family="'MyriadPro-Regular'" font-size="8px">120</text>
	<text transform="matrix(1 0 0 1 543.67 276.73)" font-family="'MyriadPro-Regular'" font-size="8px">130</text>
	<text transform="matrix(1 0 0 1 501.02 297.35)" font-family="'MyriadPro-Regular'" font-size="8px">140</text>
	<text transform="matrix(1 0 0 1 564.84 388.89)" font-family="'MyriadPro-Regular'" font-size="8px">150</text>
	<text transform="matrix(1 0 0 1 506.99 482.88)" font-family="'MyriadPro-Regular'" font-size="8px">160</text>
	<text transform="matrix(1 0 0 1 449.31 597.56)" font-family="'MyriadPro-Regular'" font-size="8px">170</text>
	<text transform="matrix(1 0 0 1 429.32 472.65)" font-family="'MyriadPro-Regular'" font-size="8px">180</text>
	<text transform="matrix(1 0 0 1 419.01 380.18)" font-family="'MyriadPro-Regular'" font-size="8px">190</text>
	<text transform="matrix(1 0 0 1 438.72 308.26)" font-family="'MyriadPro-Regular'" font-size="8px">200</text>
	<text transform="matrix(1 0 0 1 399.08 345.79)" font-family="'MyriadPro-Regular'" font-size="8px">210</text>
	<text transform="matrix(1 0 0 1 363.58 482.4)" font-family="'MyriadPro-Regular'" font-size="8px">220</text>
	<text transform="matrix(1 0 0 1 326.65 508.96)" font-family="'MyriadPro-Regular'" font-size="8px">230</text>
	<text transform="matrix(1 0 0 1 386.84 538.74)" font-family="'MyriadPro-Regular'" font-size="8px">240</text>
	<text transform="matrix(1 0 0 1 357.66 630.12)" font-family="'MyriadPro-Regular'" font-size="8px">250</text>
	<text transform="matrix(1 0 0 1 221.12 601.49)" font-family="'MyriadPro-Regular'" font-size="8px">260</text>
	<text transform="matrix(1 0 0 1 187.96 568.8)" font-family="'MyriadPro-Regular'" font-size="8px">270</text>
	<text transform="matrix(1 0 0 1 77.74 568.8)" font-family="'MyriadPro-Regular'" font-size="8px">280</text>
</g>
<g id="Nucleotide_Lines">
	
		<line fill="none" stroke="#000000" stroke-width="0.2" stroke-linejoin="round" stroke-miterlimit="10" x1="39" y1="540.9" x2="39" y2="533.5"/>
	
		<line fill="none" stroke="#000000" stroke-width="0.2" stroke-linejoin="round" stroke-miterlimit="10" x1="50.1" y1="540.9" x2="50.1" y2="533.5"/>
	
		<line fill="none" stroke="#000000" stroke-width="0.2" stroke-linejoin="round" stroke-miterlimit="10" x1="61.3" y1="540.9" x2="61.3" y2="533.5"/>
	
		<line fill="none" stroke="#000000" stroke-width="0.2" stroke-linejoin="round" stroke-miterlimit="10" x1="94.7" y1="540.9" x2="94.7" y2="533.5"/>
	
		<line fill="none" stroke="#000000" stroke-width="0.2" stroke-linejoin="round" stroke-miterlimit="10" x1="127" y1="540.9" x2="127" y2="533.5"/>
	
		<line fill="none" stroke="#000000" stroke-width="0.2" stroke-linejoin="round" stroke-miterlimit="10" x1="138.1" y1="540.9" x2="138.1" y2="533.5"/>
	
		<line fill="none" stroke="#000000" stroke-width="0.2" stroke-linejoin="round" stroke-miterlimit="10" x1="149.2" y1="540.9" x2="149.2" y2="533.5"/>
	
		<line fill="none" stroke="#000000" stroke-width="0.2" stroke-linejoin="round" stroke-miterlimit="10" x1="171.5" y1="540.9" x2="171.5" y2="533.5"/>
	
		<line fill="none" stroke="#000000" stroke-width="0.2" stroke-linejoin="round" stroke-miterlimit="10" x1="182.6" y1="540.9" x2="182.6" y2="533.5"/>
	
		<line fill="none" stroke="#000000" stroke-width="0.2" stroke-linejoin="round" stroke-miterlimit="10" x1="193.8" y1="540.9" x2="193.8" y2="533.5"/>
	
		<line fill="none" stroke="#000000" stroke-width="0.2" stroke-linejoin="round" stroke-miterlimit="10" x1="214.9" y1="540.9" x2="214.9" y2="533.5"/>
	
		<line fill="none" stroke="#000000" stroke-width="0.2" stroke-linejoin="round" stroke-miterlimit="10" x1="237.2" y1="540.9" x2="237.2" y2="533.5"/>
	
		<line fill="none" stroke="#000000" stroke-width="0.2" stroke-linejoin="round" stroke-miterlimit="10" x1="259.5" y1="540.9" x2="259.5" y2="533.5"/>
	
		<line fill="none" stroke="#000000" stroke-width="0.2" stroke-linejoin="round" stroke-miterlimit="10" x1="311" y1="528.3" x2="303.6" y2="528.3"/>
	
		<line fill="none" stroke="#000000" stroke-width="0.2" stroke-linejoin="round" stroke-miterlimit="10" x1="311" y1="517.9" x2="303.6" y2="517.5"/>
	
		<line fill="none" stroke="#000000" stroke-width="0.2" stroke-linejoin="round" stroke-miterlimit="10" x1="311.4" y1="506.8" x2="304.4" y2="506.4"/>
	
		<line fill="none" stroke="#000000" stroke-width="0.2" stroke-linejoin="round" stroke-miterlimit="10" x1="312.2" y1="484.5" x2="304.7" y2="484.1"/>
	
		<line fill="none" stroke="#000000" stroke-width="0.2" stroke-linejoin="round" stroke-miterlimit="10" x1="313.3" y1="473.4" x2="305.9" y2="473"/>
	
		<line fill="none" stroke="#000000" stroke-width="0.2" stroke-linejoin="round" stroke-miterlimit="10" x1="257.2" y1="441.8" x2="257.2" y2="448.9"/>
	
		<line fill="none" stroke="#000000" stroke-width="0.2" stroke-linejoin="round" stroke-miterlimit="10" x1="246.1" y1="441.8" x2="246.1" y2="448.9"/>
	
		<line fill="none" stroke="#000000" stroke-width="0.2" stroke-linejoin="round" stroke-miterlimit="10" x1="235" y1="441.1" x2="235" y2="448.5"/>
	
		<line fill="none" stroke="#000000" stroke-width="0.2" stroke-linejoin="round" stroke-miterlimit="10" x1="223.8" y1="441.1" x2="223.8" y2="448.5"/>
	
		<line fill="none" stroke="#000000" stroke-width="0.2" stroke-linejoin="round" stroke-miterlimit="10" x1="126.6" y1="440" x2="126.2" y2="447.4"/>
	
		<line fill="none" stroke="#000000" stroke-width="0.2" stroke-linejoin="round" stroke-miterlimit="10" x1="115.8" y1="440" x2="115.8" y2="447.4"/>
	
		<line fill="none" stroke="#000000" stroke-width="0.2" stroke-linejoin="round" stroke-miterlimit="10" x1="104.7" y1="440" x2="104.7" y2="447.4"/>
	
		<line fill="none" stroke="#000000" stroke-width="0.2" stroke-linejoin="round" stroke-miterlimit="10" x1="82.4" y1="439.6" x2="82.4" y2="446.6"/>
	
		<line fill="none" stroke="#000000" stroke-width="0.2" stroke-linejoin="round" stroke-miterlimit="10" x1="372.3" y1="346.4" x2="366" y2="342.7"/>
	
		<line fill="none" stroke="#000000" stroke-width="0.2" stroke-linejoin="round" stroke-miterlimit="10" x1="378.2" y1="337.1" x2="372.3" y2="333.1"/>
	
		<line fill="none" stroke="#000000" stroke-width="0.2" stroke-linejoin="round" stroke-miterlimit="10" x1="384.5" y1="327.5" x2="378.2" y2="323.8"/>
	
		<line fill="none" stroke="#000000" stroke-width="0.2" stroke-linejoin="round" stroke-miterlimit="10" x1="391.6" y1="316" x2="385.6" y2="311.9"/>
	
		<line fill="none" stroke="#000000" stroke-width="0.2" stroke-linejoin="round" stroke-miterlimit="10" x1="397.9" y1="306.3" x2="391.6" y2="302.6"/>
	
		<line fill="none" stroke="#000000" stroke-width="0.2" stroke-linejoin="round" stroke-miterlimit="10" x1="403.5" y1="297.1" x2="397.1" y2="293"/>
	
		<line fill="none" stroke="#000000" stroke-width="0.2" stroke-linejoin="round" stroke-miterlimit="10" x1="409" y1="288.1" x2="402.7" y2="284.1"/>
	
		<line fill="none" stroke="#000000" stroke-width="0.2" stroke-linejoin="round" stroke-miterlimit="10" x1="415" y1="278.5" x2="409" y2="274.8"/>
	
		<line fill="none" stroke="#000000" stroke-width="0.2" stroke-linejoin="round" stroke-miterlimit="10" x1="513.7" y1="239.2" x2="515.2" y2="231.7"/>
	
		<line fill="none" stroke="#000000" stroke-width="0.2" stroke-linejoin="round" stroke-miterlimit="10" x1="524.1" y1="241.8" x2="525.9" y2="234.7"/>
	
		<line fill="none" stroke="#000000" stroke-width="0.2" stroke-linejoin="round" stroke-miterlimit="10" x1="535.2" y1="244" x2="537.1" y2="236.9"/>
	
		<line fill="none" stroke="#000000" stroke-width="0.2" stroke-linejoin="round" stroke-miterlimit="10" x1="545.2" y1="247.3" x2="547.1" y2="240.3"/>
	
		<line fill="none" stroke="#000000" stroke-width="0.2" stroke-linejoin="round" stroke-miterlimit="10" x1="556.4" y1="249.6" x2="558.2" y2="242.5"/>
	
		<line fill="none" stroke="#000000" stroke-width="0.2" stroke-linejoin="round" stroke-miterlimit="10" x1="464.7" y1="284.8" x2="471.7" y2="283"/>
	
		<line fill="none" stroke="#000000" stroke-width="0.2" stroke-linejoin="round" stroke-miterlimit="10" x1="468" y1="295.6" x2="475.1" y2="293.4"/>
	
		<line fill="none" stroke="#000000" stroke-width="0.2" stroke-linejoin="round" stroke-miterlimit="10" x1="470.3" y1="306" x2="477.3" y2="304.1"/>
	
		<line fill="none" stroke="#000000" stroke-width="0.2" stroke-linejoin="round" stroke-miterlimit="10" x1="473.6" y1="316.7" x2="480.6" y2="314.5"/>
	
		<line fill="none" stroke="#000000" stroke-width="0.2" stroke-linejoin="round" stroke-miterlimit="10" x1="476.9" y1="327.1" x2="484" y2="325.3"/>
	
		<line fill="none" stroke="#000000" stroke-width="0.2" stroke-linejoin="round" stroke-miterlimit="10" x1="484.7" y1="430.7" x2="491.8" y2="432.1"/>
	
		<line fill="none" stroke="#000000" stroke-width="0.2" stroke-linejoin="round" stroke-miterlimit="10" x1="482.5" y1="441.8" x2="489.6" y2="443.3"/>
	
		<line fill="none" stroke="#000000" stroke-width="0.2" stroke-linejoin="round" stroke-miterlimit="10" x1="480.3" y1="452.6" x2="487.3" y2="453.7"/>
	
		<line fill="none" stroke="#000000" stroke-width="0.2" stroke-linejoin="round" stroke-miterlimit="10" x1="478" y1="463" x2="485.1" y2="464.4"/>
	
		<line fill="none" stroke="#000000" stroke-width="0.2" stroke-linejoin="round" stroke-miterlimit="10" x1="475.8" y1="474.1" x2="482.9" y2="475.6"/>
	
		<line fill="none" stroke="#000000" stroke-width="0.2" stroke-linejoin="round" stroke-miterlimit="10" x1="472.9" y1="487.5" x2="480.3" y2="488.9"/>
	
		<line fill="none" stroke="#000000" stroke-width="0.2" stroke-linejoin="round" stroke-miterlimit="10" x1="470.6" y1="498.6" x2="478" y2="500.1"/>
	
		<line fill="none" stroke="#000000" stroke-width="0.2" stroke-linejoin="round" stroke-miterlimit="10" x1="466.9" y1="519.7" x2="474" y2="521.2"/>
	
		<line fill="none" stroke="#000000" stroke-width="0.2" stroke-linejoin="round" stroke-miterlimit="10" x1="462.5" y1="542" x2="469.5" y2="543.5"/>
	
		<line fill="none" stroke="#000000" stroke-width="0.2" stroke-linejoin="round" stroke-miterlimit="10" x1="339.6" y1="541.3" x2="335.2" y2="535.3"/>
	
		<line fill="none" stroke="#000000" stroke-width="0.2" stroke-linejoin="round" stroke-miterlimit="10" x1="348.5" y1="534.6" x2="344.1" y2="528.7"/>
	
		<line fill="none" stroke="#000000" stroke-width="0.2" stroke-linejoin="round" stroke-miterlimit="10" x1="357.4" y1="527.9" x2="353" y2="522"/>
	
		<line fill="none" stroke="#000000" stroke-width="0.2" stroke-linejoin="round" stroke-miterlimit="10" x1="366.3" y1="521.2" x2="361.9" y2="515.3"/>
	
		<line fill="none" stroke="#000000" stroke-width="0.2" stroke-linejoin="round" stroke-miterlimit="10" x1="375.3" y1="514.5" x2="370.8" y2="508.6"/>
</g>
<g id="Nucleotide_Circles">
	<circle cx="72.7" cy="537.2" r="1.5"/>
	<circle cx="83.8" cy="537.2" r="1.5"/>
	<circle cx="105" cy="537.2" r="1.5"/>
	<circle cx="116.1" cy="537.2" r="1.5"/>
	<circle cx="160.7" cy="537.2" r="1.5"/>
	<circle cx="205.2" cy="537.2" r="1.5"/>
	<circle cx="226.4" cy="537.2" r="1.5"/>
	<circle cx="248.6" cy="537.2" r="1.5"/>
	<circle cx="308.7" cy="495.4" r="1.5"/>
	<circle cx="268.7" cy="445.9" r="1.5"/>
	<circle cx="93.9" cy="443.7" r="1.5"/>
	<circle cx="484.1" cy="336.8" r="1.5"/>
	<circle cx="473" cy="510.5" r="1.5"/>
	<circle cx="468.5" cy="531.6" r="1.5"/>
</g>
</svg>
