<?xml version="1.0" encoding="utf-8"?>
<!-- Generator: Adobe Illustrator 23.0.3, SVG Export Plug-In . SVG Version: 6.00 Build 0)  -->
<svg version="1.1" baseProfile="tiny" id="Layer_1" xmlns="http://www.w3.org/2000/svg" xmlns:xlink="http://www.w3.org/1999/xlink"
	 x="0px" y="0px" viewBox="0 0 612 792" xml:space="preserve">
<g id="Letters">
	<text transform="matrix(1 0 0 1 258.25 649.92)" font-family="'ArialMT'" font-size="12px">G</text>
	<text transform="matrix(1 0 0 1 259.37 637.04)" font-family="'ArialMT'" font-size="12px">A</text>
	<text transform="matrix(1 0 0 1 258.25 624.16)" font-family="'ArialMT'" font-size="12px">G</text>
	<text transform="matrix(1 0 0 1 258.25 611.56)" font-family="'ArialMT'" font-size="12px">G</text>
	<text transform="matrix(1 0 0 1 259.37 598.68)" font-family="'ArialMT'" font-size="12px">A</text>
	<text transform="matrix(1 0 0 1 259.37 585.8)" font-family="'ArialMT'" font-size="12px">A</text>
	<text transform="matrix(1 0 0 1 259.37 572.92)" font-family="'ArialMT'" font-size="12px">A</text>
	<text transform="matrix(1 0 0 1 259.37 555.56)" font-family="'ArialMT'" font-size="12px">A</text>
	<text transform="matrix(1 0 0 1 249.01 546.03)" font-family="'ArialMT'" font-size="12px">U</text>
	<text transform="matrix(1 0 0 1 258.25 537.91)" font-family="'ArialMT'" font-size="12px">G</text>
	<text transform="matrix(1 0 0 1 260.49 525.03)" font-family="'ArialMT'" font-size="12px">C</text>
	<text transform="matrix(1 0 0 1 260.49 512.15)" font-family="'ArialMT'" font-size="12px">A</text>
	<text transform="matrix(1 0 0 1 259.37 499.55)" font-family="'ArialMT'" font-size="12px">G</text>
	<text transform="matrix(1 0 0 1 260.49 486.67)" font-family="'ArialMT'" font-size="12px">C</text>
	<text transform="matrix(1 0 0 1 260.49 473.79)" font-family="'ArialMT'" font-size="12px">C</text>
	<text transform="matrix(1 0 0 1 247.61 472.63)" font-family="'ArialMT'" font-size="12px">U</text>
	<text transform="matrix(1 0 0 1 236.13 472.63)" font-family="'ArialMT'" font-size="12px">C</text>
	<text transform="matrix(1 0 0 1 224.36 472.63)" font-family="'ArialMT'" font-size="12px">C</text>
	<text transform="matrix(1 0 0 1 231.37 487.76)" font-family="'ArialMT'" font-size="12px">A</text>
	<text transform="matrix(1 0 0 1 226.61 502.89)" font-family="'ArialMT'" font-size="12px">C</text>
	<text transform="matrix(1 0 0 1 237.81 505.12)" font-family="'ArialMT'" font-size="12px">A</text>
	<text transform="matrix(1 0 0 1 215.13 500.65)" font-family="'ArialMT'" font-size="12px">C</text>
	<text transform="matrix(1 0 0 1 202.25 497)" font-family="'ArialMT'" font-size="12px">C</text>
	<text transform="matrix(1 0 0 1 189.37 494.77)" font-family="'ArialMT'" font-size="12px">U</text>
	<text transform="matrix(1 0 0 1 177.61 492.53)" font-family="'ArialMT'" font-size="12px">U</text>
	<text transform="matrix(1 0 0 1 188.81 478.53)" font-family="'ArialMT'" font-size="12px">A</text>
	<text transform="matrix(1 0 0 1 202.25 469.01)" font-family="'ArialMT'" font-size="12px">C</text>
	<text transform="matrix(1 0 0 1 191.6 463.11)" font-family="'ArialMT'" font-size="12px">A</text>
	<text transform="matrix(1 0 0 1 181.23 458.63)" font-family="'ArialMT'" font-size="12px">A</text>
	<text transform="matrix(1 0 0 1 170.59 453.87)" font-family="'ArialMT'" font-size="12px">G</text>
	<text transform="matrix(1 0 0 1 160.23 449.11)" font-family="'ArialMT'" font-size="12px">A</text>
	<text transform="matrix(1 0 0 1 148.46 453.87)" font-family="'ArialMT'" font-size="12px">A</text>
	<text transform="matrix(1 0 0 1 143.98 464.51)" font-family="'ArialMT'" font-size="12px">C</text>
	<text transform="matrix(1 0 0 1 139.22 474.87)" font-family="'ArialMT'" font-size="12px">C</text>
	<text transform="matrix(1 0 0 1 133.34 485.52)" font-family="'ArialMT'" font-size="12px">C</text>
	<text transform="matrix(1 0 0 1 128.58 495.88)" font-family="'ArialMT'" font-size="12px">C</text>
	<text transform="matrix(1 0 0 1 126.34 508.76)" font-family="'ArialMT'" font-size="12px">G</text>
	<text transform="matrix(1 0 0 1 115.98 514.64)" font-family="'ArialMT'" font-size="12px">U</text>
	<text transform="matrix(1 0 0 1 103.09 508.76)" font-family="'ArialMT'" font-size="12px">A</text>
	<text transform="matrix(1 0 0 1 100.58 497)" font-family="'ArialMT'" font-size="12px">A</text>
	<text transform="matrix(1 0 0 1 107.58 486.64)" font-family="'ArialMT'" font-size="12px">G</text>
	<text transform="matrix(1 0 0 1 112.34 475.99)" font-family="'ArialMT'" font-size="12px">G</text>
	<text transform="matrix(1 0 0 1 117.1 465.63)" font-family="'ArialMT'" font-size="12px">G</text>
	<text transform="matrix(1 0 0 1 122.99 454.98)" font-family="'ArialMT'" font-size="12px">G</text>
	<text transform="matrix(1 0 0 1 127.47 444.62)" font-family="'ArialMT'" font-size="12px">U</text>
	<text transform="matrix(1 0 0 1 122.99 432.86)" font-family="'ArialMT'" font-size="12px">A</text>
	<text transform="matrix(1 0 0 1 112.34 426.98)" font-family="'ArialMT'" font-size="12px">G</text>
	<text transform="matrix(1 0 0 1 101.97 422.5)" font-family="'ArialMT'" font-size="12px">G</text>
	<text transform="matrix(1 0 0 1 91.33 417.74)" font-family="'ArialMT'" font-size="12px">G</text>
	<text transform="matrix(1 0 0 1 80.97 412.98)" font-family="'ArialMT'" font-size="12px">A</text>
	<text transform="matrix(1 0 0 1 68.08 412.98)" font-family="'ArialMT'" font-size="12px">U</text>
	<text transform="matrix(1 0 0 1 58.56 403.73)" font-family="'ArialMT'" font-size="12px">A</text>
	<text transform="matrix(1 0 0 1 58.56 390.85)" font-family="'ArialMT'" font-size="12px">G</text>
	<text transform="matrix(1 0 0 1 68.08 382.74)" font-family="'ArialMT'" font-size="12px">A</text>
	<text transform="matrix(1 0 0 1 80.95 382.74)" font-family="'ArialMT'" font-size="12px">A</text>
	<text transform="matrix(1 0 0 1 90.21 391.98)" font-family="'ArialMT'" font-size="12px">U</text>
	<text transform="matrix(1 0 0 1 100.57 396.74)" font-family="'ArialMT'" font-size="12px">C</text>
	<text transform="matrix(1 0 0 1 111.22 401.51)" font-family="'ArialMT'" font-size="12px">C</text>
	<text transform="matrix(1 0 0 1 121.58 405.99)" font-family="'ArialMT'" font-size="12px">C</text>
	<text transform="matrix(1 0 0 1 132.23 410.75)" font-family="'ArialMT'" font-size="12px">U</text>
	<text transform="matrix(1 0 0 1 143.99 407.11)" font-family="'ArialMT'" font-size="12px">G</text>
	<text transform="matrix(1 0 0 1 148.46 396.73)" font-family="'ArialMT'" font-size="12px">G</text>
	<text transform="matrix(1 0 0 1 139.22 388.61)" font-family="'ArialMT'" font-size="12px">C</text>
	<text transform="matrix(1 0 0 1 129.98 379.08)" font-family="'ArialMT'" font-size="12px">U</text>
	<text transform="matrix(1 0 0 1 122.98 367.6)" font-family="'ArialMT'" font-size="12px">A</text>
	<text transform="matrix(1 0 0 1 118.21 355.84)" font-family="'ArialMT'" font-size="12px">C</text>
	<text transform="matrix(1 0 0 1 115.98 342.96)" font-family="'ArialMT'" font-size="12px">U</text>
	<text transform="matrix(1 0 0 1 114.58 330.08)" font-family="'ArialMT'" font-size="12px">A</text>
	<text transform="matrix(1 0 0 1 117.1 318.6)" font-family="'ArialMT'" font-size="12px">C</text>
	<text transform="matrix(1 0 0 1 120.46 305.72)" font-family="'ArialMT'" font-size="12px">A</text>
	<text transform="matrix(1 0 0 1 126.34 293.95)" font-family="'ArialMT'" font-size="12px">C</text>
	<text transform="matrix(1 0 0 1 133.34 283.59)" font-family="'ArialMT'" font-size="12px">A</text>
	<text transform="matrix(1 0 0 1 142.59 275.47)" font-family="'ArialMT'" font-size="12px">G</text>
	<text transform="matrix(1 0 0 1 153.23 268.47)" font-family="'ArialMT'" font-size="12px">A</text>
	<text transform="matrix(1 0 0 1 164.99 262.59)" font-family="'ArialMT'" font-size="12px">A</text>
	<text transform="matrix(1 0 0 1 177.59 258.95)" font-family="'ArialMT'" font-size="12px">A</text>
	<text transform="matrix(1 0 0 1 190.46 258.95)" font-family="'ArialMT'" font-size="12px">C</text>
	<text transform="matrix(1 0 0 1 203.35 260.06)" font-family="'ArialMT'" font-size="12px">G</text>
	<text transform="matrix(1 0 0 1 216.23 263.71)" font-family="'ArialMT'" font-size="12px">A</text>
	<text transform="matrix(1 0 0 1 228 268.47)" font-family="'ArialMT'" font-size="12px">A</text>
	<text transform="matrix(1 0 0 1 238.36 276.59)" font-family="'ArialMT'" font-size="12px">G</text>
	<text transform="matrix(1 0 0 1 246.49 267.34)" font-family="'ArialMT'" font-size="12px">C</text>
	<text transform="matrix(1 0 0 1 256.02 261.46)" font-family="'ArialMT'" font-size="12px">C</text>
	<text transform="matrix(1 0 0 1 264.13 253.06)" font-family="'ArialMT'" font-size="12px">C</text>
	<text transform="matrix(1 0 0 1 272.26 246.05)" font-family="'ArialMT'" font-size="12px">U</text>
	<text transform="matrix(1 0 0 1 281.5 237.93)" font-family="'ArialMT'" font-size="12px">A</text>
	<text transform="matrix(1 0 0 1 289.62 230.93)" font-family="'ArialMT'" font-size="12px">A</text>
	<text transform="matrix(1 0 0 1 299.14 222.81)" font-family="'ArialMT'" font-size="12px">U</text>
	<text transform="matrix(1 0 0 1 307.27 215.81)" font-family="'ArialMT'" font-size="12px">A</text>
	<text transform="matrix(1 0 0 1 316.51 207.68)" font-family="'ArialMT'" font-size="12px">C</text>
	<text transform="matrix(1 0 0 1 324.63 200.68)" font-family="'ArialMT'" font-size="12px">U</text>
	<text transform="matrix(1 0 0 1 319.03 188.92)" font-family="'ArialMT'" font-size="12px">A</text>
	<text transform="matrix(1 0 0 1 315.38 176.04)" font-family="'ArialMT'" font-size="12px">G</text>
	<text transform="matrix(1 0 0 1 313.15 163.44)" font-family="'ArialMT'" font-size="12px">A</text>
	<text transform="matrix(1 0 0 1 314.26 150.56)" font-family="'ArialMT'" font-size="12px">U</text>
	<text transform="matrix(1 0 0 1 316.5 138.8)" font-family="'ArialMT'" font-size="12px">A</text>
	<text transform="matrix(1 0 0 1 321.26 125.92)" font-family="'ArialMT'" font-size="12px">G</text>
	<text transform="matrix(1 0 0 1 328.26 115.55)" font-family="'ArialMT'" font-size="12px">A</text>
	<text transform="matrix(1 0 0 1 336.38 106.02)" font-family="'ArialMT'" font-size="12px">U</text>
	<text transform="matrix(1 0 0 1 347.02 97.91)" font-family="'ArialMT'" font-size="12px">G</text>
	<text transform="matrix(1 0 0 1 357.39 92.03)" font-family="'ArialMT'" font-size="12px">A</text>
	<text transform="matrix(1 0 0 1 370.27 87.55)" font-family="'ArialMT'" font-size="12px">U</text>
	<text transform="matrix(1 0 0 1 383.15 85.03)" font-family="'ArialMT'" font-size="12px">U</text>
	<text transform="matrix(1 0 0 1 396.03 86.43)" font-family="'ArialMT'" font-size="12px">G</text>
	<text transform="matrix(1 0 0 1 408.63 88.66)" font-family="'ArialMT'" font-size="12px">G</text>
	<text transform="matrix(1 0 0 1 420.39 92.03)" font-family="'ArialMT'" font-size="12px">A</text>
	<text transform="matrix(1 0 0 1 431.04 99.03)" font-family="'ArialMT'" font-size="12px">C</text>
	<text transform="matrix(1 0 0 1 441.4 107.42)" font-family="'ArialMT'" font-size="12px">C</text>
	<text transform="matrix(1 0 0 1 450.66 100.42)" font-family="'ArialMT'" font-size="12px">U</text>
	<text transform="matrix(1 0 0 1 460.19 93.41)" font-family="'ArialMT'" font-size="12px">A</text>
	<text transform="matrix(1 0 0 1 469.43 86.41)" font-family="'ArialMT'" font-size="12px">C</text>
	<text transform="matrix(1 0 0 1 478.67 80.53)" font-family="'ArialMT'" font-size="12px">U</text>
	<text transform="matrix(1 0 0 1 488.19 73.53)" font-family="'ArialMT'" font-size="12px">A</text>
	<text transform="matrix(1 0 0 1 497.44 66.53)" font-family="'ArialMT'" font-size="12px">G</text>
	<text transform="matrix(1 0 0 1 506.68 59.52)" font-family="'ArialMT'" font-size="12px">C</text>
	<text transform="matrix(1 0 0 1 516.2 52.52)" font-family="'ArialMT'" font-size="12px">A</text>
	<text transform="matrix(1 0 0 1 525.44 45.52)" font-family="'ArialMT'" font-size="12px">A</text>
	<text transform="matrix(1 0 0 1 533.57 36)" font-family="'ArialMT'" font-size="12px">G</text>
	<text transform="matrix(1 0 0 1 546.44 36)" font-family="'ArialMT'" font-size="12px">U</text>
	<text transform="matrix(1 0 0 1 553.44 46.65)" font-family="'ArialMT'" font-size="12px">A</text>
	<text transform="matrix(1 0 0 1 550.08 59.52)" font-family="'ArialMT'" font-size="12px">A</text>
	<text transform="matrix(1 0 0 1 538.32 64.01)" font-family="'ArialMT'" font-size="12px">U</text>
	<text transform="matrix(1 0 0 1 529.07 71.01)" font-family="'ArialMT'" font-size="12px">U</text>
	<text transform="matrix(1 0 0 1 519.54 78.01)" font-family="'ArialMT'" font-size="12px">G</text>
	<text transform="matrix(1 0 0 1 510.3 85)" font-family="'ArialMT'" font-size="12px">C</text>
	<text transform="matrix(1 0 0 1 501.05 92)" font-family="'ArialMT'" font-size="12px">U</text>
	<text transform="matrix(1 0 0 1 491.52 99)" font-family="'ArialMT'" font-size="12px">A</text>
	<text transform="matrix(1 0 0 1 482.28 104.88)" font-family="'ArialMT'" font-size="12px">G</text>
	<text transform="matrix(1 0 0 1 473.03 111.88)" font-family="'ArialMT'" font-size="12px">U</text>
	<text transform="matrix(1 0 0 1 463.5 118.88)" font-family="'ArialMT'" font-size="12px">A</text>
	<text transform="matrix(1 0 0 1 454.26 125.88)" font-family="'ArialMT'" font-size="12px">G</text>
	<text transform="matrix(1 0 0 1 460.14 137.64)" font-family="'ArialMT'" font-size="12px">U</text>
	<text transform="matrix(1 0 0 1 462.38 150.52)" font-family="'ArialMT'" font-size="12px">A</text>
	<text transform="matrix(1 0 0 1 463.49 163.41)" font-family="'ArialMT'" font-size="12px">C</text>
	<text transform="matrix(1 0 0 1 461.26 176)" font-family="'ArialMT'" font-size="12px">A</text>
	<text transform="matrix(1 0 0 1 457.61 187.77)" font-family="'ArialMT'" font-size="12px">U</text>
	<text transform="matrix(1 0 0 1 452.01 199.53)" font-family="'ArialMT'" font-size="12px">G</text>
	<text transform="matrix(1 0 0 1 443.61 209.89)" font-family="'ArialMT'" font-size="12px">A</text>
	<text transform="matrix(1 0 0 1 435.5 218.01)" font-family="'ArialMT'" font-size="12px">U</text>
	<text transform="matrix(1 0 0 1 424.02 226.41)" font-family="'ArialMT'" font-size="12px">A</text>
	<text transform="matrix(1 0 0 1 412.25 230.89)" font-family="'ArialMT'" font-size="12px">G</text>
	<text transform="matrix(1 0 0 1 400.49 234.54)" font-family="'ArialMT'" font-size="12px">A</text>
	<text transform="matrix(1 0 0 1 387.61 235.65)" font-family="'ArialMT'" font-size="12px">U</text>
	<text transform="matrix(1 0 0 1 375.01 233.42)" font-family="'ArialMT'" font-size="12px">G</text>
	<text transform="matrix(1 0 0 1 362.13 230.9)" font-family="'ArialMT'" font-size="12px">A</text>
	<text transform="matrix(1 0 0 1 350.37 225.02)" font-family="'ArialMT'" font-size="12px">A</text>
	<text transform="matrix(1 0 0 1 340 218.02)" font-family="'ArialMT'" font-size="12px">A</text>
	<text transform="matrix(1 0 0 1 331.6 225.02)" font-family="'ArialMT'" font-size="12px">G</text>
	<text transform="matrix(1 0 0 1 322.36 233.42)" font-family="'ArialMT'" font-size="12px">U</text>
	<text transform="matrix(1 0 0 1 314.24 240.42)" font-family="'ArialMT'" font-size="12px">A</text>
	<text transform="matrix(1 0 0 1 305 248.53)" font-family="'ArialMT'" font-size="12px">U</text>
	<text transform="matrix(1 0 0 1 296.6 255.53)" font-family="'ArialMT'" font-size="12px">U</text>
	<text transform="matrix(1 0 0 1 287.35 263.65)" font-family="'ArialMT'" font-size="12px">A</text>
	<text transform="matrix(1 0 0 1 279.24 270.65)" font-family="'ArialMT'" font-size="12px">G</text>
	<text transform="matrix(1 0 0 1 271.12 278.77)" font-family="'ArialMT'" font-size="12px">G</text>
	<text transform="matrix(1 0 0 1 262.44 285.76)" font-family="'ArialMT'" font-size="12px">A</text>
	<text transform="matrix(1 0 0 1 253.47 293.88)" font-family="'ArialMT'" font-size="12px">C</text>
	<text transform="matrix(1 0 0 1 259.36 304.53)" font-family="'ArialMT'" font-size="12px">U</text>
	<text transform="matrix(1 0 0 1 263 317.41)" font-family="'ArialMT'" font-size="12px">U</text>
	<text transform="matrix(1 0 0 1 264.12 330.01)" font-family="'ArialMT'" font-size="12px">G</text>
	<text transform="matrix(1 0 0 1 264.12 342.89)" font-family="'ArialMT'" font-size="12px">A</text>
	<text transform="matrix(1 0 0 1 261.6 355.77)" font-family="'ArialMT'" font-size="12px">A</text>
	<text transform="matrix(1 0 0 1 257.12 367.53)" font-family="'ArialMT'" font-size="12px">A</text>
	<text transform="matrix(1 0 0 1 250.12 377.89)" font-family="'ArialMT'" font-size="12px">C</text>
	<text transform="matrix(1 0 0 1 242.01 387.42)" font-family="'ArialMT'" font-size="12px">G</text>
	<text transform="matrix(1 0 0 1 231.36 395.54)" font-family="'ArialMT'" font-size="12px">G</text>
	<text transform="matrix(1 0 0 1 219.6 402.54)" font-family="'ArialMT'" font-size="12px">U</text>
	<text transform="matrix(1 0 0 1 208.12 405.9)" font-family="'ArialMT'" font-size="12px">A</text>
	<text transform="matrix(1 0 0 1 195.24 408.42)" font-family="'ArialMT'" font-size="12px">G</text>
	<text transform="matrix(1 0 0 1 182.35 408.42)" font-family="'ArialMT'" font-size="12px">A</text>
	<text transform="matrix(1 0 0 1 169.47 405.9)" font-family="'ArialMT'" font-size="12px">C</text>
	<text transform="matrix(1 0 0 1 164.99 416.55)" font-family="'ArialMT'" font-size="12px">C</text>
	<text transform="matrix(1 0 0 1 169.47 428.03)" font-family="'ArialMT'" font-size="12px">U</text>
	<text transform="matrix(1 0 0 1 180.12 432.79)" font-family="'ArialMT'" font-size="12px">C</text>
	<text transform="matrix(1 0 0 1 190.48 437.55)" font-family="'ArialMT'" font-size="12px">U</text>
	<text transform="matrix(1 0 0 1 201.13 442.04)" font-family="'ArialMT'" font-size="12px">U</text>
	<text transform="matrix(1 0 0 1 211.49 446.8)" font-family="'ArialMT'" font-size="12px">G</text>
	<text transform="matrix(1 0 0 1 224.37 449.04)" font-family="'ArialMT'" font-size="12px">G</text>
	<text transform="matrix(1 0 0 1 236.13 449.04)" font-family="'ArialMT'" font-size="12px">G</text>
	<text transform="matrix(1 0 0 1 247.61 449.04)" font-family="'ArialMT'" font-size="12px">A</text>
	<text transform="matrix(1 0 0 1 259.38 447.92)" font-family="'ArialMT'" font-size="12px">G</text>
	<text transform="matrix(1 0 0 1 272.26 447.92)" font-family="'ArialMT'" font-size="12px">C</text>
	<text transform="matrix(1 0 0 1 285.13 447.92)" font-family="'ArialMT'" font-size="12px">A</text>
	<text transform="matrix(1 0 0 1 298 447.92)" font-family="'ArialMT'" font-size="12px">A</text>
	<text transform="matrix(1 0 0 1 309.51 449.04)" font-family="'ArialMT'" font-size="12px">G</text>
	<text transform="matrix(1 0 0 1 321.27 449.11)" font-family="'ArialMT'" font-size="12px">U</text>
	<text transform="matrix(1 0 0 1 329.39 438.74)" font-family="'ArialMT'" font-size="12px">U</text>
	<text transform="matrix(1 0 0 1 342.27 435.1)" font-family="'ArialMT'" font-size="12px">G</text>
	<text transform="matrix(1 0 0 1 354.03 438.74)" font-family="'ArialMT'" font-size="12px">A</text>
	<text transform="matrix(1 0 0 1 363.28 447.99)" font-family="'ArialMT'" font-size="12px">A</text>
	<text transform="matrix(1 0 0 1 375.04 447.99)" font-family="'ArialMT'" font-size="12px">G</text>
	<text transform="matrix(1 0 0 1 386.52 447.99)" font-family="'ArialMT'" font-size="12px">G</text>
	<text transform="matrix(1 0 0 1 398.29 447.99)" font-family="'ArialMT'" font-size="12px">G</text>
	<text transform="matrix(1 0 0 1 410.05 447.99)" font-family="'ArialMT'" font-size="12px">G</text>
	<text transform="matrix(1 0 0 1 420.42 447.99)" font-family="'ArialMT'" font-size="12px">G</text>
	<text transform="matrix(1 0 0 1 425.18 435.1)" font-family="'ArialMT'" font-size="12px">A</text>
	<text transform="matrix(1 0 0 1 433.29 425.86)" font-family="'ArialMT'" font-size="12px">U</text>
	<text transform="matrix(1 0 0 1 443.66 418.86)" font-family="'ArialMT'" font-size="12px">G</text>
	<text transform="matrix(1 0 0 1 456.54 415.49)" font-family="'ArialMT'" font-size="12px">A</text>
	<text transform="matrix(1 0 0 1 469.42 417.73)" font-family="'ArialMT'" font-size="12px">G</text>
	<text transform="matrix(1 0 0 1 481.18 423.61)" font-family="'ArialMT'" font-size="12px">C</text>
	<text transform="matrix(1 0 0 1 489.3 432.86)" font-family="'ArialMT'" font-size="12px">A</text>
	<text transform="matrix(1 0 0 1 495.18 444.62)" font-family="'ArialMT'" font-size="12px">A</text>
	<text transform="matrix(1 0 0 1 488.18 454.98)" font-family="'ArialMT'" font-size="12px">A</text>
	<text transform="matrix(1 0 0 1 480.06 464.51)" font-family="'ArialMT'" font-size="12px">G</text>
	<text transform="matrix(1 0 0 1 473.06 474.87)" font-family="'ArialMT'" font-size="12px">G</text>
	<text transform="matrix(1 0 0 1 466.07 485.52)" font-family="'ArialMT'" font-size="12px">G</text>
	<text transform="matrix(1 0 0 1 457.67 495.88)" font-family="'ArialMT'" font-size="12px">U</text>
	<text transform="matrix(1 0 0 1 445.07 497)" font-family="'ArialMT'" font-size="12px">U</text>
	<text transform="matrix(1 0 0 1 433.3 492.52)" font-family="'ArialMT'" font-size="12px">A</text>
	<text transform="matrix(1 0 0 1 425.19 482.99)" font-family="'ArialMT'" font-size="12px">G</text>
	<text transform="matrix(1 0 0 1 420.42 470.11)" font-family="'ArialMT'" font-size="12px">C</text>
	<text transform="matrix(1 0 0 1 410.06 470.11)" font-family="'ArialMT'" font-size="12px">U</text>
	<text transform="matrix(1 0 0 1 398.3 470.11)" font-family="'ArialMT'" font-size="12px">C</text>
	<text transform="matrix(1 0 0 1 386.53 470.11)" font-family="'ArialMT'" font-size="12px">C</text>
	<text transform="matrix(1 0 0 1 375.05 470.95)" font-family="'ArialMT'" font-size="12px">A</text>
	<text transform="matrix(1 0 0 1 363.29 471.51)" font-family="'ArialMT'" font-size="12px">U</text>
	<text transform="matrix(1 0 0 1 359.64 482.99)" font-family="'ArialMT'" font-size="12px">A</text>
	<text transform="matrix(1 0 0 1 349.28 491.11)" font-family="'ArialMT'" font-size="12px">U</text>
	<text transform="matrix(1 0 0 1 336.4 491.11)" font-family="'ArialMT'" font-size="12px">G</text>
	<text transform="matrix(1 0 0 1 326.04 484.11)" font-family="'ArialMT'" font-size="12px">U</text>
	<text transform="matrix(1 0 0 1 321.27 472.63)" font-family="'ArialMT'" font-size="12px">A</text>
	<text transform="matrix(1 0 0 1 309.51 471.51)" font-family="'ArialMT'" font-size="12px">C</text>
	<text transform="matrix(1 0 0 1 309.51 485.51)" font-family="'ArialMT'" font-size="12px">G</text>
	<text transform="matrix(1 0 0 1 309.51 498.11)" font-family="'ArialMT'" font-size="12px">C</text>
	<text transform="matrix(1 0 0 1 309.51 510.99)" font-family="'ArialMT'" font-size="12px">U</text>
	<text transform="matrix(1 0 0 1 309.51 523.87)" font-family="'ArialMT'" font-size="12px">U</text>
	<text transform="matrix(1 0 0 1 309.51 536.75)" font-family="'ArialMT'" font-size="12px">A</text>
	<text transform="matrix(1 0 0 1 309.51 549.63)" font-family="'ArialMT'" font-size="12px">G</text>
	<text transform="matrix(1 0 0 1 309.51 562.51)" font-family="'ArialMT'" font-size="12px">U</text>
	<text transform="matrix(1 0 0 1 309.51 575.11)" font-family="'ArialMT'" font-size="12px">C</text>
	<text transform="matrix(1 0 0 1 309.51 587.99)" font-family="'ArialMT'" font-size="12px">G</text>
	<text transform="matrix(1 0 0 1 309.51 600.87)" font-family="'ArialMT'" font-size="12px">A</text>
	<text transform="matrix(1 0 0 1 309.51 613.75)" font-family="'ArialMT'" font-size="12px">A</text>
	<text transform="matrix(1 0 0 1 309.51 626.63)" font-family="'ArialMT'" font-size="12px">U</text>
	<text transform="matrix(1 0 0 1 309.51 640.63)" font-family="'ArialMT'" font-size="12px">C</text>
	<text transform="matrix(1 0 0 1 309.51 652.11)" font-family="'ArialMT'" font-size="12px">C</text>
	<text transform="matrix(1 0 0 1 309.51 662.75)" font-family="'ArialMT'" font-size="12px">C</text>
	<text transform="matrix(1 0 0 1 309.51 674.52)" font-family="'ArialMT'" font-size="12px">C</text>
	<text transform="matrix(1 0 0 1 309.51 686)" font-family="'ArialMT'" font-size="12px">U</text>
	<text transform="matrix(1 0 0 1 309.51 697.76)" font-family="'ArialMT'" font-size="12px">C</text>
	<text transform="matrix(1 0 0 1 322.39 700)" font-family="'ArialMT'" font-size="12px">A</text>
	<text transform="matrix(1 0 0 1 335.27 703.64)" font-family="'ArialMT'" font-size="12px">G</text>
	<text transform="matrix(1 0 0 1 347.03 705.88)" font-family="'ArialMT'" font-size="12px">U</text>
	<text transform="matrix(1 0 0 1 361.03 709.52)" font-family="'ArialMT'" font-size="12px">A</text>
	<text transform="matrix(1 0 0 1 377.28 712.89)" font-family="'ArialMT'" font-size="12px">C</text>
	<text transform="matrix(1 0 0 1 390.16 715.12)" font-family="'ArialMT'" font-size="12px">A</text>
	<text transform="matrix(1 0 0 1 399.4 723.52)" font-family="'ArialMT'" font-size="12px">A</text>
	<text transform="matrix(1 0 0 1 403.05 736.12)" font-family="'ArialMT'" font-size="12px">A</text>
	<text transform="matrix(1 0 0 1 398.29 747.88)" font-family="'ArialMT'" font-size="12px">A</text>
	<text transform="matrix(1 0 0 1 386.52 756)" font-family="'ArialMT'" font-size="12px">G</text>
	<text transform="matrix(1 0 0 1 375.04 756)" font-family="'ArialMT'" font-size="12px">C</text>
	<text transform="matrix(1 0 0 1 361.04 756)" font-family="'ArialMT'" font-size="12px">U</text>
	<text transform="matrix(1 0 0 1 348.16 756)" font-family="'ArialMT'" font-size="12px">G</text>
	<text transform="matrix(1 0 0 1 335.28 756)" font-family="'ArialMT'" font-size="12px">G</text>
	<text transform="matrix(1 0 0 1 323.52 756)" font-family="'ArialMT'" font-size="12px">C</text>
	<text transform="matrix(1 0 0 1 309.52 756)" font-family="'ArialMT'" font-size="12px">U</text>
	<text transform="matrix(1 0 0 1 296.64 756)" font-family="'ArialMT'" font-size="12px">U</text>
	<text transform="matrix(1 0 0 1 285.16 756)" font-family="'ArialMT'" font-size="12px">A</text>
</g>
<g id="Labels_Lines">
	
		<line fill="none" stroke="#000000" stroke-width="0.2" stroke-linejoin="round" stroke-miterlimit="10" x1="256.3" y1="528.3" x2="250.2" y2="524.9"/>
	
		<line fill="none" stroke="#000000" stroke-width="0.2" stroke-linejoin="round" stroke-miterlimit="10" x1="222.6" y1="507.3" x2="228.6" y2="503.7"/>
	
		<line fill="none" stroke="#000000" stroke-width="0.2" stroke-linejoin="round" stroke-miterlimit="10" x1="171.9" y1="455" x2="169" y2="461.3"/>
	
		<line fill="none" stroke="#000000" stroke-width="0.2" stroke-linejoin="round" stroke-miterlimit="10" x1="97.4" y1="489.7" x2="90.5" y2="488.4"/>
	
		<line fill="none" stroke="#000000" stroke-width="0.2" stroke-linejoin="round" stroke-miterlimit="10" x1="81.5" y1="413.8" x2="78.7" y2="420.2"/>
	
		<line fill="none" stroke="#000000" stroke-width="0.2" stroke-linejoin="round" stroke-miterlimit="10" x1="136.8" y1="397.6" x2="134.2" y2="390"/>
	
		<line fill="none" stroke="#000000" stroke-width="0.2" stroke-linejoin="round" stroke-miterlimit="10" x1="117.4" y1="297.3" x2="110.8" y2="294.8"/>
	
		<line fill="none" stroke="#000000" stroke-width="0.2" stroke-linejoin="round" stroke-miterlimit="10" x1="235.4" y1="255.8" x2="238.9" y2="249.7"/>
	
		<line fill="none" stroke="#000000" stroke-width="0.2" stroke-linejoin="round" stroke-miterlimit="10" x1="315.4" y1="195.2" x2="310.8" y2="189.9"/>
	
		<line fill="none" stroke="#000000" stroke-width="0.2" stroke-linejoin="round" stroke-miterlimit="10" x1="347" y1="85" x2="343.1" y2="79.2"/>
	
		<line fill="none" stroke="#000000" stroke-width="0.2" stroke-linejoin="round" stroke-miterlimit="10" x1="459.1" y1="80.8" x2="455.1" y2="75.1"/>
	
		<line fill="none" stroke="#000000" stroke-width="0.2" stroke-linejoin="round" stroke-miterlimit="10" x1="563.6" y1="39.5" x2="570.5" y2="38.4"/>
	
		<line fill="none" stroke="#000000" stroke-width="0.2" stroke-linejoin="round" stroke-miterlimit="10" x1="471.6" y1="119.5" x2="475.6" y2="125.2"/>
	
		<line fill="none" stroke="#000000" stroke-width="0.2" stroke-linejoin="round" stroke-miterlimit="10" x1="431.2" y1="227.1" x2="434.5" y2="233.3"/>
	
		<line fill="none" stroke="#000000" stroke-width="0.2" stroke-linejoin="round" stroke-miterlimit="10" x1="323.3" y1="240.9" x2="327.8" y2="246.2"/>
	
		<line fill="none" stroke="#000000" stroke-width="0.2" stroke-linejoin="round" stroke-miterlimit="10" x1="275.3" y1="323.7" x2="282.3" y2="323.4"/>
	
		<line fill="none" stroke="#000000" stroke-width="0.2" stroke-linejoin="round" stroke-miterlimit="10" x1="188.7" y1="409.4" x2="190.9" y2="414.6"/>
	
		<line fill="none" stroke="#000000" stroke-width="0.2" stroke-linejoin="round" stroke-miterlimit="10" x1="251.1" y1="436" x2="251.1" y2="429"/>
	
		<line fill="none" stroke="#000000" stroke-width="0.2" stroke-linejoin="round" stroke-miterlimit="10" x1="366.8" y1="435" x2="366.8" y2="428"/>
	
		<line fill="none" stroke="#000000" stroke-width="0.2" stroke-linejoin="round" stroke-miterlimit="10" x1="476.3" y1="404.5" x2="478.5" y2="397.9"/>
	
		<line fill="none" stroke="#000000" stroke-width="0.2" stroke-linejoin="round" stroke-miterlimit="10" x1="432.2" y1="493.1" x2="428.1" y2="498.8"/>
	
		<line fill="none" stroke="#000000" stroke-width="0.2" stroke-linejoin="round" stroke-miterlimit="10" x1="338.7" y1="492.3" x2="336.6" y2="499"/>
	
		<line fill="none" stroke="#000000" stroke-width="0.2" stroke-linejoin="round" stroke-miterlimit="10" x1="320.1" y1="556.5" x2="327.1" y2="556.5"/>
	
		<line fill="none" stroke="#000000" stroke-width="0.2" stroke-linejoin="round" stroke-miterlimit="10" x1="320.1" y1="680" x2="327.1" y2="680"/>
	
		<line fill="none" stroke="#000000" stroke-width="0.2" stroke-linejoin="round" stroke-miterlimit="10" x1="408" y1="746.8" x2="413.5" y2="751.2"/>
</g>
<g id="Labels_Text">
	<text transform="matrix(1 0 0 1 235.86 523.48)" font-family="'ArialMT'" font-size="9px">10</text>
	<text transform="matrix(1 0 0 1 208.4 514.9)" font-family="'ArialMT'" font-size="9px">20</text>
	<text transform="matrix(1 0 0 1 159.43 471.13)" font-family="'ArialMT'" font-size="9px">30</text>
	<text transform="matrix(1 0 0 1 76.91 489.8)" font-family="'ArialMT'" font-size="9px">40</text>
	<text transform="matrix(1 0 0 1 70.15 429.99)" font-family="'ArialMT'" font-size="9px">50</text>
	<text transform="matrix(1 0 0 1 123 386.78)" font-family="'ArialMT'" font-size="9px">60</text>
	<text transform="matrix(1 0 0 1 97.33 294.77)" font-family="'ArialMT'" font-size="9px">70</text>
	<text transform="matrix(1 0 0 1 237.24 246.04)" font-family="'ArialMT'" font-size="9px">80</text>
	<text transform="matrix(1 0 0 1 298.7 186.52)" font-family="'ArialMT'" font-size="9px">90</text>
	<text transform="matrix(1 0 0 1 330.23 75.54)" font-family="'ArialMT'" font-size="9px">100</text>
	<text transform="matrix(1 0 0 1 443.03 71.5)" font-family="'ArialMT'" font-size="9px">1</text>
	<text transform="matrix(1 0 0 1 447.3674 71.5)" font-family="'ArialMT'" font-size="9px">1</text>
	<text transform="matrix(1 0 0 1 452.3728 71.5)" font-family="'ArialMT'" font-size="9px">0</text>
	<text transform="matrix(1 0 0 1 571.75 40.17)" font-family="'ArialMT'" font-size="9px">120</text>
	<text transform="matrix(1 0 0 1 472.66 134.8)" font-family="'ArialMT'" font-size="9px">130</text>
	<text transform="matrix(1 0 0 1 430.66 243)" font-family="'ArialMT'" font-size="9px">140</text>
	<text transform="matrix(1 0 0 1 325.84 255.61)" font-family="'ArialMT'" font-size="9px">150</text>
	<text transform="matrix(1 0 0 1 284.91 325.91)" font-family="'ArialMT'" font-size="9px">160</text>
	<text transform="matrix(1 0 0 1 189.16 423.45)" font-family="'ArialMT'" font-size="9px">170</text>
	<text transform="matrix(1 0 0 1 243.61 425.03)" font-family="'ArialMT'" font-size="9px">180</text>
	<text transform="matrix(1 0 0 1 359.27 423.99)" font-family="'ArialMT'" font-size="9px">190</text>
	<text transform="matrix(1 0 0 1 472.23 394.02)" font-family="'ArialMT'" font-size="9px">200</text>
	<text transform="matrix(1 0 0 1 415.99 508.39)" font-family="'ArialMT'" font-size="9px">210</text>
	<text transform="matrix(1 0 0 1 326.04 508.89)" font-family="'ArialMT'" font-size="9px">220</text>
	<text transform="matrix(1 0 0 1 329.72 559.51)" font-family="'ArialMT'" font-size="9px">230</text>
	<text transform="matrix(1 0 0 1 329.72 681.25)" font-family="'ArialMT'" font-size="9px">240</text>
	<text transform="matrix(1 0 0 1 413.59 760.36)" font-family="'ArialMT'" font-size="9px">250</text>
</g>
<g id="Nucleotide_Lines">
	
		<line fill="none" stroke="#000000" stroke-width="0.2" stroke-linejoin="round" stroke-miterlimit="10" x1="263.8" y1="452.5" x2="264.1" y2="461.2"/>
	
		<line fill="none" stroke="#000000" stroke-width="0.2" stroke-linejoin="round" stroke-miterlimit="10" x1="251.6" y1="452.9" x2="251.6" y2="460.8"/>
	
		<line fill="none" stroke="#000000" stroke-width="0.2" stroke-linejoin="round" stroke-miterlimit="10" x1="240.1" y1="452.9" x2="240.1" y2="460.8"/>
	
		<line fill="none" stroke="#000000" stroke-width="0.2" stroke-linejoin="round" stroke-miterlimit="10" x1="228.4" y1="452.9" x2="228.4" y2="460.8"/>
	
		<line fill="none" stroke="#000000" stroke-width="0.2" stroke-linejoin="round" stroke-miterlimit="10" x1="212.4" y1="450.2" x2="209.3" y2="457.6"/>
	
		<line fill="none" stroke="#000000" stroke-width="0.2" stroke-linejoin="round" stroke-miterlimit="10" x1="201.9" y1="445.1" x2="198.8" y2="452.1"/>
	
		<line fill="none" stroke="#000000" stroke-width="0.2" stroke-linejoin="round" stroke-miterlimit="10" x1="191.4" y1="440.6" x2="188.3" y2="447.6"/>
	
		<line fill="none" stroke="#000000" stroke-width="0.2" stroke-linejoin="round" stroke-miterlimit="10" x1="180.9" y1="435.8" x2="177.8" y2="442.8"/>
	
		<line fill="none" stroke="#000000" stroke-width="0.2" stroke-linejoin="round" stroke-miterlimit="10" x1="170.4" y1="431" x2="167.3" y2="438.1"/>
	
		<line fill="none" stroke="#000000" stroke-width="0.2" stroke-linejoin="round" stroke-miterlimit="10" x1="138.5" y1="443.7" x2="145.5" y2="446.8"/>
	
		<line fill="none" stroke="#000000" stroke-width="0.2" stroke-linejoin="round" stroke-miterlimit="10" x1="134" y1="454.2" x2="141" y2="457.3"/>
	
		<line fill="none" stroke="#000000" stroke-width="0.2" stroke-linejoin="round" stroke-miterlimit="10" x1="128.5" y1="464.7" x2="135.9" y2="467.8"/>
	
		<line fill="none" stroke="#000000" stroke-width="0.2" stroke-linejoin="round" stroke-miterlimit="10" x1="123.3" y1="475.2" x2="130.3" y2="478.3"/>
	
		<line fill="none" stroke="#000000" stroke-width="0.2" stroke-linejoin="round" stroke-miterlimit="10" x1="118.6" y1="485.7" x2="125.6" y2="488.8"/>
	
		<line fill="none" stroke="#000000" stroke-width="0.2" stroke-linejoin="round" stroke-miterlimit="10" x1="133.1" y1="414.1" x2="130.1" y2="421.5"/>
	
		<line fill="none" stroke="#000000" stroke-width="0.2" stroke-linejoin="round" stroke-miterlimit="10" x1="122.5" y1="409" x2="119.4" y2="416"/>
	
		<line fill="none" stroke="#000000" stroke-width="0.2" stroke-linejoin="round" stroke-miterlimit="10" x1="112.1" y1="404.5" x2="109.1" y2="411.5"/>
	
		<line fill="none" stroke="#000000" stroke-width="0.2" stroke-linejoin="round" stroke-miterlimit="10" x1="101.5" y1="399.7" x2="98.4" y2="406.7"/>
	
		<line fill="none" stroke="#000000" stroke-width="0.2" stroke-linejoin="round" stroke-miterlimit="10" x1="91.1" y1="395" x2="88.1" y2="402"/>
	
		<line fill="none" stroke="#000000" stroke-width="0.2" stroke-linejoin="round" stroke-miterlimit="10" x1="162" y1="409.4" x2="155" y2="406.3"/>
	
		<line fill="none" stroke="#000000" stroke-width="0.2" stroke-linejoin="round" stroke-miterlimit="10" x1="166.5" y1="398.8" x2="159.5" y2="395.8"/>
	
		<line fill="none" stroke="#000000" stroke-width="0.2" stroke-linejoin="round" stroke-miterlimit="10" x1="252.4" y1="284.1" x2="247.4" y2="278.4"/>
	
		<line fill="none" stroke="#000000" stroke-width="0.2" stroke-linejoin="round" stroke-miterlimit="10" x1="270.1" y1="269" x2="265" y2="263.2"/>
	
		<line fill="none" stroke="#000000" stroke-width="0.2" stroke-linejoin="round" stroke-miterlimit="10" x1="278.2" y1="260.8" x2="273.2" y2="254.9"/>
	
		<line fill="none" stroke="#000000" stroke-width="0.2" stroke-linejoin="round" stroke-miterlimit="10" x1="286.3" y1="253.8" x2="281.3" y2="247.9"/>
	
		<line fill="none" stroke="#000000" stroke-width="0.2" stroke-linejoin="round" stroke-miterlimit="10" x1="295.6" y1="245.7" x2="290.5" y2="239.8"/>
	
		<line fill="none" stroke="#000000" stroke-width="0.2" stroke-linejoin="round" stroke-miterlimit="10" x1="303.9" y1="238.7" x2="298.8" y2="232.8"/>
	
		<line fill="none" stroke="#000000" stroke-width="0.2" stroke-linejoin="round" stroke-miterlimit="10" x1="313.2" y1="230.6" x2="308.2" y2="224.7"/>
	
		<line fill="none" stroke="#000000" stroke-width="0.2" stroke-linejoin="round" stroke-miterlimit="10" x1="321.3" y1="223.6" x2="316.3" y2="217.7"/>
	
		<line fill="none" stroke="#000000" stroke-width="0.2" stroke-linejoin="round" stroke-miterlimit="10" x1="330.6" y1="215.2" x2="325.5" y2="209.5"/>
	
		<line fill="none" stroke="#000000" stroke-width="0.2" stroke-linejoin="round" stroke-miterlimit="10" x1="338.9" y1="208.2" x2="333.8" y2="202.5"/>
	
		<line fill="none" stroke="#000000" stroke-width="0.2" stroke-linejoin="round" stroke-miterlimit="10" x1="454" y1="115.7" x2="449.7" y2="109.6"/>
	
		<line fill="none" stroke="#000000" stroke-width="0.2" stroke-linejoin="round" stroke-miterlimit="10" x1="463.2" y1="108.7" x2="458.9" y2="102.6"/>
	
		<line fill="none" stroke="#000000" stroke-width="0.2" stroke-linejoin="round" stroke-miterlimit="10" x1="472.8" y1="101.7" x2="468.5" y2="95.6"/>
	
		<line fill="none" stroke="#000000" stroke-width="0.2" stroke-linejoin="round" stroke-miterlimit="10" x1="482" y1="94.7" x2="477.7" y2="88.6"/>
	
		<line fill="none" stroke="#000000" stroke-width="0.2" stroke-linejoin="round" stroke-miterlimit="10" x1="491.2" y1="88.8" x2="487" y2="82.7"/>
	
		<line fill="none" stroke="#000000" stroke-width="0.2" stroke-linejoin="round" stroke-miterlimit="10" x1="500.8" y1="81.8" x2="496.5" y2="75.7"/>
	
		<line fill="none" stroke="#000000" stroke-width="0.2" stroke-linejoin="round" stroke-miterlimit="10" x1="510" y1="74.8" x2="505.7" y2="68.7"/>
	
		<line fill="none" stroke="#000000" stroke-width="0.2" stroke-linejoin="round" stroke-miterlimit="10" x1="519.3" y1="67.8" x2="515" y2="61.7"/>
	
		<line fill="none" stroke="#000000" stroke-width="0.2" stroke-linejoin="round" stroke-miterlimit="10" x1="528.8" y1="60.8" x2="524.5" y2="54.7"/>
	
		<line fill="none" stroke="#000000" stroke-width="0.2" stroke-linejoin="round" stroke-miterlimit="10" x1="538" y1="53.8" x2="533.7" y2="47.7"/>
	
		<line fill="none" stroke="#000000" stroke-width="0.2" stroke-linejoin="round" stroke-miterlimit="10" x1="313.5" y1="460" x2="313.5" y2="452.5"/>
	
		<line fill="none" stroke="#000000" stroke-width="0.2" stroke-linejoin="round" stroke-miterlimit="10" x1="325.3" y1="460.8" x2="325.3" y2="453"/>
	
		<line fill="none" stroke="#000000" stroke-width="0.2" stroke-linejoin="round" stroke-miterlimit="10" x1="367.3" y1="459.7" x2="367.3" y2="451.8"/>
	
		<line fill="none" stroke="#000000" stroke-width="0.2" stroke-linejoin="round" stroke-miterlimit="10" x1="390.5" y1="458.7" x2="390.5" y2="451.4"/>
	
		<line fill="none" stroke="#000000" stroke-width="0.2" stroke-linejoin="round" stroke-miterlimit="10" x1="402.3" y1="458.7" x2="402.3" y2="451.4"/>
	
		<line fill="none" stroke="#000000" stroke-width="0.2" stroke-linejoin="round" stroke-miterlimit="10" x1="424.4" y1="458.7" x2="424.4" y2="451.4"/>
</g>
<g id="Nucleotide_Circles">
	<circle cx="414.5" cy="455" r="2"/>
</g>
</svg>
