<?xml version="1.0" encoding="utf-8"?>
<!-- Generator: Adobe Illustrator 23.0.3, SVG Export Plug-In . SVG Version: 6.00 Build 0)  -->
<svg version="1.1" baseProfile="tiny" id="Layer_1" xmlns="http://www.w3.org/2000/svg" xmlns:xlink="http://www.w3.org/1999/xlink"
	 x="0px" y="0px" viewBox="0 0 612 792" xml:space="preserve">
<g id="Letters">
	<text transform="matrix(1 0 0 1 253.24 697.45)" font-family="'ArialMT'" font-size="13px">A</text>
	<text transform="matrix(1 0 0 1 263.53 706.46)" font-family="'ArialMT'" font-size="13px">G</text>
	<text transform="matrix(1 0 0 1 275.12 706.46)" font-family="'ArialMT'" font-size="13px">G</text>
	<text transform="matrix(1 0 0 1 286.7 706.46)" font-family="'ArialMT'" font-size="13px">G</text>
	<text transform="matrix(1 0 0 1 298.28 706.46)" font-family="'ArialMT'" font-size="13px">G</text>
	<text transform="matrix(1 0 0 1 309.86 706.46)" font-family="'ArialMT'" font-size="13px">G</text>
	<text transform="matrix(1 0 0 1 322.73 706.46)" font-family="'ArialMT'" font-size="13px">C</text>
	<text transform="matrix(1 0 0 1 334.31 706.46)" font-family="'ArialMT'" font-size="13px">U</text>
	<text transform="matrix(1 0 0 1 348.47 706.46)" font-family="'ArialMT'" font-size="13px">G</text>
	<text transform="matrix(1 0 0 1 348.47 694.87)" font-family="'ArialMT'" font-size="13px">G</text>
	<text transform="matrix(1 0 0 1 349.75 683.29)" font-family="'ArialMT'" font-size="13px">U</text>
	<text transform="matrix(1 0 0 1 348.47 671.71)" font-family="'ArialMT'" font-size="13px">G</text>
	<text transform="matrix(1 0 0 1 349.75 660.13)" font-family="'ArialMT'" font-size="13px">A</text>
	<text transform="matrix(1 0 0 1 349.75 648.55)" font-family="'ArialMT'" font-size="13px">C</text>
	<text transform="matrix(1 0 0 1 351.04 635.68)" font-family="'ArialMT'" font-size="13px">U</text>
	<text transform="matrix(1 0 0 1 339.46 642.11)" font-family="'ArialMT'" font-size="13px">U</text>
	<text transform="matrix(1 0 0 1 326.59 649.83)" font-family="'ArialMT'" font-size="13px">U</text>
	<text transform="matrix(1 0 0 1 327.88 636.97)" font-family="'ArialMT'" font-size="13px">C</text>
	<text transform="matrix(1 0 0 1 316.29 635.68)" font-family="'ArialMT'" font-size="13px">C</text>
	<text transform="matrix(1 0 0 1 304.71 635.68)" font-family="'ArialMT'" font-size="13px">C</text>
	<text transform="matrix(1 0 0 1 293.13 635.68)" font-family="'ArialMT'" font-size="13px">C</text>
	<text transform="matrix(1 0 0 1 281.55 635.68)" font-family="'ArialMT'" font-size="13px">U</text>
	<text transform="matrix(1 0 0 1 269.97 635.68)" font-family="'ArialMT'" font-size="13px">C</text>
	<text transform="matrix(1 0 0 1 258.39 635.68)" font-family="'ArialMT'" font-size="13px">U</text>
	<text transform="matrix(1 0 0 1 245.52 635.68)" font-family="'ArialMT'" font-size="13px">U</text>
	<text transform="matrix(1 0 0 1 239.08 624.1)" font-family="'ArialMT'" font-size="13px">U</text>
	<text transform="matrix(1 0 0 1 245.52 612.51)" font-family="'ArialMT'" font-size="13px">A</text>
	<text transform="matrix(1 0 0 1 258.39 612.51)" font-family="'ArialMT'" font-size="13px">A</text>
	<text transform="matrix(1 0 0 1 268.68 612.51)" font-family="'ArialMT'" font-size="13px">G</text>
	<text transform="matrix(1 0 0 1 281.55 612.51)" font-family="'ArialMT'" font-size="13px">A</text>
	<text transform="matrix(1 0 0 1 291.84 612.51)" font-family="'ArialMT'" font-size="13px">G</text>
	<text transform="matrix(1 0 0 1 303.43 612.51)" font-family="'ArialMT'" font-size="13px">G</text>
	<text transform="matrix(1 0 0 1 315.01 612.51)" font-family="'ArialMT'" font-size="13px">G</text>
	<text transform="matrix(1 0 0 1 326.59 613.8)" font-family="'ArialMT'" font-size="13px">G</text>
	<text transform="matrix(1 0 0 1 327.88 600.93)" font-family="'ArialMT'" font-size="13px">A</text>
	<text transform="matrix(1 0 0 1 326.59 588.06)" font-family="'ArialMT'" font-size="13px">G</text>
	<text transform="matrix(1 0 0 1 326.59 575.2)" font-family="'ArialMT'" font-size="13px">G</text>
	<text transform="matrix(1 0 0 1 327.88 562.33)" font-family="'ArialMT'" font-size="13px">A</text>
	<text transform="matrix(1 0 0 1 327.88 549.46)" font-family="'ArialMT'" font-size="13px">A</text>
	<text transform="matrix(1 0 0 1 326.59 537.88)" font-family="'ArialMT'" font-size="13px">G</text>
	<text transform="matrix(1 0 0 1 318.87 530.16)" font-family="'ArialMT'" font-size="13px">U</text>
	<text transform="matrix(1 0 0 1 329.16 522.43)" font-family="'ArialMT'" font-size="13px">U</text>
	<text transform="matrix(1 0 0 1 329.16 509.57)" font-family="'ArialMT'" font-size="13px">C</text>
	<text transform="matrix(1 0 0 1 329.16 496.7)" font-family="'ArialMT'" font-size="13px">C</text>
	<text transform="matrix(1 0 0 1 327.88 483.83)" font-family="'ArialMT'" font-size="13px">G</text>
	<text transform="matrix(1 0 0 1 329.16 470.96)" font-family="'ArialMT'" font-size="13px">C</text>
	<text transform="matrix(1 0 0 1 329.16 458.09)" font-family="'ArialMT'" font-size="13px">C</text>
	<text transform="matrix(1 0 0 1 329.16 445.22)" font-family="'ArialMT'" font-size="13px">C</text>
	<text transform="matrix(1 0 0 1 317.58 445.22)" font-family="'ArialMT'" font-size="13px">A</text>
	<text transform="matrix(1 0 0 1 306 445.22)" font-family="'ArialMT'" font-size="13px">C</text>
	<text transform="matrix(1 0 0 1 294.42 445.22)" font-family="'ArialMT'" font-size="13px">C</text>
	<text transform="matrix(1 0 0 1 282.84 445.22)" font-family="'ArialMT'" font-size="13px">C</text>
	<text transform="matrix(1 0 0 1 286.7 456.8)" font-family="'ArialMT'" font-size="13px">C</text>
	<text transform="matrix(1 0 0 1 282.84 469.67)" font-family="'ArialMT'" font-size="13px">A</text>
	<text transform="matrix(1 0 0 1 271.25 476.11)" font-family="'ArialMT'" font-size="13px">U</text>
	<text transform="matrix(1 0 0 1 258.39 473.53)" font-family="'ArialMT'" font-size="13px">U</text>
	<text transform="matrix(1 0 0 1 250.66 463.24)" font-family="'ArialMT'" font-size="13px">U</text>
	<text transform="matrix(1 0 0 1 250.66 450.37)" font-family="'ArialMT'" font-size="13px">A</text>
	<text transform="matrix(1 0 0 1 259.67 441.36)" font-family="'ArialMT'" font-size="13px">U</text>
	<text transform="matrix(1 0 0 1 248.09 436.21)" font-family="'ArialMT'" font-size="13px">G</text>
	<text transform="matrix(1 0 0 1 236.51 432.35)" font-family="'ArialMT'" font-size="13px">G</text>
	<text transform="matrix(1 0 0 1 226.21 427.21)" font-family="'ArialMT'" font-size="13px">G</text>
	<text transform="matrix(1 0 0 1 217.21 423.35)" font-family="'ArialMT'" font-size="13px">C</text>
	<text transform="matrix(1 0 0 1 205.62 419.49)" font-family="'ArialMT'" font-size="13px">A</text>
	<text transform="matrix(1 0 0 1 194.04 414.34)" font-family="'ArialMT'" font-size="13px">G</text>
	<text transform="matrix(1 0 0 1 180.53 414.98)" font-family="'ArialMT'" font-size="13px">C</text>
	<text transform="matrix(1 0 0 1 170.88 404.69)" font-family="'ArialMT'" font-size="13px">G</text>
	<text transform="matrix(1 0 0 1 160.58 412.41)" font-family="'ArialMT'" font-size="13px">U</text>
	<text transform="matrix(1 0 0 1 158.01 399.54)" font-family="'ArialMT'" font-size="13px">C</text>
	<text transform="matrix(1 0 0 1 147.72 394.39)" font-family="'ArialMT'" font-size="13px">C</text>
	<text transform="matrix(1 0 0 1 136.13 390.53)" font-family="'ArialMT'" font-size="13px">C</text>
	<text transform="matrix(1 0 0 1 125.84 385.38)" font-family="'ArialMT'" font-size="13px">C</text>
	<text transform="matrix(1 0 0 1 115.54 381.52)" font-family="'ArialMT'" font-size="13px">U</text>
	<text transform="matrix(1 0 0 1 101.39 378.95)" font-family="'ArialMT'" font-size="13px">G</text>
	<text transform="matrix(1 0 0 1 96.24 368.65)" font-family="'ArialMT'" font-size="13px">A</text>
	<text transform="matrix(1 0 0 1 100.1 355.79)" font-family="'ArialMT'" font-size="13px">G</text>
	<text transform="matrix(1 0 0 1 112.97 353.21)" font-family="'ArialMT'" font-size="13px">A</text>
	<text transform="matrix(1 0 0 1 124.55 359.65)" font-family="'ArialMT'" font-size="13px">A</text>
	<text transform="matrix(1 0 0 1 133.56 364.79)" font-family="'ArialMT'" font-size="13px">G</text>
	<text transform="matrix(1 0 0 1 143.86 368.65)" font-family="'ArialMT'" font-size="13px">G</text>
	<text transform="matrix(1 0 0 1 155.44 373.8)" font-family="'ArialMT'" font-size="13px">G</text>
	<text transform="matrix(1 0 0 1 165.73 377.66)" font-family="'ArialMT'" font-size="13px">G</text>
	<text transform="matrix(1 0 0 1 179.89 384.1)" font-family="'ArialMT'" font-size="13px">C</text>
	<text transform="matrix(1 0 0 1 185.03 373.16)" font-family="'ArialMT'" font-size="13px">G</text>
	<text transform="matrix(1 0 0 1 188.9 361.58)" font-family="'ArialMT'" font-size="13px">G</text>
	<text transform="matrix(1 0 0 1 194.04 351.28)" font-family="'ArialMT'" font-size="13px">G</text>
	<text transform="matrix(1 0 0 1 199.19 340.99)" font-family="'ArialMT'" font-size="13px">A</text>
	<text transform="matrix(1 0 0 1 201.76 329.4)" font-family="'ArialMT'" font-size="13px">G</text>
	<text transform="matrix(1 0 0 1 206.91 319.11)" font-family="'ArialMT'" font-size="13px">A</text>
	<text transform="matrix(1 0 0 1 210.77 307.53)" font-family="'ArialMT'" font-size="13px">U</text>
	<text transform="matrix(1 0 0 1 214.63 297.23)" font-family="'ArialMT'" font-size="13px">G</text>
	<text transform="matrix(1 0 0 1 219.78 285.65)" font-family="'ArialMT'" font-size="13px">C</text>
	<text transform="matrix(1 0 0 1 219.78 274.07)" font-family="'ArialMT'" font-size="13px">A</text>
	<text transform="matrix(1 0 0 1 209.49 265.06)" font-family="'ArialMT'" font-size="13px">G</text>
	<text transform="matrix(1 0 0 1 203.05 253.48)" font-family="'ArialMT'" font-size="13px">C</text>
	<text transform="matrix(1 0 0 1 199.19 241.9)" font-family="'ArialMT'" font-size="13px">A</text>
	<text transform="matrix(1 0 0 1 197.9 229.03)" font-family="'ArialMT'" font-size="13px">G</text>
	<text transform="matrix(1 0 0 1 200.48 216.16)" font-family="'ArialMT'" font-size="13px">A</text>
	<text transform="matrix(1 0 0 1 205.62 204.58)" font-family="'ArialMT'" font-size="13px">A</text>
	<text transform="matrix(1 0 0 1 213.35 194.28)" font-family="'ArialMT'" font-size="13px">A</text>
	<text transform="matrix(1 0 0 1 223.64 185.28)" font-family="'ArialMT'" font-size="13px">C</text>
	<text transform="matrix(1 0 0 1 233.94 180.13)" font-family="'ArialMT'" font-size="13px">G</text>
	<text transform="matrix(1 0 0 1 248.09 177.55)" font-family="'ArialMT'" font-size="13px">A</text>
	<text transform="matrix(1 0 0 1 260.96 177.55)" font-family="'ArialMT'" font-size="13px">C</text>
	<text transform="matrix(1 0 0 1 273.83 181.42)" font-family="'ArialMT'" font-size="13px">A</text>
	<text transform="matrix(1 0 0 1 284.12 187.85)" font-family="'ArialMT'" font-size="13px">C</text>
	<text transform="matrix(1 0 0 1 291.84 180.13)" font-family="'ArialMT'" font-size="13px">G</text>
	<text transform="matrix(1 0 0 1 300.85 172.41)" font-family="'ArialMT'" font-size="13px">G</text>
	<text transform="matrix(1 0 0 1 312.43 162.11)" font-family="'ArialMT'" font-size="13px">C</text>
	<text transform="matrix(1 0 0 1 321.44 154.39)" font-family="'ArialMT'" font-size="13px">U</text>
	<text transform="matrix(1 0 0 1 330.45 146.67)" font-family="'ArialMT'" font-size="13px">C</text>
	<text transform="matrix(1 0 0 1 339.46 138.95)" font-family="'ArialMT'" font-size="13px">C</text>
	<text transform="matrix(1 0 0 1 345.89 131.23)" font-family="'ArialMT'" font-size="13px">G</text>
	<text transform="matrix(1 0 0 1 354.9 123.51)" font-family="'ArialMT'" font-size="13px">G</text>
	<text transform="matrix(1 0 0 1 365.2 115.79)" font-family="'ArialMT'" font-size="13px">A</text>
	<text transform="matrix(1 0 0 1 372.92 108.06)" font-family="'ArialMT'" font-size="13px">A</text>
	<text transform="matrix(1 0 0 1 380.64 100.34)" font-family="'ArialMT'" font-size="13px">G</text>
	<text transform="matrix(1 0 0 1 378.06 88.76)" font-family="'ArialMT'" font-size="13px">A</text>
	<text transform="matrix(1 0 0 1 376.78 75.89)" font-family="'ArialMT'" font-size="13px">G</text>
	<text transform="matrix(1 0 0 1 380.64 63.02)" font-family="'ArialMT'" font-size="13px">A</text>
	<text transform="matrix(1 0 0 1 387.07 51.44)" font-family="'ArialMT'" font-size="13px">U</text>
	<text transform="matrix(1 0 0 1 396.08 43.72)" font-family="'ArialMT'" font-size="13px">G</text>
	<text transform="matrix(1 0 0 1 408.95 37.29)" font-family="'ArialMT'" font-size="13px">A</text>
	<text transform="matrix(1 0 0 1 421.82 36)" font-family="'ArialMT'" font-size="13px">C</text>
	<text transform="matrix(1 0 0 1 433.4 37.29)" font-family="'ArialMT'" font-size="13px">G</text>
	<text transform="matrix(1 0 0 1 446.27 43.72)" font-family="'ArialMT'" font-size="13px">A</text>
	<text transform="matrix(1 0 0 1 455.28 51.44)" font-family="'ArialMT'" font-size="13px">U</text>
	<text transform="matrix(1 0 0 1 461.71 63.02)" font-family="'ArialMT'" font-size="13px">G</text>
	<text transform="matrix(1 0 0 1 465.57 74.61)" font-family="'ArialMT'" font-size="13px">A</text>
	<text transform="matrix(1 0 0 1 465.57 87.47)" font-family="'ArialMT'" font-size="13px">U</text>
	<text transform="matrix(1 0 0 1 475.87 92.62)" font-family="'ArialMT'" font-size="13px">A</text>
	<text transform="matrix(1 0 0 1 484.87 97.77)" font-family="'ArialMT'" font-size="13px">G</text>
	<text transform="matrix(1 0 0 1 497.74 102.92)" font-family="'ArialMT'" font-size="13px">U</text>
	<text transform="matrix(1 0 0 1 508.04 105.49)" font-family="'ArialMT'" font-size="13px">G</text>
	<text transform="matrix(1 0 0 1 515.76 117.07)" font-family="'ArialMT'" font-size="13px">A</text>
	<text transform="matrix(1 0 0 1 510.61 128.65)" font-family="'ArialMT'" font-size="13px">A</text>
	<text transform="matrix(1 0 0 1 497.74 131.23)" font-family="'ArialMT'" font-size="13px">A</text>
	<text transform="matrix(1 0 0 1 486.16 123.51)" font-family="'ArialMT'" font-size="13px">G</text>
	<text transform="matrix(1 0 0 1 477.15 118.36)" font-family="'ArialMT'" font-size="13px">U</text>
	<text transform="matrix(1 0 0 1 466.86 113.21)" font-family="'ArialMT'" font-size="13px">U</text>
	<text transform="matrix(1 0 0 1 453.99 109.35)" font-family="'ArialMT'" font-size="13px">G</text>
	<text transform="matrix(1 0 0 1 446.27 117.07)" font-family="'ArialMT'" font-size="13px">A</text>
	<text transform="matrix(1 0 0 1 433.4 123.51)" font-family="'ArialMT'" font-size="13px">G</text>
	<text transform="matrix(1 0 0 1 420.53 124.79)" font-family="'ArialMT'" font-size="13px">G</text>
	<text transform="matrix(1 0 0 1 408.95 123.51)" font-family="'ArialMT'" font-size="13px">A</text>
	<text transform="matrix(1 0 0 1 397.37 118.36)" font-family="'ArialMT'" font-size="13px">C</text>
	<text transform="matrix(1 0 0 1 388.36 124.79)" font-family="'ArialMT'" font-size="13px">U</text>
	<text transform="matrix(1 0 0 1 380.64 132.51)" font-family="'ArialMT'" font-size="13px">U</text>
	<text transform="matrix(1 0 0 1 371.63 140.24)" font-family="'ArialMT'" font-size="13px">C</text>
	<text transform="matrix(1 0 0 1 362.62 147.96)" font-family="'ArialMT'" font-size="13px">C</text>
	<text transform="matrix(1 0 0 1 353.61 155.68)" font-family="'ArialMT'" font-size="13px">G</text>
	<text transform="matrix(1 0 0 1 344.61 163.4)" font-family="'ArialMT'" font-size="13px">G</text>
	<text transform="matrix(1 0 0 1 336.88 171.12)" font-family="'ArialMT'" font-size="13px">A</text>
	<text transform="matrix(1 0 0 1 326.59 178.84)" font-family="'ArialMT'" font-size="13px">G</text>
	<text transform="matrix(1 0 0 1 335.6 189.14)" font-family="'ArialMT'" font-size="13px">A</text>
	<text transform="matrix(1 0 0 1 326.59 198.14)" font-family="'ArialMT'" font-size="13px">A</text>
	<text transform="matrix(1 0 0 1 317.58 189.14)" font-family="'ArialMT'" font-size="13px">C</text>
	<text transform="matrix(1 0 0 1 308.57 196.86)" font-family="'ArialMT'" font-size="13px">C</text>
	<text transform="matrix(1 0 0 1 298.28 204.58)" font-family="'ArialMT'" font-size="13px">G</text>
	<text transform="matrix(1 0 0 1 303.43 216.16)" font-family="'ArialMT'" font-size="13px">G</text>
	<text transform="matrix(1 0 0 1 307.29 229.03)" font-family="'ArialMT'" font-size="13px">U</text>
	<text transform="matrix(1 0 0 1 304.71 241.9)" font-family="'ArialMT'" font-size="13px">G</text>
	<text transform="matrix(1 0 0 1 302.14 254.77)" font-family="'ArialMT'" font-size="13px">A</text>
	<text transform="matrix(1 0 0 1 295.71 265.06)" font-family="'ArialMT'" font-size="13px">A</text>
	<text transform="matrix(1 0 0 1 285.41 274.07)" font-family="'ArialMT'" font-size="13px">A</text>
	<text transform="matrix(1 0 0 1 275.12 280.5)" font-family="'ArialMT'" font-size="13px">C</text>
	<text transform="matrix(1 0 0 1 260.96 284.36)" font-family="'ArialMT'" font-size="13px">G</text>
	<text transform="matrix(1 0 0 1 248.09 285.65)" font-family="'ArialMT'" font-size="13px">G</text>
	<text transform="matrix(1 0 0 1 240.37 294.66)" font-family="'ArialMT'" font-size="13px">G</text>
	<text transform="matrix(1 0 0 1 236.51 304.95)" font-family="'ArialMT'" font-size="13px">C</text>
	<text transform="matrix(1 0 0 1 232.65 316.54)" font-family="'ArialMT'" font-size="13px">A</text>
	<text transform="matrix(1 0 0 1 228.79 326.83)" font-family="'ArialMT'" font-size="13px">U</text>
	<text transform="matrix(1 0 0 1 224.93 338.41)" font-family="'ArialMT'" font-size="13px">C</text>
	<text transform="matrix(1 0 0 1 221.07 348.71)" font-family="'ArialMT'" font-size="13px">U</text>
	<text transform="matrix(1 0 0 1 215.92 359)" font-family="'ArialMT'" font-size="13px">C</text>
	<text transform="matrix(1 0 0 1 212.06 370.58)" font-family="'ArialMT'" font-size="13px">C</text>
	<text transform="matrix(1 0 0 1 208.2 380.88)" font-family="'ArialMT'" font-size="13px">C</text>
	<text transform="matrix(1 0 0 1 204.34 393.75)" font-family="'ArialMT'" font-size="13px">C</text>
	<text transform="matrix(1 0 0 1 214.63 397.61)" font-family="'ArialMT'" font-size="13px">U</text>
	<text transform="matrix(1 0 0 1 223.64 401.47)" font-family="'ArialMT'" font-size="13px">G</text>
	<text transform="matrix(1 0 0 1 236.51 405.33)" font-family="'ArialMT'" font-size="13px">C</text>
	<text transform="matrix(1 0 0 1 246.8 410.48)" font-family="'ArialMT'" font-size="13px">C</text>
	<text transform="matrix(1 0 0 1 257.1 414.34)" font-family="'ArialMT'" font-size="13px">C</text>
	<text transform="matrix(1 0 0 1 267.39 418.2)" font-family="'ArialMT'" font-size="13px">G</text>
	<text transform="matrix(1 0 0 1 281.55 422.06)" font-family="'ArialMT'" font-size="13px">G</text>
	<text transform="matrix(1 0 0 1 293.13 422.06)" font-family="'ArialMT'" font-size="13px">G</text>
	<text transform="matrix(1 0 0 1 304.71 422.06)" font-family="'ArialMT'" font-size="13px">G</text>
	<text transform="matrix(1 0 0 1 317.58 422.06)" font-family="'ArialMT'" font-size="13px">U</text>
	<text transform="matrix(1 0 0 1 327.88 422.06)" font-family="'ArialMT'" font-size="13px">G</text>
	<text transform="matrix(1 0 0 1 342.03 422.06)" font-family="'ArialMT'" font-size="13px">C</text>
	<text transform="matrix(1 0 0 1 354.9 422.06)" font-family="'ArialMT'" font-size="13px">A</text>
	<text transform="matrix(1 0 0 1 367.77 422.06)" font-family="'ArialMT'" font-size="13px">A</text>
	<text transform="matrix(1 0 0 1 380.64 422.06)" font-family="'ArialMT'" font-size="13px">G</text>
	<text transform="matrix(1 0 0 1 393.51 422.06)" font-family="'ArialMT'" font-size="13px">C</text>
	<text transform="matrix(1 0 0 1 405.09 422.06)" font-family="'ArialMT'" font-size="13px">C</text>
	<text transform="matrix(1 0 0 1 415.38 422.06)" font-family="'ArialMT'" font-size="13px">G</text>
	<text transform="matrix(1 0 0 1 428.25 418.2)" font-family="'ArialMT'" font-size="13px">G</text>
	<text transform="matrix(1 0 0 1 439.83 427.21)" font-family="'ArialMT'" font-size="13px">U</text>
	<text transform="matrix(1 0 0 1 439.83 440.08)" font-family="'ArialMT'" font-size="13px">U</text>
	<text transform="matrix(1 0 0 1 429.54 447.8)" font-family="'ArialMT'" font-size="13px">U</text>
	<text transform="matrix(1 0 0 1 416.67 445.22)" font-family="'ArialMT'" font-size="13px">C</text>
	<text transform="matrix(1 0 0 1 403.8 445.22)" font-family="'ArialMT'" font-size="13px">G</text>
	<text transform="matrix(1 0 0 1 392.22 445.22)" font-family="'ArialMT'" font-size="13px">G</text>
	<text transform="matrix(1 0 0 1 381.92 445.22)" font-family="'ArialMT'" font-size="13px">C</text>
	<text transform="matrix(1 0 0 1 381.28 460.66)" font-family="'ArialMT'" font-size="13px">G</text>
	<text transform="matrix(1 0 0 1 381.92 476.43)" font-family="'ArialMT'" font-size="13px">C</text>
	<text transform="matrix(1 0 0 1 381.28 492.19)" font-family="'ArialMT'" font-size="13px">U</text>
	<text transform="matrix(1 0 0 1 381.92 507.64)" font-family="'ArialMT'" font-size="13px">U</text>
	<text transform="matrix(1 0 0 1 381.92 523.4)" font-family="'ArialMT'" font-size="13px">A</text>
	<text transform="matrix(1 0 0 1 380.64 539.16)" font-family="'ArialMT'" font-size="13px">G</text>
	<text transform="matrix(1 0 0 1 381.28 554.93)" font-family="'ArialMT'" font-size="13px">C</text>
	<text transform="matrix(1 0 0 1 381.92 570.69)" font-family="'ArialMT'" font-size="13px">C</text>
	<text transform="matrix(1 0 0 1 381.28 586.13)" font-family="'ArialMT'" font-size="13px">G</text>
	<text transform="matrix(1 0 0 1 381.92 601.9)" font-family="'ArialMT'" font-size="13px">A</text>
	<text transform="matrix(1 0 0 1 381.92 617.66)" font-family="'ArialMT'" font-size="13px">A</text>
	<text transform="matrix(1 0 0 1 381.28 633.43)" font-family="'ArialMT'" font-size="13px">U</text>
	<text transform="matrix(1 0 0 1 371.63 647.26)" font-family="'ArialMT'" font-size="13px">G</text>
	<text transform="matrix(1 0 0 1 372.92 658.84)" font-family="'ArialMT'" font-size="13px">U</text>
	<text transform="matrix(1 0 0 1 372.92 670.42)" font-family="'ArialMT'" font-size="13px">C</text>
	<text transform="matrix(1 0 0 1 372.92 682.01)" font-family="'ArialMT'" font-size="13px">A</text>
	<text transform="matrix(1 0 0 1 372.92 693.59)" font-family="'ArialMT'" font-size="13px">C</text>
	<text transform="matrix(1 0 0 1 374.2 705.17)" font-family="'ArialMT'" font-size="13px">C</text>
	<text transform="matrix(1 0 0 1 385.79 705.17)" font-family="'ArialMT'" font-size="13px">G</text>
	<text transform="matrix(1 0 0 1 399.3 706.46)" font-family="'ArialMT'" font-size="13px">A</text>
	<text transform="matrix(1 0 0 1 412.81 706.46)" font-family="'ArialMT'" font-size="13px">A</text>
	<text transform="matrix(1 0 0 1 425.68 706.46)" font-family="'ArialMT'" font-size="13px">A</text>
	<text transform="matrix(1 0 0 1 438.55 706.46)" font-family="'ArialMT'" font-size="13px">U</text>
	<text transform="matrix(1 0 0 1 452.7 706.46)" font-family="'ArialMT'" font-size="13px">U</text>
	<text transform="matrix(1 0 0 1 465.57 709.03)" font-family="'ArialMT'" font-size="13px">A</text>
	<text transform="matrix(1 0 0 1 475.87 716.75)" font-family="'ArialMT'" font-size="13px">C</text>
	<text transform="matrix(1 0 0 1 481.01 728.33)" font-family="'ArialMT'" font-size="13px">A</text>
	<text transform="matrix(1 0 0 1 477.15 741.2)" font-family="'ArialMT'" font-size="13px">G</text>
	<text transform="matrix(1 0 0 1 470.72 751.5)" font-family="'ArialMT'" font-size="13px">A</text>
	<text transform="matrix(1 0 0 1 459.14 756)" font-family="'ArialMT'" font-size="13px">A</text>
	<text transform="matrix(1 0 0 1 444.98 756)" font-family="'ArialMT'" font-size="13px">G</text>
	<text transform="matrix(1 0 0 1 432.11 756)" font-family="'ArialMT'" font-size="13px">G</text>
	<text transform="matrix(1 0 0 1 420.53 756)" font-family="'ArialMT'" font-size="13px">C</text>
	<text transform="matrix(1 0 0 1 406.38 756)" font-family="'ArialMT'" font-size="13px">G</text>
	<text transform="matrix(1 0 0 1 393.51 756)" font-family="'ArialMT'" font-size="13px">G</text>
	<text transform="matrix(1 0 0 1 380.64 756)" font-family="'ArialMT'" font-size="13px">G</text>
	<text transform="matrix(1 0 0 1 369.06 756)" font-family="'ArialMT'" font-size="13px">C</text>
	<text transform="matrix(1 0 0 1 356.19 756)" font-family="'ArialMT'" font-size="13px">U</text>
	<text transform="matrix(1 0 0 1 343.32 756)" font-family="'ArialMT'" font-size="13px">A</text>
	<text transform="matrix(1 0 0 1 334.31 744.42)" font-family="'ArialMT'" font-size="13px">U</text>
	<text transform="matrix(1 0 0 1 334.31 729.62)" font-family="'ArialMT'" font-size="13px">A</text>
	<text transform="matrix(1 0 0 1 321.44 729.62)" font-family="'ArialMT'" font-size="13px">G</text>
	<text transform="matrix(1 0 0 1 311.15 729.62)" font-family="'ArialMT'" font-size="13px">C</text>
	<text transform="matrix(1 0 0 1 299.57 729.62)" font-family="'ArialMT'" font-size="13px">C</text>
	<text transform="matrix(1 0 0 1 287.98 729.62)" font-family="'ArialMT'" font-size="13px">C</text>
	<text transform="matrix(1 0 0 1 276.4 729.62)" font-family="'ArialMT'" font-size="13px">C</text>
	<text transform="matrix(1 0 0 1 264.82 729.62)" font-family="'ArialMT'" font-size="13px">C</text>
	<text transform="matrix(1 0 0 1 253.24 737.34)" font-family="'ArialMT'" font-size="13px">A</text>
</g>
<g id="Labels_Lines">
	
		<line fill="none" stroke="#000000" stroke-width="0.2" stroke-linejoin="round" stroke-miterlimit="10" x1="346.1" y1="688.8" x2="338.4" y2="687.2"/>
	
		<line fill="none" stroke="#000000" stroke-width="0.2" stroke-linejoin="round" stroke-miterlimit="10" x1="309.7" y1="637.2" x2="310.1" y2="644.9"/>
	
		<line fill="none" stroke="#000000" stroke-width="0.2" stroke-linejoin="round" stroke-miterlimit="10" x1="286" y1="598.3" x2="286" y2="590.6"/>
	
		<line fill="none" stroke="#000000" stroke-width="0.2" stroke-linejoin="round" stroke-miterlimit="10" x1="324.4" y1="534.8" x2="317.5" y2="538.2"/>
	
		<line fill="none" stroke="#000000" stroke-width="0.2" stroke-linejoin="round" stroke-miterlimit="10" x1="311" y1="446.8" x2="311.4" y2="454.5"/>
	
		<line fill="none" stroke="#000000" stroke-width="0.2" stroke-linejoin="round" stroke-miterlimit="10" x1="249.9" y1="437.6" x2="246.9" y2="444.7"/>
	
		<line fill="none" stroke="#000000" stroke-width="0.2" stroke-linejoin="round" stroke-miterlimit="10" x1="149.3" y1="395.8" x2="146.6" y2="403"/>
	
		<line fill="none" stroke="#000000" stroke-width="0.2" stroke-linejoin="round" stroke-miterlimit="10" x1="151.6" y1="354.3" x2="154.2" y2="347"/>
	
		<line fill="none" stroke="#000000" stroke-width="0.2" stroke-linejoin="round" stroke-miterlimit="10" x1="208.7" y1="298.3" x2="201.6" y2="295.4"/>
	
		<line fill="none" stroke="#000000" stroke-width="0.2" stroke-linejoin="round" stroke-miterlimit="10" x1="211.1" y1="181.6" x2="205.5" y2="176.3"/>
	
		<line fill="none" stroke="#000000" stroke-width="0.2" stroke-linejoin="round" stroke-miterlimit="10" x1="320" y1="141.5" x2="314.8" y2="135.8"/>
	
		<line fill="none" stroke="#000000" stroke-width="0.2" stroke-linejoin="round" stroke-miterlimit="10" x1="377.9" y1="53.5" x2="370.8" y2="50.5"/>
	
		<line fill="none" stroke="#000000" stroke-width="0.2" stroke-linejoin="round" stroke-miterlimit="10" x1="476.1" y1="75.8" x2="484.9" y2="70.9"/>
	
		<line fill="none" stroke="#000000" stroke-width="0.2" stroke-linejoin="round" stroke-miterlimit="10" x1="467.9" y1="114.5" x2="464.8" y2="121.6"/>
	
		<line fill="none" stroke="#000000" stroke-width="0.2" stroke-linejoin="round" stroke-miterlimit="10" x1="373.5" y1="147.8" x2="378.9" y2="153.2"/>
	
		<line fill="none" stroke="#000000" stroke-width="0.2" stroke-linejoin="round" stroke-miterlimit="10" x1="316.3" y1="209.6" x2="324.2" y2="210.1"/>
	
		<line fill="none" stroke="#000000" stroke-width="0.2" stroke-linejoin="round" stroke-miterlimit="10" x1="247.9" y1="300.9" x2="255.2" y2="303.5"/>
	
		<line fill="none" stroke="#000000" stroke-width="0.2" stroke-linejoin="round" stroke-miterlimit="10" x1="231" y1="387" x2="233.1" y2="379.6"/>
	
		<line fill="none" stroke="#000000" stroke-width="0.2" stroke-linejoin="round" stroke-miterlimit="10" x1="346.5" y1="397.9" x2="346.5" y2="407.5"/>
	
		<line fill="none" stroke="#000000" stroke-width="0.2" stroke-linejoin="round" stroke-miterlimit="10" x1="435.9" y1="449.3" x2="437.6" y2="456.8"/>
	
		<line fill="none" stroke="#000000" stroke-width="0.2" stroke-linejoin="round" stroke-miterlimit="10" x1="393" y1="532.8" x2="400.8" y2="533"/>
	
		<line fill="none" stroke="#000000" stroke-width="0.2" stroke-linejoin="round" stroke-miterlimit="10" x1="384.8" y1="675.1" x2="392.5" y2="674.7"/>
	
		<line fill="none" stroke="#000000" stroke-width="0.2" stroke-linejoin="round" stroke-miterlimit="10" x1="486.9" y1="705.1" x2="492.9" y2="700.3"/>
	
		<line fill="none" stroke="#000000" stroke-width="0.2" stroke-linejoin="round" stroke-miterlimit="10" x1="385.6" y1="757.5" x2="385.6" y2="765.3"/>
	
		<line fill="none" stroke="#000000" stroke-width="0.2" stroke-linejoin="round" stroke-miterlimit="10" x1="281.4" y1="731.2" x2="281.8" y2="738.9"/>
</g>
<g id="Labels_Text">
	<text transform="matrix(1 0 0 1 322.56 688)" font-family="'ArialMT'" font-size="10px">10</text>
	<text transform="matrix(1 0 0 1 304.22 656.14)" font-family="'ArialMT'" font-size="10px">20</text>
	<text transform="matrix(1 0 0 1 279.75 586.35)" font-family="'ArialMT'" font-size="10px">30</text>
	<text transform="matrix(1 0 0 1 301.93 545.86)" font-family="'ArialMT'" font-size="10px">40</text>
	<text transform="matrix(1 0 0 1 305.5 465.69)" font-family="'ArialMT'" font-size="10px">50</text>
	<text transform="matrix(1 0 0 1 233.16 454.44)" font-family="'ArialMT'" font-size="10px">60</text>
	<text transform="matrix(1 0 0 1 137.42 414.06)" font-family="'ArialMT'" font-size="10px">70</text>
	<text transform="matrix(1 0 0 1 150.09 342.9)" font-family="'ArialMT'" font-size="10px">80</text>
	<text transform="matrix(1 0 0 1 186.46 295.26)" font-family="'ArialMT'" font-size="10px">90</text>
	<text transform="matrix(1 0 0 1 189.33 172.91)" font-family="'ArialMT'" font-size="10px">100</text>
	<text transform="matrix(1 0 0 1 299.58 132.26)" font-family="'ArialMT'" font-size="10px">1</text>
	<text transform="matrix(1 0 0 1 304.3993 132.26)" font-family="'ArialMT'" font-size="10px">1</text>
	<text transform="matrix(1 0 0 1 309.9608 132.26)" font-family="'ArialMT'" font-size="10px">0</text>
	<text transform="matrix(1 0 0 1 350.1 48.91)" font-family="'ArialMT'" font-size="10px">120</text>
	<text transform="matrix(1 0 0 1 486.52 72.78)" font-family="'ArialMT'" font-size="10px">130</text>
	<text transform="matrix(1 0 0 1 452.86 132.62)" font-family="'ArialMT'" font-size="10px">140</text>
	<text transform="matrix(1 0 0 1 377.17 163.71)" font-family="'ArialMT'" font-size="10px">150</text>
	<text transform="matrix(1 0 0 1 325.77 216.19)" font-family="'ArialMT'" font-size="10px">160</text>
	<text transform="matrix(1 0 0 1 258.6 311.23)" font-family="'ArialMT'" font-size="10px">170</text>
	<text transform="matrix(1 0 0 1 226.19 375.51)" font-family="'ArialMT'" font-size="10px">180</text>
	<text transform="matrix(1 0 0 1 335.9 394.93)" font-family="'ArialMT'" font-size="10px">190</text>
	<text transform="matrix(1 0 0 1 430.59 467.96)" font-family="'ArialMT'" font-size="10px">200</text>
	<text transform="matrix(1 0 0 1 403.78 536.72)" font-family="'ArialMT'" font-size="10px">210</text>
	<text transform="matrix(1 0 0 1 396.04 677.49)" font-family="'ArialMT'" font-size="10px">220</text>
	<text transform="matrix(1 0 0 1 492.7 697)" font-family="'ArialMT'" font-size="10px">230</text>
	<text transform="matrix(1 0 0 1 376.44 776.49)" font-family="'ArialMT'" font-size="10px">240</text>
	<text transform="matrix(1 0 0 1 273.51 750.08)" font-family="'ArialMT'" font-size="10px">250</text>
</g>
<g id="Nucleotide_Lines">
	
		<line fill="none" stroke="#000000" stroke-width="0.2" stroke-linejoin="round" stroke-miterlimit="10" x1="268.7" y1="717.6" x2="268.3" y2="709.8"/>
	
		<line fill="none" stroke="#000000" stroke-width="0.2" stroke-linejoin="round" stroke-miterlimit="10" x1="280.3" y1="717.6" x2="279.9" y2="709.8"/>
	
		<line fill="none" stroke="#000000" stroke-width="0.2" stroke-linejoin="round" stroke-miterlimit="10" x1="291.9" y1="717.6" x2="291.5" y2="709.8"/>
	
		<line fill="none" stroke="#000000" stroke-width="0.2" stroke-linejoin="round" stroke-miterlimit="10" x1="303.5" y1="717.6" x2="303" y2="709.8"/>
	
		<line fill="none" stroke="#000000" stroke-width="0.2" stroke-linejoin="round" stroke-miterlimit="10" x1="315" y1="717.6" x2="314.6" y2="709.8"/>
	
		<line fill="none" stroke="#000000" stroke-width="0.2" stroke-linejoin="round" stroke-miterlimit="10" x1="326.2" y1="717.6" x2="326.6" y2="709.8"/>
	
		<line fill="none" stroke="#000000" stroke-width="0.2" stroke-linejoin="round" stroke-miterlimit="10" x1="338.6" y1="717.6" x2="338.6" y2="709.8"/>
	
		<line fill="none" stroke="#000000" stroke-width="0.2" stroke-linejoin="round" stroke-miterlimit="10" x1="370" y1="701.3" x2="361.4" y2="701.7"/>
	
		<line fill="none" stroke="#000000" stroke-width="0.2" stroke-linejoin="round" stroke-miterlimit="10" x1="369.1" y1="689.7" x2="361" y2="690.1"/>
	
		<line fill="none" stroke="#000000" stroke-width="0.2" stroke-linejoin="round" stroke-miterlimit="10" x1="369.5" y1="678.1" x2="361.8" y2="678.5"/>
	
		<line fill="none" stroke="#000000" stroke-width="0.2" stroke-linejoin="round" stroke-miterlimit="10" x1="369.1" y1="666.5" x2="361" y2="667"/>
	
		<line fill="none" stroke="#000000" stroke-width="0.2" stroke-linejoin="round" stroke-miterlimit="10" x1="369.5" y1="654.9" x2="361.8" y2="655.4"/>
	
		<line fill="none" stroke="#000000" stroke-width="0.2" stroke-linejoin="round" stroke-miterlimit="10" x1="368.7" y1="643.4" x2="361.4" y2="643.8"/>
	
		<line fill="none" stroke="#000000" stroke-width="0.2" stroke-linejoin="round" stroke-miterlimit="10" x1="331.4" y1="617.2" x2="331.8" y2="624.9"/>
	
		<line fill="none" stroke="#000000" stroke-width="0.2" stroke-linejoin="round" stroke-miterlimit="10" x1="319.8" y1="615.9" x2="320.2" y2="623.6"/>
	
		<line fill="none" stroke="#000000" stroke-width="0.2" stroke-linejoin="round" stroke-miterlimit="10" x1="308.2" y1="615.9" x2="308.6" y2="623.6"/>
	
		<line fill="none" stroke="#000000" stroke-width="0.2" stroke-linejoin="round" stroke-miterlimit="10" x1="296.6" y1="615.9" x2="297" y2="623.6"/>
	
		<line fill="none" stroke="#000000" stroke-width="0.2" stroke-linejoin="round" stroke-miterlimit="10" x1="285.9" y1="615.9" x2="285.9" y2="623.6"/>
	
		<line fill="none" stroke="#000000" stroke-width="0.2" stroke-linejoin="round" stroke-miterlimit="10" x1="273.4" y1="615.9" x2="273.9" y2="623.6"/>
	
		<line fill="none" stroke="#000000" stroke-width="0.2" stroke-linejoin="round" stroke-miterlimit="10" x1="262.7" y1="615.9" x2="262.7" y2="623.6"/>
	
		<line fill="none" stroke="#000000" stroke-width="0.2" stroke-linejoin="round" stroke-miterlimit="10" x1="332.6" y1="425.5" x2="333.1" y2="433.2"/>
	
		<line fill="none" stroke="#000000" stroke-width="0.2" stroke-linejoin="round" stroke-miterlimit="10" x1="321.9" y1="425.5" x2="321.9" y2="433.2"/>
	
		<line fill="none" stroke="#000000" stroke-width="0.2" stroke-linejoin="round" stroke-miterlimit="10" x1="309.5" y1="425.5" x2="309.9" y2="433.2"/>
	
		<line fill="none" stroke="#000000" stroke-width="0.2" stroke-linejoin="round" stroke-miterlimit="10" x1="297.9" y1="425.5" x2="298.3" y2="433.2"/>
	
		<line fill="none" stroke="#000000" stroke-width="0.2" stroke-linejoin="round" stroke-miterlimit="10" x1="286.3" y1="425.5" x2="286.7" y2="433.2"/>
	
		<line fill="none" stroke="#000000" stroke-width="0.2" stroke-linejoin="round" stroke-miterlimit="10" x1="258.4" y1="417.3" x2="255.4" y2="424.6"/>
	
		<line fill="none" stroke="#000000" stroke-width="0.2" stroke-linejoin="round" stroke-miterlimit="10" x1="247.7" y1="413.4" x2="244.3" y2="420.7"/>
	
		<line fill="none" stroke="#000000" stroke-width="0.2" stroke-linejoin="round" stroke-miterlimit="10" x1="237.4" y1="408.3" x2="234" y2="415.6"/>
	
		<line fill="none" stroke="#000000" stroke-width="0.2" stroke-linejoin="round" stroke-miterlimit="10" x1="225.8" y1="404.4" x2="223.7" y2="411.7"/>
	
		<line fill="none" stroke="#000000" stroke-width="0.2" stroke-linejoin="round" stroke-miterlimit="10" x1="216" y1="400.6" x2="213" y2="407.9"/>
	
		<line fill="none" stroke="#000000" stroke-width="0.2" stroke-linejoin="round" stroke-miterlimit="10" x1="205.2" y1="396.3" x2="201.8" y2="403.1"/>
	
		<line fill="none" stroke="#000000" stroke-width="0.2" stroke-linejoin="round" stroke-miterlimit="10" x1="181.2" y1="386.6" x2="178.2" y2="393.5"/>
	
		<line fill="none" stroke="#000000" stroke-width="0.2" stroke-linejoin="round" stroke-miterlimit="10" x1="167.5" y1="380.6" x2="164.9" y2="387.9"/>
	
		<line fill="none" stroke="#000000" stroke-width="0.2" stroke-linejoin="round" stroke-miterlimit="10" x1="157.2" y1="376.3" x2="154.6" y2="383.2"/>
	
		<line fill="none" stroke="#000000" stroke-width="0.2" stroke-linejoin="round" stroke-miterlimit="10" x1="145.6" y1="371.6" x2="143" y2="378.9"/>
	
		<line fill="none" stroke="#000000" stroke-width="0.2" stroke-linejoin="round" stroke-miterlimit="10" x1="135.3" y1="367.3" x2="132.8" y2="374.2"/>
	
		<line fill="none" stroke="#000000" stroke-width="0.2" stroke-linejoin="round" stroke-miterlimit="10" x1="125.9" y1="362.6" x2="122.9" y2="369.9"/>
	
		<line fill="none" stroke="#000000" stroke-width="0.2" stroke-linejoin="round" stroke-miterlimit="10" x1="204.8" y1="374" x2="197.1" y2="371.4"/>
	
		<line fill="none" stroke="#000000" stroke-width="0.2" stroke-linejoin="round" stroke-miterlimit="10" x1="208.7" y1="363.3" x2="200.9" y2="360.3"/>
	
		<line fill="none" stroke="#000000" stroke-width="0.2" stroke-linejoin="round" stroke-miterlimit="10" x1="213" y1="352.1" x2="205.7" y2="349.5"/>
	
		<line fill="none" stroke="#000000" stroke-width="0.2" stroke-linejoin="round" stroke-miterlimit="10" x1="218.1" y1="341.8" x2="210.8" y2="339.2"/>
	
		<line fill="none" stroke="#000000" stroke-width="0.2" stroke-linejoin="round" stroke-miterlimit="10" x1="221.5" y1="331.1" x2="213.8" y2="328.1"/>
	
		<line fill="none" stroke="#000000" stroke-width="0.2" stroke-linejoin="round" stroke-miterlimit="10" x1="225.8" y1="319.9" x2="218.5" y2="317.4"/>
	
		<line fill="none" stroke="#000000" stroke-width="0.2" stroke-linejoin="round" stroke-miterlimit="10" x1="229.7" y1="309.2" x2="222.4" y2="306.2"/>
	
		<line fill="none" stroke="#000000" stroke-width="0.2" stroke-linejoin="round" stroke-miterlimit="10" x1="233.6" y1="298" x2="226.3" y2="295.5"/>
	
		<line fill="none" stroke="#000000" stroke-width="0.2" stroke-linejoin="round" stroke-miterlimit="10" x1="237.8" y1="287.3" x2="231" y2="284.3"/>
	
		<line fill="none" stroke="#000000" stroke-width="0.2" stroke-linejoin="round" stroke-miterlimit="10" x1="307.3" y1="186.9" x2="301.8" y2="181.4"/>
	
		<line fill="none" stroke="#000000" stroke-width="0.2" stroke-linejoin="round" stroke-miterlimit="10" x1="316.3" y1="179.2" x2="310.8" y2="173.6"/>
	
		<line fill="none" stroke="#000000" stroke-width="0.2" stroke-linejoin="round" stroke-miterlimit="10" x1="326.2" y1="168.9" x2="321.5" y2="163.4"/>
	
		<line fill="none" stroke="#000000" stroke-width="0.2" stroke-linejoin="round" stroke-miterlimit="10" x1="336.1" y1="161.2" x2="330.9" y2="155.6"/>
	
		<line fill="none" stroke="#000000" stroke-width="0.2" stroke-linejoin="round" stroke-miterlimit="10" x1="344.2" y1="153.5" x2="339.5" y2="147.9"/>
	
		<line fill="none" stroke="#000000" stroke-width="0.2" stroke-linejoin="round" stroke-miterlimit="10" x1="353.2" y1="145.8" x2="348.5" y2="140.2"/>
	
		<line fill="none" stroke="#000000" stroke-width="0.2" stroke-linejoin="round" stroke-miterlimit="10" x1="361.4" y1="138.1" x2="355.8" y2="132.5"/>
	
		<line fill="none" stroke="#000000" stroke-width="0.2" stroke-linejoin="round" stroke-miterlimit="10" x1="370.4" y1="130.3" x2="364.8" y2="124.8"/>
	
		<line fill="none" stroke="#000000" stroke-width="0.2" stroke-linejoin="round" stroke-miterlimit="10" x1="379.8" y1="122.6" x2="374.7" y2="117"/>
	
		<line fill="none" stroke="#000000" stroke-width="0.2" stroke-linejoin="round" stroke-miterlimit="10" x1="387.5" y1="114.9" x2="382.4" y2="109.3"/>
	
		<line fill="none" stroke="#000000" stroke-width="0.2" stroke-linejoin="round" stroke-miterlimit="10" x1="396.1" y1="108" x2="390.5" y2="102"/>
	
		<line fill="none" stroke="#000000" stroke-width="0.2" stroke-linejoin="round" stroke-miterlimit="10" x1="474.2" y1="102" x2="477.2" y2="95.2"/>
	
		<line fill="none" stroke="#000000" stroke-width="0.2" stroke-linejoin="round" stroke-miterlimit="10" x1="385.8" y1="433.2" x2="385.4" y2="425.5"/>
	
		<line fill="none" stroke="#000000" stroke-width="0.2" stroke-linejoin="round" stroke-miterlimit="10" x1="397" y1="433.2" x2="397.4" y2="425.5"/>
	
		<line fill="none" stroke="#000000" stroke-width="0.2" stroke-linejoin="round" stroke-miterlimit="10" x1="408.6" y1="433.2" x2="409" y2="425.5"/>
	
		<line fill="none" stroke="#000000" stroke-width="0.2" stroke-linejoin="round" stroke-miterlimit="10" x1="420.6" y1="433.2" x2="420.1" y2="425.5"/>
</g>
<g id="Nucleotide_Circles">
	<circle cx="464.5" cy="94.1" r="2.2"/>
	<circle cx="485.8" cy="103.7" r="2.2"/>
	<circle cx="496.7" cy="108.9" r="2.2"/>
</g>
</svg>
