<svg
	xmlns="http://www.w3.org/2000/svg"
	width="176.02"
	height="567.22">
<g><style type="text/css" >
<!-- create color definitions -->
<![CDATA[
circle.red {stroke: rgb(255, 0, 255); fill: none; }
circle.green {stroke: rgb(0, 255, 0); fill: none; }
circle.blue {stroke: rgb(0, 0, 255); fill: none; }
circle.black {stroke: rgb(0, 0, 0); fill: none; }
circle.gray {stroke: rgb(204, 204, 204); fill: none; }
circle.brown {stroke: rgb(211.65, 104.55, 30.6); fill: none; }
line.red {stroke: rgb(255, 0, 255); stroke-width: 1.14646; }
line.green {stroke: rgb(0, 255, 0); stroke-width: 1.14646; }
line.blue {stroke: rgb(0, 0, 255); stroke-width: 1.14646; }
line.black {stroke: rgb(0, 0, 0); stroke-width: 1.14646; }
line.gray {stroke: rgb(204, 204, 204); stroke-width: 1.14646; }
line.brown {stroke: rgb(211.65, 104.55, 30.6); stroke-width: 1.14646; }
line {stroke: rgb(0, 0, 0); }
text.red {fill: rgb(255, 0, 255); font-size: 9.171711px; font-weight: bold; font-family: Helvetica; }
text.green {fill: rgb(0, 255, 0); font-size: 9.171711px; font-weight: bold; font-family: Helvetica; }
text.blue {fill: rgb(0, 0, 255); font-size: 9.171711px; font-weight: bold; font-family: Helvetica; }
text.black {fill: rgb(0, 0, 0); font-size: 9.171711px; font-weight: bold; font-family: Helvetica; }
text.gray {fill: rgb(204, 204, 204); font-size: 9.171711px; font-weight: bold; font-family: Helvetica; }
text.brown {fill: rgb(211.65, 104.55, 30.6); font-size: 9.171711px; font-weight: bold; font-family: Helvetica; }
text {fill: rgb(0, 0, 0); font-size: 9.171711px; font-weight: bold; font-family: Helvetica; text-anchor: middle; alignment-baseline: middle; }

.pseudoknot_connection{stroke-linecap: round; stroke-opacity: 0.2; stroke-width: 1.5; }
.pseudoknot_segment1{stroke-linecap: round; stroke-opacity: 0.4; stroke-width: 9.17171; }
.pseudoknot_segment2{stroke-linecap: round; stroke-opacity: 0.4; stroke-width: 9.17171; }
line.numbering-line{stroke: rgb(204, 204, 204); stroke-width: 0.573232; }
line.predicted{stroke: rgb(0, 0, 0); stroke-dasharray: 2; }
polyline{fill: none; stroke-linejoin: round; }
template{visibility: hidden; }
text.numbering-label{fill: rgb(204, 204, 204); }
]]>
</style></g>
<g><title>0 (position.label in template: 0.5')</title><text x="62.65" y="517.22" class="green" >5'</text></g>
<g><title>1 (position.label in template: 1.C)</title><text x="69.65" y="517.22" class="black" >C</text></g>
<g><line x1="75.7645" y1="516.303" x2="99.6255" y2="516.303" class="black" /></g>
<g><title>2 (position.label in template: 2.C)</title><text x="69.65" y="494.54" class="black" >C</text></g>
<g><line x1="75.7645" y1="493.623" x2="99.6255" y2="493.623" class="black" /></g>
<g><title>3 (position.label in template: 3.G)</title><text x="69.02" y="471.83" class="black" >G</text></g>
<g><line x1="75.1345" y1="470.913" x2="100.256" y2="470.913" class="black" /></g>
<g><title>4 (position.label in template: 4.C)</title><text x="69.65" y="449.15" class="black" >C</text></g>
<g><line x1="75.7645" y1="448.233" x2="99.6255" y2="448.233" class="black" /></g>
<g><title>5 (position.label in template: 5.C)</title><text x="69.65" y="426.47" class="black" >C</text></g>
<g><line x1="75.7645" y1="425.553" x2="99.6255" y2="425.553" class="black" /></g>
<g><title>6 (position.label in template: 6.G)</title><text x="69.02" y="403.79" class="black" >G</text></g>
<g><line x1="75.1345" y1="402.873" x2="100.256" y2="402.873" class="black" /></g>
<g><title>7 (position.label in template: 7.C)</title><text x="69.65" y="381.11" class="black" >C</text></g>
<g><line x1="75.7645" y1="380.193" x2="99.6255" y2="380.193" class="black" /></g>
<g><title>8 (position.label in template: 8.G)</title><text x="69.02" y="358.46" class="black" >G</text></g>
<g><line x1="75.1345" y1="357.543" x2="100.256" y2="357.543" class="black" /></g>
<g><title>9 (position.label in template: 9.C)</title><text x="60.35" y="337.76" class="black" >C</text></g>
<g><title>10 (position.label in template: 10.C)</title><text x="69.65" y="317.06" class="black" >C</text></g>
<g><line x1="75.7645" y1="316.143" x2="99.6255" y2="316.143" class="black" /></g>
<g><text x="49.5339" y="312.455" class="numbering-label sequential" >10</text></g>
<g><line x1="64.2857" y1="315.832" x2="55.037" y2="313.715" class="numbering-line sequential" /></g>
<g><title>11 (position.label in template: 11.A)</title><text x="70.28" y="294.38" class="black" >A</text></g>
<g><line x1="76.3945" y1="293.463" x2="100.256" y2="293.463" class="black" /></g>
<g><title>12 (position.label in template: 12.U)</title><text x="69.65" y="271.7" class="black" >U</text></g>
<g><line x1="75.7645" y1="270.783" x2="100.886" y2="270.783" class="black" /></g>
<g><title>13 (position.label in template: 13.G)</title><text x="69.02" y="249.02" class="black" >G</text></g>
<g><line x1="75.1345" y1="248.103" x2="100.256" y2="248.103" class="black" /></g>
<g><title>14 (position.label in template: 14.C)</title><text x="60.35" y="228.35" class="black" >C</text></g>
<g><title>15 (position.label in template: 15.C)</title><text x="69.65" y="207.65" class="black" >C</text></g>
<g><line x1="75.7645" y1="206.733" x2="99.6255" y2="206.733" class="black" /></g>
<g><title>16 (position.label in template: 16.U)</title><text x="50" y="196.31" class="black" >U</text></g>
<g><title>17 (position.label in template: 17.G)</title><text x="69.02" y="184.97" class="black" >G</text></g>
<g><line x1="75.1345" y1="184.053" x2="100.256" y2="184.053" class="black" /></g>
<g><title>18 (position.label in template: 18.U)</title><text x="69.65" y="162.29" class="black" >U</text></g>
<g><line x1="75.7645" y1="161.373" x2="99.6255" y2="161.373" class="black" /></g>
<g><title>19 (position.label in template: 19.G)</title><text x="69.02" y="139.61" class="black" >G</text></g>
<g><line x1="75.1345" y1="138.693" x2="100.256" y2="138.693" class="black" /></g>
<g><title>20 (position.label in template: 20.G)</title><text x="69.02" y="116.93" class="black" >G</text></g>
<g><line x1="75.1345" y1="116.013" x2="100.256" y2="116.013" class="black" /></g>
<g><text x="48.3856" y="116.643" class="numbering-label sequential" >20</text></g>
<g><line x1="63.5175" y1="116.854" x2="53.8887" y2="116.72" class="numbering-line sequential" /></g>
<g><title>21 (position.label in template: 21.C)</title><text x="69.65" y="94.25" class="black" >C</text></g>
<g><line x1="75.7645" y1="93.3328" x2="99.6255" y2="93.3328" class="black" /></g>
<g><title>22 (position.label in template: 22.G)</title><text x="69.02" y="71.57" class="black" >G</text></g>
<g><line x1="75.1345" y1="70.6528" x2="100.256" y2="70.6528" class="black" /></g>
<g><title>23 (position.label in template: 23.G)</title><text x="76.04" y="50" class="black" >G</text></g>
<g><title>24 (position.label in template: 24.C)</title><text x="99.35" y="50" class="black" >C</text></g>
<g><title>25 (position.label in template: 25.C)</title><text x="106.37" y="71.57" class="black" >C</text></g>
<g><title>26 (position.label in template: 26.G)</title><text x="105.74" y="94.25" class="black" >G</text></g>
<g><title>27 (position.label in template: 27.C)</title><text x="106.37" y="116.93" class="black" >C</text></g>
<g><title>28 (position.label in template: 28.C)</title><text x="106.37" y="139.61" class="black" >C</text></g>
<g><title>29 (position.label in template: 29.G)</title><text x="105.74" y="162.29" class="black" >G</text></g>
<g><title>30 (position.label in template: 30.C)</title><text x="106.37" y="184.97" class="black" >C</text></g>
<g><text x="127.006" y="184.97" class="numbering-label sequential" >30</text></g>
<g><line x1="111.873" y1="184.97" x2="121.503" y2="184.97" class="numbering-line sequential" /></g>
<g><title>31 (position.label in template: 31.G)</title><text x="105.74" y="207.65" class="black" >G</text></g>
<g><title>32 (position.label in template: 32.C)</title><text x="115.67" y="228.35" class="black" >C</text></g>
<g><title>33 (position.label in template: 33.C)</title><text x="106.37" y="249.02" class="black" >C</text></g>
<g><title>34 (position.label in template: 34.A)</title><text x="107" y="271.7" class="black" >A</text></g>
<g><title>35 (position.label in template: 35.U)</title><text x="106.37" y="294.38" class="black" >U</text></g>
<g><title>36 (position.label in template: 36.G)</title><text x="105.74" y="317.06" class="black" >G</text></g>
<g><title>37 (position.label in template: 37.C)</title><text x="115.67" y="337.76" class="black" >C</text></g>
<g><title>38 (position.label in template: 38.C)</title><text x="106.37" y="358.46" class="black" >C</text></g>
<g><title>39 (position.label in template: 39.U)</title><text x="126.02" y="369.77" class="black" >U</text></g>
<g><title>40 (position.label in template: 40.G)</title><text x="105.74" y="381.11" class="black" >G</text></g>
<g><title>41 (position.label in template: 41.U)</title><text x="106.37" y="403.79" class="black" >U</text></g>
<g><title>42 (position.label in template: 42.G)</title><text x="105.74" y="426.47" class="black" >G</text></g>
<g><title>43 (position.label in template: 43.G)</title><text x="105.74" y="449.15" class="black" >G</text></g>
<g><title>44 (position.label in template: 44.C)</title><text x="106.37" y="471.83" class="black" >C</text></g>
<g><title>45 (position.label in template: 45.G)</title><text x="105.74" y="494.54" class="black" >G</text></g>
<g><title>46 (position.label in template: 46.G)</title><text x="105.74" y="517.22" class="black" >G</text></g>
<g><title>47 (position.label in template: 47.3')</title><text x="112.74" y="517.22" class="green" >3'</text></g>
<g><line x1="69.65" y1="510.188" x2="69.65" y2="499.737" class="gray" /></g>
<g><line x1="69.4804" y1="487.511" x2="69.1896" y2="477.025" class="gray" /></g>
<g><line x1="69.1898" y1="464.801" x2="69.4802" y2="454.345" class="gray" /></g>
<g><line x1="69.65" y1="442.118" x2="69.65" y2="431.667" class="gray" /></g>
<g><line x1="69.4802" y1="419.441" x2="69.1898" y2="408.985" class="gray" /></g>
<g><line x1="69.1898" y1="396.761" x2="69.4802" y2="386.305" class="gray" /></g>
<g><line x1="69.48" y1="374.081" x2="69.19" y2="363.655" class="gray" /></g>
<g><line x1="66.6578" y1="351.903" x2="62.7122" y2="342.483" class="gray" /></g>
<g><line x1="62.8558" y1="331.265" x2="67.1442" y2="321.72" class="gray" /></g>
<g><line x1="69.8198" y1="310.031" x2="70.1102" y2="299.575" class="gray" /></g>
<g><line x1="70.1102" y1="287.351" x2="69.8198" y2="276.895" class="gray" /></g>
<g><line x1="69.4802" y1="264.671" x2="69.1898" y2="254.215" class="gray" /></g>
<g><line x1="66.6549" y1="242.464" x2="62.7151" y2="233.071" class="gray" /></g>
<g><line x1="62.8558" y1="221.855" x2="67.1442" y2="212.31" class="gray" /></g>
<g><line x1="64.3541" y1="203.677" x2="55.2959" y2="198.449" class="gray" /></g>
<g><line x1="55.2519" y1="192.262" x2="63.7681" y2="187.184" class="gray" /></g>
<g><line x1="69.1898" y1="177.941" x2="69.4802" y2="167.485" class="gray" /></g>
<g><line x1="69.4802" y1="155.261" x2="69.1898" y2="144.805" class="gray" /></g>
<g><line x1="69.02" y1="132.578" x2="69.02" y2="122.127" class="gray" /></g>
<g><line x1="69.1898" y1="109.901" x2="69.4802" y2="99.4449" class="gray" /></g>
<g><line x1="69.4802" y1="87.2207" x2="69.1898" y2="76.7649" class="gray" /></g>
<g><line x1="70.9123" y1="64.8385" x2="74.1477" y2="54.8971" class="gray" /></g>
<g><line x1="82.1545" y1="49.0828" x2="93.2355" y2="49.0828" class="gray" /></g>
<g><line x1="101.242" y1="54.8971" x2="104.478" y2="64.8385" class="gray" /></g>
<g><line x1="106.2" y1="76.7649" x2="105.91" y2="87.2207" class="gray" /></g>
<g><line x1="105.91" y1="99.4449" x2="106.2" y2="109.901" class="gray" /></g>
<g><line x1="106.37" y1="122.127" x2="106.37" y2="132.578" class="gray" /></g>
<g><line x1="106.2" y1="144.805" x2="105.91" y2="155.261" class="gray" /></g>
<g><line x1="105.91" y1="167.485" x2="106.2" y2="177.941" class="gray" /></g>
<g><line x1="106.2" y1="190.165" x2="105.91" y2="200.621" class="gray" /></g>
<g><line x1="108.385" y1="212.246" x2="113.025" y2="221.92" class="gray" /></g>
<g><line x1="113.161" y1="233.009" x2="108.879" y2="242.527" class="gray" /></g>
<g><line x1="106.54" y1="254.215" x2="106.83" y2="264.671" class="gray" /></g>
<g><line x1="106.83" y1="276.895" x2="106.54" y2="287.351" class="gray" /></g>
<g><line x1="106.2" y1="299.575" x2="105.91" y2="310.031" class="gray" /></g>
<g><line x1="108.385" y1="321.656" x2="113.025" y2="331.33" class="gray" /></g>
<g><line x1="113.164" y1="342.42" x2="108.876" y2="351.965" class="gray" /></g>
<g><line x1="111.669" y1="360.593" x2="120.721" y2="365.803" class="gray" /></g>
<g><line x1="120.683" y1="371.837" x2="111.077" y2="377.209" class="gray" /></g>
<g><line x1="105.91" y1="386.305" x2="106.2" y2="396.761" class="gray" /></g>
<g><line x1="106.2" y1="408.985" x2="105.91" y2="419.441" class="gray" /></g>
<g><line x1="105.74" y1="431.667" x2="105.74" y2="442.118" class="gray" /></g>
<g><line x1="105.91" y1="454.345" x2="106.2" y2="464.801" class="gray" /></g>
<g><line x1="106.2" y1="477.025" x2="105.91" y2="487.511" class="gray" /></g>
<g><line x1="105.74" y1="499.737" x2="105.74" y2="510.188" class="gray" /></g>
</svg>
