<svg
	xmlns="http://www.w3.org/2000/svg"
	width="579.912"
	height="315.449">
<g><style type="text/css" >
<!-- create color definitions -->
<![CDATA[
circle.red {stroke: rgb(255, 0, 255); fill: none; }
circle.green {stroke: rgb(0, 255, 0); fill: none; }
circle.blue {stroke: rgb(0, 0, 255); fill: none; }
circle.black {stroke: rgb(0, 0, 0); fill: none; }
circle.gray {stroke: rgb(204, 204, 204); fill: none; }
circle.brown {stroke: rgb(211.65, 104.55, 30.6); fill: none; }
line.red {stroke: rgb(255, 0, 255); stroke-width: 0.382829; }
line.green {stroke: rgb(0, 255, 0); stroke-width: 0.382829; }
line.blue {stroke: rgb(0, 0, 255); stroke-width: 0.382829; }
line.black {stroke: rgb(0, 0, 0); stroke-width: 0.382829; }
line.gray {stroke: rgb(204, 204, 204); stroke-width: 0.382829; }
line.brown {stroke: rgb(211.65, 104.55, 30.6); stroke-width: 0.382829; }
line {stroke: rgb(0, 0, 0); }
text.red {fill: rgb(255, 0, 255); font-size: 3.062633px; font-weight: bold; font-family: Helvetica; }
text.green {fill: rgb(0, 255, 0); font-size: 3.062633px; font-weight: bold; font-family: Helvetica; }
text.blue {fill: rgb(0, 0, 255); font-size: 3.062633px; font-weight: bold; font-family: Helvetica; }
text.black {fill: rgb(0, 0, 0); font-size: 3.062633px; font-weight: bold; font-family: Helvetica; }
text.gray {fill: rgb(204, 204, 204); font-size: 3.062633px; font-weight: bold; font-family: Helvetica; }
text.brown {fill: rgb(211.65, 104.55, 30.6); font-size: 3.062633px; font-weight: bold; font-family: Helvetica; }
text {fill: rgb(0, 0, 0); font-size: 3.062633px; font-weight: bold; font-family: Helvetica; text-anchor: middle; alignment-baseline: middle; }

.pseudoknot_connection{stroke-linecap: round; stroke-opacity: 0.2; stroke-width: 1.5; }
.pseudoknot_segment1{stroke-linecap: round; stroke-opacity: 0.4; stroke-width: 3.06263; }
.pseudoknot_segment2{stroke-linecap: round; stroke-opacity: 0.4; stroke-width: 3.06263; }
line.numbering-line{stroke: rgb(204, 204, 204); stroke-width: 0.191415; }
line.predicted{stroke: rgb(0, 0, 0); stroke-dasharray: 2; }
polyline{fill: none; stroke-linejoin: round; }
template{visibility: hidden; }
text.numbering-label{fill: rgb(204, 204, 204); }
]]>
</style></g>
<g><polyline points="63.7962 55.0159, 70.3023 51.7033, 77.4017 50, 84.7026 50, 91.802 51.7033, 98.3081 55.0159" class="gray pseudoknot_segment1" stroke="gray" title="Pseudoknot 33:38--138:143(UCUGUA--UACAGA)" id="pn-33-38-138-143" /></g>
<g><polyline points="257.357 265.439, 264.977 265.239, 272.477 265.439, 280.037 265.439, 287.597 265.439, 295.157 265.439" class="gray pseudoknot_segment2" stroke="gray" title="Pseudoknot 33:38--138:143(UCUGUA--UACAGA)" id="pn-33-38-138-143" /></g>
<g><polyline points="63.7962 55.0159, 257.357 265.439" class="gray pseudoknot_connection" stroke="gray" title="Pseudoknot 33:38--138:143(UCUGUA--UACAGA)" id="pn-33-38-138-143" /></g>
<g><polyline points="120.765 265.439, 128.325 265.439, 135.885 265.439, 143.445 265.439" class="gray pseudoknot_segment1" stroke="gray" title="Pseudoknot 73:76--106:109(GCGC--GCGC)" id="pn-73-76-106-109" /></g>
<g><polyline points="206.845 193.506, 205.374 187.295, 206.92 181.101, 211.137 176.309" class="gray pseudoknot_segment2" stroke="gray" title="Pseudoknot 73:76--106:109(GCGC--GCGC)" id="pn-73-76-106-109" /></g>
<g><polyline points="120.765 265.439, 206.845 193.506" class="gray pseudoknot_connection" stroke="gray" title="Pseudoknot 73:76--106:109(GCGC--GCGC)" id="pn-73-76-106-109" /></g>
<g><polyline points="319.707 181.505, 325.377 176.505, 332.727 176.505, 338.597 181.505, 339.687 189.215" class="gray pseudoknot_segment1" stroke="gray" title="Pseudoknot 159:163--183:187(GAGUC--GACUC)" id="pn-159-163-183-187" /></g>
<g><polyline points="408.865 265.445, 416.429 265.246, 423.995 265.246, 431.562 265.246, 439.128 265.246" class="gray pseudoknot_segment2" stroke="gray" title="Pseudoknot 159:163--183:187(GAGUC--GACUC)" id="pn-159-163-183-187" /></g>
<g><polyline points="319.707 181.505, 408.865 265.445" class="gray pseudoknot_connection" stroke="gray" title="Pseudoknot 159:163--183:187(GAGUC--GACUC)" id="pn-159-163-183-187" /></g>
<g><title>0 (position.label in template: 0.5')</title><text x="74.9321" y="262.167" class="green" >5'</text></g>
<g><title>1 (position.label in template: 1.N)</title><text x="74.9321" y="254.601" class="green" >U</text></g>
<g><line x1="76.9739" y1="254.295" x2="85.1304" y2="254.295" class="black" /></g>
<g><title>2 (position.label in template: 2.N)</title><text x="74.9321" y="247.041" class="green" >U</text></g>
<g><line x1="76.9739" y1="246.735" x2="85.1304" y2="246.735" class="black" /></g>
<g><title>3 (position.label in template: 3.N)</title><text x="74.9321" y="239.481" class="green" >G</text></g>
<g><line x1="76.9739" y1="239.175" x2="85.1304" y2="239.175" class="black" /></g>
<g><title>4 (position.label in template: 4.A)</title><text x="74.9921" y="231.711" class="black" >A</text></g>
<g><line x1="77.0339" y1="231.405" x2="84.9804" y2="231.405" class="black" /></g>
<g><title>5 (position.label in template: 5.N)</title><text x="74.9321" y="224.361" class="green" >C</text></g>
<g><line x1="76.9739" y1="224.055" x2="85.1304" y2="224.055" class="black" /></g>
<g><title>6 (position.label in template: 6.N)</title><text x="74.9321" y="216.801" class="green" >U</text></g>
<g><line x1="76.9739" y1="216.495" x2="85.1304" y2="216.495" class="black" /></g>
<g><title>7 (position.label in template: 7.R)</title><text x="74.7821" y="209.031" class="green" >A</text></g>
<g><line x1="76.8239" y1="208.725" x2="85.1904" y2="208.725" class="black" /></g>
<g><title>8 (position.label in template: 8.U)</title><text x="74.7821" y="201.471" class="black" >U</text></g>
<g><line x1="76.8239" y1="201.165" x2="85.1904" y2="201.165" class="black" /></g>
<g><title>9 (position.label in template: 9.G)</title><text x="74.5721" y="193.911" class="black" >G</text></g>
<g><line x1="76.6139" y1="193.605" x2="84.9804" y2="193.605" class="black" /></g>
<g><title>10 (position.label in template: 10.U)</title><text x="67.2421" y="193.431" class="black" >U</text></g>
<g><text x="65.1097" y="199.984" class="numbering-label sequential" >10</text></g>
<g><line x1="66.6735" y1="195.178" x2="65.608" y2="198.452" class="numbering-line sequential" /></g>
<g><title>11 (position.label in template: 11.G)</title><text x="60.6521" y="189.381" class="black" >G</text></g>
<g><title>12 (position.label in template: 12.A)</title><text x="57.4221" y="182.751" class="black" >A</text></g>
<g><title>13 (position.label in template: 13.U)</title><text x="57.2121" y="175.191" class="black" >U</text></g>
<g><title>14 (position.label in template: 14.C)</title><text x="60.8621" y="168.571" class="black" >C</text></g>
<g><title>15 (position.label in template: 15.U)</title><text x="67.2421" y="164.521" class="black" >U</text></g>
<g><title>16 (position.label in template: 16.U)</title><text x="74.7821" y="164.041" class="black" >U</text></g>
<g><line x1="76.8239" y1="163.735" x2="85.1904" y2="163.735" class="black" /></g>
<g><title>17 (position.label in template: 17.R)</title><text x="74.7821" y="156.481" class="green" >G</text></g>
<g><line x1="76.8239" y1="156.175" x2="84.9804" y2="156.175" class="black" /></g>
<g><title>18 (position.label in template: 18.Y)</title><text x="74.9921" y="148.921" class="green" >C</text></g>
<g><line x1="77.0339" y1="148.615" x2="84.9804" y2="148.615" class="black" /></g>
<g><title>19 (position.label in template: 19.U)</title><text x="74.7821" y="141.361" class="black" >U</text></g>
<g><line x1="76.8239" y1="141.055" x2="85.1904" y2="141.055" class="black" /></g>
<g><title>20 (position.label in template: 20.N)</title><text x="74.9321" y="134.011" class="green" >U</text></g>
<g><line x1="76.9739" y1="133.705" x2="85.1304" y2="133.705" class="black" /></g>
<g><text x="68.0416" y="133.942" class="numbering-label sequential" >20</text></g>
<g><line x1="73.0947" y1="133.992" x2="69.8791" y2="133.96" class="numbering-line sequential" /></g>
<g><title>21 (position.label in template: 21.N)</title><text x="74.9321" y="126.451" class="green" >U</text></g>
<g><line x1="76.9739" y1="126.145" x2="85.1304" y2="126.145" class="black" /></g>
<g><title>22 (position.label in template: 22.N)</title><text x="74.9321" y="118.891" class="green" >C</text></g>
<g><line x1="76.9739" y1="118.585" x2="85.1304" y2="118.585" class="black" /></g>
<g><title>23 (position.label in template: 23.N)</title><text x="74.9321" y="111.331" class="green" >G</text></g>
<g><line x1="76.9739" y1="111.025" x2="85.1304" y2="111.025" class="black" /></g>
<g><title>24 (position.label in template: 26.N)</title><text x="67.9927" y="109.062" class="green" >U</text></g>
<g><title>25 (position.label in template: 27.N)</title><text x="61.774" y="105.237" class="green" >A</text></g>
<g><title>26 (position.label in template: 28.N)</title><text x="56.6192" y="100.067" class="green" >A</text></g>
<g><title>27 (position.label in template: 29.A)</title><text x="52.8129" y="93.837" class="green" >U</text></g>
<g><title>28 (position.label in template: 30.A)</title><text x="50.5652" y="86.8908" class="blue" >A</text></g>
<g><title>29 (position.label in template: 31.A)</title><text x="50" y="79.6118" class="blue" >A</text></g>
<g><title>30 (position.label in template: 32.N)</title><text x="51.1486" y="72.4019" class="green" >A</text></g>
<g><text x="44.5179" y="70.5259" class="numbering-label sequential" >30</text></g>
<g><line x1="49.3804" y1="71.9016" x2="46.3555" y2="71.0458" class="numbering-line sequential" /></g>
<g><title>31 (position.label in template: 33.N)</title><text x="53.9476" y="65.6588" class="green" >A</text></g>
<g><title>32 (position.label in template: 34.U)</title><text x="58.2425" y="59.7549" class="blue" >U</text></g>
<g><title>33 (position.label in template: 35.N)</title><text x="63.7962" y="55.0159" class="green" >U</text></g>
<g><title>34 (position.label in template: 36.N)</title><text x="70.3023" y="51.7033" class="green" >C</text></g>
<g><title>35 (position.label in template: 37.N)</title><text x="77.4017" y="50" class="green" >U</text></g>
<g><title>36 (position.label in template: 38.N)</title><text x="84.7026" y="50" class="green" >G</text></g>
<g><title>37 (position.label in template: 39.R)</title><text x="91.802" y="51.7033" class="green" >U</text></g>
<g><title>38 (position.label in template: 40.N)</title><text x="98.3081" y="55.0159" class="green" >A</text></g>
<g><title>39 (position.label in template: 41.Y)</title><text x="103.862" y="59.7549" class="green" >C</text></g>
<g><title>40 (position.label in template: 42.N)</title><text x="108.157" y="65.6588" class="green" >A</text></g>
<g><title>41 (position.label in template: 43.N)</title><text x="110.956" y="72.4019" class="green" >U</text></g>
<g><title>42 (position.label in template: 44.R)</title><text x="112.104" y="79.6118" class="green" >A</text></g>
<g><title>43 (position.label in template: 45.A)</title><text x="111.539" y="86.8908" class="blue" >A</text></g>
<g><title>44 (position.label in template: 46.A)</title><text x="109.291" y="93.837" class="blue" >A</text></g>
<g><title>45 (position.label in template: 47.N)</title><text x="105.485" y="100.067" class="green" >A</text></g>
<g><title>46 (position.label in template: 48.R)</title><text x="100.33" y="105.237" class="green" >G</text></g>
<g><title>47 (inserted)</title><text x="94.1116" y="109.062" class="red" >U</text></g>
<g><title>48 (position.label in template: 50.N)</title><text x="87.1721" y="111.331" class="green" >C</text></g>
<g><title>49 (position.label in template: 51.N)</title><text x="87.1721" y="118.891" class="green" >G</text></g>
<g><title>50 (position.label in template: 52.N)</title><text x="87.1721" y="126.451" class="green" >A</text></g>
<g><text x="94.0631" y="126.451" class="numbering-label sequential" >50</text></g>
<g><line x1="89.0097" y1="126.451" x2="92.2255" y2="126.451" class="numbering-line sequential" /></g>
<g><title>51 (position.label in template: 53.N)</title><text x="87.1721" y="134.011" class="green" >A</text></g>
<g><title>52 (position.label in template: 54.A)</title><text x="87.2321" y="141.361" class="black" >A</text></g>
<g><title>53 (position.label in template: 55.R)</title><text x="87.0221" y="148.921" class="green" >G</text></g>
<g><title>54 (position.label in template: 56.U)</title><text x="87.0221" y="156.481" class="green" >U</text></g>
<g><title>55 (position.label in template: 57.A)</title><text x="87.2321" y="164.041" class="black" >A</text></g>
<g><title>56 (position.label in template: 58.N)</title><text x="93.3021" y="168.671" class="green" >U</text></g>
<g><title>57 (position.label in template: 59.U)</title><text x="96.5921" y="175.191" class="black" >U</text></g>
<g><title>58 (position.label in template: 60.G)</title><text x="96.3821" y="182.751" class="black" >G</text></g>
<g><title>59 (position.label in template: 61.C)</title><text x="93.1521" y="189.491" class="black" >C</text></g>
<g><title>60 (position.label in template: 62.U)</title><text x="87.0221" y="193.911" class="black" >U</text></g>
<g><title>61 (position.label in template: 63.A)</title><text x="87.2321" y="201.471" class="black" >A</text></g>
<g><title>62 (position.label in template: 64.Y)</title><text x="87.2321" y="209.031" class="green" >U</text></g>
<g><title>63 (position.label in template: 65.N)</title><text x="87.1721" y="216.801" class="green" >A</text></g>
<g><title>64 (position.label in template: 66.N)</title><text x="87.1721" y="224.361" class="green" >G</text></g>
<g><title>65 (position.label in template: 67.U)</title><text x="87.0221" y="231.711" class="black" >U</text></g>
<g><title>66 (position.label in template: 68.N)</title><text x="87.1721" y="239.481" class="green" >U</text></g>
<g><title>67 (position.label in template: 69.N)</title><text x="87.1721" y="247.041" class="green" >A</text></g>
<g><title>68 (position.label in template: 70.N)</title><text x="87.1721" y="254.601" class="green" >A</text></g>
<g><title>69 (inserted)</title><text x="92.5534" y="259.92" class="red" >G</text></g>
<g><title>70 (position.label in template: 71.R)</title><text x="97.9346" y="265.239" class="green" >G</text></g>
<g><title>71 (position.label in template: 72.N)</title><text x="105.645" y="265.439" class="green" >U</text></g>
<g><title>72 (position.label in template: 73.N)</title><text x="113.205" y="265.439" class="green" >U</text></g>
<g><title>73 (position.label in template: 74.N)</title><text x="120.765" y="265.439" class="green" >G</text></g>
<g><title>74 (position.label in template: 75.N)</title><text x="128.325" y="265.439" class="green" >C</text></g>
<g><title>75 (position.label in template: 76.N)</title><text x="135.885" y="265.439" class="green" >G</text></g>
<g><title>76 (position.label in template: 77.N)</title><text x="143.445" y="265.439" class="green" >C</text></g>
<g><title>77 (position.label in template: 78.U)</title><text x="150.855" y="265.239" class="black" >U</text></g>
<g><title>78 (position.label in template: 79.U)</title><text x="158.415" y="265.239" class="black" >U</text></g>
<g><title>79 (position.label in template: 80.R)</title><text x="163.755" y="259.889" class="green" >G</text></g>
<g><line x1="165.796" y1="259.583" x2="174.163" y2="259.583" class="black" /></g>
<g><title>80 (position.label in template: 81.N)</title><text x="163.905" y="252.539" class="green" >C</text></g>
<g><line x1="165.946" y1="252.233" x2="174.103" y2="252.233" class="black" /></g>
<g><title>81 (position.label in template: 82.Y)</title><text x="163.965" y="244.769" class="green" >C</text></g>
<g><line x1="166.006" y1="244.463" x2="173.743" y2="244.463" class="black" /></g>
<g><title>82 (position.label in template: 83.U)</title><text x="163.755" y="237.209" class="black" >U</text></g>
<g><line x1="165.796" y1="236.903" x2="174.163" y2="236.903" class="black" /></g>
<g><title>83 (position.label in template: 84.A)</title><text x="161.795" y="229.969" class="black" >A</text></g>
<g><title>84 (position.label in template: 85.U)</title><text x="166.095" y="223.899" class="black" >U</text></g>
<g><title>85 (position.label in template: 86.U)</title><text x="173.655" y="223.899" class="black" >U</text></g>
<g><title>86 (position.label in template: 87.U)</title><text x="178.175" y="229.969" class="black" >U</text></g>
<g><title>87 (position.label in template: 88.A)</title><text x="176.205" y="237.209" class="black" >A</text></g>
<g><title>88 (position.label in template: 89.G)</title><text x="175.785" y="244.769" class="green" >G</text></g>
<g><title>89 (position.label in template: 90.N)</title><text x="176.145" y="252.539" class="green" >G</text></g>
<g><title>90 (position.label in template: 91.Y)</title><text x="176.205" y="259.889" class="green" >C</text></g>
<g><title>91 (position.label in template: 92.U)</title><text x="181.345" y="265.239" class="green" >A</text></g>
<g><title>92 (position.label in template: 93.U)</title><text x="188.905" y="265.239" class="black" >U</text></g>
<g><title>93 (position.label in template: 94.A)</title><text x="196.675" y="265.239" class="black" >A</text></g>
<g><title>94 (position.label in template: 95.C)</title><text x="204.025" y="265.239" class="black" >C</text></g>
<g><title>95 (position.label in template: 96.Y)</title><text x="211.795" y="265.239" class="green" >U</text></g>
<g><title>96 (position.label in template: 97.N)</title><text x="217.085" y="260.099" class="green" >U</text></g>
<g><line x1="219.126" y1="259.793" x2="227.273" y2="259.793" class="black" /></g>
<g><title>97 (position.label in template: 98.Y)</title><text x="217.135" y="252.329" class="green" >C</text></g>
<g><line x1="219.176" y1="252.023" x2="227.133" y2="252.023" class="black" /></g>
<g><title>98 (position.label in template: 99.Y)</title><text x="217.135" y="244.769" class="green" >U</text></g>
<g><line x1="219.176" y1="244.463" x2="227.133" y2="244.463" class="black" /></g>
<g><title>99 (position.label in template: 100.C)</title><text x="216.925" y="237.209" class="black" >C</text></g>
<g><line x1="218.966" y1="236.903" x2="226.923" y2="236.903" class="black" /></g>
<g><title>100 (position.label in template: 101.A)</title><text x="214.035" y="230.309" class="black" >A</text></g>
<g><text x="207.144" y="230.309" class="numbering-label sequential" >100</text></g>
<g><line x1="212.197" y1="230.309" x2="209.9" y2="230.309" class="numbering-line sequential" /></g>
<g><title>101 (position.label in template: 102.R)</title><text x="216.925" y="223.419" class="green" >G</text></g>
<g><line x1="218.966" y1="223.113" x2="227.333" y2="223.113" class="black" /></g>
<g><title>102 (position.label in template: 103.G)</title><text x="216.715" y="215.859" class="black" >G</text></g>
<g><line x1="218.756" y1="215.553" x2="227.133" y2="215.553" class="black" /></g>
<g><title>103 (position.label in template: 104.A)</title><text x="217.135" y="208.299" class="black" >A</text></g>
<g><line x1="219.176" y1="207.993" x2="227.133" y2="207.993" class="black" /></g>
<g><title>104 (position.label in template: 105.U)</title><text x="216.925" y="200.739" class="black" >U</text></g>
<g><line x1="218.966" y1="200.433" x2="227.333" y2="200.433" class="black" /></g>
<g><title>105 (inserted)</title><text x="211.005" y="198.349" class="red" >G</text></g>
<g><title>106 (position.label in template: 107.N)</title><text x="206.845" y="193.506" class="green" >G</text></g>
<g><title>107 (position.label in template: 108.N)</title><text x="205.374" y="187.295" class="green" >C</text></g>
<g><title>108 (position.label in template: 109.N)</title><text x="206.92" y="181.101" class="green" >G</text></g>
<g><title>109 (position.label in template: 110.N)</title><text x="211.137" y="176.309" class="green" >C</text></g>
<g><title>110 (position.label in template: 111.N)</title><text x="217.085" y="173.989" class="green" >G</text></g>
<g><line x1="219.126" y1="173.65" x2="227.333" y2="173.516" class="black" /></g>
<g><title>111 (position.label in template: 112.N)</title><text x="217.085" y="166.429" class="green" >U</text></g>
<g><line x1="219.126" y1="166.123" x2="227.273" y2="166.123" class="black" /></g>
<g><title>112 (position.label in template: 113.N)</title><text x="217.085" y="158.869" class="green" >U</text></g>
<g><line x1="219.126" y1="158.563" x2="227.273" y2="158.563" class="black" /></g>
<g><title>113 (position.label in template: 114.G)</title><text x="216.715" y="151.109" class="black" >G</text></g>
<g><line x1="218.756" y1="150.803" x2="227.133" y2="150.803" class="black" /></g>
<g><title>114 (position.label in template: 115.C)</title><text x="213.525" y="144.349" class="black" >C</text></g>
<g><title>115 (position.label in template: 116.A)</title><text x="216.315" y="137.249" class="black" >A</text></g>
<g><title>116 (position.label in template: 117.G)</title><text x="222.835" y="134.249" class="black" >G</text></g>
<g><title>117 (position.label in template: 118.Y)</title><text x="230.195" y="137.249" class="green" >U</text></g>
<g><title>118 (position.label in template: 119.C)</title><text x="232.575" y="144.349" class="black" >C</text></g>
<g><title>119 (position.label in template: 120.C)</title><text x="229.175" y="151.109" class="black" >C</text></g>
<g><title>120 (position.label in template: 121.N)</title><text x="229.315" y="158.869" class="green" >A</text></g>
<g><title>121 (position.label in template: 122.N)</title><text x="229.315" y="166.429" class="green" >A</text></g>
<g><title>122 (position.label in template: 123.Y)</title><text x="229.375" y="173.789" class="green" >C</text></g>
<g><title>123 (position.label in template: 124.A)</title><text x="229.42" y="180.527" class="blue" >A</text></g>
<g><title>124 (position.label in template: 125.A)</title><text x="229.436" y="187.264" class="blue" >A</text></g>
<g><title>125 (inserted)</title><text x="229.42" y="194.002" class="red" >G</text></g>
<g><title>126 (position.label in template: 127.A)</title><text x="229.375" y="200.739" class="black" >A</text></g>
<g><title>127 (position.label in template: 128.U)</title><text x="229.175" y="208.299" class="black" >U</text></g>
<g><title>128 (position.label in template: 129.C)</title><text x="229.175" y="215.859" class="black" >C</text></g>
<g><title>129 (position.label in template: 130.Y)</title><text x="229.375" y="223.419" class="green" >C</text></g>
<g><title>130 (position.label in template: 131.A)</title><text x="232.475" y="230.309" class="black" >A</text></g>
<g><title>131 (position.label in template: 132.G)</title><text x="228.965" y="237.209" class="black" >G</text></g>
<g><title>132 (position.label in template: 133.R)</title><text x="229.175" y="244.769" class="green" >G</text></g>
<g><title>133 (position.label in template: 134.R)</title><text x="229.175" y="252.329" class="green" >G</text></g>
<g><title>134 (position.label in template: 135.N)</title><text x="229.315" y="260.099" class="green" >A</text></g>
<g><title>135 (position.label in template: 136.N)</title><text x="234.665" y="265.439" class="green" >C</text></g>
<g><title>136 (position.label in template: 137.N)</title><text x="242.225" y="265.439" class="green" >U</text></g>
<g><title>137 (inserted)</title><text x="249.791" y="265.439" class="red" >G</text></g>
<g><title>138 (position.label in template: 138.N)</title><text x="257.357" y="265.439" class="green" >U</text></g>
<g><title>139 (position.label in template: 139.Y)</title><text x="264.977" y="265.239" class="green" >A</text></g>
<g><title>140 (position.label in template: 140.N)</title><text x="272.477" y="265.439" class="green" >C</text></g>
<g><title>141 (position.label in template: 141.N)</title><text x="280.037" y="265.439" class="green" >A</text></g>
<g><title>142 (position.label in template: 142.N)</title><text x="287.597" y="265.439" class="green" >G</text></g>
<g><title>143 (position.label in template: 143.N)</title><text x="295.157" y="265.439" class="green" >A</text></g>
<g><title>144 (position.label in template: 144.Y)</title><text x="302.777" y="265.239" class="green" >A</text></g>
<g><title>145 (position.label in template: 145.N)</title><text x="310.277" y="265.439" class="green" >U</text></g>
<g><title>146 (position.label in template: 146.N)</title><text x="317.837" y="265.439" class="green" >U</text></g>
<g><title>147 (position.label in template: 147.N)</title><text x="323.187" y="260.099" class="green" >U</text></g>
<g><line x1="325.229" y1="259.793" x2="333.386" y2="259.793" class="black" /></g>
<g><title>148 (position.label in template: 148.N)</title><text x="323.187" y="252.539" class="green" >U</text></g>
<g><line x1="325.229" y1="252.233" x2="333.386" y2="252.233" class="black" /></g>
<g><title>149 (position.label in template: 149.N)</title><text x="323.187" y="244.979" class="green" >C</text></g>
<g><line x1="325.229" y1="244.673" x2="333.386" y2="244.673" class="black" /></g>
<g><title>150 (position.label in template: 150.Y)</title><text x="323.237" y="237.209" class="green" >C</text></g>
<g><line x1="325.279" y1="236.903" x2="333.236" y2="236.903" class="black" /></g>
<g><text x="316.86" y="239.82" class="numbering-label sequential" >150</text></g>
<g><line x1="321.537" y1="237.905" x2="319.616" y2="238.691" class="numbering-line sequential" /></g>
<g><title>151 (position.label in template: 152.Y)</title><text x="318.452" y="233.41" class="green" >U</text></g>
<g><title>152 (position.label in template: 153.R)</title><text x="316.646" y="227.572" class="green" >A</text></g>
<g><title>153 (position.label in template: 154.N)</title><text x="318.452" y="221.734" class="green" >U</text></g>
<g><title>154 (position.label in template: 155.A)</title><text x="323.237" y="217.935" class="black" >A</text></g>
<g><line x1="325.279" y1="217.628" x2="333.236" y2="217.628" class="black" /></g>
<g><title>155 (position.label in template: 156.N)</title><text x="323.187" y="210.575" class="green" >C</text></g>
<g><line x1="325.229" y1="210.268" x2="333.386" y2="210.268" class="black" /></g>
<g><title>156 (position.label in template: 157.N)</title><text x="323.187" y="203.015" class="green" >C</text></g>
<g><line x1="325.229" y1="202.708" x2="333.386" y2="202.708" class="black" /></g>
<g><title>157 (position.label in template: 158.U)</title><text x="323.037" y="195.255" class="black" >U</text></g>
<g><line x1="325.079" y1="194.948" x2="333.026" y2="194.948" class="black" /></g>
<g><title>158 (position.label in template: 159.U)</title><text x="318.767" y="189.005" class="green" >C</text></g>
<g><title>159 (position.label in template: 160.R)</title><text x="319.707" y="181.505" class="green" >G</text></g>
<g><title>160 (position.label in template: 161.R)</title><text x="325.377" y="176.505" class="green" >A</text></g>
<g><title>161 (position.label in template: 162.G)</title><text x="332.727" y="176.505" class="black" >G</text></g>
<g><title>162 (position.label in template: 163.U)</title><text x="338.597" y="181.505" class="black" >U</text></g>
<g><title>163 (position.label in template: 164.N)</title><text x="339.687" y="189.215" class="green" >C</text></g>
<g><title>164 (position.label in template: 165.G)</title><text x="335.067" y="195.255" class="black" >G</text></g>
<g><title>165 (position.label in template: 166.N)</title><text x="335.427" y="203.015" class="green" >G</text></g>
<g><title>166 (position.label in template: 167.N)</title><text x="335.427" y="210.575" class="green" >G</text></g>
<g><title>167 (position.label in template: 168.U)</title><text x="335.277" y="217.935" class="black" >U</text></g>
<g><title>168 (position.label in template: 169.U)</title><text x="337.784" y="224.199" class="blue" >U</text></g>
<g><title>169 (position.label in template: 170.N)</title><text x="337.784" y="230.945" class="green" >U</text></g>
<g><title>170 (position.label in template: 172.R)</title><text x="335.277" y="237.209" class="green" >G</text></g>
<g><title>171 (position.label in template: 173.N)</title><text x="335.427" y="244.979" class="green" >G</text></g>
<g><title>172 (position.label in template: 174.N)</title><text x="335.427" y="252.539" class="green" >A</text></g>
<g><title>173 (position.label in template: 175.N)</title><text x="335.427" y="260.099" class="green" >A</text></g>
<g><title>174 (position.label in template: 176.N)</title><text x="340.778" y="265.449" class="green" >U</text></g>
<g><title>175 (position.label in template: 177.N)</title><text x="348.344" y="265.449" class="green" >C</text></g>
<g><title>176 (position.label in template: 178.A)</title><text x="355.908" y="265.251" class="green" >U</text></g>
<g><title>177 (position.label in template: 179.R)</title><text x="363.474" y="265.251" class="green" >A</text></g>
<g><title>178 (position.label in template: 180.A)</title><text x="371.041" y="265.251" class="black" >A</text></g>
<g><title>179 (position.label in template: 181.R)</title><text x="378.607" y="265.251" class="green" >G</text></g>
<g><title>180 (position.label in template: 182.N)</title><text x="386.171" y="265.447" class="green" >G</text></g>
<g><title>181 (position.label in template: 183.Y)</title><text x="393.735" y="265.249" class="green" >U</text></g>
<g><title>182 (position.label in template: 184.U)</title><text x="401.301" y="265.249" class="black" >U</text></g>
<g><title>183 (position.label in template: 185.N)</title><text x="408.865" y="265.445" class="green" >G</text></g>
<g><title>184 (position.label in template: 186.A)</title><text x="416.429" y="265.246" class="black" >A</text></g>
<g><title>185 (position.label in template: 187.C)</title><text x="423.995" y="265.246" class="black" >C</text></g>
<g><title>186 (position.label in template: 188.Y)</title><text x="431.562" y="265.246" class="green" >U</text></g>
<g><title>187 (position.label in template: 189.Y)</title><text x="439.128" y="265.246" class="green" >C</text></g>
<g><title>188 (position.label in template: 190.G)</title><text x="446.695" y="265.246" class="black" >G</text></g>
<g><title>189 (position.label in template: 191.C)</title><text x="454.261" y="265.246" class="black" >C</text></g>
<g><title>190 (position.label in template: 192.N)</title><text x="461.825" y="265.443" class="green" >U</text></g>
<g><title>191 (position.label in template: 193.R)</title><text x="469.389" y="265.238" class="green" >G</text></g>
<g><title>192 (position.label in template: 194.N)</title><text x="476.953" y="265.435" class="green" >U</text></g>
<g><title>193 (position.label in template: 195.N)</title><text x="484.519" y="265.435" class="green" >A</text></g>
<g><title>194 (position.label in template: 196.N)</title><text x="492.085" y="265.435" class="green" >A</text></g>
<g><title>195 (position.label in template: 197.N)</title><text x="499.652" y="265.435" class="green" >A</text></g>
<g><title>196 (position.label in template: 198.N)</title><text x="507.218" y="265.435" class="green" >U</text></g>
<g><title>197 (position.label in template: 199.R)</title><text x="514.782" y="265.23" class="green" >A</text></g>
<g><title>198 (position.label in template: 200.A)</title><text x="522.348" y="265.23" class="black" >A</text></g>
<g><title>199 (position.label in template: 201.N)</title><text x="529.912" y="265.432" class="green" >U</text></g>
<g><title>200 (position.label in template: 202.3')</title><text x="537.476" y="265.634" class="green" >3'</text></g>
<g><line x1="74.9321" y1="259.819" x2="74.9321" y2="256.336" class="gray" /></g>
<g><line x1="74.9321" y1="252.253" x2="74.9321" y2="248.776" class="gray" /></g>
<g><line x1="74.9321" y1="244.693" x2="74.9321" y2="241.216" class="gray" /></g>
<g><line x1="74.9479" y1="237.133" x2="74.9764" y2="233.446" class="gray" /></g>
<g><line x1="74.9755" y1="229.363" x2="74.9488" y2="226.096" class="gray" /></g>
<g><line x1="74.9321" y1="222.013" x2="74.9321" y2="218.536" class="gray" /></g>
<g><line x1="74.8927" y1="214.453" x2="74.8216" y2="210.766" class="gray" /></g>
<g><line x1="74.7821" y1="206.683" x2="74.7821" y2="203.206" class="gray" /></g>
<g><line x1="74.7255" y1="199.124" x2="74.6288" y2="195.646" class="gray" /></g>
<g><line x1="72.5348" y1="193.471" x2="69.2795" y2="193.258" class="gray" /></g>
<g><line x1="65.5026" y1="192.056" x2="62.3917" y2="190.144" class="gray" /></g>
<g><line x1="59.7579" y1="187.239" x2="58.3164" y2="184.28" class="gray" /></g>
<g><line x1="57.3655" y1="180.404" x2="57.2688" y2="176.926" class="gray" /></g>
<g><line x1="58.198" y1="173.097" x2="59.8763" y2="170.053" class="gray" /></g>
<g><line x1="62.5859" y1="167.17" x2="65.5184" y2="165.309" class="gray" /></g>
<g><line x1="69.2798" y1="164.085" x2="72.7445" y2="163.864" class="gray" /></g>
<g><line x1="74.7821" y1="161.693" x2="74.7821" y2="158.216" class="gray" /></g>
<g><line x1="74.8388" y1="154.134" x2="74.9355" y2="150.656" class="gray" /></g>
<g><line x1="74.9355" y1="146.574" x2="74.8388" y2="143.096" class="gray" /></g>
<g><line x1="74.8238" y1="139.013" x2="74.8905" y2="135.746" class="gray" /></g>
<g><line x1="74.9321" y1="131.663" x2="74.9321" y2="128.186" class="gray" /></g>
<g><line x1="74.9321" y1="124.103" x2="74.9321" y2="120.626" class="gray" /></g>
<g><line x1="74.9321" y1="116.543" x2="74.9321" y2="113.066" class="gray" /></g>
<g><line x1="72.9915" y1="110.39" x2="69.9334" y2="109.391" class="gray" /></g>
<g><line x1="66.2536" y1="107.686" x2="63.5131" y2="106.001" class="gray" /></g>
<g><line x1="60.3324" y1="103.485" x2="58.0608" y2="101.207" class="gray" /></g>
<g><line x1="55.5548" y1="98.0186" x2="53.8774" y2="95.2731" class="gray" /></g>
<g><line x1="52.1843" y1="91.5882" x2="51.1938" y2="88.5271" class="gray" /></g>
<g><line x1="50.4071" y1="84.5489" x2="50.1581" y2="81.3412" class="gray" /></g>
<g><line x1="50.3212" y1="77.2892" x2="50.8274" y2="74.1119" class="gray" /></g>
<g><line x1="51.9314" y1="70.2099" x2="53.1648" y2="67.2383" class="gray" /></g>
<g><line x1="55.1487" y1="63.7015" x2="57.0413" y2="61.0997" class="gray" /></g>
<g><line x1="59.7956" y1="58.1233" x2="62.243" y2="56.0349" class="gray" /></g>
<g><line x1="65.6157" y1="53.7832" x2="68.4828" y2="52.3234" class="gray" /></g>
<g><line x1="72.2877" y1="50.9207" x2="75.4163" y2="50.1701" class="gray" /></g>
<g><line x1="79.4435" y1="49.6937" x2="82.6608" y2="49.6937" class="gray" /></g>
<g><line x1="86.688" y1="50.1701" x2="89.8166" y2="50.9207" class="gray" /></g>
<g><line x1="93.6215" y1="52.3234" x2="96.4886" y2="53.7832" class="gray" /></g>
<g><line x1="99.8612" y1="56.0349" x2="102.309" y2="58.1233" class="gray" /></g>
<g><line x1="105.063" y1="61.0997" x2="106.956" y2="63.7015" class="gray" /></g>
<g><line x1="108.939" y1="67.2383" x2="110.173" y2="70.2099" class="gray" /></g>
<g><line x1="111.277" y1="74.1119" x2="111.783" y2="77.2892" class="gray" /></g>
<g><line x1="111.946" y1="81.3412" x2="111.697" y2="84.5489" class="gray" /></g>
<g><line x1="110.911" y1="88.5271" x2="109.92" y2="91.5882" class="gray" /></g>
<g><line x1="108.227" y1="95.2731" x2="106.55" y2="98.0186" class="gray" /></g>
<g><line x1="104.043" y1="101.207" x2="101.772" y2="103.485" class="gray" /></g>
<g><line x1="98.5912" y1="106.001" x2="95.8507" y2="107.686" class="gray" /></g>
<g><line x1="92.1709" y1="109.391" x2="89.1128" y2="110.39" class="gray" /></g>
<g><line x1="87.1721" y1="113.066" x2="87.1721" y2="116.543" class="gray" /></g>
<g><line x1="87.1721" y1="120.626" x2="87.1721" y2="124.103" class="gray" /></g>
<g><line x1="87.1721" y1="128.186" x2="87.1721" y2="131.663" class="gray" /></g>
<g><line x1="87.1888" y1="135.746" x2="87.2155" y2="139.013" class="gray" /></g>
<g><line x1="87.1755" y1="143.096" x2="87.0788" y2="146.574" class="gray" /></g>
<g><line x1="87.0221" y1="150.656" x2="87.0221" y2="154.133" class="gray" /></g>
<g><line x1="87.0788" y1="158.216" x2="87.1755" y2="161.694" class="gray" /></g>
<g><line x1="88.8555" y1="164.973" x2="91.6787" y2="167.126" class="gray" /></g>
<g><line x1="94.2219" y1="170.187" x2="95.6723" y2="173.062" class="gray" /></g>
<g><line x1="96.5355" y1="176.926" x2="96.4388" y2="180.404" class="gray" /></g>
<g><line x1="95.4998" y1="184.286" x2="94.0345" y2="187.343" class="gray" /></g>
<g><line x1="91.496" y1="190.379" x2="88.6783" y2="192.411" class="gray" /></g>
<g><line x1="87.0788" y1="195.646" x2="87.1755" y2="199.124" class="gray" /></g>
<g><line x1="87.2321" y1="203.206" x2="87.2321" y2="206.683" class="gray" /></g>
<g><line x1="87.2164" y1="210.766" x2="87.1879" y2="214.453" class="gray" /></g>
<g><line x1="87.1721" y1="218.536" x2="87.1721" y2="222.013" class="gray" /></g>
<g><line x1="87.1305" y1="226.096" x2="87.0638" y2="229.363" class="gray" /></g>
<g><line x1="87.0616" y1="233.446" x2="87.1327" y2="237.133" class="gray" /></g>
<g><line x1="87.1721" y1="241.216" x2="87.1721" y2="244.693" class="gray" /></g>
<g><line x1="87.1721" y1="248.776" x2="87.1721" y2="252.253" class="gray" /></g>
<g><line x1="88.6242" y1="255.73" x2="91.1013" y2="258.178" class="gray" /></g>
<g><line x1="94.0055" y1="261.049" x2="96.4825" y2="263.498" class="gray" /></g>
<g><line x1="99.9757" y1="264.986" x2="103.604" y2="265.08" class="gray" /></g>
<g><line x1="107.686" y1="265.133" x2="111.163" y2="265.133" class="gray" /></g>
<g><line x1="115.246" y1="265.133" x2="118.723" y2="265.133" class="gray" /></g>
<g><line x1="122.806" y1="265.133" x2="126.283" y2="265.133" class="gray" /></g>
<g><line x1="130.366" y1="265.133" x2="133.843" y2="265.133" class="gray" /></g>
<g><line x1="137.926" y1="265.133" x2="141.403" y2="265.133" class="gray" /></g>
<g><line x1="145.486" y1="265.078" x2="148.814" y2="264.988" class="gray" /></g>
<g><line x1="152.896" y1="264.933" x2="156.373" y2="264.933" class="gray" /></g>
<g><line x1="159.857" y1="263.488" x2="162.312" y2="261.028" class="gray" /></g>
<g><line x1="163.796" y1="257.542" x2="163.863" y2="254.274" class="gray" /></g>
<g><line x1="163.92" y1="250.191" x2="163.949" y2="246.505" class="gray" /></g>
<g><line x1="163.908" y1="242.422" x2="163.811" y2="238.944" class="gray" /></g>
<g><line x1="163.221" y1="234.932" x2="162.328" y2="231.634" class="gray" /></g>
<g><line x1="162.975" y1="227.997" x2="164.914" y2="225.259" class="gray" /></g>
<g><line x1="168.136" y1="223.593" x2="171.613" y2="223.593" class="gray" /></g>
<g><line x1="174.874" y1="225.231" x2="176.955" y2="228.025" class="gray" /></g>
<g><line x1="177.639" y1="231.633" x2="176.741" y2="234.933" class="gray" /></g>
<g><line x1="176.091" y1="238.942" x2="175.898" y2="242.424" class="gray" /></g>
<g><line x1="175.879" y1="246.502" x2="176.05" y2="250.193" class="gray" /></g>
<g><line x1="176.161" y1="254.275" x2="176.188" y2="257.541" class="gray" /></g>
<g><line x1="177.619" y1="261.055" x2="179.93" y2="263.461" class="gray" /></g>
<g><line x1="183.386" y1="264.933" x2="186.863" y2="264.933" class="gray" /></g>
<g><line x1="190.946" y1="264.933" x2="194.633" y2="264.933" class="gray" /></g>
<g><line x1="198.716" y1="264.933" x2="201.983" y2="264.933" class="gray" /></g>
<g><line x1="206.066" y1="264.933" x2="209.753" y2="264.933" class="gray" /></g>
<g><line x1="213.259" y1="263.51" x2="215.62" y2="261.216" class="gray" /></g>
<g><line x1="217.098" y1="257.751" x2="217.121" y2="254.065" class="gray" /></g>
<g><line x1="217.135" y1="249.981" x2="217.135" y2="246.505" class="gray" /></g>
<g><line x1="217.078" y1="242.422" x2="216.981" y2="238.944" class="gray" /></g>
<g><line x1="216.136" y1="235.02" x2="214.823" y2="231.886" class="gray" /></g>
<g><line x1="214.824" y1="228.12" x2="216.135" y2="224.996" class="gray" /></g>
<g><line x1="216.868" y1="221.072" x2="216.771" y2="217.594" class="gray" /></g>
<g><line x1="216.828" y1="213.514" x2="217.021" y2="210.032" class="gray" /></g>
<g><line x1="217.078" y1="205.952" x2="216.981" y2="202.474" class="gray" /></g>
<g><line x1="215.031" y1="199.668" x2="212.899" y2="198.807" class="gray" /></g>
<g><line x1="209.675" y1="196.494" x2="208.176" y2="194.749" class="gray" /></g>
<g><line x1="206.375" y1="191.213" x2="205.844" y2="188.975" class="gray" /></g>
<g><line x1="205.868" y1="185.007" x2="206.425" y2="182.776" class="gray" /></g>
<g><line x1="208.268" y1="179.262" x2="209.788" y2="177.535" class="gray" /></g>
<g><line x1="213.039" y1="175.261" x2="215.182" y2="174.425" class="gray" /></g>
<g><line x1="217.085" y1="171.641" x2="217.085" y2="168.165" class="gray" /></g>
<g><line x1="217.085" y1="164.081" x2="217.085" y2="160.605" class="gray" /></g>
<g><line x1="216.987" y1="156.523" x2="216.812" y2="152.842" class="gray" /></g>
<g><line x1="215.843" y1="148.956" x2="214.396" y2="145.889" class="gray" /></g>
<g><line x1="214.271" y1="142.143" x2="215.568" y2="138.843" class="gray" /></g>
<g><line x1="218.169" y1="136.089" x2="220.98" y2="134.796" class="gray" /></g>
<g><line x1="224.725" y1="134.714" x2="228.304" y2="136.172" class="gray" /></g>
<g><line x1="230.844" y1="138.879" x2="231.926" y2="142.107" class="gray" /></g>
<g><line x1="231.657" y1="145.867" x2="230.092" y2="148.979" class="gray" /></g>
<g><line x1="229.211" y1="152.844" x2="229.278" y2="156.521" class="gray" /></g>
<g><line x1="229.315" y1="160.605" x2="229.315" y2="164.081" class="gray" /></g>
<g><line x1="229.331" y1="168.165" x2="229.358" y2="171.441" class="gray" /></g>
<g><line x1="229.388" y1="175.525" x2="229.407" y2="178.179" class="gray" /></g>
<g><line x1="229.425" y1="182.262" x2="229.431" y2="184.916" class="gray" /></g>
<g><line x1="229.431" y1="189" x2="229.425" y2="191.654" class="gray" /></g>
<g><line x1="229.407" y1="195.737" x2="229.388" y2="198.391" class="gray" /></g>
<g><line x1="229.321" y1="202.474" x2="229.229" y2="205.952" class="gray" /></g>
<g><line x1="229.175" y1="210.035" x2="229.175" y2="213.511" class="gray" /></g>
<g><line x1="229.229" y1="217.594" x2="229.321" y2="221.072" class="gray" /></g>
<g><line x1="230.212" y1="224.975" x2="231.637" y2="228.141" class="gray" /></g>
<g><line x1="231.549" y1="231.823" x2="229.89" y2="235.083" class="gray" /></g>
<g><line x1="229.021" y1="238.944" x2="229.118" y2="242.422" class="gray" /></g>
<g><line x1="229.175" y1="246.505" x2="229.175" y2="249.981" class="gray" /></g>
<g><line x1="229.211" y1="254.064" x2="229.278" y2="257.751" class="gray" /></g>
<g><line x1="230.76" y1="261.235" x2="233.22" y2="263.691" class="gray" /></g>
<g><line x1="236.706" y1="265.133" x2="240.183" y2="265.133" class="gray" /></g>
<g><line x1="244.266" y1="265.133" x2="247.749" y2="265.133" class="gray" /></g>
<g><line x1="251.833" y1="265.133" x2="255.316" y2="265.133" class="gray" /></g>
<g><line x1="259.398" y1="265.079" x2="262.936" y2="264.986" class="gray" /></g>
<g><line x1="267.018" y1="264.987" x2="270.436" y2="265.078" class="gray" /></g>
<g><line x1="274.519" y1="265.133" x2="277.996" y2="265.133" class="gray" /></g>
<g><line x1="282.079" y1="265.133" x2="285.556" y2="265.133" class="gray" /></g>
<g><line x1="289.639" y1="265.133" x2="293.116" y2="265.133" class="gray" /></g>
<g><line x1="297.198" y1="265.079" x2="300.736" y2="264.986" class="gray" /></g>
<g><line x1="304.818" y1="264.987" x2="308.236" y2="265.078" class="gray" /></g>
<g><line x1="312.319" y1="265.133" x2="315.796" y2="265.133" class="gray" /></g>
<g><line x1="319.283" y1="263.691" x2="321.742" y2="261.235" class="gray" /></g>
<g><line x1="323.187" y1="257.751" x2="323.187" y2="254.275" class="gray" /></g>
<g><line x1="323.187" y1="250.191" x2="323.187" y2="246.715" class="gray" /></g>
<g><line x1="323.201" y1="242.631" x2="323.224" y2="238.945" class="gray" /></g>
<g><line x1="321.638" y1="235.633" x2="320.051" y2="234.373" class="gray" /></g>
<g><line x1="317.848" y1="231.153" x2="317.25" y2="229.216" class="gray" /></g>
<g><line x1="317.25" y1="225.315" x2="317.848" y2="223.379" class="gray" /></g>
<g><line x1="320.051" y1="220.158" x2="321.638" y2="218.898" class="gray" /></g>
<g><line x1="323.224" y1="215.587" x2="323.201" y2="212.31" class="gray" /></g>
<g><line x1="323.187" y1="208.227" x2="323.187" y2="204.75" class="gray" /></g>
<g><line x1="323.148" y1="200.667" x2="323.077" y2="196.99" class="gray" /></g>
<g><line x1="321.886" y1="193.263" x2="319.919" y2="190.384" class="gray" /></g>
<g><line x1="319.021" y1="186.673" x2="319.454" y2="183.224" class="gray" /></g>
<g><line x1="321.239" y1="179.848" x2="323.846" y2="177.549" class="gray" /></g>
<g><line x1="327.419" y1="176.198" x2="330.686" y2="176.198" class="gray" /></g>
<g><line x1="334.282" y1="177.522" x2="337.043" y2="179.875" class="gray" /></g>
<g><line x1="338.883" y1="183.22" x2="339.402" y2="186.887" class="gray" /></g>
<g><line x1="338.447" y1="190.53" x2="336.308" y2="193.327" class="gray" /></g>
<g><line x1="335.162" y1="196.988" x2="335.333" y2="200.669" class="gray" /></g>
<g><line x1="335.427" y1="204.75" x2="335.427" y2="208.227" class="gray" /></g>
<g><line x1="335.386" y1="212.31" x2="335.319" y2="215.587" class="gray" /></g>
<g><line x1="336.036" y1="219.524" x2="337.026" y2="221.997" class="gray" /></g>
<g><line x1="337.784" y1="225.934" x2="337.784" y2="228.597" class="gray" /></g>
<g><line x1="337.026" y1="232.535" x2="336.036" y2="235.007" class="gray" /></g>
<g><line x1="335.317" y1="238.944" x2="335.388" y2="242.632" class="gray" /></g>
<g><line x1="335.427" y1="246.715" x2="335.427" y2="250.191" class="gray" /></g>
<g><line x1="335.427" y1="254.275" x2="335.427" y2="257.751" class="gray" /></g>
<g><line x1="336.871" y1="261.237" x2="339.334" y2="263.699" class="gray" /></g>
<g><line x1="342.819" y1="265.143" x2="346.302" y2="265.143" class="gray" /></g>
<g><line x1="350.385" y1="265.09" x2="353.867" y2="264.998" class="gray" /></g>
<g><line x1="357.95" y1="264.945" x2="361.433" y2="264.945" class="gray" /></g>
<g><line x1="365.516" y1="264.945" x2="368.999" y2="264.945" class="gray" /></g>
<g><line x1="373.083" y1="264.945" x2="376.565" y2="264.945" class="gray" /></g>
<g><line x1="380.648" y1="264.998" x2="384.13" y2="265.088" class="gray" /></g>
<g><line x1="388.212" y1="265.087" x2="391.694" y2="264.996" class="gray" /></g>
<g><line x1="395.777" y1="264.942" x2="399.26" y2="264.942" class="gray" /></g>
<g><line x1="403.342" y1="264.995" x2="406.824" y2="265.086" class="gray" /></g>
<g><line x1="410.906" y1="265.085" x2="414.388" y2="264.994" class="gray" /></g>
<g><line x1="418.471" y1="264.94" x2="421.954" y2="264.94" class="gray" /></g>
<g><line x1="426.037" y1="264.94" x2="429.52" y2="264.94" class="gray" /></g>
<g><line x1="433.604" y1="264.94" x2="437.087" y2="264.94" class="gray" /></g>
<g><line x1="441.17" y1="264.94" x2="444.653" y2="264.94" class="gray" /></g>
<g><line x1="448.736" y1="264.94" x2="452.219" y2="264.94" class="gray" /></g>
<g><line x1="456.302" y1="264.993" x2="459.784" y2="265.083" class="gray" /></g>
<g><line x1="463.866" y1="265.081" x2="467.348" y2="264.987" class="gray" /></g>
<g><line x1="471.43" y1="264.985" x2="474.911" y2="265.075" class="gray" /></g>
<g><line x1="478.994" y1="265.128" x2="482.477" y2="265.128" class="gray" /></g>
<g><line x1="486.561" y1="265.128" x2="490.044" y2="265.128" class="gray" /></g>
<g><line x1="494.127" y1="265.128" x2="497.61" y2="265.128" class="gray" /></g>
<g><line x1="501.694" y1="265.128" x2="505.176" y2="265.128" class="gray" /></g>
<g><line x1="509.259" y1="265.073" x2="512.741" y2="264.979" class="gray" /></g>
<g><line x1="516.824" y1="264.924" x2="520.307" y2="264.924" class="gray" /></g>
<g><line x1="524.389" y1="264.979" x2="527.871" y2="265.071" class="gray" /></g>
<g><line x1="531.953" y1="265.18" x2="535.435" y2="265.273" class="gray" /></g>
</svg>
