<svg
	xmlns="http://www.w3.org/2000/svg"
	width="856.744"
	height="480.57"><g id="r2dt-OX309346">
<g><style type="text/css" >
<!-- create color definitions -->
<![CDATA[#r2dt-OX309346 circle.red{stroke: rgb(255, 0, 255); fill: none; }#r2dt-OX309346 circle.green{stroke: rgb(0, 255, 0); fill: none; }#r2dt-OX309346 circle.blue{stroke: rgb(0, 0, 255); fill: none; }#r2dt-OX309346 circle.black{stroke: rgb(0, 0, 0); fill: none; }#r2dt-OX309346 circle.gray{stroke: rgb(204, 204, 204); fill: none; }#r2dt-OX309346 circle.brown{stroke: rgb(211.65, 104.55, 30.6); fill: none; }#r2dt-OX309346 line.red{stroke: rgb(255, 0, 255); stroke-width: 1.52649; }#r2dt-OX309346 line.green{stroke: rgb(0, 255, 0); stroke-width: 1.52649; }#r2dt-OX309346 line.blue{stroke: rgb(0, 0, 255); stroke-width: 1.52649; }#r2dt-OX309346 line.black{stroke: rgb(0, 0, 0); stroke-width: 1.52649; }#r2dt-OX309346 line.gray{stroke: rgb(204, 204, 204); stroke-width: 1.52649; }#r2dt-OX309346 line.brown{stroke: rgb(211.65, 104.55, 30.6); stroke-width: 1.52649; }#r2dt-OX309346 line{stroke: rgb(0, 0, 0); }#r2dt-OX309346 text.red{fill: rgb(255, 0, 255); font-size: 12.211955px; font-weight: bold; font-family: Helvetica; }#r2dt-OX309346 text.green{fill: rgb(0, 255, 0); font-size: 12.211955px; font-weight: bold; font-family: Helvetica; }#r2dt-OX309346 text.blue{fill: rgb(0, 0, 255); font-size: 12.211955px; font-weight: bold; font-family: Helvetica; }#r2dt-OX309346 text.black{fill: rgb(0, 0, 0); font-size: 12.211955px; font-weight: bold; font-family: Helvetica; }#r2dt-OX309346 text.gray{fill: rgb(204, 204, 204); font-size: 12.211955px; font-weight: bold; font-family: Helvetica; }#r2dt-OX309346 text.brown{fill: rgb(211.65, 104.55, 30.6); font-size: 12.211955px; font-weight: bold; font-family: Helvetica; }#r2dt-OX309346 text{fill: rgb(0, 0, 0); font-size: 12.211955px; font-weight: bold; font-family: Helvetica; text-anchor: middle; alignment-baseline: middle; }#r2dt-OX309346 .pseudoknot_connection{stroke-linecap: round; stroke-opacity: 0.2; stroke-width: 1.5; }#r2dt-OX309346 .pseudoknot_segment1{stroke-linecap: round; stroke-opacity: 0.4; stroke-width: 12.212; }#r2dt-OX309346 .pseudoknot_segment2{stroke-linecap: round; stroke-opacity: 0.4; stroke-width: 12.212; }#r2dt-OX309346 line.numbering-line{stroke: rgb(204, 204, 204); stroke-width: 0.763247; }#r2dt-OX309346 line.predicted{stroke: rgb(0, 0, 0); stroke-dasharray: 2; }#r2dt-OX309346 polyline{fill: none; stroke-linejoin: round; }#r2dt-OX309346 template{visibility: hidden; }#r2dt-OX309346 text.numbering-label{fill: rgb(204, 204, 204); }
]]>
</style></g>
<g><polyline points="236.077 65.28, 261.237 50, 292.317 50, 319.717 64.44, 335.397 89.76" class="gray pseudoknot_segment1" stroke="gray" title="Pseudoknot 20:24--70:74(AGCCC--GGGCU)" id="pn-20-24-70-74" /></g>
<g><polyline points="565.433 428.527, 595.6 428.527, 625.767 428.527, 655.934 428.527, 686.089 429.348" class="gray pseudoknot_segment2" stroke="gray" title="Pseudoknot 20:24--70:74(AGCCC--GGGCU)" id="pn-20-24-70-74" /></g>
<g><polyline points="236.077 65.28, 565.433 428.527" class="gray pseudoknot_connection" stroke="gray" title="Pseudoknot 20:24--70:74(AGCCC--GGGCU)" id="pn-20-24-70-74" /></g>
<g><title>0 (position.label in template: 0.5')</title><text x="19.8332" y="429.748" class="green" >5'</text></g>
<g><title>1 (position.label in template: 1.G)</title><text x="50" y="429.748" class="black" >G</text></g>
<g><title>2 (position.label in template: 2.R)</title><text x="80.1668" y="429.748" class="green" >G</text></g>
<g><title>3 (position.label in template: 3.G)</title><text x="110.334" y="429.748" class="black" >G</text></g>
<g><title>4 (position.label in template: 4.U)</title><text x="140.5" y="429.748" class="black" >U</text></g>
<g><title>5 (position.label in template: 5.N)</title><text x="170.656" y="430.57" class="green" >U</text></g>
<g><title>6 (position.label in template: 6.N)</title><text x="200.823" y="430.57" class="green" >U</text></g>
<g><title>7 (position.label in template: 7.R)</title><text x="230.977" y="429.714" class="green" >G</text></g>
<g><title>8 (position.label in template: 8.G)</title><text x="251.877" y="407.96" class="green" >C</text></g>
<g><line x1="260.019" y1="406.739" x2="293.536" y2="406.739" class="black" /></g>
<g><title>9 (position.label in template: 9.G)</title><text x="251.877" y="377.76" class="black" >G</text></g>
<g><line x1="260.019" y1="376.539" x2="293.536" y2="376.539" class="black" /></g>
<g><title>10 (position.label in template: 10.G)</title><text x="251.877" y="347.48" class="black" >G</text></g>
<g><line x1="260.019" y1="346.259" x2="293.536" y2="346.259" class="black" /></g>
<g><text x="224.411" y="346.718" class="numbering-label sequential" >10</text></g>
<g><line x1="244.553" y1="347.277" x2="231.738" y2="346.921" class="numbering-line sequential" /></g>
<g><title>11 (position.label in template: 11.Y)</title><text x="253.557" y="317.24" class="green" >U</text></g>
<g><line x1="261.699" y1="316.019" x2="293.536" y2="316.019" class="black" /></g>
<g><title>12 (position.label in template: 12.Y)</title><text x="253.557" y="287" class="green" >G</text></g>
<g><line x1="261.699" y1="285.779" x2="293.536" y2="285.779" class="black" /></g>
<g><title>13 (position.label in template: 13.C)</title><text x="252.717" y="256.76" class="green" >U</text></g>
<g><line x1="260.859" y1="255.539" x2="292.696" y2="255.539" class="black" /></g>
<g><title>14 (position.label in template: 14.Y)</title><text x="253.557" y="226.52" class="green" >A</text></g>
<g><line x1="261.699" y1="225.299" x2="293.536" y2="225.299" class="black" /></g>
<g><title>15 (position.label in template: 15.A)</title><text x="253.557" y="196.28" class="black" >A</text></g>
<g><line x1="261.699" y1="195.059" x2="293.536" y2="195.059" class="black" /></g>
<g><title>16 (position.label in template: 16.G)</title><text x="251.877" y="166.04" class="black" >G</text></g>
<g><line x1="260.019" y1="164.819" x2="293.536" y2="164.819" class="black" /></g>
<g><title>17 (position.label in template: 17.U)</title><text x="228.797" y="147.56" class="black" >U</text></g>
<g><title>18 (position.label in template: 18.G)</title><text x="215.717" y="119.92" class="black" >G</text></g>
<g><title>19 (position.label in template: 19.N)</title><text x="219.597" y="90.6" class="green" >C</text></g>
<g><title>20 (position.label in template: 20.N)</title><text x="236.077" y="65.28" class="green" >A</text></g>
<g><text x="216.895" y="45.6068" class="numbering-label sequential" >20</text></g>
<g><line x1="230.962" y1="60.0338" x2="222.849" y2="51.7128" class="numbering-line sequential" /></g>
<g><title>21 (position.label in template: 21.G)</title><text x="261.237" y="50" class="black" >G</text></g>
<g><title>22 (position.label in template: 22.C)</title><text x="292.317" y="50" class="black" >C</text></g>
<g><title>23 (position.label in template: 23.Y)</title><text x="319.717" y="64.44" class="green" >C</text></g>
<g><title>24 (position.label in template: 24.C)</title><text x="335.397" y="89.76" class="black" >C</text></g>
<g><title>25 (position.label in template: 25.G)</title><text x="336.997" y="119.92" class="black" >G</text></g>
<g><title>26 (position.label in template: 26.N)</title><text x="326.197" y="148.4" class="green" >U</text></g>
<g><title>27 (position.label in template: 27.C)</title><text x="301.677" y="166.04" class="black" >C</text></g>
<g><title>28 (position.label in template: 28.U)</title><text x="301.677" y="196.28" class="black" >U</text></g>
<g><title>29 (position.label in template: 29.R)</title><text x="301.677" y="226.52" class="green" >U</text></g>
<g><title>30 (position.label in template: 30.G)</title><text x="300.837" y="256.76" class="green" >A</text></g>
<g><text x="328.314" y="256.76" class="numbering-label sequential" >30</text></g>
<g><line x1="308.164" y1="256.76" x2="320.987" y2="256.76" class="numbering-line sequential" /></g>
<g><title>31 (position.label in template: 31.R)</title><text x="301.677" y="287" class="green" >C</text></g>
<g><title>32 (position.label in template: 32.R)</title><text x="301.677" y="317.24" class="green" >A</text></g>
<g><title>33 (position.label in template: 33.C)</title><text x="301.677" y="347.48" class="black" >C</text></g>
<g><title>34 (position.label in template: 34.C)</title><text x="301.677" y="377.76" class="black" >C</text></g>
<g><title>35 (position.label in template: 35.C)</title><text x="301.677" y="407.96" class="green" >G</text></g>
<g><title>36 (position.label in template: 36.Y)</title><text x="323.877" y="429.36" class="green" >U</text></g>
<g><title>37 (position.label in template: 37.R)</title><text x="344.437" y="407.96" class="green" >G</text></g>
<g><line x1="352.579" y1="406.739" x2="385.256" y2="406.739" class="black" /></g>
<g><title>38 (position.label in template: 38.N)</title><text x="345.037" y="378.56" class="green" >C</text></g>
<g><line x1="353.179" y1="377.339" x2="385.856" y2="377.339" class="black" /></g>
<g><title>39 (position.label in template: 39.N)</title><text x="345.037" y="348.32" class="green" >G</text></g>
<g><line x1="353.177" y1="346.96" x2="386.097" y2="346.398" class="black" /></g>
<g><title>40 (position.label in template: 40.N)</title><text x="345.037" y="318.08" class="green" >G</text></g>
<g><line x1="353.179" y1="316.859" x2="385.856" y2="316.859" class="black" /></g>
<g><title>41 (position.label in template: 41.N)</title><text x="345.037" y="287.84" class="green" >C</text></g>
<g><line x1="353.179" y1="286.619" x2="385.856" y2="286.619" class="black" /></g>
<g><title>42 (position.label in template: 42.N)</title><text x="345.037" y="257.6" class="green" >A</text></g>
<g><line x1="353.177" y1="256.237" x2="385.257" y2="255.68" class="black" /></g>
<g><title>43 (position.label in template: 43.N)</title><text x="345.037" y="227.36" class="green" >C</text></g>
<g><line x1="353.177" y1="225.995" x2="384.417" y2="225.443" class="black" /></g>
<g><title>44 (position.label in template: 44.Y)</title><text x="345.277" y="196.28" class="green" >A</text></g>
<g><line x1="353.417" y1="195.199" x2="385.857" y2="195.758" class="black" /></g>
<g><title>45 (position.label in template: 45.G)</title><text x="317.397" y="181.16" class="black" >G</text></g>
<g><title>46 (position.label in template: 46.G)</title><text x="343.597" y="166.04" class="black" >G</text></g>
<g><line x1="351.739" y1="164.819" x2="385.256" y2="164.819" class="black" /></g>
<g><title>47 (inserted)</title><text x="339.812" y="149.332" class="red" >C</text></g>
<g><title>48 (position.label in template: 48.N)</title><text x="344.584" y="132.878" class="green" >A</text></g>
<g><line x1="352.726" y1="131.657" x2="385.403" y2="131.657" class="black" /></g>
<g><title>49 (position.label in template: 49.Y)</title><text x="336.144" y="103.078" class="green" >C</text></g>
<g><title>50 (position.label in template: 50.N)</title><text x="353.944" y="79.6781" class="green" >U</text></g>
<g><text x="341.912" y="54.9758" class="numbering-label sequential" >50</text></g>
<g><line x1="350.736" y1="73.0908" x2="344.886" y2="61.0818" class="numbering-line sequential" /></g>
<g><title>51 (position.label in template: 51.N)</title><text x="384.184" y="79.6781" class="green" >A</text></g>
<g><title>52 (position.label in template: 52.N)</title><text x="402.264" y="103.918" class="green" >G</text></g>
<g><title>53 (position.label in template: 53.N)</title><text x="393.544" y="132.878" class="green" >U</text></g>
<g><title>54 (inserted)</title><text x="397.748" y="149.478" class="red" >A</text></g>
<g><title>55 (position.label in template: 55.C)</title><text x="393.397" y="166.04" class="black" >C</text></g>
<g><title>56 (position.label in template: 56.N)</title><text x="393.997" y="197.12" class="green" >U</text></g>
<g><title>57 (position.label in template: 57.G)</title><text x="392.557" y="226.52" class="green" >G</text></g>
<g><title>58 (position.label in template: 58.A)</title><text x="420.437" y="241.64" class="black" >A</text></g>
<g><title>59 (position.label in template: 59.U)</title><text x="393.397" y="256.76" class="green" >U</text></g>
<g><title>60 (position.label in template: 60.N)</title><text x="393.997" y="287.84" class="green" >G</text></g>
<g><title>61 (position.label in template: 61.N)</title><text x="393.997" y="318.08" class="green" >U</text></g>
<g><title>62 (position.label in template: 62.Y)</title><text x="394.237" y="347.48" class="green" >C</text></g>
<g><title>63 (position.label in template: 63.N)</title><text x="393.997" y="378.56" class="green" >G</text></g>
<g><title>64 (position.label in template: 64.U)</title><text x="393.397" y="407.96" class="green" >U</text></g>
<g><title>65 (position.label in template: 65.N)</title><text x="414.612" y="429.407" class="green" >A</text></g>
<g><title>66 (position.label in template: 66.N)</title><text x="444.779" y="429.407" class="green" >U</text></g>
<g><title>67 (position.label in template: 67.N)</title><text x="474.946" y="429.407" class="green" >A</text></g>
<g><title>68 (position.label in template: 68.N)</title><text x="505.113" y="429.407" class="green" >C</text></g>
<g><title>69 (position.label in template: 69.N)</title><text x="535.279" y="429.407" class="green" >A</text></g>
<g><title>70 (position.label in template: 70.G)</title><text x="565.433" y="428.527" class="black" >G</text></g>
<g><title>71 (position.label in template: 71.R)</title><text x="595.6" y="428.527" class="green" >G</text></g>
<g><title>72 (position.label in template: 72.G)</title><text x="625.767" y="428.527" class="black" >G</text></g>
<g><title>73 (position.label in template: 73.C)</title><text x="655.934" y="428.527" class="black" >C</text></g>
<g><title>74 (position.label in template: 74.N)</title><text x="686.089" y="429.348" class="green" >U</text></g>
<g><title>75 (position.label in template: 75.U)</title><text x="716.244" y="428.494" class="black" >U</text></g>
<g><title>76 (position.label in template: 76.U)</title><text x="746.411" y="428.494" class="black" >U</text></g>
<g><title>77 (position.label in template: 77.U)</title><text x="776.578" y="428.494" class="black" >U</text></g>
<g><title>78 (position.label in template: 78.R)</title><text x="806.744" y="428.494" class="green" >G</text></g>
<g><title>79 (position.label in template: 79.3')</title><text x="836.911" y="428.494" class="green" >3'</text></g>
<g><line x1="27.9745" y1="428.527" x2="41.8587" y2="428.527" class="gray" /></g>
<g><line x1="58.1413" y1="428.527" x2="72.0255" y2="428.527" class="gray" /></g>
<g><line x1="88.3081" y1="428.527" x2="102.192" y2="428.527" class="gray" /></g>
<g><line x1="118.475" y1="428.527" x2="132.359" y2="428.527" class="gray" /></g>
<g><line x1="148.639" y1="428.749" x2="162.518" y2="429.127" class="gray" /></g>
<g><line x1="178.797" y1="429.348" x2="192.681" y2="429.348" class="gray" /></g>
<g><line x1="208.961" y1="429.117" x2="222.839" y2="428.724" class="gray" /></g>
<g><line x1="236.618" y1="422.622" x2="246.237" y2="412.61" class="gray" /></g>
<g><line x1="251.877" y1="398.598" x2="251.877" y2="384.68" class="gray" /></g>
<g><line x1="251.877" y1="368.398" x2="251.877" y2="354.4" class="gray" /></g>
<g><line x1="252.329" y1="338.13" x2="253.106" y2="324.148" class="gray" /></g>
<g><line x1="253.557" y1="307.878" x2="253.557" y2="293.92" class="gray" /></g>
<g><line x1="253.331" y1="277.641" x2="252.943" y2="263.677" class="gray" /></g>
<g><line x1="252.943" y1="247.401" x2="253.331" y2="233.437" class="gray" /></g>
<g><line x1="253.557" y1="217.158" x2="253.557" y2="203.2" class="gray" /></g>
<g><line x1="253.106" y1="186.93" x2="252.329" y2="172.948" class="gray" /></g>
<g><line x1="245.522" y1="159.73" x2="235.152" y2="151.427" class="gray" /></g>
<g><line x1="225.315" y1="138.98" x2="219.2" y2="126.058" class="gray" /></g>
<g><line x1="216.785" y1="110.628" x2="218.529" y2="97.4497" class="gray" /></g>
<g><line x1="224.038" y1="82.5555" x2="231.636" y2="70.8821" class="gray" /></g>
<g><line x1="243.036" y1="59.8328" x2="254.279" y2="53.0048" class="gray" /></g>
<g><line x1="269.379" y1="48.7788" x2="284.176" y2="48.7788" class="gray" /></g>
<g><line x1="299.52" y1="52.5745" x2="312.515" y2="59.4231" class="gray" /></g>
<g><line x1="324.004" y1="70.1404" x2="331.111" y2="81.6172" class="gray" /></g>
<g><line x1="335.829" y1="96.6687" x2="336.566" y2="110.569" class="gray" /></g>
<g><line x1="334.111" y1="126.311" x2="329.084" y2="139.566" class="gray" /></g>
<g><line x1="319.588" y1="151.933" x2="308.286" y2="160.064" class="gray" /></g>
<g><line x1="301.677" y1="172.96" x2="301.677" y2="186.918" class="gray" /></g>
<g><line x1="301.677" y1="203.2" x2="301.677" y2="217.158" class="gray" /></g>
<g><line x1="301.451" y1="233.437" x2="301.063" y2="247.401" class="gray" /></g>
<g><line x1="301.063" y1="263.677" x2="301.451" y2="277.641" class="gray" /></g>
<g><line x1="301.677" y1="293.92" x2="301.677" y2="307.878" class="gray" /></g>
<g><line x1="301.677" y1="324.16" x2="301.677" y2="338.118" class="gray" /></g>
<g><line x1="301.677" y1="354.4" x2="301.677" y2="368.398" class="gray" /></g>
<g><line x1="301.677" y1="384.68" x2="301.677" y2="398.598" class="gray" /></g>
<g><line x1="307.539" y1="412.389" x2="318.016" y2="422.489" class="gray" /></g>
<g><line x1="329.518" y1="422.268" x2="338.797" y2="412.61" class="gray" /></g>
<g><line x1="344.603" y1="398.599" x2="344.871" y2="385.478" class="gray" /></g>
<g><line x1="345.037" y1="369.198" x2="345.037" y2="355.24" class="gray" /></g>
<g><line x1="345.037" y1="338.958" x2="345.037" y2="325" class="gray" /></g>
<g><line x1="345.037" y1="308.718" x2="345.037" y2="294.76" class="gray" /></g>
<g><line x1="345.037" y1="278.478" x2="345.037" y2="264.52" class="gray" /></g>
<g><line x1="345.037" y1="248.238" x2="345.037" y2="234.28" class="gray" /></g>
<g><line x1="345.1" y1="217.998" x2="345.214" y2="203.2" class="gray" /></g>
<g><line x1="338.121" y1="191.178" x2="324.554" y2="183.82" class="gray" /></g>
<g><line x1="324.449" y1="175.869" x2="336.546" y2="168.888" class="gray" /></g>
<g><line x1="341.798" y1="156.879" x2="341.611" y2="156.051" class="gray" /></g>
<g><line x1="342.08" y1="140.291" x2="342.316" y2="139.476" class="gray" /></g>
<g><line x1="342.366" y1="123.824" x2="338.363" y2="109.69" class="gray" /></g>
<g><line x1="341.073" y1="95.3772" x2="349.015" y2="84.9365" class="gray" /></g>
<g><line x1="362.086" y1="78.4569" x2="376.043" y2="78.4569" class="gray" /></g>
<g><line x1="389.052" y1="84.9828" x2="397.397" y2="96.1709" class="gray" /></g>
<g><line x1="399.917" y1="110.492" x2="395.892" y2="123.861" class="gray" /></g>
<g><line x1="395.543" y1="139.549" x2="395.75" y2="140.365" class="gray" /></g>
<g><line x1="395.68" y1="156.131" x2="395.466" y2="156.945" class="gray" /></g>
<g><line x1="393.554" y1="172.959" x2="393.84" y2="187.759" class="gray" /></g>
<g><line x1="393.599" y1="204.03" x2="392.956" y2="217.167" class="gray" /></g>
<g><line x1="399.714" y1="229.18" x2="413.281" y2="236.538" class="gray" /></g>
<g><line x1="413.331" y1="244.392" x2="400.503" y2="251.565" class="gray" /></g>
<g><line x1="393.554" y1="263.679" x2="393.84" y2="278.479" class="gray" /></g>
<g><line x1="393.997" y1="294.76" x2="393.997" y2="308.718" class="gray" /></g>
<g><line x1="394.064" y1="325" x2="394.171" y2="338.118" class="gray" /></g>
<g><line x1="394.174" y1="354.4" x2="394.06" y2="369.198" class="gray" /></g>
<g><line x1="393.831" y1="385.478" x2="393.563" y2="398.599" class="gray" /></g>
<g><line x1="399.123" y1="412.527" x2="408.887" y2="422.397" class="gray" /></g>
<g><line x1="422.754" y1="428.185" x2="436.638" y2="428.185" class="gray" /></g>
<g><line x1="452.92" y1="428.185" x2="466.805" y2="428.185" class="gray" /></g>
<g><line x1="483.087" y1="428.185" x2="496.971" y2="428.185" class="gray" /></g>
<g><line x1="513.254" y1="428.185" x2="527.138" y2="428.185" class="gray" /></g>
<g><line x1="543.417" y1="427.948" x2="557.296" y2="427.543" class="gray" /></g>
<g><line x1="573.575" y1="427.306" x2="587.459" y2="427.306" class="gray" /></g>
<g><line x1="603.741" y1="427.306" x2="617.626" y2="427.306" class="gray" /></g>
<g><line x1="633.908" y1="427.306" x2="647.792" y2="427.306" class="gray" /></g>
<g><line x1="664.072" y1="427.528" x2="677.951" y2="427.906" class="gray" /></g>
<g><line x1="694.227" y1="427.897" x2="708.106" y2="427.503" class="gray" /></g>
<g><line x1="724.385" y1="427.273" x2="738.269" y2="427.273" class="gray" /></g>
<g><line x1="754.552" y1="427.273" x2="768.436" y2="427.273" class="gray" /></g>
<g><line x1="784.719" y1="427.273" x2="798.603" y2="427.273" class="gray" /></g>
<g><line x1="814.886" y1="427.273" x2="828.77" y2="427.273" class="gray" /></g>
</g></svg>
