<svg
	xmlns="http://www.w3.org/2000/svg"
	width="813.114"
	height="936.711">
<g><style type="text/css" >
<!-- create color definitions -->
<![CDATA[
circle.red {stroke: rgb(255, 0, 255); fill: none; }
circle.green {stroke: rgb(0, 255, 0); fill: none; }
circle.blue {stroke: rgb(0, 0, 255); fill: none; }
circle.black {stroke: rgb(0, 0, 0); fill: none; }
circle.gray {stroke: rgb(204, 204, 204); fill: none; }
circle.brown {stroke: rgb(211.65, 104.55, 30.6); fill: none; }
line.red {stroke: rgb(255, 0, 255); stroke-width: 1.52875; }
line.green {stroke: rgb(0, 255, 0); stroke-width: 1.52875; }
line.blue {stroke: rgb(0, 0, 255); stroke-width: 1.52875; }
line.black {stroke: rgb(0, 0, 0); stroke-width: 1.52875; }
line.gray {stroke: rgb(204, 204, 204); stroke-width: 1.52875; }
line.brown {stroke: rgb(211.65, 104.55, 30.6); stroke-width: 1.52875; }
line {stroke: rgb(0, 0, 0); }
text.red {fill: rgb(255, 0, 255); font-size: 12.230000px; font-weight: bold; font-family: Helvetica; }
text.green {fill: rgb(0, 255, 0); font-size: 12.230000px; font-weight: bold; font-family: Helvetica; }
text.blue {fill: rgb(0, 0, 255); font-size: 12.230000px; font-weight: bold; font-family: Helvetica; }
text.black {fill: rgb(0, 0, 0); font-size: 12.230000px; font-weight: bold; font-family: Helvetica; }
text.gray {fill: rgb(204, 204, 204); font-size: 12.230000px; font-weight: bold; font-family: Helvetica; }
text.brown {fill: rgb(211.65, 104.55, 30.6); font-size: 12.230000px; font-weight: bold; font-family: Helvetica; }
text {fill: rgb(0, 0, 0); font-size: 12.230000px; font-weight: bold; font-family: Helvetica; text-anchor: middle; alignment-baseline: middle; }

.pseudoknot_connection{stroke-linecap: round; stroke-opacity: 0.2; stroke-width: 1.5; }
.pseudoknot_segment1{stroke-linecap: round; stroke-opacity: 0.4; stroke-width: 12.23; }
.pseudoknot_segment2{stroke-linecap: round; stroke-opacity: 0.4; stroke-width: 12.23; }
line.numbering-line{stroke: rgb(204, 204, 204); stroke-width: 0.764375; }
line.predicted{stroke: rgb(0, 0, 0); stroke-dasharray: 2; }
polyline{fill: none; stroke-linejoin: round; }
template{visibility: hidden; }
text.numbering-label{fill: rgb(204, 204, 204); }
]]>
</style></g>
<g><title>0 (position.label in template: 0.5')</title><text x="19.7548" y="886.711" class="green" >5'</text></g>
<g><title>1 (position.label in template: 1.C)</title><text x="50" y="886.711" class="black" >C</text></g>
<g><title>2 (position.label in template: 2.C)</title><text x="80.2452" y="886.711" class="black" >C</text></g>
<g><title>3 (position.label in template: 3.A)</title><text x="110.49" y="886.711" class="black" >A</text></g>
<g><title>4 (position.label in template: 4.G)</title><text x="140.736" y="886.711" class="black" >G</text></g>
<g><title>5 (position.label in template: 5.U)</title><text x="170.981" y="886.711" class="black" >U</text></g>
<g><title>6 (position.label in template: 6.G)</title><text x="191.914" y="864.88" class="black" >G</text></g>
<g><line x1="200.067" y1="863.657" x2="233.56" y2="863.657" class="black" /></g>
<g><title>7 (position.label in template: 7.C)</title><text x="192.754" y="834.64" class="black" >C</text></g>
<g><line x1="200.907" y1="833.417" x2="232.72" y2="833.417" class="black" /></g>
<g><title>8 (position.label in template: 8.A)</title><text x="193.594" y="804.4" class="black" >A</text></g>
<g><line x1="201.747" y1="803.177" x2="233.56" y2="803.177" class="black" /></g>
<g><title>9 (position.label in template: 9.G)</title><text x="191.914" y="774.16" class="black" >G</text></g>
<g><line x1="200.067" y1="772.937" x2="233.56" y2="772.937" class="black" /></g>
<g><title>10 (position.label in template: 10.A)</title><text x="193.594" y="743.92" class="black" >A</text></g>
<g><line x1="201.747" y1="742.697" x2="233.56" y2="742.697" class="black" /></g>
<g><text x="166.076" y="743.92" class="numbering-label sequential" >10</text></g>
<g><line x1="186.256" y1="743.92" x2="173.414" y2="743.92" class="numbering-line sequential" /></g>
<g><title>11 (position.label in template: 11.G)</title><text x="191.914" y="713.68" class="black" >G</text></g>
<g><line x1="200.067" y1="712.457" x2="233.56" y2="712.457" class="black" /></g>
<g><title>12 (position.label in template: 12.A)</title><text x="193.594" y="683.44" class="black" >A</text></g>
<g><line x1="201.747" y1="682.217" x2="233.56" y2="682.217" class="black" /></g>
<g><title>13 (position.label in template: 13.A)</title><text x="193.594" y="653.2" class="black" >A</text></g>
<g><line x1="201.747" y1="651.977" x2="233.56" y2="651.977" class="black" /></g>
<g><title>14 (position.label in template: 14.A)</title><text x="193.594" y="622.96" class="black" >A</text></g>
<g><line x1="201.747" y1="621.737" x2="233.56" y2="621.737" class="black" /></g>
<g><title>15 (position.label in template: 15.A)</title><text x="193.594" y="592.72" class="black" >A</text></g>
<g><line x1="201.747" y1="591.497" x2="233.56" y2="591.497" class="black" /></g>
<g><title>16 (position.label in template: 16.U)</title><text x="171.354" y="571.36" class="black" >U</text></g>
<g><title>17 (position.label in template: 17.C)</title><text x="165.434" y="541.72" class="black" >C</text></g>
<g><title>18 (position.label in template: 18.G)</title><text x="176.154" y="513.76" class="black" >G</text></g>
<g><title>19 (position.label in template: 19.G)</title><text x="201.274" y="496.96" class="black" >G</text></g>
<g><title>20 (position.label in template: 20.C)</title><text x="232.354" y="496.96" class="black" >C</text></g>
<g><text x="240.23" y="470.594" class="numbering-label sequential" >20</text></g>
<g><line x1="234.454" y1="489.929" x2="238.403" y2="476.709" class="numbering-line sequential" /></g>
<g><title>21 (position.label in template: 21.C)</title><text x="257.514" y="513.76" class="black" >C</text></g>
<g><title>22 (position.label in template: 22.A)</title><text x="269.874" y="541.72" class="black" >A</text></g>
<g><title>23 (position.label in template: 23.G)</title><text x="262.274" y="571.36" class="black" >G</text></g>
<g><title>24 (position.label in template: 24.U)</title><text x="241.714" y="592.72" class="black" >U</text></g>
<g><title>25 (position.label in template: 25.U)</title><text x="241.714" y="622.96" class="black" >U</text></g>
<g><title>26 (position.label in template: 26.U)</title><text x="241.714" y="653.2" class="black" >U</text></g>
<g><title>27 (position.label in template: 27.U)</title><text x="241.714" y="683.44" class="black" >U</text></g>
<g><title>28 (position.label in template: 28.C)</title><text x="241.714" y="713.68" class="black" >C</text></g>
<g><title>29 (position.label in template: 29.U)</title><text x="241.714" y="743.92" class="black" >U</text></g>
<g><title>30 (position.label in template: 30.C)</title><text x="241.714" y="774.16" class="black" >C</text></g>
<g><text x="269.231" y="774.16" class="numbering-label sequential" >30</text></g>
<g><line x1="249.052" y1="774.16" x2="261.893" y2="774.16" class="numbering-line sequential" /></g>
<g><title>31 (position.label in template: 31.U)</title><text x="241.714" y="804.4" class="black" >U</text></g>
<g><title>32 (position.label in template: 32.G)</title><text x="240.874" y="834.64" class="black" >G</text></g>
<g><title>33 (position.label in template: 33.C)</title><text x="241.714" y="864.88" class="black" >C</text></g>
<g><title>34 (position.label in template: 34.C)</title><text x="263.114" y="886.28" class="black" >C</text></g>
<g><title>35 (position.label in template: 35.U)</title><text x="284.474" y="864.88" class="black" >U</text></g>
<g><line x1="292.627" y1="863.657" x2="325.28" y2="863.657" class="black" /></g>
<g><title>36 (position.label in template: 36.G)</title><text x="283.634" y="834.64" class="black" >G</text></g>
<g><line x1="291.787" y1="833.417" x2="325.28" y2="833.417" class="black" /></g>
<g><title>37 (position.label in template: 37.C)</title><text x="284.474" y="804.4" class="black" >C</text></g>
<g><line x1="292.627" y1="803.177" x2="325.28" y2="803.177" class="black" /></g>
<g><title>38 (position.label in template: 38.A)</title><text x="285.314" y="774.16" class="black" >A</text></g>
<g><line x1="293.467" y1="772.937" x2="324.44" y2="772.937" class="black" /></g>
<g><title>39 (position.label in template: 39.G)</title><text x="283.634" y="743.92" class="black" >G</text></g>
<g><line x1="291.787" y1="742.697" x2="325.28" y2="742.697" class="black" /></g>
<g><title>40 (position.label in template: 40.U)</title><text x="284.474" y="713.68" class="black" >U</text></g>
<g><line x1="292.627" y1="712.457" x2="325.28" y2="712.457" class="black" /></g>
<g><title>41 (position.label in template: 41.C)</title><text x="284.474" y="683.44" class="black" >C</text></g>
<g><line x1="292.627" y1="682.217" x2="326.12" y2="682.217" class="black" /></g>
<g><title>42 (position.label in template: 42.C)</title><text x="284.474" y="653.2" class="black" >C</text></g>
<g><line x1="292.627" y1="651.977" x2="324.44" y2="651.977" class="black" /></g>
<g><title>43 (position.label in template: 43.G)</title><text x="283.634" y="622.96" class="black" >G</text></g>
<g><line x1="291.787" y1="621.737" x2="325.28" y2="621.737" class="black" /></g>
<g><title>44 (position.label in template: 44.C)</title><text x="284.474" y="592.72" class="black" >C</text></g>
<g><line x1="292.627" y1="591.497" x2="324.44" y2="591.497" class="black" /></g>
<g><title>45 (position.label in template: 45.A)</title><text x="259.114" y="577.6" class="black" >A</text></g>
<g><title>46 (position.label in template: 46.U)</title><text x="284.474" y="562.48" class="black" >U</text></g>
<g><line x1="292.627" y1="561.257" x2="326.12" y2="561.257" class="black" /></g>
<g><title>47 (position.label in template: 47.G)</title><text x="283.634" y="532.24" class="black" >G</text></g>
<g><line x1="291.787" y1="531.017" x2="325.28" y2="531.017" class="black" /></g>
<g><title>48 (position.label in template: 48.C)</title><text x="284.474" y="502" class="black" >C</text></g>
<g><line x1="292.627" y1="500.777" x2="324.44" y2="500.777" class="black" /></g>
<g><title>49 (position.label in template: 49.C)</title><text x="255.434" y="493.6" class="black" >C</text></g>
<g><title>50 (position.label in template: 50.G)</title><text x="227.994" y="479.2" class="black" >G</text></g>
<g><text x="212.36" y="501.845" class="numbering-label sequential" >50</text></g>
<g><line x1="223.825" y1="485.239" x2="216.582" y2="495.73" class="numbering-line sequential" /></g>
<g><title>51 (position.label in template: 51.U)</title><text x="205.954" y="459.44" class="black" >U</text></g>
<g><title>52 (position.label in template: 52.A)</title><text x="188.594" y="435.28" class="black" >A</text></g>
<g><title>53 (position.label in template: 53.U)</title><text x="175.194" y="407.76" class="black" >U</text></g>
<g><title>54 (position.label in template: 54.C)</title><text x="168.754" y="378.24" class="black" >C</text></g>
<g><title>55 (position.label in template: 55.G)</title><text x="167.914" y="348" class="black" >G</text></g>
<g><title>56 (position.label in template: 56.G)</title><text x="174.354" y="318.44" class="black" >G</text></g>
<g><title>57 (position.label in template: 57.G)</title><text x="186.954" y="290.96" class="black" >G</text></g>
<g><title>58 (position.label in template: 58.C)</title><text x="205.954" y="266.76" class="black" >C</text></g>
<g><title>59 (position.label in template: 59.C)</title><text x="228.834" y="247.04" class="black" >C</text></g>
<g><title>60 (position.label in template: 60.U)</title><text x="255.434" y="232.6" class="black" >U</text></g>
<g><title>61 (position.label in template: 61.U)</title><text x="284.474" y="224.2" class="black" >U</text></g>
<g><line x1="292.627" y1="222.977" x2="324.44" y2="222.977" class="black" /></g>
<g><title>62 (position.label in template: 62.G)</title><text x="283.634" y="193.96" class="black" >G</text></g>
<g><line x1="291.787" y1="192.737" x2="325.28" y2="192.737" class="black" /></g>
<g><title>63 (position.label in template: 63.G)</title><text x="283.634" y="163.72" class="black" >G</text></g>
<g><line x1="291.787" y1="162.497" x2="325.28" y2="162.497" class="black" /></g>
<g><title>64 (position.label in template: 64.G)</title><text x="283.634" y="133.48" class="black" >G</text></g>
<g><line x1="291.787" y1="132.257" x2="325.28" y2="132.257" class="black" /></g>
<g><title>65 (position.label in template: 65.U)</title><text x="284.474" y="103.24" class="black" >U</text></g>
<g><line x1="292.627" y1="102.017" x2="326.12" y2="102.017" class="black" /></g>
<g><title>66 (position.label in template: 66.U)</title><text x="275.794" y="74.28" class="black" >U</text></g>
<g><title>67 (position.label in template: 67.C)</title><text x="293.834" y="50" class="black" >C</text></g>
<g><title>68 (position.label in template: 68.U)</title><text x="324.074" y="50" class="black" >U</text></g>
<g><title>69 (position.label in template: 69.A)</title><text x="342.954" y="74.28" class="black" >A</text></g>
<g><title>70 (position.label in template: 70.A)</title><text x="334.274" y="103.24" class="black" >A</text></g>
<g><title>71 (position.label in template: 71.C)</title><text x="333.434" y="133.48" class="black" >C</text></g>
<g><title>72 (position.label in template: 72.C)</title><text x="333.434" y="163.72" class="black" >C</text></g>
<g><title>73 (position.label in template: 73.U)</title><text x="333.434" y="193.96" class="black" >U</text></g>
<g><title>74 (position.label in template: 74.G)</title><text x="332.594" y="224.2" class="black" >G</text></g>
<g><title>75 (position.label in template: 75.U)</title><text x="363.634" y="225.6" class="black" >U</text></g>
<g><title>76 (position.label in template: 76.U)</title><text x="392.834" y="233.52" class="black" >U</text></g>
<g><title>77 (position.label in template: 77.G)</title><text x="418.794" y="247.56" class="black" >G</text></g>
<g><title>78 (position.label in template: 78.C)</title><text x="442.754" y="267.04" class="black" >C</text></g>
<g><title>79 (position.label in template: 79.G)</title><text x="460.314" y="291.04" class="black" >G</text></g>
<g><title>80 (position.label in template: 80.U)</title><text x="473.914" y="318.44" class="black" >U</text></g>
<g><title>81 (position.label in template: 81.A)</title><text x="481.234" y="348" class="black" >A</text></g>
<g><title>82 (position.label in template: 82.G)</title><text x="479.594" y="378.24" class="black" >G</text></g>
<g><title>83 (position.label in template: 83.A)</title><text x="474.714" y="407.76" class="black" >A</text></g>
<g><title>84 (position.label in template: 84.U)</title><text x="461.154" y="435.16" class="black" >U</text></g>
<g><title>85 (position.label in template: 85.U)</title><text x="442.754" y="459.2" class="black" >U</text></g>
<g><title>86 (position.label in template: 86.U)</title><text x="419.634" y="478.68" class="black" >U</text></g>
<g><title>87 (position.label in template: 87.A)</title><text x="393.674" y="492.68" class="black" >A</text></g>
<g><title>88 (position.label in template: 88.U)</title><text x="363.634" y="500.6" class="black" >U</text></g>
<g><title>89 (position.label in template: 89.G)</title><text x="332.594" y="502" class="black" >G</text></g>
<g><title>90 (position.label in template: 90.C)</title><text x="333.434" y="532.24" class="black" >C</text></g>
<g><title>91 (position.label in template: 91.A)</title><text x="334.274" y="562.48" class="black" >A</text></g>
<g><title>92 (position.label in template: 92.G)</title><text x="332.594" y="592.72" class="black" >G</text></g>
<g><title>93 (position.label in template: 93.C)</title><text x="333.434" y="622.96" class="black" >C</text></g>
<g><title>94 (position.label in template: 94.G)</title><text x="358.794" y="638.08" class="black" >G</text></g>
<g><title>95 (position.label in template: 95.G)</title><text x="332.594" y="653.2" class="black" >G</text></g>
<g><title>96 (position.label in template: 96.A)</title><text x="334.274" y="683.44" class="black" >A</text></g>
<g><title>97 (position.label in template: 97.C)</title><text x="333.434" y="713.68" class="black" >C</text></g>
<g><title>98 (position.label in template: 98.U)</title><text x="333.434" y="743.92" class="black" >U</text></g>
<g><title>99 (position.label in template: 99.G)</title><text x="332.594" y="774.16" class="black" >G</text></g>
<g><title>100 (position.label in template: 100.C)</title><text x="333.434" y="804.4" class="black" >C</text></g>
<g><text x="360.949" y="804.018" class="numbering-label sequential" >100</text></g>
<g><line x1="340.771" y1="804.298" x2="349.942" y2="804.171" class="numbering-line sequential" /></g>
<g><title>101 (position.label in template: 101.C)</title><text x="333.434" y="834.64" class="black" >C</text></g>
<g><title>102 (position.label in template: 102.U)</title><text x="333.434" y="864.88" class="black" >U</text></g>
<g><title>103 (position.label in template: 103.U)</title><text x="354.834" y="886.28" class="black" >U</text></g>
<g><title>104 (position.label in template: 104.U)</title><text x="385.074" y="886.28" class="black" >U</text></g>
<g><title>105 (position.label in template: 105.C)</title><text x="415.314" y="886.28" class="black" >C</text></g>
<g><title>106 (position.label in template: 106.U)</title><text x="445.554" y="886.28" class="black" >U</text></g>
<g><title>107 (position.label in template: 107.C)</title><text x="475.794" y="886.28" class="black" >C</text></g>
<g><title>108 (position.label in template: 108.C)</title><text x="506.034" y="886.28" class="black" >C</text></g>
<g><title>109 (position.label in template: 109.C)</title><text x="536.274" y="886.28" class="black" >C</text></g>
<g><title>110 (position.label in template: 110.A)</title><text x="558.474" y="864.88" class="black" >A</text></g>
<g><line x1="566.627" y1="863.657" x2="598.44" y2="863.657" class="black" /></g>
<g><title>111 (position.label in template: 111.A)</title><text x="546.074" y="837.32" class="black" >A</text></g>
<g><title>112 (position.label in template: 112.A)</title><text x="558.474" y="809.72" class="black" >A</text></g>
<g><line x1="566.627" y1="808.497" x2="598.44" y2="808.497" class="black" /></g>
<g><title>113 (position.label in template: 113.G)</title><text x="556.794" y="779.48" class="black" >G</text></g>
<g><line x1="564.947" y1="778.257" x2="598.44" y2="778.257" class="black" /></g>
<g><title>114 (position.label in template: 114.U)</title><text x="557.634" y="749.24" class="black" >U</text></g>
<g><line x1="565.787" y1="748.017" x2="599.28" y2="748.017" class="black" /></g>
<g><title>115 (position.label in template: 115.G)</title><text x="556.794" y="719" class="black" >G</text></g>
<g><line x1="564.947" y1="717.777" x2="598.44" y2="717.777" class="black" /></g>
<g><title>116 (position.label in template: 116.A)</title><text x="528.274" y="717.32" class="black" >A</text></g>
<g><title>117 (position.label in template: 117.U)</title><text x="506.674" y="695.32" class="black" >U</text></g>
<g><title>118 (position.label in template: 118.A)</title><text x="507.514" y="665.08" class="black" >A</text></g>
<g><title>119 (position.label in template: 119.A)</title><text x="528.274" y="643.12" class="black" >A</text></g>
<g><title>120 (position.label in template: 120.A)</title><text x="558.474" y="641.44" class="black" >A</text></g>
<g><line x1="566.627" y1="640.217" x2="598.44" y2="640.217" class="black" /></g>
<g><title>121 (position.label in template: 121.C)</title><text x="557.634" y="611.2" class="black" >C</text></g>
<g><line x1="565.787" y1="609.977" x2="597.6" y2="609.977" class="black" /></g>
<g><title>122 (position.label in template: 122.C)</title><text x="557.634" y="580.96" class="black" >C</text></g>
<g><line x1="565.787" y1="579.737" x2="597.6" y2="579.737" class="black" /></g>
<g><title>123 (position.label in template: 123.G)</title><text x="527.594" y="573.08" class="black" >G</text></g>
<g><title>124 (position.label in template: 124.G)</title><text x="500.594" y="559.52" class="black" >G</text></g>
<g><title>125 (position.label in template: 125.A)</title><text x="478.474" y="540.84" class="black" >A</text></g>
<g><title>126 (position.label in template: 126.C)</title><text x="458.074" y="517.76" class="black" >C</text></g>
<g><title>127 (position.label in template: 127.A)</title><text x="444.314" y="491.28" class="black" >A</text></g>
<g><title>128 (position.label in template: 128.G)</title><text x="433.674" y="462.4" class="black" >G</text></g>
<g><title>129 (position.label in template: 129.U)</title><text x="431.474" y="432.32" class="black" >U</text></g>
<g><title>130 (position.label in template: 130.A)</title><text x="435.354" y="402.2" class="black" >A</text></g>
<g><title>131 (position.label in template: 131.U)</title><text x="443.514" y="373.36" class="black" >U</text></g>
<g><title>132 (position.label in template: 132.C)</title><text x="458.074" y="346.84" class="black" >C</text></g>
<g><title>133 (position.label in template: 133.A)</title><text x="478.474" y="323.8" class="black" >A</text></g>
<g><title>134 (position.label in template: 134.U)</title><text x="501.434" y="305.12" class="black" >U</text></g>
<g><title>135 (position.label in template: 135.G)</title><text x="527.594" y="291.56" class="black" >G</text></g>
<g><title>136 (position.label in template: 136.G)</title><text x="556.794" y="283.68" class="black" >G</text></g>
<g><line x1="564.947" y1="282.457" x2="598.44" y2="282.457" class="black" /></g>
<g><title>137 (position.label in template: 137.A)</title><text x="558.474" y="253.44" class="black" >A</text></g>
<g><line x1="566.627" y1="252.217" x2="598.44" y2="252.217" class="black" /></g>
<g><title>138 (position.label in template: 138.C)</title><text x="557.634" y="223.2" class="black" >C</text></g>
<g><line x1="565.787" y1="221.977" x2="597.6" y2="221.977" class="black" /></g>
<g><title>139 (position.label in template: 139.C)</title><text x="557.634" y="192.96" class="black" >C</text></g>
<g><line x1="565.787" y1="191.737" x2="597.6" y2="191.737" class="black" /></g>
<g><title>140 (position.label in template: 140.G)</title><text x="556.794" y="162.72" class="black" >G</text></g>
<g><line x1="564.947" y1="161.497" x2="598.44" y2="161.497" class="black" /></g>
<g><title>141 (position.label in template: 141.G)</title><text x="556.794" y="132.48" class="black" >G</text></g>
<g><line x1="564.947" y1="131.257" x2="598.44" y2="131.257" class="black" /></g>
<g><title>142 (position.label in template: 142.U)</title><text x="544.034" y="105.44" class="black" >U</text></g>
<g><title>143 (position.label in template: 143.U)</title><text x="554.354" y="77.04" class="black" >U</text></g>
<g><title>144 (position.label in template: 144.U)</title><text x="582.114" y="65.04" class="black" >U</text></g>
<g><title>145 (position.label in template: 145.U)</title><text x="609.874" y="77.04" class="black" >U</text></g>
<g><title>146 (position.label in template: 146.C)</title><text x="620.234" y="105.44" class="black" >C</text></g>
<g><title>147 (position.label in template: 147.C)</title><text x="606.594" y="132.48" class="black" >C</text></g>
<g><title>148 (position.label in template: 148.C)</title><text x="606.594" y="162.72" class="black" >C</text></g>
<g><title>149 (position.label in template: 149.G)</title><text x="605.754" y="192.96" class="black" >G</text></g>
<g><title>150 (position.label in template: 150.G)</title><text x="605.754" y="223.2" class="black" >G</text></g>
<g><text x="633.269" y="222.818" class="numbering-label sequential" >150</text></g>
<g><line x1="613.091" y1="223.098" x2="622.262" y2="222.971" class="numbering-line sequential" /></g>
<g><title>151 (position.label in template: 151.U)</title><text x="606.594" y="253.44" class="black" >U</text></g>
<g><title>152 (position.label in template: 152.A)</title><text x="636.194" y="244.08" class="black" >A</text></g>
<g><title>153 (position.label in template: 153.A)</title><text x="653.954" y="268.56" class="black" >A</text></g>
<g><title>154 (position.label in template: 154.U)</title><text x="635.354" y="293" class="black" >U</text></g>
<g><title>155 (position.label in template: 155.C)</title><text x="606.594" y="283.68" class="black" >C</text></g>
<g><title>156 (position.label in template: 156.C)</title><text x="636.834" y="285.04" class="black" >C</text></g>
<g><title>157 (position.label in template: 157.G)</title><text x="665.274" y="292.44" class="black" >G</text></g>
<g><title>158 (position.label in template: 158.U)</title><text x="693.354" y="305.64" class="black" >U</text></g>
<g><title>159 (position.label in template: 159.A)</title><text x="718.154" y="324.08" class="black" >A</text></g>
<g><title>160 (position.label in template: 160.U)</title><text x="737.074" y="346.96" class="black" >U</text></g>
<g><title>161 (position.label in template: 161.U)</title><text x="751.794" y="373.4" class="black" >U</text></g>
<g><title>162 (position.label in template: 162.U)</title><text x="760.874" y="402.2" class="black" >U</text></g>
<g><title>163 (position.label in template: 163.G)</title><text x="763.114" y="432.32" class="black" >G</text></g>
<g><title>164 (position.label in template: 164.C)</title><text x="760.874" y="462.4" class="black" >C</text></g>
<g><title>165 (position.label in template: 165.A)</title><text x="752.634" y="491.24" class="black" >A</text></g>
<g><title>166 (position.label in template: 166.A)</title><text x="737.914" y="517.64" class="black" >A</text></g>
<g><title>167 (position.label in template: 167.G)</title><text x="716.474" y="540.52" class="black" >G</text></g>
<g><title>168 (position.label in template: 168.G)</title><text x="692.514" y="558.96" class="black" >G</text></g>
<g><title>169 (position.label in template: 169.U)</title><text x="666.114" y="572.16" class="black" >U</text></g>
<g><title>170 (position.label in template: 170.U)</title><text x="636.834" y="579.6" class="black" >U</text></g>
<g><title>171 (position.label in template: 171.G)</title><text x="605.754" y="580.96" class="black" >G</text></g>
<g><title>172 (position.label in template: 172.G)</title><text x="605.754" y="611.2" class="black" >G</text></g>
<g><title>173 (position.label in template: 173.U)</title><text x="606.594" y="641.44" class="black" >U</text></g>
<g><title>174 (position.label in template: 174.U)</title><text x="625.434" y="665.08" class="black" >U</text></g>
<g><title>175 (position.label in template: 175.U)</title><text x="625.434" y="695.32" class="black" >U</text></g>
<g><title>176 (position.label in template: 176.C)</title><text x="606.594" y="719" class="black" >C</text></g>
<g><title>177 (position.label in template: 177.A)</title><text x="607.434" y="749.24" class="black" >A</text></g>
<g><title>178 (position.label in template: 178.C)</title><text x="606.594" y="779.48" class="black" >C</text></g>
<g><title>179 (position.label in template: 179.U)</title><text x="606.594" y="809.72" class="black" >U</text></g>
<g><title>180 (position.label in template: 180.A)</title><text x="619.834" y="837.32" class="black" >A</text></g>
<g><title>181 (position.label in template: 181.U)</title><text x="606.594" y="864.88" class="black" >U</text></g>
<g><title>182 (position.label in template: 182.G)</title><text x="627.548" y="886.69" class="black" >G</text></g>
<g><title>183 (position.label in template: 183.G)</title><text x="657.793" y="886.69" class="black" >G</text></g>
<g><title>184 (position.label in template: 184.A)</title><text x="688.038" y="886.69" class="black" >A</text></g>
<g><title>185 (position.label in template: 185.A)</title><text x="718.284" y="886.69" class="black" >A</text></g>
<g><title>186 (position.label in template: 186.3')</title><text x="748.529" y="886.69" class="green" >3'</text></g>
<g><line x1="27.9081" y1="885.488" x2="41.8467" y2="885.488" class="gray" /></g>
<g><line x1="58.1533" y1="885.488" x2="72.0919" y2="885.488" class="gray" /></g>
<g><line x1="88.3985" y1="885.488" x2="102.337" y2="885.488" class="gray" /></g>
<g><line x1="118.644" y1="885.488" x2="132.582" y2="885.488" class="gray" /></g>
<g><line x1="148.889" y1="885.488" x2="162.827" y2="885.488" class="gray" /></g>
<g><line x1="176.624" y1="879.603" x2="186.271" y2="869.542" class="gray" /></g>
<g><line x1="192.14" y1="855.507" x2="192.527" y2="841.567" class="gray" /></g>
<g><line x1="192.98" y1="825.267" x2="193.367" y2="811.327" class="gray" /></g>
<g><line x1="193.142" y1="795.036" x2="192.366" y2="781.078" class="gray" /></g>
<g><line x1="192.366" y1="764.796" x2="193.142" y2="750.838" class="gray" /></g>
<g><line x1="193.142" y1="734.556" x2="192.366" y2="720.598" class="gray" /></g>
<g><line x1="192.366" y1="704.316" x2="193.142" y2="690.358" class="gray" /></g>
<g><line x1="193.594" y1="674.064" x2="193.594" y2="660.13" class="gray" /></g>
<g><line x1="193.594" y1="643.824" x2="193.594" y2="629.89" class="gray" /></g>
<g><line x1="193.594" y1="613.584" x2="193.594" y2="599.65" class="gray" /></g>
<g><line x1="187.713" y1="585.849" x2="177.234" y2="575.785" class="gray" /></g>
<g><line x1="169.757" y1="562.142" x2="167.031" y2="548.492" class="gray" /></g>
<g><line x1="168.353" y1="532.884" x2="173.235" y2="520.15" class="gray" /></g>
<g><line x1="182.931" y1="508.004" x2="194.496" y2="500.27" class="gray" /></g>
<g><line x1="209.427" y1="495.737" x2="224.2" y2="495.737" class="gray" /></g>
<g><line x1="239.134" y1="500.265" x2="250.733" y2="508.009" class="gray" /></g>
<g><line x1="260.81" y1="519.994" x2="266.577" y2="533.04" class="gray" /></g>
<g><line x1="267.849" y1="548.395" x2="264.299" y2="562.239" class="gray" /></g>
<g><line x1="256.62" y1="576.011" x2="247.368" y2="585.623" class="gray" /></g>
<g><line x1="241.714" y1="599.65" x2="241.714" y2="613.584" class="gray" /></g>
<g><line x1="241.714" y1="629.89" x2="241.714" y2="643.824" class="gray" /></g>
<g><line x1="241.714" y1="660.13" x2="241.714" y2="674.064" class="gray" /></g>
<g><line x1="241.714" y1="690.37" x2="241.714" y2="704.304" class="gray" /></g>
<g><line x1="241.714" y1="720.61" x2="241.714" y2="734.544" class="gray" /></g>
<g><line x1="241.714" y1="750.85" x2="241.714" y2="764.784" class="gray" /></g>
<g><line x1="241.714" y1="781.09" x2="241.714" y2="795.024" class="gray" /></g>
<g><line x1="241.487" y1="811.327" x2="241.1" y2="825.267" class="gray" /></g>
<g><line x1="241.1" y1="841.567" x2="241.487" y2="855.507" class="gray" /></g>
<g><line x1="247.479" y1="869.422" x2="257.349" y2="879.292" class="gray" /></g>
<g><line x1="268.874" y1="879.286" x2="278.714" y2="869.428" class="gray" /></g>
<g><line x1="284.247" y1="855.507" x2="283.86" y2="841.567" class="gray" /></g>
<g><line x1="283.86" y1="825.267" x2="284.247" y2="811.327" class="gray" /></g>
<g><line x1="284.7" y1="795.027" x2="285.087" y2="781.087" class="gray" /></g>
<g><line x1="284.862" y1="764.796" x2="284.086" y2="750.838" class="gray" /></g>
<g><line x1="283.86" y1="734.547" x2="284.247" y2="720.607" class="gray" /></g>
<g><line x1="284.474" y1="704.304" x2="284.474" y2="690.37" class="gray" /></g>
<g><line x1="284.474" y1="674.064" x2="284.474" y2="660.13" class="gray" /></g>
<g><line x1="284.247" y1="643.827" x2="283.86" y2="629.887" class="gray" /></g>
<g><line x1="283.86" y1="613.587" x2="284.247" y2="599.647" class="gray" /></g>
<g><line x1="277.471" y1="587.322" x2="266.117" y2="580.552" class="gray" /></g>
<g><line x1="266.117" y1="572.202" x2="277.471" y2="565.432" class="gray" /></g>
<g><line x1="284.247" y1="553.107" x2="283.86" y2="539.167" class="gray" /></g>
<g><line x1="283.86" y1="522.867" x2="284.247" y2="508.927" class="gray" /></g>
<g><line x1="276.642" y1="498.511" x2="263.266" y2="494.643" class="gray" /></g>
<g><line x1="248.214" y1="488.588" x2="235.213" y2="481.766" class="gray" /></g>
<g><line x1="221.923" y1="472.534" x2="212.025" y2="463.66" class="gray" /></g>
<g><line x1="201.196" y1="451.596" x2="193.351" y2="440.678" class="gray" /></g>
<g><line x1="185.024" y1="426.726" x2="178.763" y2="413.868" class="gray" /></g>
<g><line x1="173.456" y1="398.571" x2="170.492" y2="384.983" class="gray" /></g>
<g><line x1="168.527" y1="368.867" x2="168.14" y2="354.927" class="gray" /></g>
<g><line x1="169.649" y1="338.811" x2="172.618" y2="325.183" class="gray" /></g>
<g><line x1="177.752" y1="309.806" x2="183.556" y2="297.148" class="gray" /></g>
<g><line x1="191.989" y1="283.324" x2="200.919" y2="271.95" class="gray" /></g>
<g><line x1="212.13" y1="260.214" x2="222.658" y2="251.14" class="gray" /></g>
<g><line x1="235.999" y1="241.927" x2="248.268" y2="235.267" class="gray" /></g>
<g><line x1="263.266" y1="229.111" x2="276.642" y2="225.243" class="gray" /></g>
<g><line x1="284.247" y1="214.827" x2="283.86" y2="200.887" class="gray" /></g>
<g><line x1="283.634" y1="184.584" x2="283.634" y2="170.65" class="gray" /></g>
<g><line x1="283.634" y1="154.344" x2="283.634" y2="140.41" class="gray" /></g>
<g><line x1="283.86" y1="124.107" x2="284.247" y2="110.167" class="gray" /></g>
<g><line x1="282.133" y1="94.2069" x2="278.135" y2="80.8671" class="gray" /></g>
<g><line x1="280.656" y1="66.5124" x2="288.971" y2="55.3216" class="gray" /></g>
<g><line x1="301.987" y1="48.777" x2="315.92" y2="48.777" class="gray" /></g>
<g><line x1="329.079" y1="55.2134" x2="337.949" y2="66.6206" class="gray" /></g>
<g><line x1="340.613" y1="80.8671" x2="336.615" y2="94.2069" class="gray" /></g>
<g><line x1="334.047" y1="110.167" x2="333.66" y2="124.107" class="gray" /></g>
<g><line x1="333.434" y1="140.41" x2="333.434" y2="154.344" class="gray" /></g>
<g><line x1="333.434" y1="170.65" x2="333.434" y2="184.584" class="gray" /></g>
<g><line x1="333.207" y1="200.887" x2="332.82" y2="214.827" class="gray" /></g>
<g><line x1="340.739" y1="223.344" x2="355.489" y2="224.01" class="gray" /></g>
<g><line x1="371.503" y1="226.511" x2="384.965" y2="230.163" class="gray" /></g>
<g><line x1="400.005" y1="236.176" x2="411.622" y2="242.458" class="gray" /></g>
<g><line x1="425.12" y1="251.48" x2="436.427" y2="260.674" class="gray" /></g>
<g><line x1="447.568" y1="272.397" x2="455.499" y2="283.237" class="gray" /></g>
<g><line x1="463.939" y1="297.12" x2="470.289" y2="309.914" class="gray" /></g>
<g><line x1="475.874" y1="325.131" x2="479.274" y2="338.863" class="gray" /></g>
<g><line x1="480.792" y1="354.918" x2="480.035" y2="368.876" class="gray" /></g>
<g><line x1="478.264" y1="385.061" x2="476.044" y2="398.493" class="gray" /></g>
<g><line x1="471.097" y1="413.844" x2="464.77" y2="426.63" class="gray" /></g>
<g><line x1="456.198" y1="440.412" x2="447.709" y2="451.502" class="gray" /></g>
<g><line x1="436.519" y1="463.231" x2="425.869" y2="472.203" class="gray" /></g>
<g><line x1="412.458" y1="481.327" x2="400.85" y2="487.587" class="gray" /></g>
<g><line x1="385.79" y1="493.536" x2="371.518" y2="497.298" class="gray" /></g>
<g><line x1="355.489" y1="499.744" x2="340.739" y2="500.41" class="gray" /></g>
<g><line x1="332.82" y1="508.927" x2="333.207" y2="522.867" class="gray" /></g>
<g><line x1="333.66" y1="539.167" x2="334.047" y2="553.107" class="gray" /></g>
<g><line x1="333.822" y1="569.398" x2="333.046" y2="583.356" class="gray" /></g>
<g><line x1="332.82" y1="599.647" x2="333.207" y2="613.587" class="gray" /></g>
<g><line x1="340.437" y1="625.912" x2="351.791" y2="632.682" class="gray" /></g>
<g><line x1="351.732" y1="640.932" x2="339.656" y2="647.902" class="gray" /></g>
<g><line x1="333.046" y1="660.118" x2="333.822" y2="674.076" class="gray" /></g>
<g><line x1="334.047" y1="690.367" x2="333.66" y2="704.307" class="gray" /></g>
<g><line x1="333.434" y1="720.61" x2="333.434" y2="734.544" class="gray" /></g>
<g><line x1="333.207" y1="750.847" x2="332.82" y2="764.787" class="gray" /></g>
<g><line x1="332.82" y1="781.087" x2="333.207" y2="795.027" class="gray" /></g>
<g><line x1="333.434" y1="811.33" x2="333.434" y2="825.264" class="gray" /></g>
<g><line x1="333.434" y1="841.57" x2="333.434" y2="855.504" class="gray" /></g>
<g><line x1="339.199" y1="869.422" x2="349.069" y2="879.292" class="gray" /></g>
<g><line x1="362.987" y1="885.057" x2="376.92" y2="885.057" class="gray" /></g>
<g><line x1="393.227" y1="885.057" x2="407.16" y2="885.057" class="gray" /></g>
<g><line x1="423.467" y1="885.057" x2="437.4" y2="885.057" class="gray" /></g>
<g><line x1="453.707" y1="885.057" x2="467.64" y2="885.057" class="gray" /></g>
<g><line x1="483.947" y1="885.057" x2="497.88" y2="885.057" class="gray" /></g>
<g><line x1="514.187" y1="885.057" x2="528.12" y2="885.057" class="gray" /></g>
<g><line x1="542.144" y1="879.398" x2="552.604" y2="869.316" class="gray" /></g>
<g><line x1="555.128" y1="856.222" x2="549.419" y2="843.532" class="gray" /></g>
<g><line x1="549.415" y1="828.66" x2="555.132" y2="815.934" class="gray" /></g>
<g><line x1="558.022" y1="800.356" x2="557.246" y2="786.398" class="gray" /></g>
<g><line x1="557.02" y1="770.107" x2="557.407" y2="756.167" class="gray" /></g>
<g><line x1="557.407" y1="739.867" x2="557.02" y2="725.927" class="gray" /></g>
<g><line x1="548.655" y1="717.298" x2="536.413" y2="716.576" class="gray" /></g>
<g><line x1="522.562" y1="710.279" x2="512.386" y2="699.915" class="gray" /></g>
<g><line x1="506.9" y1="685.947" x2="507.287" y2="672.007" class="gray" /></g>
<g><line x1="513.115" y1="657.932" x2="522.673" y2="647.822" class="gray" /></g>
<g><line x1="536.415" y1="641.444" x2="550.333" y2="640.67" class="gray" /></g>
<g><line x1="558.247" y1="632.067" x2="557.86" y2="618.127" class="gray" /></g>
<g><line x1="557.634" y1="601.824" x2="557.634" y2="587.89" class="gray" /></g>
<g><line x1="549.747" y1="577.668" x2="535.48" y2="573.926" class="gray" /></g>
<g><line x1="520.308" y1="568.198" x2="507.88" y2="561.956" class="gray" /></g>
<g><line x1="494.365" y1="553.036" x2="484.703" y2="544.878" class="gray" /></g>
<g><line x1="473.074" y1="533.508" x2="463.473" y2="522.646" class="gray" /></g>
<g><line x1="454.314" y1="509.302" x2="448.073" y2="497.292" class="gray" /></g>
<g><line x1="441.495" y1="482.406" x2="436.492" y2="468.828" class="gray" /></g>
<g><line x1="433.079" y1="453.045" x2="432.069" y2="439.229" class="gray" /></g>
<g><line x1="432.515" y1="423.01" x2="434.312" y2="409.064" class="gray" /></g>
<g><line x1="437.574" y1="393.132" x2="441.294" y2="379.982" class="gray" /></g>
<g><line x1="447.438" y1="364.99" x2="454.15" y2="352.764" class="gray" /></g>
<g><line x1="463.479" y1="339.513" x2="473.069" y2="328.681" class="gray" /></g>
<g><line x1="484.798" y1="317.431" x2="495.109" y2="309.043" class="gray" /></g>
<g><line x1="508.672" y1="300.145" x2="520.355" y2="294.089" class="gray" /></g>
<g><line x1="535.466" y1="288.213" x2="548.922" y2="284.581" class="gray" /></g>
<g><line x1="557.246" y1="274.316" x2="558.022" y2="260.358" class="gray" /></g>
<g><line x1="558.247" y1="244.067" x2="557.86" y2="230.127" class="gray" /></g>
<g><line x1="557.634" y1="213.824" x2="557.634" y2="199.89" class="gray" /></g>
<g><line x1="557.407" y1="183.587" x2="557.02" y2="169.647" class="gray" /></g>
<g><line x1="556.794" y1="153.344" x2="556.794" y2="139.41" class="gray" /></g>
<g><line x1="553.314" y1="123.883" x2="547.513" y2="111.591" class="gray" /></g>
<g><line x1="546.818" y1="96.5539" x2="551.569" y2="83.4801" class="gray" /></g>
<g><line x1="561.838" y1="72.5818" x2="574.63" y2="67.0522" class="gray" /></g>
<g><line x1="589.598" y1="67.0522" x2="602.39" y2="72.5818" class="gray" /></g>
<g><line x1="612.668" y1="83.4766" x2="617.44" y2="96.5574" class="gray" /></g>
<g><line x1="616.562" y1="111.497" x2="610.266" y2="123.977" class="gray" /></g>
<g><line x1="606.594" y1="139.41" x2="606.594" y2="153.344" class="gray" /></g>
<g><line x1="606.367" y1="169.647" x2="605.98" y2="183.587" class="gray" /></g>
<g><line x1="605.754" y1="199.89" x2="605.754" y2="213.824" class="gray" /></g>
<g><line x1="605.98" y1="230.127" x2="606.367" y2="244.067" class="gray" /></g>
<g><line x1="614.368" y1="249.759" x2="628.42" y2="245.315" class="gray" /></g>
<g><line x1="640.982" y1="249.456" x2="649.166" y2="260.738" class="gray" /></g>
<g><line x1="649.016" y1="273.825" x2="640.292" y2="285.289" class="gray" /></g>
<g><line x1="627.598" y1="289.264" x2="614.35" y2="284.97" class="gray" /></g>
<g><line x1="614.739" y1="282.823" x2="628.689" y2="283.451" class="gray" /></g>
<g><line x1="644.724" y1="285.87" x2="657.383" y2="289.164" class="gray" /></g>
<g><line x1="672.653" y1="294.686" x2="685.975" y2="300.948" class="gray" /></g>
<g><line x1="699.897" y1="309.282" x2="711.611" y2="317.992" class="gray" /></g>
<g><line x1="723.35" y1="329.14" x2="731.878" y2="339.454" class="gray" /></g>
<g><line x1="741.04" y1="352.861" x2="747.828" y2="365.053" class="gray" /></g>
<g><line x1="754.245" y1="379.953" x2="758.422" y2="393.201" class="gray" /></g>
<g><line x1="761.478" y1="409.108" x2="762.509" y2="422.966" class="gray" /></g>
<g><line x1="762.508" y1="439.228" x2="761.479" y2="453.046" class="gray" /></g>
<g><line x1="758.634" y1="469.017" x2="754.874" y2="482.177" class="gray" /></g>
<g><line x1="748.663" y1="497.138" x2="741.884" y2="509.296" class="gray" /></g>
<g><line x1="732.339" y1="522.366" x2="722.049" y2="533.348" class="gray" /></g>
<g><line x1="710.012" y1="544.27" x2="698.975" y2="552.764" class="gray" /></g>
<g><line x1="685.221" y1="561.383" x2="673.406" y2="567.291" class="gray" /></g>
<g><line x1="658.212" y1="572.945" x2="644.736" y2="576.369" class="gray" /></g>
<g><line x1="628.688" y1="578.733" x2="613.899" y2="579.381" class="gray" /></g>
<g><line x1="605.754" y1="587.89" x2="605.754" y2="601.824" class="gray" /></g>
<g><line x1="605.98" y1="618.127" x2="606.367" y2="632.067" class="gray" /></g>
<g><line x1="611.675" y1="646.593" x2="620.352" y2="657.481" class="gray" /></g>
<g><line x1="625.434" y1="672.01" x2="625.434" y2="685.944" class="gray" /></g>
<g><line x1="620.358" y1="700.477" x2="611.67" y2="711.397" class="gray" /></g>
<g><line x1="606.82" y1="725.927" x2="607.207" y2="739.867" class="gray" /></g>
<g><line x1="607.207" y1="756.167" x2="606.82" y2="770.107" class="gray" /></g>
<g><line x1="606.594" y1="786.41" x2="606.594" y2="800.344" class="gray" /></g>
<g><line x1="610.12" y1="815.848" x2="616.307" y2="828.746" class="gray" /></g>
<g><line x1="616.303" y1="843.446" x2="610.124" y2="856.308" class="gray" /></g>
<g><line x1="612.243" y1="869.537" x2="621.899" y2="879.588" class="gray" /></g>
<g><line x1="635.701" y1="885.467" x2="649.64" y2="885.467" class="gray" /></g>
<g><line x1="665.947" y1="885.467" x2="679.885" y2="885.467" class="gray" /></g>
<g><line x1="696.192" y1="885.467" x2="710.13" y2="885.467" class="gray" /></g>
<g><line x1="726.437" y1="885.467" x2="740.375" y2="885.467" class="gray" /></g>
</svg>
