<svg xmlns="http://www.w3.org/2000/svg" width="185.16" height="231.98">
<style type="text/css" >
<![CDATA[
.font { font-family: Helvetica; font-size: 3.056220px; font-weight: bold;  }
.numbering-line { stroke: rgb(204, 204, 204); stroke-width: 0.1911;  }
.bp-line { stroke-width: 0.3821;  }
.text-black { fill: rgb(0, 0, 0);  }
.text-red { fill: rgb(255, 0, 255);  }
.text-green { fill: rgb(0, 255, 0);  }
.text-blue { fill: rgb(0, 0, 255);  }
.text-gray { fill: rgb(204, 204, 204);  }
.text-brown { fill: rgb(211.65, 104.55, 30.6);  }
text { element-wise: True; fill: rgb(0, 0, 0); text-anchor: middle; dominant-baseline: middle;  }
.circle-black { stroke: rgb(0, 0, 0); fill: none;  }
.circle-red { stroke: rgb(255, 0, 255); fill: none;  }
.circle-green { stroke: rgb(0, 255, 0); fill: none;  }
.circle-blue { stroke: rgb(0, 0, 255); fill: none;  }
.circle-gray { stroke: rgb(204, 204, 204); fill: none;  }
.circle-brown { stroke: rgb(211.65, 104.55, 30.6); fill: none;  }
.circle { stroke: rgb(0, 0, 0);  }
.numbering-label { fill: rgb(204, 204, 204);  }
.numbering-line { stroke: rgb(204, 204, 204);  }
.template { visibility: hidden;  }
.bp-line { stroke: rgb(0, 0, 0);  }
.residue-circle { fill: rgb(255,255,255);  }
.res-line { stroke: rgb(204, 204, 204);  }
.color-posterior_probability-0 { fill: rgb(229, 158, 102);  }
.color-posterior_probability-1 { fill: rgb(229, 158, 102);  }
.color-posterior_probability-2 { fill: rgb(229, 158, 102);  }
.color-posterior_probability-3 { fill: rgb(229, 158, 102);  }
.color-posterior_probability-4 { fill: rgb(229, 158, 102);  }
.color-posterior_probability-5 { fill: rgb(229, 158, 102);  }
.color-posterior_probability-6 { fill: rgb(240, 197, 102);  }
.color-posterior_probability-7 { fill: rgb(246, 238, 141);  }
.color-posterior_probability-8 { fill: rgb(153, 210, 241);  }
.color-posterior_probability-9 { fill: rgb(102, 196, 171);  }
.color-posterior_probability-10 { fill: rgb(255, 255, 255);  }
.color-posterior_probability-_ { fill: rgb(255, 255, 255);  }
]]>
</style>

<g class="bps"><line x1="80.99" y1="211.86" x2="93.08" y2="211.66" class="bp-line" />
<line x1="80.99" y1="204.3" x2="93.08" y2="204.1" class="bp-line" />
<line x1="80.84" y1="196.54" x2="92.87" y2="196.54" class="bp-line" />
<line x1="80.84" y1="188.98" x2="93.28" y2="188.98" class="bp-line" />
<line x1="80.84" y1="181.42" x2="93.08" y2="181.42" class="bp-line" />
<line x1="81.04" y1="173.86" x2="93.08" y2="173.86" class="bp-line" />
<line x1="80.84" y1="166.3" x2="93.28" y2="166.3" class="bp-line" />
<line x1="80.84" y1="158.74" x2="92.87" y2="158.74" class="bp-line" />
<line x1="68.27000000000001" y1="128.01" x2="77.32" y2="119.53" class="bp-line" />
<line x1="63.4" y1="122.76" x2="72.22999999999999" y2="114.29" class="bp-line" />
<line x1="57.81" y1="117.09" x2="66.85" y2="108.62" class="bp-line" />
<line x1="52.57" y1="111.64" x2="61.62" y2="103.17" class="bp-line" />
<line x1="47.76" y1="106.18" x2="56.38" y2="97.71" class="bp-line" />
<line x1="30.23" y1="88.35" x2="39.28" y2="79.88" class="bp-line" />
<line x1="25.0" y1="82.89" x2="34.05" y2="74.42" class="bp-line" />
<line x1="19.77" y1="77.44" x2="28.81" y2="68.97" class="bp-line" />
<line x1="84.55" y1="117.35" x2="96.8" y2="119.53" class="bp-line" />
<line x1="85.69" y1="109.91" x2="97.94" y2="112.09" class="bp-line" />
<line x1="87.25" y1="102.48" x2="99.08" y2="104.66" class="bp-line" />
<line x1="88.8" y1="95.04" x2="100.64" y2="97.22" class="bp-line" />
<line x1="89.94" y1="87.6" x2="101.78" y2="89.78" class="bp-line" />
<line x1="91.29" y1="80.16" x2="103.12" y2="82.34" class="bp-line" />
<line x1="92.79" y1="72.93" x2="104.83" y2="75.11" class="bp-line" />
<line x1="94.13" y1="65.49000000000001" x2="106.18" y2="67.67" class="bp-line" />
<line x1="95.54" y1="57.84" x2="107.38" y2="60.02" class="bp-line" />
<line x1="106.99" y1="145.39" x2="100.02" y2="155.3" class="bp-line" />
<line x1="122.7" y1="156.77" x2="115.3" y2="166.68" class="bp-line" />
<line x1="128.97" y1="161.41" x2="121.79" y2="171.32" class="bp-line" />
<line x1="134.94" y1="165.64" x2="127.96" y2="175.55" class="bp-line" />
<line x1="141.21" y1="170.29" x2="134.03" y2="180.2" class="bp-line" />
<line x1="147.33" y1="174.72" x2="140.15" y2="184.63" class="bp-line" />
<line x1="153.45" y1="179.16" x2="146.27" y2="189.07" class="bp-line" />
</g>
<g class="residues"><line x1="73.99000000000001" y1="211.98" x2="80.99" y2="211.86" class="bp-line res-line" />
<line x1="80.99" y1="211.86" x2="80.99" y2="204.3" class="bp-line res-line" />
<line x1="80.99" y1="204.3" x2="80.84" y2="196.54" class="bp-line res-line" />
<line x1="80.84" y1="196.54" x2="80.84" y2="188.98" class="bp-line res-line" />
<line x1="80.84" y1="188.98" x2="80.84" y2="181.42" class="bp-line res-line" />
<line x1="80.84" y1="181.42" x2="81.04" y2="173.86" class="bp-line res-line" />
<line x1="81.04" y1="173.86" x2="80.84" y2="166.3" class="bp-line res-line" />
<line x1="80.84" y1="166.3" x2="80.84" y2="158.74" class="bp-line res-line" />
<line x1="80.84" y1="158.74" x2="74.25" y2="155.51" class="bp-line res-line" />
<line x1="74.25" y1="155.51" x2="69.21000000000001" y2="149.72" class="bp-line res-line" />
<line x1="69.21000000000001" y1="149.72" x2="65.97" y2="142.71" class="bp-line res-line" />
<line x1="65.97" y1="142.71" x2="66.21000000000001" y2="135.15" class="bp-line res-line" />
<line x1="66.21000000000001" y1="135.15" x2="68.27000000000001" y2="128.01" class="bp-line res-line" />
<line x1="68.27000000000001" y1="128.01" x2="63.4" y2="122.76" class="bp-line res-line" />
<line x1="63.4" y1="122.76" x2="57.81" y2="117.09" class="bp-line res-line" />
<line x1="57.81" y1="117.09" x2="52.57" y2="111.64" class="bp-line res-line" />
<line x1="52.57" y1="111.64" x2="47.76" y2="106.18" class="bp-line res-line" />
<line x1="47.76" y1="106.18" x2="39.989999999999995" y2="106.39" class="bp-line res-line" />
<line x1="39.989999999999995" y1="106.39" x2="33.25" y2="102.57" class="bp-line res-line" />
<line x1="33.25" y1="102.57" x2="30.13" y2="95.89" class="bp-line res-line" />
<line x1="30.13" y1="95.89" x2="30.23" y2="88.35" class="bp-line res-line" />
<line x1="30.23" y1="88.35" x2="25.0" y2="82.89" class="bp-line res-line" />
<line x1="25.0" y1="82.89" x2="19.77" y2="77.44" class="bp-line res-line" />
<line x1="19.77" y1="77.44" x2="13.06" y2="74.92" class="bp-line res-line" />
<line x1="13.06" y1="74.92" x2="10.0" y2="68.00999999999999" class="bp-line res-line" />
<line x1="10.0" y1="68.00999999999999" x2="12.879999999999999" y2="61.25" class="bp-line res-line" />
<line x1="12.879999999999999" y1="61.25" x2="19.6" y2="58.4" class="bp-line res-line" />
<line x1="19.6" y1="58.4" x2="26.38" y2="61.74" class="bp-line res-line" />
<line x1="26.38" y1="61.74" x2="28.81" y2="68.97" class="bp-line res-line" />
<line x1="28.81" y1="68.97" x2="34.05" y2="74.42" class="bp-line res-line" />
<line x1="34.05" y1="74.42" x2="39.28" y2="79.88" class="bp-line res-line" />
<line x1="39.28" y1="79.88" x2="44.15" y2="74.18" class="bp-line res-line" />
<line x1="44.15" y1="74.18" x2="51.16" y2="71.53" class="bp-line res-line" />
<line x1="51.16" y1="71.53" x2="58.5" y2="73.32" class="bp-line res-line" />
<line x1="58.5" y1="73.32" x2="63.52" y2="78.78" class="bp-line res-line" />
<line x1="63.52" y1="78.78" x2="65.42" y2="86.19" class="bp-line res-line" />
<line x1="65.42" y1="86.19" x2="62.68" y2="93.24" class="bp-line res-line" />
<line x1="62.68" y1="93.24" x2="56.38" y2="97.71" class="bp-line res-line" />
<line x1="56.38" y1="97.71" x2="61.62" y2="103.17" class="bp-line res-line" />
<line x1="61.62" y1="103.17" x2="66.85" y2="108.62" class="bp-line res-line" />
<line x1="66.85" y1="108.62" x2="72.22999999999999" y2="114.29" class="bp-line res-line" />
<line x1="72.22999999999999" y1="114.29" x2="77.32" y2="119.53" class="bp-line res-line" />
<line x1="77.32" y1="119.53" x2="84.55" y2="117.35" class="bp-line res-line" />
<line x1="84.55" y1="117.35" x2="85.69" y2="109.91" class="bp-line res-line" />
<line x1="85.69" y1="109.91" x2="87.25" y2="102.48" class="bp-line res-line" />
<line x1="87.25" y1="102.48" x2="88.8" y2="95.04" class="bp-line res-line" />
<line x1="88.8" y1="95.04" x2="83.03" y2="90.15" class="bp-line res-line" />
<line x1="83.03" y1="90.15" x2="89.94" y2="87.6" class="bp-line res-line" />
<line x1="89.94" y1="87.6" x2="91.29" y2="80.16" class="bp-line res-line" />
<line x1="91.29" y1="80.16" x2="92.79" y2="72.93" class="bp-line res-line" />
<line x1="92.79" y1="72.93" x2="94.13" y2="65.49000000000001" class="bp-line res-line" />
<line x1="94.13" y1="65.49000000000001" x2="95.54" y2="57.84" class="bp-line res-line" />
<line x1="95.54" y1="57.84" x2="89.43" y2="53.93" class="bp-line res-line" />
<line x1="89.43" y1="53.93" x2="84.69" y2="48.44" class="bp-line res-line" />
<line x1="84.69" y1="48.44" x2="81.72" y2="41.82" class="bp-line res-line" />
<line x1="81.72" y1="41.82" x2="80.77" y2="34.629999999999995" class="bp-line res-line" />
<line x1="80.77" y1="34.629999999999995" x2="81.91" y2="27.47" class="bp-line res-line" />
<line x1="81.91" y1="27.47" x2="85.05" y2="20.93" class="bp-line res-line" />
<line x1="85.05" y1="20.93" x2="89.94" y2="15.559999999999999" class="bp-line res-line" />
<line x1="89.94" y1="15.559999999999999" x2="96.15" y2="11.81" class="bp-line res-line" />
<line x1="96.15" y1="11.81" x2="103.17" y2="10.0" class="bp-line res-line" />
<line x1="103.17" y1="10.0" x2="110.42" y2="10.27" class="bp-line res-line" />
<line x1="110.42" y1="10.27" x2="117.29" y2="12.6" class="bp-line res-line" />
<line x1="117.29" y1="12.6" x2="123.21" y2="16.8" class="bp-line res-line" />
<line x1="123.21" y1="16.8" x2="127.68" y2="22.509999999999998" class="bp-line res-line" />
<line x1="127.68" y1="22.509999999999998" x2="130.32999999999998" y2="29.26" class="bp-line res-line" />
<line x1="130.32999999999998" y1="29.26" x2="130.93" y2="36.489999999999995" class="bp-line res-line" />
<line x1="130.93" y1="36.489999999999995" x2="129.45" y2="43.59" class="bp-line res-line" />
<line x1="129.45" y1="43.59" x2="126.0" y2="49.97" class="bp-line res-line" />
<line x1="126.0" y1="49.97" x2="120.87" y2="55.1" class="bp-line res-line" />
<line x1="120.87" y1="55.1" x2="114.48" y2="58.55" class="bp-line res-line" />
<line x1="114.48" y1="58.55" x2="107.38" y2="60.02" class="bp-line res-line" />
<line x1="107.38" y1="60.02" x2="106.18" y2="67.67" class="bp-line res-line" />
<line x1="106.18" y1="67.67" x2="104.83" y2="75.11" class="bp-line res-line" />
<line x1="104.83" y1="75.11" x2="112.33" y2="76.25" class="bp-line res-line" />
<line x1="112.33" y1="76.25" x2="110.92" y2="83.89" class="bp-line res-line" />
<line x1="110.92" y1="83.89" x2="103.12" y2="82.34" class="bp-line res-line" />
<line x1="103.12" y1="82.34" x2="101.78" y2="89.78" class="bp-line res-line" />
<line x1="101.78" y1="89.78" x2="100.64" y2="97.22" class="bp-line res-line" />
<line x1="100.64" y1="97.22" x2="99.08" y2="104.66" class="bp-line res-line" />
<line x1="99.08" y1="104.66" x2="97.94" y2="112.09" class="bp-line res-line" />
<line x1="97.94" y1="112.09" x2="96.8" y2="119.53" class="bp-line res-line" />
<line x1="96.8" y1="119.53" x2="102.82" y2="124.12" class="bp-line res-line" />
<line x1="102.82" y1="124.12" x2="106.84" y2="130.51" class="bp-line res-line" />
<line x1="106.84" y1="130.51" x2="108.31" y2="138.13" class="bp-line res-line" />
<line x1="108.31" y1="138.13" x2="106.99" y2="145.39" class="bp-line res-line" />
<line x1="106.99" y1="145.39" x2="111.77" y2="139.52" class="bp-line res-line" />
<line x1="111.77" y1="139.52" x2="119.26" y2="138.54" class="bp-line res-line" />
<line x1="119.26" y1="138.54" x2="125.53" y2="143.19" class="bp-line res-line" />
<line x1="125.53" y1="143.19" x2="126.78" y2="150.41" class="bp-line res-line" />
<line x1="126.78" y1="150.41" x2="122.7" y2="156.77" class="bp-line res-line" />
<line x1="122.7" y1="156.77" x2="128.97" y2="161.41" class="bp-line res-line" />
<line x1="128.97" y1="161.41" x2="134.94" y2="165.64" class="bp-line res-line" />
<line x1="134.94" y1="165.64" x2="141.21" y2="170.29" class="bp-line res-line" />
<line x1="141.21" y1="170.29" x2="147.33" y2="174.72" class="bp-line res-line" />
<line x1="147.33" y1="174.72" x2="153.45" y2="179.16" class="bp-line res-line" />
<line x1="153.45" y1="179.16" x2="160.92" y2="180.37" class="bp-line res-line" />
<line x1="160.92" y1="180.37" x2="165.16" y2="186.62" class="bp-line res-line" />
<line x1="165.16" y1="186.62" x2="163.51" y2="194.0" class="bp-line res-line" />
<line x1="163.51" y1="194.0" x2="157.01" y2="197.86" class="bp-line res-line" />
<line x1="157.01" y1="197.86" x2="149.74" y2="195.78" class="bp-line res-line" />
<line x1="149.74" y1="195.78" x2="146.27" y2="189.07" class="bp-line res-line" />
<line x1="146.27" y1="189.07" x2="140.15" y2="184.63" class="bp-line res-line" />
<line x1="140.15" y1="184.63" x2="134.03" y2="180.2" class="bp-line res-line" />
<line x1="134.03" y1="180.2" x2="127.96" y2="175.55" class="bp-line res-line" />
<line x1="127.96" y1="175.55" x2="121.79" y2="171.32" class="bp-line res-line" />
<line x1="121.79" y1="171.32" x2="115.3" y2="166.68" class="bp-line res-line" />
<line x1="115.3" y1="166.68" x2="107.96" y2="167.02" class="bp-line res-line" />
<line x1="107.96" y1="167.02" x2="101.84" y2="162.58" class="bp-line res-line" />
<line x1="101.84" y1="162.58" x2="100.02" y2="155.3" class="bp-line res-line" />
<line x1="100.02" y1="155.3" x2="92.87" y2="158.74" class="bp-line res-line" />
<line x1="92.87" y1="158.74" x2="93.28" y2="166.3" class="bp-line res-line" />
<line x1="93.28" y1="166.3" x2="93.08" y2="173.86" class="bp-line res-line" />
<line x1="93.08" y1="173.86" x2="93.08" y2="181.42" class="bp-line res-line" />
<line x1="93.08" y1="181.42" x2="93.28" y2="188.98" class="bp-line res-line" />
<line x1="93.28" y1="188.98" x2="92.87" y2="196.54" class="bp-line res-line" />
<line x1="92.87" y1="196.54" x2="93.08" y2="204.1" class="bp-line res-line" />
<line x1="93.08" y1="204.1" x2="93.08" y2="211.66" class="bp-line res-line" />
<line x1="93.08" y1="211.66" x2="100.08" y2="211.55" class="bp-line res-line" />
<circle cx="73.99000000000001" cy="211.98" class="residue-circle" r="2.2921650000000002"/>
<circle cx="80.99" cy="211.86" class="residue-circle color-posterior_probability-10" r="2.2921650000000002"/>
<circle cx="80.99" cy="204.3" class="residue-circle color-posterior_probability-10" r="2.2921650000000002"/>
<circle cx="80.84" cy="196.54" class="residue-circle color-posterior_probability-10" r="2.2921650000000002"/>
<circle cx="80.84" cy="188.98" class="residue-circle color-posterior_probability-10" r="2.2921650000000002"/>
<circle cx="80.84" cy="181.42" class="residue-circle color-posterior_probability-10" r="2.2921650000000002"/>
<circle cx="81.04" cy="173.86" class="residue-circle color-posterior_probability-10" r="2.2921650000000002"/>
<circle cx="80.84" cy="166.3" class="residue-circle color-posterior_probability-10" r="2.2921650000000002"/>
<circle cx="80.84" cy="158.74" class="residue-circle color-posterior_probability-10" r="2.2921650000000002"/>
<circle cx="74.25" cy="155.51" class="residue-circle color-posterior_probability-10" r="2.2921650000000002"/>
<circle cx="69.21000000000001" cy="149.72" class="residue-circle color-posterior_probability-10" r="2.2921650000000002"/>
<circle cx="65.97" cy="142.71" class="residue-circle color-posterior_probability-10" r="2.2921650000000002"/>
<circle cx="66.21000000000001" cy="135.15" class="residue-circle color-posterior_probability-10" r="2.2921650000000002"/>
<circle cx="68.27000000000001" cy="128.01" class="residue-circle color-posterior_probability-10" r="2.2921650000000002"/>
<circle cx="63.4" cy="122.76" class="residue-circle color-posterior_probability-10" r="2.2921650000000002"/>
<circle cx="57.81" cy="117.09" class="residue-circle color-posterior_probability-10" r="2.2921650000000002"/>
<circle cx="52.57" cy="111.64" class="residue-circle color-posterior_probability-10" r="2.2921650000000002"/>
<circle cx="47.76" cy="106.18" class="residue-circle color-posterior_probability-10" r="2.2921650000000002"/>
<circle cx="39.989999999999995" cy="106.39" class="residue-circle color-posterior_probability-10" r="2.2921650000000002"/>
<circle cx="33.25" cy="102.57" class="residue-circle color-posterior_probability-10" r="2.2921650000000002"/>
<circle cx="30.13" cy="95.89" class="residue-circle color-posterior_probability-10" r="2.2921650000000002"/>
<circle cx="30.23" cy="88.35" class="residue-circle color-posterior_probability-10" r="2.2921650000000002"/>
<circle cx="25.0" cy="82.89" class="residue-circle color-posterior_probability-10" r="2.2921650000000002"/>
<circle cx="19.77" cy="77.44" class="residue-circle color-posterior_probability-10" r="2.2921650000000002"/>
<circle cx="13.06" cy="74.92" class="residue-circle color-posterior_probability-10" r="2.2921650000000002"/>
<circle cx="10.0" cy="68.00999999999999" class="residue-circle color-posterior_probability-10" r="2.2921650000000002"/>
<circle cx="12.879999999999999" cy="61.25" class="residue-circle color-posterior_probability-10" r="2.2921650000000002"/>
<circle cx="19.6" cy="58.4" class="residue-circle color-posterior_probability-10" r="2.2921650000000002"/>
<circle cx="26.38" cy="61.74" class="residue-circle color-posterior_probability-10" r="2.2921650000000002"/>
<circle cx="28.81" cy="68.97" class="residue-circle color-posterior_probability-10" r="2.2921650000000002"/>
<circle cx="34.05" cy="74.42" class="residue-circle color-posterior_probability-10" r="2.2921650000000002"/>
<circle cx="39.28" cy="79.88" class="residue-circle color-posterior_probability-10" r="2.2921650000000002"/>
<circle cx="44.15" cy="74.18" class="residue-circle color-posterior_probability-10" r="2.2921650000000002"/>
<circle cx="51.16" cy="71.53" class="residue-circle color-posterior_probability-10" r="2.2921650000000002"/>
<circle cx="58.5" cy="73.32" class="residue-circle color-posterior_probability-10" r="2.2921650000000002"/>
<circle cx="63.52" cy="78.78" class="residue-circle color-posterior_probability-10" r="2.2921650000000002"/>
<circle cx="65.42" cy="86.19" class="residue-circle color-posterior_probability-10" r="2.2921650000000002"/>
<circle cx="62.68" cy="93.24" class="residue-circle color-posterior_probability-10" r="2.2921650000000002"/>
<circle cx="56.38" cy="97.71" class="residue-circle color-posterior_probability-10" r="2.2921650000000002"/>
<circle cx="61.62" cy="103.17" class="residue-circle color-posterior_probability-10" r="2.2921650000000002"/>
<circle cx="66.85" cy="108.62" class="residue-circle color-posterior_probability-10" r="2.2921650000000002"/>
<circle cx="72.22999999999999" cy="114.29" class="residue-circle color-posterior_probability-10" r="2.2921650000000002"/>
<circle cx="77.32" cy="119.53" class="residue-circle color-posterior_probability-10" r="2.2921650000000002"/>
<circle cx="84.55" cy="117.35" class="residue-circle color-posterior_probability-10" r="2.2921650000000002"/>
<circle cx="85.69" cy="109.91" class="residue-circle color-posterior_probability-10" r="2.2921650000000002"/>
<circle cx="87.25" cy="102.48" class="residue-circle color-posterior_probability-10" r="2.2921650000000002"/>
<circle cx="88.8" cy="95.04" class="residue-circle color-posterior_probability-10" r="2.2921650000000002"/>
<circle cx="83.03" cy="90.15" class="residue-circle color-posterior_probability-10" r="2.2921650000000002"/>
<circle cx="89.94" cy="87.6" class="residue-circle color-posterior_probability-10" r="2.2921650000000002"/>
<circle cx="91.29" cy="80.16" class="residue-circle color-posterior_probability-10" r="2.2921650000000002"/>
<circle cx="92.79" cy="72.93" class="residue-circle color-posterior_probability-10" r="2.2921650000000002"/>
<circle cx="94.13" cy="65.49000000000001" class="residue-circle color-posterior_probability-10" r="2.2921650000000002"/>
<circle cx="95.54" cy="57.84" class="residue-circle color-posterior_probability-10" r="2.2921650000000002"/>
<circle cx="89.43" cy="53.93" class="residue-circle color-posterior_probability-9" r="2.2921650000000002"/>
<circle cx="84.69" cy="48.44" class="residue-circle color-posterior_probability-9" r="2.2921650000000002"/>
<circle cx="81.72" cy="41.82" class="residue-circle color-posterior_probability-9" r="2.2921650000000002"/>
<circle cx="80.77" cy="34.629999999999995" class="residue-circle color-posterior_probability-8" r="2.2921650000000002"/>
<circle cx="81.91" cy="27.47" class="residue-circle color-posterior_probability-8" r="2.2921650000000002"/>
<circle cx="85.05" cy="20.93" class="residue-circle color-posterior_probability-7" r="2.2921650000000002"/>
<circle cx="89.94" cy="15.559999999999999" class="residue-circle color-posterior_probability-8" r="2.2921650000000002"/>
<circle cx="96.15" cy="11.81" class="residue-circle color-posterior_probability-8" r="2.2921650000000002"/>
<circle cx="103.17" cy="10.0" class="residue-circle color-posterior_probability-8" r="2.2921650000000002"/>
<circle cx="110.42" cy="10.27" class="residue-circle color-posterior_probability-8" r="2.2921650000000002"/>
<circle cx="117.29" cy="12.6" class="residue-circle color-posterior_probability-8" r="2.2921650000000002"/>
<circle cx="123.21" cy="16.8" class="residue-circle color-posterior_probability-8" r="2.2921650000000002"/>
<circle cx="127.68" cy="22.509999999999998" class="residue-circle color-posterior_probability-8" r="2.2921650000000002"/>
<circle cx="130.32999999999998" cy="29.26" class="residue-circle color-posterior_probability-8" r="2.2921650000000002"/>
<circle cx="130.93" cy="36.489999999999995" class="residue-circle color-posterior_probability-8" r="2.2921650000000002"/>
<circle cx="129.45" cy="43.59" class="residue-circle color-posterior_probability-8" r="2.2921650000000002"/>
<circle cx="126.0" cy="49.97" class="residue-circle color-posterior_probability-7" r="2.2921650000000002"/>
<circle cx="120.87" cy="55.1" class="residue-circle color-posterior_probability-7" r="2.2921650000000002"/>
<circle cx="114.48" cy="58.55" class="residue-circle color-posterior_probability-9" r="2.2921650000000002"/>
<circle cx="107.38" cy="60.02" class="residue-circle color-posterior_probability-10" r="2.2921650000000002"/>
<circle cx="106.18" cy="67.67" class="residue-circle color-posterior_probability-10" r="2.2921650000000002"/>
<circle cx="104.83" cy="75.11" class="residue-circle color-posterior_probability-10" r="2.2921650000000002"/>
<circle cx="112.33" cy="76.25" class="residue-circle color-posterior_probability-10" r="2.2921650000000002"/>
<circle cx="110.92" cy="83.89" class="residue-circle color-posterior_probability-10" r="2.2921650000000002"/>
<circle cx="103.12" cy="82.34" class="residue-circle color-posterior_probability-10" r="2.2921650000000002"/>
<circle cx="101.78" cy="89.78" class="residue-circle color-posterior_probability-10" r="2.2921650000000002"/>
<circle cx="100.64" cy="97.22" class="residue-circle color-posterior_probability-10" r="2.2921650000000002"/>
<circle cx="99.08" cy="104.66" class="residue-circle color-posterior_probability-10" r="2.2921650000000002"/>
<circle cx="97.94" cy="112.09" class="residue-circle color-posterior_probability-10" r="2.2921650000000002"/>
<circle cx="96.8" cy="119.53" class="residue-circle color-posterior_probability-10" r="2.2921650000000002"/>
<circle cx="102.82" cy="124.12" class="residue-circle color-posterior_probability-10" r="2.2921650000000002"/>
<circle cx="106.84" cy="130.51" class="residue-circle color-posterior_probability-10" r="2.2921650000000002"/>
<circle cx="108.31" cy="138.13" class="residue-circle color-posterior_probability-10" r="2.2921650000000002"/>
<circle cx="106.99" cy="145.39" class="residue-circle color-posterior_probability-10" r="2.2921650000000002"/>
<circle cx="111.77" cy="139.52" class="residue-circle color-posterior_probability-10" r="2.2921650000000002"/>
<circle cx="119.26" cy="138.54" class="residue-circle color-posterior_probability-10" r="2.2921650000000002"/>
<circle cx="125.53" cy="143.19" class="residue-circle color-posterior_probability-10" r="2.2921650000000002"/>
<circle cx="126.78" cy="150.41" class="residue-circle color-posterior_probability-10" r="2.2921650000000002"/>
<circle cx="122.7" cy="156.77" class="residue-circle color-posterior_probability-10" r="2.2921650000000002"/>
<circle cx="128.97" cy="161.41" class="residue-circle color-posterior_probability-10" r="2.2921650000000002"/>
<circle cx="134.94" cy="165.64" class="residue-circle color-posterior_probability-10" r="2.2921650000000002"/>
<circle cx="141.21" cy="170.29" class="residue-circle color-posterior_probability-10" r="2.2921650000000002"/>
<circle cx="147.33" cy="174.72" class="residue-circle color-posterior_probability-10" r="2.2921650000000002"/>
<circle cx="153.45" cy="179.16" class="residue-circle color-posterior_probability-10" r="2.2921650000000002"/>
<circle cx="160.92" cy="180.37" class="residue-circle color-posterior_probability-10" r="2.2921650000000002"/>
<circle cx="165.16" cy="186.62" class="residue-circle color-posterior_probability-10" r="2.2921650000000002"/>
<circle cx="163.51" cy="194.0" class="residue-circle color-posterior_probability-10" r="2.2921650000000002"/>
<circle cx="157.01" cy="197.86" class="residue-circle color-posterior_probability-10" r="2.2921650000000002"/>
<circle cx="149.74" cy="195.78" class="residue-circle color-posterior_probability-10" r="2.2921650000000002"/>
<circle cx="146.27" cy="189.07" class="residue-circle color-posterior_probability-10" r="2.2921650000000002"/>
<circle cx="140.15" cy="184.63" class="residue-circle color-posterior_probability-10" r="2.2921650000000002"/>
<circle cx="134.03" cy="180.2" class="residue-circle color-posterior_probability-10" r="2.2921650000000002"/>
<circle cx="127.96" cy="175.55" class="residue-circle color-posterior_probability-10" r="2.2921650000000002"/>
<circle cx="121.79" cy="171.32" class="residue-circle color-posterior_probability-10" r="2.2921650000000002"/>
<circle cx="115.3" cy="166.68" class="residue-circle color-posterior_probability-10" r="2.2921650000000002"/>
<circle cx="107.96" cy="167.02" class="residue-circle color-posterior_probability-10" r="2.2921650000000002"/>
<circle cx="101.84" cy="162.58" class="residue-circle color-posterior_probability-10" r="2.2921650000000002"/>
<circle cx="100.02" cy="155.3" class="residue-circle color-posterior_probability-10" r="2.2921650000000002"/>
<circle cx="92.87" cy="158.74" class="residue-circle color-posterior_probability-10" r="2.2921650000000002"/>
<circle cx="93.28" cy="166.3" class="residue-circle color-posterior_probability-10" r="2.2921650000000002"/>
<circle cx="93.08" cy="173.86" class="residue-circle color-posterior_probability-10" r="2.2921650000000002"/>
<circle cx="93.08" cy="181.42" class="residue-circle color-posterior_probability-10" r="2.2921650000000002"/>
<circle cx="93.28" cy="188.98" class="residue-circle color-posterior_probability-10" r="2.2921650000000002"/>
<circle cx="92.87" cy="196.54" class="residue-circle color-posterior_probability-10" r="2.2921650000000002"/>
<circle cx="93.08" cy="204.1" class="residue-circle color-posterior_probability-10" r="2.2921650000000002"/>
<circle cx="93.08" cy="211.66" class="residue-circle color-posterior_probability-10" r="2.2921650000000002"/>
<circle cx="100.08" cy="211.55" class="residue-circle" r="2.2921650000000002"/>
<g><title>Position: 0 (position.label in template: 0.5')</title><text x="73.99000000000001" y="211.98" class="text-green font" >5'</text></g>
<g><title>Position: 1 (position.label in template: 1.N)
Alignment accuracy: 10</title><text x="80.99" y="211.86" class="text-green font" >U</text></g>
<g><title>Position: 2 (position.label in template: 2.N)
Alignment accuracy: 10</title><text x="80.99" y="204.3" class="text-green font" >U</text></g>
<g><title>Position: 3 (position.label in template: 3.C)
Alignment accuracy: 10</title><text x="80.84" y="196.54" class="text-black font" >C</text></g>
<g><title>Position: 4 (position.label in template: 4.U)
Alignment accuracy: 10</title><text x="80.84" y="188.98" class="text-black font" >U</text></g>
<g><title>Position: 5 (position.label in template: 5.U)
Alignment accuracy: 10</title><text x="80.84" y="181.42" class="text-green font" >U</text></g>
<g><title>Position: 6 (position.label in template: 6.A)
Alignment accuracy: 10</title><text x="81.04" y="173.86" class="text-black font" >A</text></g>
<g><title>Position: 7 (position.label in template: 7.U)
Alignment accuracy: 10</title><text x="80.84" y="166.3" class="text-black font" >U</text></g>
<g><title>Position: 8 (position.label in template: 8.C)
Alignment accuracy: 10</title><text x="80.84" y="158.74" class="text-black font" >C</text></g>
<g><title>Position: 9 (position.label in template: 9.N)
Alignment accuracy: 10</title><text x="74.25" y="155.51" class="text-green font" >A</text></g>
<g><title>Position: 10 (position.label in template: 10.A)
Alignment accuracy: 10</title><text x="69.21000000000001" y="149.72" class="text-black font" >A</text></g>
<g><title>Position: 11 (position.label in template: 11.G)
Alignment accuracy: 10</title><text x="65.97" y="142.71" class="text-black font" >G</text></g>
<g><title>Position: 12 (position.label in template: 12.A)
Alignment accuracy: 10</title><text x="66.21000000000001" y="135.15" class="text-black font" >A</text></g>
<g><title>Position: 13 (position.label in template: 13.G)
Alignment accuracy: 10</title><text x="68.27000000000001" y="128.01" class="text-black font" >G</text></g>
<g><title>Position: 14 (position.label in template: 14.N)
Alignment accuracy: 10</title><text x="63.4" y="122.76" class="text-green font" >A</text></g>
<g><title>Position: 15 (position.label in template: 15.G)
Alignment accuracy: 10</title><text x="57.81" y="117.09" class="text-green font" >A</text></g>
<g><title>Position: 16 (position.label in template: 16.G)
Alignment accuracy: 10</title><text x="52.57" y="111.64" class="text-black font" >G</text></g>
<g><title>Position: 17 (position.label in template: 17.Y)
Alignment accuracy: 10</title><text x="47.76" y="106.18" class="text-green font" >C</text></g>
<g><title>Position: 18 (position.label in template: 18.R)
Alignment accuracy: 10</title><text x="39.989999999999995" y="106.39" class="text-green font" >A</text></g>
<g><title>Position: 19 (position.label in template: 19.G)
Alignment accuracy: 10</title><text x="33.25" y="102.57" class="text-black font" >G</text></g>
<g><title>Position: 20 (position.label in template: 20.A)
Alignment accuracy: 10</title><text x="30.13" y="95.89" class="text-black font" >A</text></g>
<g><title>Position: 21 (position.label in template: 21.G)
Alignment accuracy: 10</title><text x="30.23" y="88.35" class="text-black font" >G</text></g>
<g><title>Position: 22 (position.label in template: 22.G)
Alignment accuracy: 10</title><text x="25.0" y="82.89" class="text-black font" >G</text></g>
<g><title>Position: 23 (position.label in template: 23.G)
Alignment accuracy: 10</title><text x="19.77" y="77.44" class="text-black font" >G</text></g>
<g><title>Position: 24 (position.label in template: 24.A)
Alignment accuracy: 10</title><text x="13.06" y="74.92" class="text-black font" >A</text></g>
<g><title>Position: 25 (position.label in template: 25.Y)
Alignment accuracy: 10</title><text x="10.0" y="68.00999999999999" class="text-green font" >C</text></g>
<g><title>Position: 26 (position.label in template: 26.N)
Alignment accuracy: 10</title><text x="12.879999999999999" y="61.25" class="text-green font" >U</text></g>
<g><title>Position: 27 (position.label in template: 27.G)
Alignment accuracy: 10</title><text x="19.6" y="58.4" class="text-black font" >G</text></g>
<g><title>Position: 28 (position.label in template: 28.G)
Alignment accuracy: 10</title><text x="26.38" y="61.74" class="text-black font" >G</text></g>
<g><title>Position: 29 (position.label in template: 29.C)
Alignment accuracy: 10</title><text x="28.81" y="68.97" class="text-black font" >C</text></g>
<g><title>Position: 30 (position.label in template: 30.C)
Alignment accuracy: 10</title><text x="34.05" y="74.42" class="text-black font" >C</text></g>
<g><title>Position: 31 (position.label in template: 31.C)
Alignment accuracy: 10</title><text x="39.28" y="79.88" class="text-black font" >C</text></g>
<g><title>Position: 32 (position.label in template: 32.N)
Alignment accuracy: 10</title><text x="44.15" y="74.18" class="text-green font" >G</text></g>
<g><title>Position: 33 (position.label in template: 33.R)
Alignment accuracy: 10</title><text x="51.16" y="71.53" class="text-green font" >A</text></g>
<g><title>Position: 34 (position.label in template: 34.U)
Alignment accuracy: 10</title><text x="58.5" y="73.32" class="text-green font" >C</text></g>
<g><title>Position: 35 (position.label in template: 35.G)
Alignment accuracy: 10</title><text x="63.52" y="78.78" class="text-black font" >G</text></g>
<g><title>Position: 36 (position.label in template: 36.A)
Alignment accuracy: 10</title><text x="65.42" y="86.19" class="text-black font" >A</text></g>
<g><title>Position: 37 (position.label in template: 37.A)
Alignment accuracy: 10</title><text x="62.68" y="93.24" class="text-black font" >A</text></g>
<g><title>Position: 38 (position.label in template: 38.R)
Alignment accuracy: 10</title><text x="56.38" y="97.71" class="text-green font" >G</text></g>
<g><title>Position: 39 (position.label in template: 39.C)
Alignment accuracy: 10</title><text x="61.62" y="103.17" class="text-black font" >C</text></g>
<g><title>Position: 40 (position.label in template: 40.C)
Alignment accuracy: 10</title><text x="66.85" y="108.62" class="text-green font" >U</text></g>
<g><title>Position: 41 (position.label in template: 41.N)
Alignment accuracy: 10</title><text x="72.22999999999999" y="114.29" class="text-green font" >U</text></g>
<g><title>Position: 42 (position.label in template: 42.C)
Alignment accuracy: 10</title><text x="77.32" y="119.53" class="text-black font" >C</text></g>
<g><title>Position: 43 (position.label in template: 43.R)
Alignment accuracy: 10</title><text x="84.55" y="117.35" class="text-green font" >A</text></g>
<g><title>Position: 44 (position.label in template: 44.G)
Alignment accuracy: 10</title><text x="85.69" y="109.91" class="text-black font" >G</text></g>
<g><title>Position: 45 (position.label in template: 45.C)
Alignment accuracy: 10</title><text x="87.25" y="102.48" class="text-black font" >C</text></g>
<g><title>Position: 46 (position.label in template: 46.A)
Alignment accuracy: 10</title><text x="88.8" y="95.04" class="text-black font" >A</text></g>
<g><title>Position: 47 (position.label in template: 47.A)
Alignment accuracy: 10</title><text x="83.03" y="90.15" class="text-black font" >A</text></g>
<g><title>Position: 48 (position.label in template: 48.C)
Alignment accuracy: 10</title><text x="89.94" y="87.6" class="text-black font" >C</text></g>
<g><title>Position: 49 (position.label in template: 49.C)
Alignment accuracy: 10</title><text x="91.29" y="80.16" class="text-black font" >C</text></g>
<g><title>Position: 50 (position.label in template: 50.N)
Alignment accuracy: 10</title><text x="92.79" y="72.93" class="text-green font" >G</text></g>
<g><title>Position: 51 (position.label in template: 51.N)
Alignment accuracy: 10</title><text x="94.13" y="65.49000000000001" class="text-green font" >G</text></g>
<g><title>Position: 52 (position.label in template: 52.Y)
Alignment accuracy: 10</title><text x="95.54" y="57.84" class="text-green font" >U</text></g>
<g><title>Position: 53 (position.label in template: -1.)
Alignment accuracy: 9</title><text x="89.43" y="53.93" class="text-red font" >G</text></g>
<g><title>Position: 54 (position.label in template: 54.N)
Alignment accuracy: 9</title><text x="84.69" y="48.44" class="text-green font" >U</text></g>
<g><title>Position: 55 (position.label in template: 55.N)
Alignment accuracy: 9</title><text x="81.72" y="41.82" class="text-green font" >A</text></g>
<g><title>Position: 56 (position.label in template: 56.N)
Alignment accuracy: 8</title><text x="80.77" y="34.629999999999995" class="text-green font" >A</text></g>
<g><title>Position: 57 (position.label in template: 57.N)
Alignment accuracy: 8</title><text x="81.91" y="27.47" class="text-green font" >U</text></g>
<g><title>Position: 58 (position.label in template: 58.N)
Alignment accuracy: 7</title><text x="85.05" y="20.93" class="text-green font" >G</text></g>
<g><title>Position: 59 (position.label in template: -1.)
Alignment accuracy: 8</title><text x="89.94" y="15.559999999999999" class="text-red font" >G</text></g>
<g><title>Position: 60 (position.label in template: -1.)
Alignment accuracy: 8</title><text x="96.15" y="11.81" class="text-red font" >C</text></g>
<g><title>Position: 61 (position.label in template: -1.)
Alignment accuracy: 8</title><text x="103.17" y="10.0" class="text-red font" >G</text></g>
<g><title>Position: 62 (position.label in template: -1.)
Alignment accuracy: 8</title><text x="110.42" y="10.27" class="text-red font" >A</text></g>
<g><title>Position: 63 (position.label in template: -1.)
Alignment accuracy: 8</title><text x="117.29" y="12.6" class="text-red font" >U</text></g>
<g><title>Position: 64 (position.label in template: -1.)
Alignment accuracy: 8</title><text x="123.21" y="16.8" class="text-red font" >C</text></g>
<g><title>Position: 65 (position.label in template: -1.)
Alignment accuracy: 8</title><text x="127.68" y="22.509999999999998" class="text-red font" >A</text></g>
<g><title>Position: 66 (position.label in template: -1.)
Alignment accuracy: 8</title><text x="130.32999999999998" y="29.26" class="text-red font" >G</text></g>
<g><title>Position: 67 (position.label in template: -1.)
Alignment accuracy: 8</title><text x="130.93" y="36.489999999999995" class="text-red font" >C</text></g>
<g><title>Position: 68 (position.label in template: -1.)
Alignment accuracy: 8</title><text x="129.45" y="43.59" class="text-red font" >C</text></g>
<g><title>Position: 69 (position.label in template: 59.N)
Alignment accuracy: 7</title><text x="126.0" y="49.97" class="text-green font" >A</text></g>
<g><title>Position: 70 (position.label in template: 60.N)
Alignment accuracy: 7</title><text x="120.87" y="55.1" class="text-green font" >U</text></g>
<g><title>Position: 71 (position.label in template: -1.)
Alignment accuracy: 9</title><text x="114.48" y="58.55" class="text-red font" >G</text></g>
<g><title>Position: 72 (position.label in template: 62.R)
Alignment accuracy: 10</title><text x="107.38" y="60.02" class="text-green font" >A</text></g>
<g><title>Position: 73 (position.label in template: 63.N)
Alignment accuracy: 10</title><text x="106.18" y="67.67" class="text-green font" >C</text></g>
<g><title>Position: 74 (position.label in template: 64.N)
Alignment accuracy: 10</title><text x="104.83" y="75.11" class="text-green font" >C</text></g>
<g><title>Position: 75 (position.label in template: 65.A)
Alignment accuracy: 10</title><text x="112.33" y="76.25" class="text-black font" >A</text></g>
<g><title>Position: 76 (position.label in template: 66.N)
Alignment accuracy: 10</title><text x="110.92" y="83.89" class="text-green font" >A</text></g>
<g><title>Position: 77 (position.label in template: 67.G)
Alignment accuracy: 10</title><text x="103.12" y="82.34" class="text-black font" >G</text></g>
<g><title>Position: 78 (position.label in template: 68.G)
Alignment accuracy: 10</title><text x="101.78" y="89.78" class="text-black font" >G</text></g>
<g><title>Position: 79 (position.label in template: 69.U)
Alignment accuracy: 10</title><text x="100.64" y="97.22" class="text-black font" >U</text></g>
<g><title>Position: 80 (position.label in template: 70.G)
Alignment accuracy: 10</title><text x="99.08" y="104.66" class="text-black font" >G</text></g>
<g><title>Position: 81 (position.label in template: 71.C)
Alignment accuracy: 10</title><text x="97.94" y="112.09" class="text-black font" >C</text></g>
<g><title>Position: 82 (position.label in template: 72.Y)
Alignment accuracy: 10</title><text x="96.8" y="119.53" class="text-green font" >U</text></g>
<g><title>Position: 83 (position.label in template: 73.A)
Alignment accuracy: 10</title><text x="102.82" y="124.12" class="text-black font" >A</text></g>
<g><title>Position: 84 (position.label in template: 74.A)
Alignment accuracy: 10</title><text x="106.84" y="130.51" class="text-black font" >A</text></g>
<g><title>Position: 85 (position.label in template: 75.N)
Alignment accuracy: 10</title><text x="108.31" y="138.13" class="text-green font" >A</text></g>
<g><title>Position: 86 (position.label in template: 76.U)
Alignment accuracy: 10</title><text x="106.99" y="145.39" class="text-black font" >U</text></g>
<g><title>Position: 87 (position.label in template: 77.C)
Alignment accuracy: 10</title><text x="111.77" y="139.52" class="text-black font" >C</text></g>
<g><title>Position: 88 (position.label in template: 78.C)
Alignment accuracy: 10</title><text x="119.26" y="138.54" class="text-black font" >C</text></g>
<g><title>Position: 89 (position.label in template: 79.N)
Alignment accuracy: 10</title><text x="125.53" y="143.19" class="text-green font" >A</text></g>
<g><title>Position: 90 (position.label in template: 80.R)
Alignment accuracy: 10</title><text x="126.78" y="150.41" class="text-green font" >G</text></g>
<g><title>Position: 91 (position.label in template: 81.C)
Alignment accuracy: 10</title><text x="122.7" y="156.77" class="text-black font" >C</text></g>
<g><title>Position: 92 (position.label in template: 82.N)
Alignment accuracy: 10</title><text x="128.97" y="161.41" class="text-green font" >A</text></g>
<g><title>Position: 93 (position.label in template: 83.R)
Alignment accuracy: 10</title><text x="134.94" y="165.64" class="text-green font" >A</text></g>
<g><title>Position: 94 (position.label in template: 84.N)
Alignment accuracy: 10</title><text x="141.21" y="170.29" class="text-green font" >G</text></g>
<g><title>Position: 95 (position.label in template: 85.N)
Alignment accuracy: 10</title><text x="147.33" y="174.72" class="text-green font" >C</text></g>
<g><title>Position: 96 (position.label in template: 86.N)
Alignment accuracy: 10</title><text x="153.45" y="179.16" class="text-green font" >U</text></g>
<g><title>Position: 97 (position.label in template: 87.N)
Alignment accuracy: 10</title><text x="160.92" y="180.37" class="text-green font" >C</text></g>
<g><title>Position: 98 (position.label in template: 88.N)
Alignment accuracy: 10</title><text x="165.16" y="186.62" class="text-green font" >G</text></g>
<g><title>Position: 99 (position.label in template: 89.N)
Alignment accuracy: 10</title><text x="163.51" y="194.0" class="text-green font" >A</text></g>
<g><title>Position: 100 (position.label in template: 90.N)
Alignment accuracy: 10</title><text x="157.01" y="197.86" class="text-green font" >A</text></g>
<g><title>Position: 101 (position.label in template: 91.N)
Alignment accuracy: 10</title><text x="149.74" y="195.78" class="text-green font" >C</text></g>
<g><title>Position: 102 (position.label in template: 92.N)
Alignment accuracy: 10</title><text x="146.27" y="189.07" class="text-green font" >A</text></g>
<g><title>Position: 103 (position.label in template: 93.N)
Alignment accuracy: 10</title><text x="140.15" y="184.63" class="text-green font" >G</text></g>
<g><title>Position: 104 (position.label in template: 94.N)
Alignment accuracy: 10</title><text x="134.03" y="180.2" class="text-green font" >C</text></g>
<g><title>Position: 105 (position.label in template: 95.Y)
Alignment accuracy: 10</title><text x="127.96" y="175.55" class="text-green font" >U</text></g>
<g><title>Position: 106 (position.label in template: 96.N)
Alignment accuracy: 10</title><text x="121.79" y="171.32" class="text-green font" >U</text></g>
<g><title>Position: 107 (position.label in template: 97.G)
Alignment accuracy: 10</title><text x="115.3" y="166.68" class="text-black font" >G</text></g>
<g><title>Position: 108 (position.label in template: 98.R)
Alignment accuracy: 10</title><text x="107.96" y="167.02" class="text-green font" >G</text></g>
<g><title>Position: 109 (position.label in template: 99.R)
Alignment accuracy: 10</title><text x="101.84" y="162.58" class="text-green font" >A</text></g>
<g><title>Position: 110 (position.label in template: 100.A)
Alignment accuracy: 10</title><text x="100.02" y="155.3" class="text-black font" >A</text></g>
<g><title>Position: 111 (position.label in template: 101.G)
Alignment accuracy: 10</title><text x="92.87" y="158.74" class="text-black font" >G</text></g>
<g><title>Position: 112 (position.label in template: 102.A)
Alignment accuracy: 10</title><text x="93.28" y="166.3" class="text-black font" >A</text></g>
<g><title>Position: 113 (position.label in template: 103.U)
Alignment accuracy: 10</title><text x="93.08" y="173.86" class="text-black font" >U</text></g>
<g><title>Position: 114 (position.label in template: 104.R)
Alignment accuracy: 10</title><text x="93.08" y="181.42" class="text-green font" >A</text></g>
<g><title>Position: 115 (position.label in template: 105.A)
Alignment accuracy: 10</title><text x="93.28" y="188.98" class="text-black font" >A</text></g>
<g><title>Position: 116 (position.label in template: 106.G)
Alignment accuracy: 10</title><text x="92.87" y="196.54" class="text-black font" >G</text></g>
<g><title>Position: 117 (position.label in template: 107.R)
Alignment accuracy: 10</title><text x="93.08" y="204.1" class="text-green font" >A</text></g>
<g><title>Position: 118 (position.label in template: 108.R)
Alignment accuracy: 10</title><text x="93.08" y="211.66" class="text-green font" >A</text></g>
<g><title>Position: 119 (position.label in template: 109.3')</title><text x="100.08" y="211.55" class="text-green font" >3'</text></g>
</g>
<g class="labels">
<g class="label">
<text x="63.43621527440732" y="153.45831968272614" class="font numbering-label sequential" >10</text>
<line x1="67.67032403352975" y1="150.71938057916879" x2="65.26994759328551" y2="152.27212408895178" class="numbering-line sequential" />
</g><g class="label">
<text x="23.40352647167915" y="97.32195051223522" class="font numbering-label sequential" >20</text>
<line x1="28.33627367959397" y1="96.2743487845346" x2="25.237258790557327" y2="96.93250806476598" class="numbering-line sequential" />
</g><g class="label">
<text x="39.01143472455681" y="69.66206248981484" class="font numbering-label sequential" >30</text>
<line x1="35.373049293949364" y1="73.15371193605316" x2="37.419105880322405" y2="71.19017275554666" class="numbering-line sequential" />
</g><g class="label">
<text x="86.03885033978604" y="71.62643165666049" class="font numbering-label sequential" >50</text>
<line x1="90.98969337758638" y1="72.5848770709313" x2="87.87258265866421" y2="71.9814282337303" class="numbering-line sequential" />
</g><g class="label">
<text x="157.89156580194341" y="204.68315611125774" class="font numbering-label sequential" >100</text>
<line x1="157.2450842199048" y1="199.68200364795916" x2="157.69403230354092" y2="203.15504584552593" class="numbering-line sequential" />
</g></g>

</svg>